<?xml version="1.0" encoding="UTF-8" standalone="no"?>
<!DOCTYPE svg PUBLIC "-//W3C//DTD SVG 1.1//EN" "http://www.w3.org/Graphics/SVG/1.1/DTD/svg11.dtd">
<svg width="100%" height="100%" viewBox="0 0 483 224" version="1.1" xmlns="http://www.w3.org/2000/svg" xmlns:xlink="http://www.w3.org/1999/xlink" xml:space="preserve" xmlns:serif="http://www.serif.com/" style="fill-rule:evenodd;clip-rule:evenodd;stroke-linejoin:round;stroke-miterlimit:10;">
    <g transform="matrix(1.0176,0,0,1.1442,0,0)">
        <rect id="Artboard1" x="0" y="0" width="473.76" height="195.333" style="fill:none;"/>
        <g id="Artboard11" serif:id="Artboard1">
            <g id="Layer-1" serif:id="Layer 1" transform="matrix(0.982701,0,0,0.873973,3.21536,11.5084)">
                <g transform="matrix(1,0,0,1,110.713,10.25)">
                    <path d="M0,132.75L246.417,132.75L246.417,0L0,0L0,56.917L189.583,56.917L189.583,75.833L0,75.833L0,132.75Z" style="fill:rgb(255,156,0);"/>
                </g>
                <g transform="matrix(1,0,0,1,395.463,51.833)">
                    <path d="M0,50L0,-3.833L-19.333,1.167L-19.333,5.167L-4.25,1.25L-4.25,50L-19.333,50L-19.333,53.833L15.5,53.833L15.5,50L0,50Z" style="fill:rgb(255,0,0);"/>
                </g>
                <g transform="matrix(1,0,0,1,435.88,51.75)">
                    <path d="M0,51.083L-3.084,50.833L-6.167,50.083L-8.75,48.666L-10.834,44.833L-10.834,7L-10.084,4.25L-7.917,2.083L-5.167,0.833L-2.417,0.333L0,0.166L0,-3.75L-3.75,-3.584L-6.917,-2.834L-10.334,-1.417L-12.75,0.583L-14.25,3L-15.084,6.333L-15.084,44.75L-14.667,47.166L-12.917,50.166L-10.667,52.25L-7.25,53.75L-3.917,54.583L0,54.833L0,51.083Z" style="fill:rgb(255,0,0);"/>
                </g>
                <g transform="matrix(1,0,0,1,438.546,48)">
                    <path d="M0,58.583L4,58.333L7.25,57.5L9.834,56.416L12.5,54.416L14.417,51.583L15.084,48.5L15.084,10.75L14.584,7.416L12.75,4.333L10.334,2.333L6.917,0.916L3.75,0.166L0,0L0,3.916L3.167,4.166L6.417,5L8.834,6.416L10.917,10.25L10.917,48L10.167,50.75L7.75,53.083L5,54.25L1.834,54.75L0,54.833L0,58.583Z" style="fill:rgb(255,0,0);"/>
                </g>
                <g transform="matrix(24,0,0,24,439.652,178.032)">
                    <path d="M0.236,-0L0.321,-0L0.321,-0.65L0.246,-0.65L0.104,-0.574L0.121,-0.507L0.234,-0.568L0.236,-0.568L0.236,-0Z" style="fill-rule:nonzero;"/>
                </g>
                <g transform="matrix(24,0,0,24,451.964,178.032)">
                    <path d="M0.255,0.011C0.379,0.011 0.476,-0.065 0.476,-0.178C0.476,-0.257 0.426,-0.314 0.345,-0.346L0.345,-0.349C0.425,-0.387 0.452,-0.446 0.452,-0.501C0.452,-0.582 0.389,-0.661 0.263,-0.661C0.149,-0.661 0.062,-0.591 0.062,-0.488C0.062,-0.432 0.093,-0.376 0.165,-0.342L0.166,-0.339C0.086,-0.305 0.037,-0.247 0.037,-0.165C0.037,-0.07 0.119,0.011 0.255,0.011ZM0.257,-0.053C0.174,-0.053 0.124,-0.111 0.127,-0.177C0.127,-0.239 0.168,-0.289 0.244,-0.311C0.332,-0.286 0.387,-0.248 0.387,-0.169C0.387,-0.102 0.336,-0.053 0.257,-0.053ZM0.258,-0.598C0.337,-0.598 0.368,-0.544 0.368,-0.492C0.368,-0.433 0.325,-0.393 0.269,-0.374C0.194,-0.394 0.145,-0.429 0.145,-0.494C0.145,-0.55 0.185,-0.598 0.258,-0.598Z" style="fill-rule:nonzero;"/>
                </g>
                <g transform="matrix(24,0,0,24,104.557,178.032)">
                    <path d="M0.262,-0.661C0.13,-0.661 0.036,-0.541 0.036,-0.323C0.038,-0.108 0.124,0.011 0.251,0.011C0.395,0.011 0.477,-0.111 0.477,-0.332C0.477,-0.539 0.399,-0.661 0.262,-0.661ZM0.257,-0.593C0.348,-0.593 0.389,-0.488 0.389,-0.328C0.389,-0.162 0.346,-0.057 0.256,-0.057C0.176,-0.057 0.124,-0.153 0.124,-0.322C0.124,-0.499 0.18,-0.593 0.257,-0.593Z" style="fill-rule:nonzero;"/>
                </g>
                <g>
                    <g transform="matrix(28,0,0,28,244.47,189.631)">
                        <path d="M0.417,-0.484L0.37,-0.236C0.35,-0.129 0.273,-0.059 0.213,-0.059C0.156,-0.059 0.135,-0.093 0.135,-0.143C0.135,-0.164 0.138,-0.187 0.144,-0.214L0.195,-0.484L0.112,-0.484L0.06,-0.21C0.054,-0.178 0.051,-0.152 0.051,-0.129C0.051,-0.019 0.116,0.011 0.178,0.011C0.242,0.011 0.306,-0.028 0.349,-0.091L0.351,-0.091L0.338,-0L0.413,-0C0.418,-0.04 0.425,-0.087 0.435,-0.141L0.5,-0.484L0.417,-0.484Z" style="fill-rule:nonzero;"/>
                    </g>
                    <g transform="matrix(28,0,0,28,265.134,189.631)">
                        <path d="M0.195,-0.694C0.132,-0.61 0.065,-0.482 0.064,-0.285C0.064,-0.09 0.132,0.038 0.195,0.121L0.264,0.121C0.193,0.021 0.138,-0.107 0.138,-0.285C0.138,-0.466 0.191,-0.596 0.264,-0.694L0.195,-0.694Z" style="fill-rule:nonzero;"/>
                    </g>
                    <g transform="matrix(28,0,0,28,273.086,189.631)">
                        <path d="M0.403,-0.075C0.411,-0.013 0.446,0.011 0.489,0.011C0.503,0.011 0.509,0.01 0.519,0.007L0.526,-0.057C0.491,-0.059 0.48,-0.08 0.48,-0.133L0.48,-0.484L0.393,-0.484L0.393,-0.187C0.393,-0.171 0.39,-0.155 0.385,-0.142C0.369,-0.103 0.327,-0.061 0.269,-0.061C0.192,-0.061 0.16,-0.123 0.16,-0.198L0.16,-0.484L0.073,-0.484L0.073,0.02C0.073,0.097 0.077,0.168 0.087,0.198L0.166,0.198C0.156,0.158 0.155,0.069 0.155,0.016L0.155,-0.044C0.176,-0.007 0.217,0.009 0.261,0.009C0.333,0.009 0.38,-0.037 0.4,-0.075L0.403,-0.075Z" style="fill-rule:nonzero;"/>
                    </g>
                    <g transform="matrix(28,0,0,28,288.57,189.631)">
                        <path d="M0.073,-0L0.159,-0L0.159,-0.292C0.159,-0.307 0.161,-0.322 0.166,-0.335C0.18,-0.379 0.22,-0.423 0.275,-0.423C0.342,-0.423 0.376,-0.367 0.376,-0.29L0.376,-0L0.462,-0L0.462,-0.299C0.462,-0.315 0.465,-0.331 0.469,-0.343C0.484,-0.386 0.523,-0.423 0.573,-0.423C0.644,-0.423 0.678,-0.367 0.678,-0.274L0.678,-0L0.764,-0L0.764,-0.285C0.764,-0.453 0.669,-0.495 0.605,-0.495C0.559,-0.495 0.527,-0.483 0.498,-0.461C0.478,-0.446 0.459,-0.425 0.444,-0.398L0.442,-0.398C0.421,-0.455 0.371,-0.495 0.305,-0.495C0.225,-0.495 0.18,-0.452 0.153,-0.406L0.15,-0.406L0.146,-0.484L0.069,-0.484C0.072,-0.444 0.073,-0.403 0.073,-0.353L0.073,-0Z" style="fill-rule:nonzero;"/>
                    </g>
                    <g transform="matrix(28,0,0,28,311.922,189.631)">
                        <path d="M0.088,0.121C0.152,0.036 0.219,-0.091 0.219,-0.287C0.219,-0.484 0.152,-0.612 0.088,-0.694L0.02,-0.694C0.092,-0.595 0.146,-0.467 0.146,-0.288C0.146,-0.108 0.091,0.022 0.02,0.121L0.088,0.121Z" style="fill-rule:nonzero;"/>
                    </g>
                </g>
                <g transform="matrix(24,0,0,24,78.7842,17.5947)">
                    <path d="M0.057,-0.65L0.057,-0.577L0.375,-0.577L0.375,-0.575L0.093,-0L0.184,-0L0.467,-0.592L0.467,-0.65L0.057,-0.65Z" style="fill-rule:nonzero;"/>
                </g>
                <g transform="matrix(24,0,0,24,78.7842,149.976)">
                    <path d="M0.262,-0.661C0.13,-0.661 0.036,-0.541 0.036,-0.323C0.038,-0.108 0.124,0.011 0.251,0.011C0.395,0.011 0.477,-0.111 0.477,-0.332C0.477,-0.539 0.399,-0.661 0.262,-0.661ZM0.257,-0.593C0.348,-0.593 0.389,-0.488 0.389,-0.328C0.389,-0.162 0.346,-0.057 0.256,-0.057C0.176,-0.057 0.124,-0.153 0.124,-0.322C0.124,-0.499 0.18,-0.593 0.257,-0.593Z" style="fill-rule:nonzero;"/>
                </g>
                <g>
                    <g transform="matrix(28,0,0,28,10.5977,84.666)">
                        <path d="M0.051,-0.484L0.135,-0L0.217,-0L0.486,-0.484L0.395,-0.484L0.247,-0.202C0.219,-0.147 0.206,-0.115 0.196,-0.089L0.193,-0.089C0.191,-0.116 0.185,-0.153 0.178,-0.208L0.136,-0.484L0.051,-0.484Z" style="fill-rule:nonzero;"/>
                    </g>
                    <g transform="matrix(28,0,0,28,29.2737,84.666)">
                        <path d="M0.195,-0.694C0.132,-0.61 0.065,-0.482 0.064,-0.285C0.064,-0.09 0.132,0.038 0.195,0.121L0.264,0.121C0.193,0.021 0.138,-0.107 0.138,-0.285C0.138,-0.466 0.191,-0.596 0.264,-0.694L0.195,-0.694Z" style="fill-rule:nonzero;"/>
                    </g>
                    <g transform="matrix(28,0,0,28,37.2257,84.666)">
                        <path d="M0.403,-0.075C0.411,-0.013 0.446,0.011 0.489,0.011C0.503,0.011 0.509,0.01 0.519,0.007L0.526,-0.057C0.491,-0.059 0.48,-0.08 0.48,-0.133L0.48,-0.484L0.393,-0.484L0.393,-0.187C0.393,-0.171 0.39,-0.155 0.385,-0.142C0.369,-0.103 0.327,-0.061 0.269,-0.061C0.192,-0.061 0.16,-0.123 0.16,-0.198L0.16,-0.484L0.073,-0.484L0.073,0.02C0.073,0.097 0.077,0.168 0.087,0.198L0.166,0.198C0.156,0.158 0.155,0.069 0.155,0.016L0.155,-0.044C0.176,-0.007 0.217,0.009 0.261,0.009C0.333,0.009 0.38,-0.037 0.4,-0.075L0.403,-0.075Z" style="fill-rule:nonzero;"/>
                    </g>
                    <g transform="matrix(28,0,0,28,52.7097,84.666)">
                        <path d="M0.073,-0L0.159,-0L0.159,-0.292C0.159,-0.307 0.161,-0.322 0.166,-0.335C0.18,-0.379 0.22,-0.423 0.275,-0.423C0.342,-0.423 0.376,-0.367 0.376,-0.29L0.376,-0L0.462,-0L0.462,-0.299C0.462,-0.315 0.465,-0.331 0.469,-0.343C0.484,-0.386 0.523,-0.423 0.573,-0.423C0.644,-0.423 0.678,-0.367 0.678,-0.274L0.678,-0L0.764,-0L0.764,-0.285C0.764,-0.453 0.669,-0.495 0.605,-0.495C0.559,-0.495 0.527,-0.483 0.498,-0.461C0.478,-0.446 0.459,-0.425 0.444,-0.398L0.442,-0.398C0.421,-0.455 0.371,-0.495 0.305,-0.495C0.225,-0.495 0.18,-0.452 0.153,-0.406L0.15,-0.406L0.146,-0.484L0.069,-0.484C0.072,-0.444 0.073,-0.403 0.073,-0.353L0.073,-0Z" style="fill-rule:nonzero;"/>
                    </g>
                    <g transform="matrix(28,0,0,28,76.0617,84.666)">
                        <path d="M0.088,0.121C0.152,0.036 0.219,-0.091 0.219,-0.287C0.219,-0.484 0.152,-0.612 0.088,-0.694L0.02,-0.694C0.092,-0.595 0.146,-0.467 0.146,-0.288C0.146,-0.108 0.091,0.022 0.02,0.121L0.088,0.121Z" style="fill-rule:nonzero;"/>
                    </g>
                </g>
                <g transform="matrix(0,-1,-1,0,416.875,151.588)">
                    <path d="M-2.83,2.83L2.83,2.83" style="fill:none;fill-rule:nonzero;stroke:black;stroke-width:0.5px;"/>
                </g>
                <g transform="matrix(0,-1,-1,0,265.208,151.588)">
                    <path d="M-2.83,2.83L2.83,2.83" style="fill:none;fill-rule:nonzero;stroke:black;stroke-width:0.5px;"/>
                </g>
                <g transform="matrix(0,-1,-1,0,227.292,151.588)">
                    <path d="M-2.83,2.83L2.83,2.83" style="fill:none;fill-rule:nonzero;stroke:black;stroke-width:0.5px;"/>
                </g>
                <g transform="matrix(0,-1,-1,0,189.375,151.588)">
                    <path d="M-2.83,2.83L2.83,2.83" style="fill:none;fill-rule:nonzero;stroke:black;stroke-width:0.5px;"/>
                </g>
                <g transform="matrix(0,-1,-1,0,378.958,151.588)">
                    <path d="M-2.83,2.83L2.83,2.83" style="fill:none;fill-rule:nonzero;stroke:black;stroke-width:0.5px;"/>
                </g>
                <g transform="matrix(0,-1,-1,0,341.042,151.588)">
                    <path d="M-2.83,2.83L2.83,2.83" style="fill:none;fill-rule:nonzero;stroke:black;stroke-width:0.5px;"/>
                </g>
                <g transform="matrix(0,-1,-1,0,303.126,151.588)">
                    <path d="M-2.83,2.83L2.83,2.83" style="fill:none;fill-rule:nonzero;stroke:black;stroke-width:0.5px;"/>
                </g>
                <g transform="matrix(0,-1,-1,0,151.459,151.588)">
                    <path d="M-2.83,2.83L2.83,2.83" style="fill:none;fill-rule:nonzero;stroke:black;stroke-width:0.5px;"/>
                </g>
                <g transform="matrix(1,0,0,1,110.713,154.417)">
                    <path d="M0,-5.659L0,0L341.25,0L341.25,-5.659" style="fill:none;fill-rule:nonzero;stroke:black;stroke-width:0.5px;"/>
                </g>
                <g transform="matrix(1,0,0,1,98.4883,48.1782)">
                    <path d="M0,0L5.23,0" style="fill:none;fill-rule:nonzero;stroke:black;stroke-width:0.5px;"/>
                </g>
                <g transform="matrix(1,0,0,1,98.4883,29.2139)">
                    <path d="M0,0L5.23,0" style="fill:none;fill-rule:nonzero;stroke:black;stroke-width:0.5px;"/>
                </g>
                <g transform="matrix(1,0,0,1,98.4883,67.1426)">
                    <path d="M0,0L5.23,0" style="fill:none;fill-rule:nonzero;stroke:black;stroke-width:0.5px;"/>
                </g>
                <g transform="matrix(1,0,0,1,98.4883,86.1074)">
                    <path d="M0,0L5.23,0" style="fill:none;fill-rule:nonzero;stroke:black;stroke-width:0.5px;"/>
                </g>
                <g transform="matrix(1,0,0,1,98.4883,105.071)">
                    <path d="M0,0L5.23,0" style="fill:none;fill-rule:nonzero;stroke:black;stroke-width:0.5px;"/>
                </g>
                <g transform="matrix(1,0,0,1,98.4883,124.036)">
                    <path d="M0,0L5.23,0" style="fill:none;fill-rule:nonzero;stroke:black;stroke-width:0.5px;"/>
                </g>
                <g transform="matrix(1,0,0,1,104.148,143)">
                    <path d="M0,-132.75L-5.66,-132.75L-5.66,0L0,0" style="fill:none;fill-rule:nonzero;stroke:black;stroke-width:0.5px;"/>
                </g>
            </g>
        </g>
    </g>
</svg>
