<?xml version="1.0" encoding="UTF-8" standalone="no"?>
<!DOCTYPE svg PUBLIC "-//W3C//DTD SVG 1.1//EN" "http://www.w3.org/Graphics/SVG/1.1/DTD/svg11.dtd">
<svg width="100%" height="100%" viewBox="0 0 491 228" version="1.1" xmlns="http://www.w3.org/2000/svg" xmlns:xlink="http://www.w3.org/1999/xlink" xml:space="preserve" xmlns:serif="http://www.serif.com/" style="fill-rule:evenodd;clip-rule:evenodd;stroke-linejoin:round;stroke-miterlimit:10;">
    <g transform="matrix(1.03512,0,0,1.08324,0,0)">
        <rect id="Artboard1" x="0" y="0" width="473.667" height="209.833" style="fill:none;"/>
        <g id="Artboard11" serif:id="Artboard1">
            <g id="Layer-1" serif:id="Layer 1" transform="matrix(0.966076,0,0,0.923154,7.48182,9.31076)">
                <g transform="matrix(0,-1,-1,0,431.249,182.078)">
                    <path d="M-3.526,3.526L3.526,3.526" style="fill:none;fill-rule:nonzero;stroke:rgb(35,31,32);stroke-width:0.5px;"/>
                </g>
                <g transform="matrix(0,-1,-1,0,241.062,108.892)">
                    <path d="M-79.73,79.73L79.73,79.73" style="fill:none;fill-rule:nonzero;stroke:black;stroke-width:0.5px;stroke-miterlimit:4;"/>
                </g>
                <g transform="matrix(1,0,0,1,161.333,24.6918)">
                    <path d="M0,5.816L-2.702,7.46L-2.763,7.367L-1.013,2.961C-0.675,1.426 -0.337,-0.109 0,-1.644C0.338,-0.109 0.675,1.426 1.014,2.961L2.763,7.367L2.718,7.46L0,5.816Z" style="fill-rule:nonzero;"/>
                </g>
                <g transform="matrix(1,0,0,1,7.439,178.553)">
                    <path d="M0,0L435.957,0" style="fill:none;fill-rule:nonzero;stroke:black;stroke-width:0.5px;stroke-miterlimit:4;"/>
                </g>
                <g transform="matrix(1,0,0,1,442.049,178.553)">
                    <path d="M0,0L-1.643,-2.702L-1.551,-2.764L2.855,-1.013C4.391,-0.675 5.926,-0.338 7.461,0C5.926,0.339 4.391,0.675 2.855,1.014L-1.551,2.764L-1.643,2.718L0,0Z" style="fill-rule:nonzero;"/>
                </g>
                <g transform="matrix(1,0,0,1,427.723,45.3587)">
                    <path d="M0,133.194L-0.155,130.253L-0.309,127.464L-0.62,124.675L-1.085,121.889L-1.55,119.101L-2.168,116.312L-2.944,113.524L-3.873,110.738L-4.956,107.95L-6.041,105.161L-7.28,102.374L-8.674,99.741L-10.065,96.953L-11.616,94.165L-13.319,91.531L-15.178,88.9L-17.192,86.266L-19.205,83.632L-21.373,81.001L-23.541,78.368L-25.864,75.89L-28.344,73.411L-30.975,70.779L-33.609,68.3L-36.551,65.977L-39.34,63.499L-42.437,61.176L-45.534,58.698L-48.632,56.374L-51.885,54.206L-55.291,51.883L-58.854,49.715L-62.416,47.547L-66.134,45.379L-69.85,43.211L-73.721,41.196L-77.594,39.183L-81.621,37.17L-85.647,35.312L-89.83,33.453L-94.166,31.594L-98.502,29.736L-102.838,28.032L-107.332,26.329L-111.978,24.625L-116.625,23.076L-121.27,21.373L-126.07,19.979L-130.871,18.43L-135.674,17.036L-140.628,15.642L-145.584,14.403L-150.696,13.164L-155.807,11.925L-160.918,10.84L-166.184,9.757L-171.451,8.672L-176.717,7.743L-181.979,6.814L-187.403,5.884L-192.825,5.111L-198.243,4.336L-203.665,3.716L-209.085,3.096L-214.663,2.477L-220.237,2.012L-225.814,1.548L-231.388,1.083L-236.965,0.774L-242.54,0.465L-248.114,0.309L-253.845,0L-276.302,0L-282.031,0.153L-287.607,0.309L-293.183,0.618L-298.758,0.928L-304.334,1.238L-309.91,1.703L-315.485,2.168L-321.061,2.788L-326.484,3.406L-332.059,4.026L-337.479,4.8L-342.898,5.575L-348.321,6.349L-353.585,7.278L-358.853,8.208L-364.119,9.137L-369.382,10.221L-374.493,11.305L-379.761,12.545L-384.715,13.783L-389.827,15.022L-394.785,16.416L-399.584,17.81" style="fill:none;fill-rule:nonzero;stroke:rgb(255,156,0);stroke-width:1px;"/>
                </g>
                <g transform="matrix(-0.756129,-0.654423,-0.654423,0.756129,69.7863,11.2439)">
                    <path d="M-178.711,66.597L24.817,66.597" style="fill:none;fill-rule:nonzero;stroke:black;stroke-width:0.5px;stroke-dasharray:1,2;"/>
                </g>
                <g transform="matrix(-0.499887,-0.866091,-0.866091,0.499887,161.361,32.2032)">
                    <path d="M-126.738,73.183L42.259,73.183" style="fill:none;fill-rule:nonzero;stroke:black;stroke-width:0.5px;stroke-dasharray:1,2;"/>
                </g>
                <g transform="matrix(-1,0,0,1,161.333,45.3584)">
                    <path d="M-7.051,0L0,0" style="fill:none;fill-rule:nonzero;stroke:rgb(35,31,32);stroke-width:0.5px;"/>
                </g>
                <g>
                    <g transform="matrix(24,0,0,24,421.459,201.833)">
                        <path d="M0.426,-0C0.424,-0.054 0.431,-0.14 0.447,-0.224L0.496,-0.476C0.463,-0.487 0.412,-0.495 0.366,-0.495C0.155,-0.495 0.031,-0.317 0.031,-0.149C0.031,-0.057 0.085,0.011 0.17,0.011C0.239,0.011 0.305,-0.025 0.358,-0.125L0.36,-0.125C0.354,-0.075 0.349,-0.029 0.349,-0L0.426,-0ZM0.375,-0.276C0.351,-0.147 0.269,-0.057 0.2,-0.057C0.136,-0.057 0.117,-0.11 0.117,-0.164C0.118,-0.298 0.22,-0.429 0.345,-0.429C0.373,-0.429 0.391,-0.425 0.403,-0.422L0.375,-0.276Z" style="fill-rule:nonzero;"/>
                    </g>
                    <g transform="matrix(28,0,0,28,452.927,186.324)">
                        <path d="M0.417,-0.484L0.37,-0.236C0.35,-0.129 0.273,-0.059 0.213,-0.059C0.156,-0.059 0.135,-0.093 0.135,-0.143C0.135,-0.164 0.138,-0.187 0.144,-0.214L0.195,-0.484L0.112,-0.484L0.06,-0.21C0.054,-0.178 0.051,-0.152 0.051,-0.129C0.051,-0.019 0.116,0.011 0.178,0.011C0.242,0.011 0.306,-0.028 0.349,-0.091L0.351,-0.091L0.338,-0L0.413,-0C0.418,-0.04 0.425,-0.087 0.435,-0.141L0.5,-0.484L0.417,-0.484Z" style="fill-rule:nonzero;"/>
                    </g>
                </g>
                <g transform="matrix(28,0,0,28,154.963,18.833)">
                    <path d="M0.051,-0.484L0.135,-0L0.217,-0L0.486,-0.484L0.395,-0.484L0.247,-0.202C0.219,-0.147 0.206,-0.115 0.196,-0.089L0.193,-0.089C0.191,-0.116 0.185,-0.153 0.178,-0.208L0.136,-0.484L0.051,-0.484Z" style="fill-rule:nonzero;"/>
                </g>
                <g transform="matrix(24,0,0,24,171.056,65.9297)">
                    <path d="M0.159,-0.71L0.054,-0.189C0.05,-0.166 0.046,-0.137 0.046,-0.114C0.046,-0.024 0.11,0.011 0.195,0.011C0.389,0.011 0.496,-0.173 0.496,-0.321C0.496,-0.407 0.456,-0.495 0.35,-0.495C0.285,-0.495 0.223,-0.461 0.18,-0.396L0.178,-0.396L0.242,-0.71L0.159,-0.71ZM0.148,-0.238C0.172,-0.352 0.246,-0.426 0.318,-0.426C0.384,-0.426 0.41,-0.37 0.41,-0.31C0.41,-0.203 0.334,-0.054 0.209,-0.054C0.157,-0.054 0.131,-0.08 0.131,-0.126C0.13,-0.151 0.133,-0.171 0.137,-0.187L0.148,-0.238Z" style="fill-rule:nonzero;"/>
                </g>
                <g transform="matrix(1,0,0,1,132.069,167.546)">
                    <path d="M0,-22.386C7.814,-29.24 18.053,-33.393 29.263,-33.393C53.784,-33.393 73.663,-13.515 73.663,11.007" style="fill:none;fill-rule:nonzero;stroke:black;stroke-width:0.5px;stroke-miterlimit:4;"/>
                </g>
                <g transform="matrix(1,0,0,1,133.126,146.41)">
                    <path d="M0,-2.097L-0.695,-5.183L-0.804,-5.162L-2.757,-0.842C-3.627,0.466 -4.497,1.776 -5.366,3.086C-4.027,2.262 -2.688,1.438 -1.35,0.615L3.036,-1.188L3.07,-1.284L0,-2.097Z" style="fill-rule:nonzero;"/>
                </g>
                <g transform="matrix(1,0,0,1,122.328,169.549)">
                    <path d="M0,-70.794C11.774,-76.56 25.012,-79.797 39.005,-79.797C88.048,-79.797 127.805,-40.04 127.805,9.003" style="fill:none;fill-rule:nonzero;stroke:black;stroke-width:0.5px;stroke-miterlimit:4;"/>
                </g>
                <g transform="matrix(1,0,0,1,123.556,98.4644)">
                    <path d="M0,-0.271L0.214,-3.426L0.104,-3.438L-3,0.146C-4.208,1.152 -5.414,2.16 -6.621,3.167C-5.103,2.759 -3.585,2.351 -2.066,1.944L2.65,1.467L2.711,1.384L0,-0.271Z" style="fill-rule:nonzero;"/>
                </g>
                <g transform="matrix(1,0,0,1,176.158,175.428)">
                    <path d="M0,-24.242C-0.525,-23.926 -1.237,-23.611 -2.051,-23.295L-2.577,-19.64C-3.391,-19.431 -4.18,-19.14 -4.993,-18.746C-8.122,-17.221 -9.859,-14.541 -9.859,-11.253C-9.859,-8.441 -8.202,-6.967 -5.127,-6.967L-4.653,-6.997C-4.942,-5.444 -5.39,-3.263 -5.862,-1.132L-6.073,-0.16L-5.89,0C-5.336,-0.185 -4.811,-0.317 -3.968,-0.448L-2.891,-7.229C-1.628,-7.521 -0.394,-8.018 0.631,-8.704C2.971,-10.256 4.628,-13.252 4.628,-15.961C4.628,-18.431 2.788,-19.929 -0.211,-19.929L-0.683,-19.903C-0.366,-21.611 -0.103,-22.691 0.289,-23.848L0,-24.242ZM2.628,-15.566C2.628,-13.015 1.157,-10.226 -0.683,-8.836C-1.237,-8.441 -1.945,-8.149 -2.76,-8.018C-2.708,-8.361 -2.628,-8.676 -2.603,-8.809L-2.128,-11.596C-1.917,-12.804 -1.737,-13.829 -1.103,-17.512L-0.866,-18.906C1.366,-18.721 2.628,-17.563 2.628,-15.566M-7.859,-11.226C-7.859,-14.172 -6.019,-17.381 -3.996,-18.484C-3.68,-18.643 -3.234,-18.772 -2.708,-18.851L-4.494,-7.994C-6.887,-8.256 -7.859,-9.335 -7.859,-11.226" style="fill-rule:nonzero;"/>
                </g>
                <g transform="matrix(1,0,0,1,187.181,154.626)">
                    <path d="M0,-7.199C0.103,-7.449 0.185,-7.637 0.185,-7.845C0.185,-8.449 -0.356,-8.949 -1,-8.949C-1.582,-8.949 -1.958,-8.554 -2.103,-8.012L-4.582,1.085L-4.664,1.375L-3.958,1.75C-3.832,1.75 -3.811,1.688 -3.685,1.417L0,-7.199Z" style="fill-rule:nonzero;"/>
                </g>
                <g transform="matrix(1,0,0,1,201.135,126.487)">
                    <path d="M0,-18.981C-1.128,-18.981 -2.285,-18.429 -3.494,-17.244C-5.833,-15.01 -7.57,-11.04 -7.57,-6.203C-7.57,-2.024 -6.73,0 -4.519,0C-3.128,0 -1.497,-0.973 -0.263,-2.549C1.525,-4.837 3.157,-9.174 3.157,-13.145C3.157,-16.799 2.157,-18.981 0,-18.981M-2.26,-8.963C-0.472,-8.963 0.263,-8.885 0.711,-8.674C0.134,-6.02 -0.84,-3.652 -1.68,-2.287C-2.206,-1.472 -2.917,-0.999 -3.705,-0.999C-5.282,-0.999 -5.571,-3.023 -5.571,-6.151C-5.571,-6.966 -5.519,-7.808 -5.388,-8.648C-4.836,-8.885 -4.128,-8.963 -2.26,-8.963M-0.654,-17.981C1,-17.981 1.16,-15.827 1.16,-12.565C1.16,-11.831 1.105,-11.068 1,-10.331C0.474,-10.148 -0.34,-10.068 -2.077,-10.068C-3.865,-10.068 -4.625,-10.148 -5.099,-10.331C-4.417,-13.434 -3.205,-16.273 -2.26,-17.376C-1.891,-17.77 -1.288,-17.981 -0.654,-17.981" style="fill-rule:nonzero;"/>
                </g>
            </g>
        </g>
    </g>
</svg>
