<?xml version="1.0" encoding="UTF-8" standalone="no"?>
<!DOCTYPE svg PUBLIC "-//W3C//DTD SVG 1.1//EN" "http://www.w3.org/Graphics/SVG/1.1/DTD/svg11.dtd">
<svg width="100%" height="100%" viewBox="0 0 453 884" version="1.1" xmlns="http://www.w3.org/2000/svg" xmlns:xlink="http://www.w3.org/1999/xlink" xml:space="preserve" xmlns:serif="http://www.serif.com/" style="fill-rule:evenodd;clip-rule:evenodd;stroke-miterlimit:10;">
    <g transform="matrix(0.989999,0,0,0.962718,0,0)">
        <rect id="Artboard1" x="0" y="0" width="456.667" height="917.714" style="fill:none;"/>
        <g id="Artboard11" serif:id="Artboard1">
            <g id="Layer-1" serif:id="Layer 1" transform="matrix(1.0101,0,0,1.03873,-0.747706,-8.56819)">
                <g>
                    <g transform="matrix(28,0,0,28,15.4287,432.909)">
                        <path d="M0.051,-0.484L0.135,-0L0.217,-0L0.486,-0.484L0.395,-0.484L0.247,-0.202C0.219,-0.147 0.206,-0.115 0.196,-0.089L0.193,-0.089C0.191,-0.116 0.185,-0.153 0.178,-0.208L0.136,-0.484L0.051,-0.484Z" style="fill-rule:nonzero;"/>
                    </g>
                    <g transform="matrix(28,0,0,28,34.1047,432.909)">
                        <path d="M0.195,-0.694C0.132,-0.61 0.065,-0.482 0.064,-0.285C0.064,-0.09 0.132,0.038 0.195,0.121L0.264,0.121C0.193,0.021 0.138,-0.107 0.138,-0.285C0.138,-0.466 0.191,-0.596 0.264,-0.694L0.195,-0.694Z" style="fill-rule:nonzero;"/>
                    </g>
                    <g transform="matrix(28,0,0,28,42.0567,432.909)">
                        <path d="M0.403,-0.075C0.411,-0.013 0.446,0.011 0.489,0.011C0.503,0.011 0.509,0.01 0.519,0.007L0.526,-0.057C0.491,-0.059 0.48,-0.08 0.48,-0.133L0.48,-0.484L0.393,-0.484L0.393,-0.187C0.393,-0.171 0.39,-0.155 0.385,-0.142C0.369,-0.103 0.327,-0.061 0.269,-0.061C0.192,-0.061 0.16,-0.123 0.16,-0.198L0.16,-0.484L0.073,-0.484L0.073,0.02C0.073,0.097 0.077,0.168 0.087,0.198L0.166,0.198C0.156,0.158 0.155,0.069 0.155,0.016L0.155,-0.044C0.176,-0.007 0.217,0.009 0.261,0.009C0.333,0.009 0.38,-0.037 0.4,-0.075L0.403,-0.075Z" style="fill-rule:nonzero;"/>
                    </g>
                    <g transform="matrix(28,0,0,28,57.5407,432.909)">
                        <path d="M0.073,-0L0.159,-0L0.159,-0.292C0.159,-0.307 0.161,-0.322 0.166,-0.335C0.18,-0.379 0.22,-0.423 0.275,-0.423C0.342,-0.423 0.376,-0.367 0.376,-0.29L0.376,-0L0.462,-0L0.462,-0.299C0.462,-0.315 0.465,-0.331 0.469,-0.343C0.484,-0.386 0.523,-0.423 0.573,-0.423C0.644,-0.423 0.678,-0.367 0.678,-0.274L0.678,-0L0.764,-0L0.764,-0.285C0.764,-0.453 0.669,-0.495 0.605,-0.495C0.559,-0.495 0.527,-0.483 0.498,-0.461C0.478,-0.446 0.459,-0.425 0.444,-0.398L0.442,-0.398C0.421,-0.455 0.371,-0.495 0.305,-0.495C0.225,-0.495 0.18,-0.452 0.153,-0.406L0.15,-0.406L0.146,-0.484L0.069,-0.484C0.072,-0.444 0.073,-0.403 0.073,-0.353L0.073,-0Z" style="fill-rule:nonzero;"/>
                    </g>
                    <g transform="matrix(28,0,0,28,80.8927,432.909)">
                        <path d="M0.088,0.121C0.152,0.036 0.219,-0.091 0.219,-0.287C0.219,-0.484 0.152,-0.612 0.088,-0.694L0.02,-0.694C0.092,-0.595 0.146,-0.467 0.146,-0.288C0.146,-0.108 0.091,0.022 0.02,0.121L0.088,0.121Z" style="fill-rule:nonzero;"/>
                    </g>
                </g>
                <g transform="matrix(24,0,0,24,178.104,845.553)">
                    <path d="M0.46,-0L0.46,-0.073L0.168,-0.073L0.168,-0.075L0.22,-0.123C0.357,-0.255 0.444,-0.352 0.444,-0.472C0.444,-0.565 0.385,-0.661 0.245,-0.661C0.17,-0.661 0.106,-0.633 0.061,-0.595L0.089,-0.533C0.119,-0.558 0.168,-0.588 0.227,-0.588C0.324,-0.588 0.356,-0.527 0.356,-0.461C0.355,-0.363 0.28,-0.279 0.114,-0.121L0.045,-0.054L0.045,-0L0.46,-0Z" style="fill-rule:nonzero;"/>
                </g>
                <g transform="matrix(24,0,0,24,190.416,845.553)">
                    <path d="M0.433,-0.65L0.122,-0.65L0.08,-0.338C0.104,-0.341 0.133,-0.345 0.17,-0.345C0.3,-0.345 0.356,-0.285 0.357,-0.201C0.357,-0.114 0.286,-0.06 0.203,-0.06C0.144,-0.06 0.091,-0.08 0.064,-0.096L0.042,-0.029C0.073,-0.009 0.133,0.011 0.204,0.011C0.345,0.011 0.446,-0.084 0.446,-0.211C0.446,-0.293 0.404,-0.349 0.353,-0.378C0.313,-0.402 0.263,-0.413 0.213,-0.413C0.189,-0.413 0.175,-0.411 0.16,-0.409L0.185,-0.576L0.433,-0.576L0.433,-0.65Z" style="fill-rule:nonzero;"/>
                </g>
                <g transform="matrix(24,0,0,24,202.728,845.553)">
                    <path d="M0.262,-0.661C0.13,-0.661 0.036,-0.541 0.036,-0.323C0.038,-0.108 0.124,0.011 0.251,0.011C0.395,0.011 0.477,-0.111 0.477,-0.332C0.477,-0.539 0.399,-0.661 0.262,-0.661ZM0.257,-0.593C0.348,-0.593 0.389,-0.488 0.389,-0.328C0.389,-0.162 0.346,-0.057 0.256,-0.057C0.176,-0.057 0.124,-0.153 0.124,-0.322C0.124,-0.499 0.18,-0.593 0.257,-0.593Z" style="fill-rule:nonzero;"/>
                </g>
                <g transform="matrix(24,0,0,24,215.04,845.553)">
                    <path d="M0.262,-0.661C0.13,-0.661 0.036,-0.541 0.036,-0.323C0.038,-0.108 0.124,0.011 0.251,0.011C0.395,0.011 0.477,-0.111 0.477,-0.332C0.477,-0.539 0.399,-0.661 0.262,-0.661ZM0.257,-0.593C0.348,-0.593 0.389,-0.488 0.389,-0.328C0.389,-0.162 0.346,-0.057 0.256,-0.057C0.176,-0.057 0.124,-0.153 0.124,-0.322C0.124,-0.499 0.18,-0.593 0.257,-0.593Z" style="fill-rule:nonzero;"/>
                </g>
                <g transform="matrix(24,0,0,24,387.502,845.553)">
                    <path d="M0.46,-0L0.46,-0.073L0.168,-0.073L0.168,-0.075L0.22,-0.123C0.357,-0.255 0.444,-0.352 0.444,-0.472C0.444,-0.565 0.385,-0.661 0.245,-0.661C0.17,-0.661 0.106,-0.633 0.061,-0.595L0.089,-0.533C0.119,-0.558 0.168,-0.588 0.227,-0.588C0.324,-0.588 0.356,-0.527 0.356,-0.461C0.355,-0.363 0.28,-0.279 0.114,-0.121L0.045,-0.054L0.045,-0L0.46,-0Z" style="fill-rule:nonzero;"/>
                </g>
                <g transform="matrix(24,0,0,24,399.814,845.553)">
                    <path d="M0.433,-0.65L0.122,-0.65L0.08,-0.338C0.104,-0.341 0.133,-0.345 0.17,-0.345C0.3,-0.345 0.356,-0.285 0.357,-0.201C0.357,-0.114 0.286,-0.06 0.203,-0.06C0.144,-0.06 0.091,-0.08 0.064,-0.096L0.042,-0.029C0.073,-0.009 0.133,0.011 0.204,0.011C0.345,0.011 0.446,-0.084 0.446,-0.211C0.446,-0.293 0.404,-0.349 0.353,-0.378C0.313,-0.402 0.263,-0.413 0.213,-0.413C0.189,-0.413 0.175,-0.411 0.16,-0.409L0.185,-0.576L0.433,-0.576L0.433,-0.65Z" style="fill-rule:nonzero;"/>
                </g>
                <g transform="matrix(24,0,0,24,412.126,845.553)">
                    <path d="M0.4,-0L0.4,-0.177L0.491,-0.177L0.491,-0.246L0.4,-0.246L0.4,-0.65L0.305,-0.65L0.015,-0.235L0.015,-0.177L0.317,-0.177L0.317,-0L0.4,-0ZM0.104,-0.246L0.104,-0.248L0.263,-0.469C0.281,-0.499 0.297,-0.527 0.317,-0.565L0.32,-0.565C0.318,-0.531 0.317,-0.497 0.317,-0.463L0.317,-0.246L0.104,-0.246Z" style="fill-rule:nonzero;"/>
                </g>
                <g transform="matrix(24,0,0,24,424.438,845.553)">
                    <path d="M0.262,-0.661C0.13,-0.661 0.036,-0.541 0.036,-0.323C0.038,-0.108 0.124,0.011 0.251,0.011C0.395,0.011 0.477,-0.111 0.477,-0.332C0.477,-0.539 0.399,-0.661 0.262,-0.661ZM0.257,-0.593C0.348,-0.593 0.389,-0.488 0.389,-0.328C0.389,-0.162 0.346,-0.057 0.256,-0.057C0.176,-0.057 0.124,-0.153 0.124,-0.322C0.124,-0.499 0.18,-0.593 0.257,-0.593Z" style="fill-rule:nonzero;"/>
                </g>
                <g transform="matrix(24,0,0,24,91.606,827.889)">
                    <path d="M0.46,-0L0.46,-0.073L0.168,-0.073L0.168,-0.075L0.22,-0.123C0.357,-0.255 0.444,-0.352 0.444,-0.472C0.444,-0.565 0.385,-0.661 0.245,-0.661C0.17,-0.661 0.106,-0.633 0.061,-0.595L0.089,-0.533C0.119,-0.558 0.168,-0.588 0.227,-0.588C0.324,-0.588 0.356,-0.527 0.356,-0.461C0.355,-0.363 0.28,-0.279 0.114,-0.121L0.045,-0.054L0.045,-0L0.46,-0Z" style="fill-rule:nonzero;"/>
                </g>
                <g transform="matrix(24,0,0,24,103.918,827.889)">
                    <path d="M0.433,-0.65L0.122,-0.65L0.08,-0.338C0.104,-0.341 0.133,-0.345 0.17,-0.345C0.3,-0.345 0.356,-0.285 0.357,-0.201C0.357,-0.114 0.286,-0.06 0.203,-0.06C0.144,-0.06 0.091,-0.08 0.064,-0.096L0.042,-0.029C0.073,-0.009 0.133,0.011 0.204,0.011C0.345,0.011 0.446,-0.084 0.446,-0.211C0.446,-0.293 0.404,-0.349 0.353,-0.378C0.313,-0.402 0.263,-0.413 0.213,-0.413C0.189,-0.413 0.175,-0.411 0.16,-0.409L0.185,-0.576L0.433,-0.576L0.433,-0.65Z" style="fill-rule:nonzero;"/>
                </g>
                <g transform="matrix(24,0,0,24,116.23,827.889)">
                    <path d="M0.262,-0.661C0.13,-0.661 0.036,-0.541 0.036,-0.323C0.038,-0.108 0.124,0.011 0.251,0.011C0.395,0.011 0.477,-0.111 0.477,-0.332C0.477,-0.539 0.399,-0.661 0.262,-0.661ZM0.257,-0.593C0.348,-0.593 0.389,-0.488 0.389,-0.328C0.389,-0.162 0.346,-0.057 0.256,-0.057C0.176,-0.057 0.124,-0.153 0.124,-0.322C0.124,-0.499 0.18,-0.593 0.257,-0.593Z" style="fill-rule:nonzero;"/>
                </g>
                <g transform="matrix(24,0,0,24,128.542,827.889)">
                    <path d="M0.262,-0.661C0.13,-0.661 0.036,-0.541 0.036,-0.323C0.038,-0.108 0.124,0.011 0.251,0.011C0.395,0.011 0.477,-0.111 0.477,-0.332C0.477,-0.539 0.399,-0.661 0.262,-0.661ZM0.257,-0.593C0.348,-0.593 0.389,-0.488 0.389,-0.328C0.389,-0.162 0.346,-0.057 0.256,-0.057C0.176,-0.057 0.124,-0.153 0.124,-0.322C0.124,-0.499 0.18,-0.593 0.257,-0.593Z" style="fill-rule:nonzero;"/>
                </g>
                <g transform="matrix(24,0,0,24,91.606,567.201)">
                    <path d="M0.46,-0L0.46,-0.073L0.168,-0.073L0.168,-0.075L0.22,-0.123C0.357,-0.255 0.444,-0.352 0.444,-0.472C0.444,-0.565 0.385,-0.661 0.245,-0.661C0.17,-0.661 0.106,-0.633 0.061,-0.595L0.089,-0.533C0.119,-0.558 0.168,-0.588 0.227,-0.588C0.324,-0.588 0.356,-0.527 0.356,-0.461C0.355,-0.363 0.28,-0.279 0.114,-0.121L0.045,-0.054L0.045,-0L0.46,-0Z" style="fill-rule:nonzero;"/>
                </g>
                <g transform="matrix(24,0,0,24,103.918,567.201)">
                    <path d="M0.433,-0.65L0.122,-0.65L0.08,-0.338C0.104,-0.341 0.133,-0.345 0.17,-0.345C0.3,-0.345 0.356,-0.285 0.357,-0.201C0.357,-0.114 0.286,-0.06 0.203,-0.06C0.144,-0.06 0.091,-0.08 0.064,-0.096L0.042,-0.029C0.073,-0.009 0.133,0.011 0.204,0.011C0.345,0.011 0.446,-0.084 0.446,-0.211C0.446,-0.293 0.404,-0.349 0.353,-0.378C0.313,-0.402 0.263,-0.413 0.213,-0.413C0.189,-0.413 0.175,-0.411 0.16,-0.409L0.185,-0.576L0.433,-0.576L0.433,-0.65Z" style="fill-rule:nonzero;"/>
                </g>
                <g transform="matrix(24,0,0,24,116.23,567.201)">
                    <path d="M0.433,-0.65L0.122,-0.65L0.08,-0.338C0.104,-0.341 0.133,-0.345 0.17,-0.345C0.3,-0.345 0.356,-0.285 0.357,-0.201C0.357,-0.114 0.286,-0.06 0.203,-0.06C0.144,-0.06 0.091,-0.08 0.064,-0.096L0.042,-0.029C0.073,-0.009 0.133,0.011 0.204,0.011C0.345,0.011 0.446,-0.084 0.446,-0.211C0.446,-0.293 0.404,-0.349 0.353,-0.378C0.313,-0.402 0.263,-0.413 0.213,-0.413C0.189,-0.413 0.175,-0.411 0.16,-0.409L0.185,-0.576L0.433,-0.576L0.433,-0.65Z" style="fill-rule:nonzero;"/>
                </g>
                <g transform="matrix(24,0,0,24,128.542,567.201)">
                    <path d="M0.262,-0.661C0.13,-0.661 0.036,-0.541 0.036,-0.323C0.038,-0.108 0.124,0.011 0.251,0.011C0.395,0.011 0.477,-0.111 0.477,-0.332C0.477,-0.539 0.399,-0.661 0.262,-0.661ZM0.257,-0.593C0.348,-0.593 0.389,-0.488 0.389,-0.328C0.389,-0.162 0.346,-0.057 0.256,-0.057C0.176,-0.057 0.124,-0.153 0.124,-0.322C0.124,-0.499 0.18,-0.593 0.257,-0.593Z" style="fill-rule:nonzero;"/>
                </g>
                <g transform="matrix(24,0,0,24,91.6147,303.941)">
                    <path d="M0.46,-0L0.46,-0.073L0.168,-0.073L0.168,-0.075L0.22,-0.123C0.357,-0.255 0.444,-0.352 0.444,-0.472C0.444,-0.565 0.385,-0.661 0.245,-0.661C0.17,-0.661 0.106,-0.633 0.061,-0.595L0.089,-0.533C0.119,-0.558 0.168,-0.588 0.227,-0.588C0.324,-0.588 0.356,-0.527 0.356,-0.461C0.355,-0.363 0.28,-0.279 0.114,-0.121L0.045,-0.054L0.045,-0L0.46,-0Z" style="fill-rule:nonzero;"/>
                </g>
                <g transform="matrix(24,0,0,24,103.927,303.941)">
                    <path d="M0.416,-0.66C0.4,-0.66 0.378,-0.659 0.352,-0.655C0.27,-0.645 0.198,-0.612 0.144,-0.559C0.08,-0.495 0.034,-0.394 0.034,-0.266C0.034,-0.097 0.125,0.011 0.264,0.011C0.399,0.011 0.48,-0.099 0.48,-0.218C0.48,-0.345 0.399,-0.428 0.284,-0.428C0.212,-0.428 0.158,-0.394 0.127,-0.353L0.124,-0.353C0.139,-0.46 0.212,-0.561 0.35,-0.584C0.375,-0.588 0.398,-0.589 0.416,-0.588L0.416,-0.66ZM0.264,-0.057C0.172,-0.057 0.123,-0.136 0.121,-0.243C0.121,-0.259 0.125,-0.272 0.131,-0.282C0.155,-0.329 0.204,-0.362 0.257,-0.362C0.338,-0.362 0.391,-0.306 0.391,-0.213C0.391,-0.12 0.34,-0.057 0.264,-0.057Z" style="fill-rule:nonzero;"/>
                </g>
                <g transform="matrix(24,0,0,24,116.239,303.941)">
                    <path d="M0.262,-0.661C0.13,-0.661 0.036,-0.541 0.036,-0.323C0.038,-0.108 0.124,0.011 0.251,0.011C0.395,0.011 0.477,-0.111 0.477,-0.332C0.477,-0.539 0.399,-0.661 0.262,-0.661ZM0.257,-0.593C0.348,-0.593 0.389,-0.488 0.389,-0.328C0.389,-0.162 0.346,-0.057 0.256,-0.057C0.176,-0.057 0.124,-0.153 0.124,-0.322C0.124,-0.499 0.18,-0.593 0.257,-0.593Z" style="fill-rule:nonzero;"/>
                </g>
                <g transform="matrix(24,0,0,24,128.551,303.941)">
                    <path d="M0.262,-0.661C0.13,-0.661 0.036,-0.541 0.036,-0.323C0.038,-0.108 0.124,0.011 0.251,0.011C0.395,0.011 0.477,-0.111 0.477,-0.332C0.477,-0.539 0.399,-0.661 0.262,-0.661ZM0.257,-0.593C0.348,-0.593 0.389,-0.488 0.389,-0.328C0.389,-0.162 0.346,-0.057 0.256,-0.057C0.176,-0.057 0.124,-0.153 0.124,-0.322C0.124,-0.499 0.18,-0.593 0.257,-0.593Z" style="fill-rule:nonzero;"/>
                </g>
                <g transform="matrix(24,0,0,24,91.6147,41.4046)">
                    <path d="M0.46,-0L0.46,-0.073L0.168,-0.073L0.168,-0.075L0.22,-0.123C0.357,-0.255 0.444,-0.352 0.444,-0.472C0.444,-0.565 0.385,-0.661 0.245,-0.661C0.17,-0.661 0.106,-0.633 0.061,-0.595L0.089,-0.533C0.119,-0.558 0.168,-0.588 0.227,-0.588C0.324,-0.588 0.356,-0.527 0.356,-0.461C0.355,-0.363 0.28,-0.279 0.114,-0.121L0.045,-0.054L0.045,-0L0.46,-0Z" style="fill-rule:nonzero;"/>
                </g>
                <g transform="matrix(24,0,0,24,103.927,41.4046)">
                    <path d="M0.416,-0.66C0.4,-0.66 0.378,-0.659 0.352,-0.655C0.27,-0.645 0.198,-0.612 0.144,-0.559C0.08,-0.495 0.034,-0.394 0.034,-0.266C0.034,-0.097 0.125,0.011 0.264,0.011C0.399,0.011 0.48,-0.099 0.48,-0.218C0.48,-0.345 0.399,-0.428 0.284,-0.428C0.212,-0.428 0.158,-0.394 0.127,-0.353L0.124,-0.353C0.139,-0.46 0.212,-0.561 0.35,-0.584C0.375,-0.588 0.398,-0.589 0.416,-0.588L0.416,-0.66ZM0.264,-0.057C0.172,-0.057 0.123,-0.136 0.121,-0.243C0.121,-0.259 0.125,-0.272 0.131,-0.282C0.155,-0.329 0.204,-0.362 0.257,-0.362C0.338,-0.362 0.391,-0.306 0.391,-0.213C0.391,-0.12 0.34,-0.057 0.264,-0.057Z" style="fill-rule:nonzero;"/>
                </g>
                <g transform="matrix(24,0,0,24,116.239,41.4046)">
                    <path d="M0.433,-0.65L0.122,-0.65L0.08,-0.338C0.104,-0.341 0.133,-0.345 0.17,-0.345C0.3,-0.345 0.356,-0.285 0.357,-0.201C0.357,-0.114 0.286,-0.06 0.203,-0.06C0.144,-0.06 0.091,-0.08 0.064,-0.096L0.042,-0.029C0.073,-0.009 0.133,0.011 0.204,0.011C0.345,0.011 0.446,-0.084 0.446,-0.211C0.446,-0.293 0.404,-0.349 0.353,-0.378C0.313,-0.402 0.263,-0.413 0.213,-0.413C0.189,-0.413 0.175,-0.411 0.16,-0.409L0.185,-0.576L0.433,-0.576L0.433,-0.65Z" style="fill-rule:nonzero;"/>
                </g>
                <g transform="matrix(24,0,0,24,128.551,41.4046)">
                    <path d="M0.262,-0.661C0.13,-0.661 0.036,-0.541 0.036,-0.323C0.038,-0.108 0.124,0.011 0.251,0.011C0.395,0.011 0.477,-0.111 0.477,-0.332C0.477,-0.539 0.399,-0.661 0.262,-0.661ZM0.257,-0.593C0.348,-0.593 0.389,-0.488 0.389,-0.328C0.389,-0.162 0.346,-0.057 0.256,-0.057C0.176,-0.057 0.124,-0.153 0.124,-0.322C0.124,-0.499 0.18,-0.593 0.257,-0.593Z" style="fill-rule:nonzero;"/>
                </g>
                <g>
                    <g transform="matrix(28,0,0,28,269.725,872.152)">
                        <path d="M0.417,-0.484L0.37,-0.236C0.35,-0.129 0.273,-0.059 0.213,-0.059C0.156,-0.059 0.135,-0.093 0.135,-0.143C0.135,-0.164 0.138,-0.187 0.144,-0.214L0.195,-0.484L0.112,-0.484L0.06,-0.21C0.054,-0.178 0.051,-0.152 0.051,-0.129C0.051,-0.019 0.116,0.011 0.178,0.011C0.242,0.011 0.306,-0.028 0.349,-0.091L0.351,-0.091L0.338,-0L0.413,-0C0.418,-0.04 0.425,-0.087 0.435,-0.141L0.5,-0.484L0.417,-0.484Z" style="fill-rule:nonzero;"/>
                    </g>
                    <g transform="matrix(28,0,0,28,290.389,872.152)">
                        <path d="M0.195,-0.694C0.132,-0.61 0.065,-0.482 0.064,-0.285C0.064,-0.09 0.132,0.038 0.195,0.121L0.264,0.121C0.193,0.021 0.138,-0.107 0.138,-0.285C0.138,-0.466 0.191,-0.596 0.264,-0.694L0.195,-0.694Z" style="fill-rule:nonzero;"/>
                    </g>
                    <g transform="matrix(28,0,0,28,298.341,872.152)">
                        <path d="M0.403,-0.075C0.411,-0.013 0.446,0.011 0.489,0.011C0.503,0.011 0.509,0.01 0.519,0.007L0.526,-0.057C0.491,-0.059 0.48,-0.08 0.48,-0.133L0.48,-0.484L0.393,-0.484L0.393,-0.187C0.393,-0.171 0.39,-0.155 0.385,-0.142C0.369,-0.103 0.327,-0.061 0.269,-0.061C0.192,-0.061 0.16,-0.123 0.16,-0.198L0.16,-0.484L0.073,-0.484L0.073,0.02C0.073,0.097 0.077,0.168 0.087,0.198L0.166,0.198C0.156,0.158 0.155,0.069 0.155,0.016L0.155,-0.044C0.176,-0.007 0.217,0.009 0.261,0.009C0.333,0.009 0.38,-0.037 0.4,-0.075L0.403,-0.075Z" style="fill-rule:nonzero;"/>
                    </g>
                    <g transform="matrix(28,0,0,28,313.825,872.152)">
                        <path d="M0.073,-0L0.159,-0L0.159,-0.292C0.159,-0.307 0.161,-0.322 0.166,-0.335C0.18,-0.379 0.22,-0.423 0.275,-0.423C0.342,-0.423 0.376,-0.367 0.376,-0.29L0.376,-0L0.462,-0L0.462,-0.299C0.462,-0.315 0.465,-0.331 0.469,-0.343C0.484,-0.386 0.523,-0.423 0.573,-0.423C0.644,-0.423 0.678,-0.367 0.678,-0.274L0.678,-0L0.764,-0L0.764,-0.285C0.764,-0.453 0.669,-0.495 0.605,-0.495C0.559,-0.495 0.527,-0.483 0.498,-0.461C0.478,-0.446 0.459,-0.425 0.444,-0.398L0.442,-0.398C0.421,-0.455 0.371,-0.495 0.305,-0.495C0.225,-0.495 0.18,-0.452 0.153,-0.406L0.15,-0.406L0.146,-0.484L0.069,-0.484C0.072,-0.444 0.073,-0.403 0.073,-0.353L0.073,-0Z" style="fill-rule:nonzero;"/>
                    </g>
                    <g transform="matrix(28,0,0,28,337.177,872.152)">
                        <path d="M0.088,0.121C0.152,0.036 0.219,-0.091 0.219,-0.287C0.219,-0.484 0.152,-0.612 0.088,-0.694L0.02,-0.694C0.092,-0.595 0.146,-0.467 0.146,-0.288C0.146,-0.108 0.091,0.022 0.02,0.121L0.088,0.121Z" style="fill-rule:nonzero;"/>
                    </g>
                </g>
                <g transform="matrix(1,0,0,1,412.124,817.655)">
                    <path d="M0,-5.659L0,0L-209.397,0L-209.397,-5.659" style="fill:none;fill-rule:nonzero;stroke:black;stroke-width:0.5px;"/>
                </g>
                <g transform="matrix(0,-1,-1,0,310.255,814.826)">
                    <path d="M-2.83,2.83L2.83,2.83" style="fill:none;fill-rule:nonzero;stroke:black;stroke-width:0.5px;"/>
                </g>
                <g transform="matrix(1,0,0,1,148.148,293.703)">
                    <path d="M0,0L5.23,0" style="fill:none;fill-rule:nonzero;stroke:black;stroke-width:0.5px;"/>
                </g>
                <g transform="matrix(1,0,0,1,202.727,728.58)">
                    <path d="M0,36.611L36.611,36.611L36.611,0L0,0L0,15.625L20.757,15.625L20.757,20.757L0,20.757L0,36.611Z" style="fill:rgb(120,255,0);"/>
                </g>
                <g transform="matrix(-1,0,0,1,383.304,576.289)">
                    <rect x="191.07" y="162.783" width="1.164" height="15.859" style="fill:rgb(255,0,0);"/>
                </g>
                <g transform="matrix(1,0,0,1,186.638,749.801)">
                    <path d="M0,-10.729L1.17,-10.729L-2.328,-1.165L3.498,-1.165L3.498,0L-3.727,0L-3.727,-1.165L0,-10.729Z" style="fill:rgb(255,0,0);"/>
                </g>
                <g transform="matrix(1,0,0,1,202.727,676.115)">
                    <path d="M0,36.611L47.104,36.611L47.104,0L0,0L0,15.625L31.25,15.625L31.25,20.986L0,20.986L0,36.611Z" style="fill:rgb(120,255,0);"/>
                </g>
                <g transform="matrix(1,0,0,1,192.234,693.373)">
                    <path d="M0,2.328L0,6.296L-0.229,7.224L-0.7,8.159L-1.164,8.624L-1.864,9.094L-3.028,9.323L-5.826,9.323L-6.996,9.094L-7.695,8.624L-8.395,8.159L-8.859,7.46L-9.094,6.761L-9.094,-4.667L-8.859,-5.366L-8.16,-6.067L-7.46,-6.53L-6.525,-6.766L-5.597,-6.995L-3.962,-6.995L-2.798,-6.766L-2.099,-6.53L-1.164,-6.067L-0.7,-5.597L-0.465,-4.897L-0.229,-4.433L-0.229,-3.033L-1.399,-3.033L-1.399,-4.197L-1.864,-4.897L-2.563,-5.366L-3.498,-5.831L-5.126,-5.831L-6.061,-5.597L-6.996,-5.366L-7.46,-4.667L-7.925,-3.968L-7.925,6.296L-7.695,7.224L-6.996,7.695L-6.061,8.159L-5.126,8.394L-4.197,8.394L-3.263,8.159L-2.563,7.925L-1.629,7.46L-1.164,6.761L-1.164,2.798L-1.399,1.863L-2.099,1.399L-3.028,0.929L-5.597,0.929L-6.525,1.164L-7.225,1.399L-7.225,0.229L-6.296,0L-5.597,-0.235L-3.498,-0.235L-2.563,0L-1.629,0.229L-0.929,0.699L-0.229,1.629L0,2.328Z" style="fill:rgb(255,0,0);"/>
                </g>
                <g transform="matrix(1,0,0,1,202.727,623.649)">
                    <path d="M0,36.846L57.597,36.846L57.597,0L0,0L0,15.86L41.743,15.86L41.743,20.986L0,20.986L0,36.846Z" style="fill:rgb(120,255,0);"/>
                </g>
                <g transform="matrix(1,0,0,1,190.136,642.766)">
                    <path d="M0,-1.158L0.699,-1.393L1.399,-1.857L1.634,-2.557L1.869,-3.492L1.869,-6.525L1.399,-7.224L0.935,-7.924L0,-8.387L-0.929,-8.624L-2.099,-8.624L-2.099,-7.689L-1.164,-7.454L-0.229,-7.224L0.235,-6.525L0.699,-5.825L0.699,-3.726L0.47,-3.027L0,-2.328L-0.7,-1.857L-1.629,-1.628L-3.728,-1.628L-4.427,-1.857L-5.126,-2.328L-5.597,-3.257L-5.597,-6.29L-4.897,-6.989L-4.197,-7.454L-3.498,-7.454L-3.028,-7.689L-3.028,-8.624L-3.962,-8.624L-4.662,-8.387L-5.597,-8.153L-6.296,-7.689L-6.761,-6.989L-6.996,-6.054L-6.996,-3.726L-6.761,-2.792L-6.525,-2.093L-5.826,-1.393L-4.897,-1.158L-6.061,-0.693L-6.525,-0.229L-6.996,0.705L-6.996,5.367L-6.525,6.067L-6.061,6.767L-5.126,7.238L-4.197,7.466L-3.028,7.466L-3.028,6.537L-3.728,6.302L-4.427,6.067L-5.361,5.603L-5.826,4.904L-5.826,1.405L-5.597,0.705L-5.126,0.006L-4.427,-0.459L-1.399,-0.459L-0.465,-0.229L0.235,0.241L0.699,0.941L0.699,4.668L0.47,5.367L-0.229,6.067L-1.164,6.302L-1.629,6.537L-2.099,6.537L-2.099,7.466L-1.164,7.466L-0.229,7.238L0.47,7.001L1.169,6.537L1.869,5.837L2.099,4.904L2.099,1.405L1.869,0.705L1.634,-0.229L0.935,-0.693L0,-1.158Z" style="fill:rgb(255,0,0);"/>
                </g>
                <g transform="matrix(1,0,0,1,202.727,571.419)">
                    <path d="M0,36.61L68.09,36.61L68.09,0L0,0L0,15.625L52.236,15.625L52.236,20.986L0,20.986L0,36.61Z" style="fill:rgb(120,255,0);"/>
                </g>
                <g transform="matrix(1,0,0,1,176.145,583.078)">
                    <path d="M0,13.525L0,-1.164L-5.361,-0.001L-5.361,1.168L-1.164,0.233L-1.164,13.525L-5.361,13.525L-5.361,14.689L4.197,14.689L4.197,13.525L0,13.525Z" style="fill:rgb(255,0,0);"/>
                </g>
                <g transform="matrix(1,0,0,1,187.337,582.841)">
                    <path d="M0,13.996L-0.929,13.996L-1.864,13.762L-2.563,13.526L-3.028,12.362L-3.028,1.869L-2.798,1.17L-2.328,0.47L-1.628,0.235L-0.7,0.006L0,0.006L0,-1.164L-1.164,-0.929L-2.099,-0.694L-3.028,-0.465L-3.727,0.235L-3.962,0.705L-4.197,1.634L-4.197,13.06L-3.727,13.762L-3.028,14.461L-2.099,14.926L-1.164,15.16L0,15.16L0,13.996Z" style="fill:rgb(255,0,0);"/>
                </g>
                <g transform="matrix(1,0,0,1,188.037,581.677)">
                    <path d="M0,16.324L0.935,16.324L1.869,16.09L2.568,15.625L3.498,15.16L3.968,14.461L4.197,13.526L4.197,3.033L3.968,2.098L3.498,1.399L2.798,0.699L1.869,0.47L0.935,0.235L0,0L0,1.17L0.699,1.17L1.634,1.399L2.333,1.869L3.033,3.033L3.033,13.291L2.798,14.225L2.099,14.69L1.399,15.16L0,15.16L0,16.324Z" style="fill:rgb(255,0,0);"/>
                </g>
                <g transform="matrix(1,0,0,1,202.727,518.954)">
                    <path d="M0,36.611L78.583,36.611L78.583,0L0,0L0,15.854L62.726,15.854L62.726,20.986L0,20.986L0,36.611Z" style="fill:rgb(120,255,0);"/>
                </g>
                <g transform="matrix(1,0,0,1,175.915,530.375)">
                    <path d="M0,13.997L0,-0.929L-5.367,0.471L-5.367,1.635L-1.17,0.471L-1.17,13.997L-5.367,13.997L-5.367,14.926L4.197,14.926L4.197,13.997L0,13.997Z" style="fill:rgb(255,0,0);"/>
                </g>
                <g transform="matrix(1,0,0,1,184.539,533.639)">
                    <path d="M0,6.536L0,10.733L7.695,10.733L7.695,11.662L-1.399,11.662L-1.399,6.765L-1.164,5.837L-0.464,5.366L0.47,4.667L1.399,4.437L2.334,4.202L3.033,3.967L3.968,3.738L4.897,3.503L5.597,3.038L6.296,2.568L6.296,-1.859L5.597,-2.558L4.897,-3.029L3.968,-3.258L1.869,-3.258L1.17,-3.029L0.47,-2.793L-0.229,-2.094L-0.464,-1.16L-0.464,0.469L-1.628,0.469L-1.628,-1.859L-1.164,-2.793L-0.464,-3.493L0.235,-3.957L1.17,-4.193L2.099,-4.427L3.033,-4.427L4.197,-4.193L4.897,-4.193L6.066,-3.728L6.766,-3.258L7.23,-2.558L7.466,-1.629L7.466,2.803L6.996,3.503L6.296,4.202L5.597,4.437L4.667,4.667L3.498,5.136L2.569,5.366L1.634,5.601L0.7,5.837L0,6.536Z" style="fill:rgb(255,0,0);"/>
                </g>
                <g transform="matrix(1,0,0,1,202.727,466.724)">
                    <path d="M0,36.605L88.844,36.605L88.844,0L0,0L0,15.619L73.219,15.619L73.219,20.751L0,20.751L0,36.605Z" style="fill:rgb(120,255,0);"/>
                </g>
                <g transform="matrix(1,0,0,1,176.844,478.145)">
                    <path d="M0,13.761L0,-1.164L-5.361,0.236L-5.361,1.4L-1.164,0.236L-1.164,13.761L-5.361,13.761L-5.361,14.925L4.197,14.925L4.197,13.761L0,13.761Z" style="fill:rgb(255,0,0);"/>
                </g>
                <g transform="matrix(-1,0,0,1,383.304,52.574)">
                    <rect x="191.07" y="424.643" width="1.164" height="15.854" style="fill:rgb(255,0,0);"/>
                </g>
                <g transform="matrix(1,0,0,1,186.638,487.939)">
                    <path d="M0,-10.722L1.17,-10.722L-2.328,-1.164L3.498,-1.164L3.498,0L-3.727,0L-3.727,-1.164L0,-10.722Z" style="fill:rgb(255,0,0);"/>
                </g>
                <g transform="matrix(1,0,0,1,202.727,414.253)">
                    <path d="M0,36.61L99.337,36.61L99.337,0L0,0L0,15.624L83.712,15.624L83.712,20.991L0,20.991L0,36.61Z" style="fill:rgb(120,255,0);"/>
                </g>
                <g transform="matrix(1,0,0,1,176.145,425.916)">
                    <path d="M0,13.526L0,-1.164L-5.361,0.235L-5.361,1.164L-1.164,0.235L-1.164,13.526L-5.361,13.526L-5.361,14.69L4.197,14.69L4.197,13.526L0,13.526Z" style="fill:rgb(255,0,0);"/>
                </g>
                <g transform="matrix(1,0,0,1,192.234,431.513)">
                    <path d="M0,2.332L0,6.295L-0.229,7.229L-0.7,7.929L-1.164,8.628L-1.864,9.093L-3.028,9.328L-5.826,9.328L-6.996,9.093L-7.695,8.628L-8.395,8.158L-8.859,7.459L-9.094,6.529L-9.094,-4.663L-8.859,-5.362L-8.16,-6.063L-7.46,-6.532L-6.525,-6.762L-5.597,-6.996L-3.962,-6.996L-2.798,-6.762L-2.099,-6.532L-1.164,-6.063L-0.7,-5.598L-0.465,-5.133L-0.229,-4.434L-0.229,-3.034L-1.399,-3.034L-1.399,-4.198L-1.864,-4.898L-2.563,-5.362L-3.498,-5.832L-5.126,-5.832L-6.061,-5.598L-6.996,-5.362L-7.46,-4.898L-7.925,-3.964L-7.925,6.295L-7.695,7.229L-6.996,7.693L-6.061,8.158L-5.126,8.394L-4.197,8.394L-3.263,8.158L-2.563,7.929L-1.629,7.459L-1.164,6.759L-1.164,2.797L-1.399,1.862L-2.099,1.163L-3.028,0.934L-3.962,0.698L-4.897,0.698L-5.597,0.934L-6.525,1.163L-7.225,1.397L-7.225,0.233L-6.296,-0.001L-5.597,-0.236L-3.498,-0.236L-2.563,-0.001L-1.629,0.233L-0.929,0.698L-0.229,1.633L0,2.332Z" style="fill:rgb(255,0,0);"/>
                </g>
                <g transform="matrix(1,0,0,1,202.727,361.787)">
                    <path d="M0,36.612L109.831,36.612L109.831,0L0,0L0,15.859L94.206,15.859L94.206,20.986L0,20.986L0,36.612Z" style="fill:rgb(120,255,0);"/>
                </g>
                <g transform="matrix(1,0,0,1,176.145,373.214)">
                    <path d="M0,13.99L0,-0.935L-5.361,0.464L-5.361,1.634L-1.164,0.464L-1.164,13.99L-5.361,13.99L-5.361,14.925L4.197,14.925L4.197,13.99L0,13.99Z" style="fill:rgb(255,0,0);"/>
                </g>
                <g transform="matrix(1,0,0,1,190.136,380.903)">
                    <path d="M0,-1.159L0.699,-1.393L1.399,-1.858L1.634,-2.793L1.869,-3.492L1.869,-6.525L1.399,-7.225L0.935,-7.925L0,-8.389L-0.929,-8.624L-2.099,-8.624L-2.099,-7.689L-1.164,-7.455L-0.229,-7.225L0.235,-6.525L0.699,-5.826L0.699,-3.727L0.47,-3.028L0,-2.328L-0.7,-1.858L-1.629,-1.629L-3.728,-1.629L-4.427,-1.858L-5.126,-2.557L-5.597,-3.258L-5.597,-6.291L-4.897,-6.99L-4.197,-7.455L-3.498,-7.689L-3.028,-7.689L-3.028,-8.624L-3.962,-8.624L-4.662,-8.389L-5.597,-8.154L-6.296,-7.689L-6.761,-6.99L-6.996,-6.291L-6.996,-3.727L-6.761,-3.028L-6.525,-2.094L-5.826,-1.629L-4.897,-1.159L-6.061,-0.694L-6.525,-0.229L-6.996,0.47L-6.996,5.366L-6.525,6.067L-6.061,6.766L-5.126,7.236L-4.197,7.465L-3.028,7.465L-3.028,6.536L-3.728,6.301L-4.427,6.067L-5.361,5.602L-5.826,4.903L-5.826,1.404L-5.597,0.705L-5.126,0.005L-4.427,-0.459L-3.498,-0.694L-2.099,-0.694L-1.399,-0.459L-0.465,-0.229L0.235,0.24L0.699,0.94L0.699,4.667L0.47,5.366L-0.229,6.067L-1.164,6.301L-1.629,6.536L-2.099,6.536L-2.099,7.465L-1.164,7.465L-0.229,7.236L0.47,7.001L1.169,6.536L1.869,5.837L2.099,4.903L2.099,1.404L1.869,0.47L1.634,-0.229L0.935,-0.694L0,-1.159Z" style="fill:rgb(255,0,0);"/>
                </g>
                <g transform="matrix(1,0,0,1,202.727,309.558)">
                    <path d="M0,36.61L120.323,36.61L120.323,0L0,0L0,15.624L104.699,15.624L104.699,20.751L0,20.751L0,36.61Z" style="fill:rgb(120,255,0);"/>
                </g>
                <g transform="matrix(1,0,0,1,172.882,324.476)">
                    <path d="M0,6.767L0,10.264L7.695,10.264L7.695,11.428L-1.164,11.428L-1.164,6.532L-0.935,5.603L-0.465,4.903L0.464,4.433L1.634,3.968L2.333,3.968L3.263,3.734L3.962,3.504L4.896,3.034L5.831,2.804L6.296,2.105L6.296,-2.328L5.831,-3.027L4.896,-3.262L4.197,-3.492L2.099,-3.492L1.164,-3.262L0.464,-3.027L0,-2.328L-0.235,-1.393L-0.235,0.236L-1.399,0.236L-1.399,-2.328L-1.164,-3.262L-0.465,-3.726L0.235,-4.191L1.399,-4.661L4.197,-4.661L5.132,-4.426L6.061,-4.191L6.76,-3.726L7.46,-3.027L7.695,-2.092L7.695,1.635L7.46,2.57L6.995,3.269L6.296,3.734L5.596,4.204L4.662,4.433L3.498,4.668L2.798,4.903L1.863,5.132L0.935,5.603L0.235,6.067L0,6.767Z" style="fill:rgb(255,0,0);"/>
                </g>
                <g transform="matrix(1,0,0,1,187.337,320.98)">
                    <path d="M0,13.996L-0.929,13.996L-1.864,13.761L-2.563,13.297L-3.028,12.362L-3.028,1.869L-2.798,1.169L-2.328,0.47L-1.628,0.234L-0.7,0.005L0,0.005L0,-1.164L-1.164,-0.93L-2.099,-0.93L-3.028,-0.465L-3.727,0.234L-3.962,0.705L-4.197,1.634L-4.197,13.061L-3.727,13.761L-3.028,14.461L-2.099,14.925L-1.164,14.925L0,15.16L0,13.996Z" style="fill:rgb(255,0,0);"/>
                </g>
                <g transform="matrix(1,0,0,1,188.037,319.816)">
                    <path d="M0,16.324L0.935,16.089L1.869,16.089L2.568,15.625L3.498,15.16L3.968,14.225L4.197,13.526L4.197,3.033L3.968,2.098L3.498,1.398L2.798,0.699L1.869,0.234L0.935,0.234L0,0L0,1.169L0.699,1.169L1.634,1.398L2.333,1.869L3.033,2.798L3.033,13.291L2.798,14.225L2.099,14.69L1.399,15.16L0,15.16L0,16.324Z" style="fill:rgb(255,0,0);"/>
                </g>
                <g transform="matrix(1,0,0,1,202.727,257.092)">
                    <path d="M0,36.611L130.816,36.611L130.816,0L0,0L0,15.625L115.192,15.625L115.192,20.986L0,20.986L0,36.611Z" style="fill:rgb(120,255,0);"/>
                </g>
                <g transform="matrix(1,0,0,1,172.183,272.012)">
                    <path d="M0,6.766L0,10.498L7.695,10.498L7.695,11.428L-1.399,11.428L-1.399,6.532L-1.164,5.602L-0.464,4.903L0.464,4.433L1.399,4.203L2.333,3.968L3.263,3.733L3.962,3.503L4.897,3.269L5.832,2.804L6.296,2.334L6.296,-2.092L5.832,-2.793L4.897,-3.262L4.197,-3.492L2.099,-3.492L1.164,-3.262L0.464,-3.027L0,-2.328L-0.235,-1.393L-0.235,0.236L-1.399,0.236L-1.399,-2.092L-1.164,-3.027L-0.464,-3.727L0.235,-4.191L1.399,-4.426L2.099,-4.662L4.197,-4.662L5.132,-4.426L6.061,-4.191L6.76,-3.727L7.23,-3.027L7.695,-2.092L7.695,1.87L7.46,2.569L6.996,3.269L6.296,3.733L5.596,4.203L4.662,4.433L3.498,4.903L2.798,4.903L1.864,5.368L0.935,5.602L0.235,6.302L0,6.766Z" style="fill:rgb(255,0,0);"/>
                </g>
                <g transform="matrix(1,0,0,1,184.539,272.012)">
                    <path d="M0,6.302L0,10.498L7.695,10.498L7.695,11.428L-1.399,11.428L-1.399,6.532L-1.164,5.602L-0.464,4.903L0.47,4.433L1.399,4.203L2.334,3.968L3.033,3.733L3.968,3.503L4.897,3.269L5.597,2.804L6.296,2.334L6.296,-2.092L5.597,-2.793L4.897,-3.262L3.968,-3.492L1.869,-3.492L1.17,-3.262L0.47,-3.027L-0.229,-2.328L-0.464,-1.393L-0.464,0.236L-1.628,0.236L-1.628,-2.092L-1.164,-3.027L-0.464,-3.727L0.235,-4.191L1.17,-4.426L2.099,-4.662L4.197,-4.662L4.897,-4.426L6.066,-4.191L6.766,-3.727L7.23,-3.027L7.466,-2.092L7.466,2.569L6.996,3.269L6.296,3.733L5.597,4.203L4.667,4.433L3.498,4.903L2.569,4.903L1.634,5.368L0.7,5.602L0,6.302Z" style="fill:rgb(255,0,0);"/>
                </g>
                <g transform="matrix(1,0,0,1,202.727,204.627)">
                    <path d="M0,36.84L141.309,36.84L141.309,0L0,0L0,15.855L125.684,15.855L125.684,20.986L0,20.986L0,36.84Z" style="fill:rgb(120,255,0);"/>
                </g>
                <g transform="matrix(1,0,0,1,173.117,219.547)">
                    <path d="M0,7L0,10.498L7.695,10.498L7.695,11.427L-1.169,11.427L-1.169,6.766L-0.935,5.831L-0.47,5.132L0.464,4.667L1.399,4.202L2.328,3.967L3.263,3.732L3.962,3.503L4.897,3.268L5.826,2.803L6.296,2.333L6.296,-2.094L5.826,-2.793L4.897,-3.263L4.197,-3.263L3.028,-3.492L2.099,-3.263L1.164,-3.263L0.464,-2.793L0,-2.094L-0.235,-1.394L-0.235,0.234L-1.399,0.234L-1.399,-2.094L-1.169,-3.028L-0.47,-3.728L0.229,-3.963L1.399,-4.427L5.126,-4.427L6.061,-3.963L6.76,-3.492L7.46,-2.793L7.695,-1.864L7.695,1.869L7.46,2.801L6.995,3.5L6.296,3.967L5.596,4.202L4.662,4.667L3.498,4.901L2.798,5.132L1.864,5.366L0.929,5.831L0.229,6.301L0,7Z" style="fill:rgb(255,0,0);"/>
                </g>
                <g transform="matrix(-1,0,0,1,383.304,-471.385)">
                    <rect x="191.07" y="686.74" width="1.164" height="15.619" style="fill:rgb(255,0,0);"/>
                </g>
                <g transform="matrix(1,0,0,1,186.638,226.078)">
                    <path d="M0,-10.723L1.17,-10.723L-2.328,-1.164L3.498,-1.164L3.498,0L-3.727,0L-3.727,-1.164L0,-10.723Z" style="fill:rgb(255,0,0);"/>
                </g>
                <g transform="matrix(1,0,0,1,202.727,152.395)">
                    <path d="M0,36.608L151.802,36.608L151.802,0L0,0L0,15.623L136.177,15.623L136.177,20.986L0,20.986L0,36.608Z" style="fill:rgb(120,255,0);"/>
                </g>
                <g transform="matrix(1,0,0,1,172.882,167.317)">
                    <path d="M0,6.764L0,10.261L7.695,10.261L7.695,11.427L-1.164,11.427L-1.164,6.53L-0.935,5.597L-0.235,4.898L0.464,4.431L1.634,4.198L2.563,3.965L3.263,3.732L3.962,3.498L4.896,3.266L5.831,2.799L6.531,2.099L6.531,-1.398L6.296,-2.331L5.831,-3.03L4.896,-3.263L4.197,-3.497L2.099,-3.497L1.399,-3.263L0.464,-3.03L0,-2.331L-0.235,-1.398L-0.235,0.234L-1.399,0.234L-1.399,-2.331L-0.935,-3.03L-0.465,-3.729L0.235,-4.197L1.399,-4.429L2.333,-4.663L4.432,-4.663L5.132,-4.429L6.061,-4.197L6.76,-3.729L7.46,-3.03L7.695,-2.098L7.695,1.633L7.46,2.567L6.995,3.266L6.296,3.732L5.596,4.198L4.662,4.431L3.498,4.665L2.798,4.898L1.863,5.131L0.935,5.597L0.235,6.296L0,6.764Z" style="fill:rgb(255,0,0);"/>
                </g>
                <g transform="matrix(1,0,0,1,192.234,169.65)">
                    <path d="M0,2.333L0,6.296L-0.229,7.229L-0.7,7.929L-1.164,8.629L-1.864,8.86L-3.028,9.095L-4.197,9.328L-5.826,9.328L-6.996,9.095L-7.695,8.629L-8.395,8.161L-8.859,7.462L-9.094,6.53L-9.094,-4.663L-8.859,-5.362L-8.16,-6.062L-7.46,-6.529L-6.525,-6.762L-5.597,-6.995L-3.962,-6.995L-2.798,-6.762L-2.099,-6.529L-1.164,-6.062L-0.7,-5.596L-0.465,-5.13L-0.229,-4.431L-0.229,-3.031L-1.399,-3.031L-1.399,-4.197L-1.864,-5.13L-2.563,-5.596L-3.498,-5.829L-5.126,-5.829L-6.061,-5.596L-6.996,-5.362L-7.46,-4.896L-7.925,-3.963L-7.925,6.296L-7.695,7.229L-6.996,7.695L-6.061,8.161L-3.263,8.161L-2.563,7.929L-1.629,7.462L-1.164,6.762L-1.164,2.565L-1.399,1.865L-2.099,1.166L-3.028,0.934L-3.962,0.7L-4.897,0.7L-5.597,0.934L-6.525,1.166L-7.225,1.399L-7.225,0.234L-6.296,0L-5.597,-0.233L-3.498,-0.233L-2.563,0L-1.629,0.234L-0.929,0.7L-0.229,1.633L0,2.333Z" style="fill:rgb(255,0,0);"/>
                </g>
                <g transform="matrix(1,0,0,1,202.727,99.9302)">
                    <path d="M0,36.608L162.295,36.608L162.295,0L0,0L0,15.856L146.67,15.856L146.67,20.986L0,20.986L0,36.608Z" style="fill:rgb(120,255,0);"/>
                </g>
                <g transform="matrix(1,0,0,1,172.882,114.621)">
                    <path d="M0,7.227L0,10.725L7.695,10.725L7.695,11.658L-1.164,11.658L-1.164,6.761L-0.935,5.828L-0.465,5.362L0.464,4.663L1.634,4.429L2.333,4.197L3.263,3.963L3.962,3.729L4.896,3.497L5.831,3.03L6.296,2.564L6.296,-1.867L5.831,-2.566L4.896,-3.032L4.197,-3.266L2.099,-3.266L1.164,-3.032L0.464,-2.799L0,-2.099L-0.235,-1.168L-0.235,0.465L-1.399,0.465L-1.399,-1.867L-1.164,-2.799L-0.465,-3.498L0.235,-3.965L1.399,-4.199L2.099,-4.431L3.263,-4.431L4.197,-4.199L5.132,-4.199L6.061,-3.732L6.76,-3.266L7.46,-2.566L7.695,-1.633L7.695,2.097L7.46,2.796L6.995,3.496L6.296,4.195L5.596,4.429L4.662,4.663L3.498,5.128L2.798,5.362L1.863,5.596L0.935,5.828L0.235,6.528L0,7.227Z" style="fill:rgb(255,0,0);"/>
                </g>
                <g transform="matrix(1,0,0,1,190.136,118.817)">
                    <path d="M0,-0.933L0.699,-1.167L1.399,-1.866L1.869,-3.266L1.869,-6.296L1.399,-6.996L0.935,-7.695L0,-8.162L-0.929,-8.394L-1.629,-8.394L-2.099,-8.628L-2.099,-7.463L-1.164,-7.229L-0.229,-6.996L0.235,-6.529L0.699,-5.596L0.699,-3.497L0.47,-2.798L0,-2.099L-0.7,-1.633L-1.629,-1.399L-3.728,-1.399L-4.427,-1.633L-5.126,-2.332L-5.597,-3.032L-5.597,-6.296L-4.897,-6.763L-4.197,-7.229L-3.498,-7.463L-3.028,-7.463L-3.028,-8.628L-3.962,-8.394L-4.662,-8.162L-5.597,-7.929L-6.296,-7.463L-6.761,-6.763L-6.996,-6.063L-6.996,-3.497L-6.761,-2.798L-6.525,-1.866L-5.826,-1.399L-4.897,-0.933L-6.061,-0.467L-6.525,0L-6.996,0.7L-6.996,5.596L-6.525,6.296L-6.061,6.995L-5.126,7.462L-4.197,7.695L-3.028,7.695L-3.028,6.762L-3.728,6.528L-4.427,6.296L-5.361,5.829L-5.826,5.129L-5.826,1.631L-5.597,0.932L-5.126,0.233L-4.427,-0.234L-3.498,-0.467L-1.399,-0.467L-0.465,-0.234L0.235,0.466L0.699,1.166L0.699,4.897L0.47,5.596L-0.229,6.062L-1.164,6.528L-1.629,6.528L-2.099,6.762L-2.099,7.695L-1.164,7.695L-0.229,7.462L0.47,7.228L1.169,6.762L1.869,5.829L2.099,5.129L2.099,1.631L1.869,0.7L1.634,0L0.935,-0.467L0,-0.933Z" style="fill:rgb(255,0,0);"/>
                </g>
                <g transform="matrix(1,0,0,1,202.727,47.6968)">
                    <path d="M0,36.61L172.789,36.61L172.789,0L0,0L0,15.624L156.931,15.624L156.931,20.754L0,20.754L0,36.61Z" style="fill:rgb(120,255,0);"/>
                </g>
                <g transform="matrix(1,0,0,1,179.877,71.2474)">
                    <path d="M0,-11.191L0,-7.461L-0.464,-6.761L-0.935,-6.062L-1.634,-5.828L-0.935,-5.363L-0.235,-4.663L0,-3.964L0.235,-3.264L0.235,0.002L0,0.933L-0.464,1.633L-1.164,2.332L-1.863,2.566L-3.033,2.8L-3.962,3.032L-4.896,3.032L-5.831,2.8L-6.76,2.566L-7.695,2.332L-8.395,1.633L-8.859,0.933L-8.859,-0.932L-7.695,-0.932L-7.695,0.002L-7.46,0.701L-6.995,1.401L-6.061,1.633L-4.896,1.866L-3.263,1.866L-2.333,1.401L-1.634,0.933L-0.935,0.234L-0.935,-3.264L-1.164,-3.964L-1.634,-4.663L-2.333,-4.895L-3.263,-5.129L-6.76,-5.129L-6.76,-6.294L-2.798,-6.294L-2.099,-6.761L-1.399,-7.461L-1.164,-8.16L-1.164,-9.792L-1.399,-10.725L-1.634,-11.425L-2.563,-11.89L-3.263,-12.124L-5.831,-12.124L-6.76,-11.658L-7.46,-11.191L-7.695,-10.259L-7.695,-9.326L-8.859,-9.326L-8.859,-10.259L-8.629,-11.191L-8.395,-12.124L-7.695,-12.59L-6.76,-13.057L-5.831,-13.291L-3.033,-13.291L-1.863,-13.057L-1.164,-12.59L-0.464,-12.124L0,-11.191Z" style="fill:rgb(255,0,0);"/>
                </g>
                <g transform="matrix(1,0,0,1,187.337,59.1219)">
                    <path d="M0,13.992L-0.929,13.992L-1.864,13.759L-2.563,13.292L-3.028,12.359L-3.028,1.867L-2.798,1.167L-2.328,0.467L-1.628,0.234L-0.7,0.001L0,0.001L0,-1.166L-1.164,-1.166L-2.099,-0.932L-3.028,-0.465L-3.727,0.001L-3.962,0.701L-4.197,1.634L-4.197,13.059L-3.727,13.759L-3.028,14.458L-2.099,14.692L-1.164,14.925L0,15.158L0,13.992Z" style="fill:rgb(255,0,0);"/>
                </g>
                <g transform="matrix(1,0,0,1,188.037,57.9564)">
                    <path d="M0,16.323L0.935,16.091L1.869,15.857L2.568,15.623L3.498,15.157L3.968,14.224L4.197,13.525L4.197,3.032L3.968,2.098L3.498,1.167L2.798,0.699L1.869,0.234L0.935,0L0,0L0,1.167L0.699,1.167L1.634,1.399L2.333,1.866L3.033,2.798L3.033,13.291L2.798,13.99L2.099,14.69L1.399,14.924L0.47,15.157L0,15.157L0,16.323Z" style="fill:rgb(255,0,0);"/>
                </g>
                <g transform="matrix(1,0,0,1,148.146,555.679)">
                    <path d="M0,0L5.233,0" style="fill:none;fill-rule:nonzero;stroke:black;stroke-width:0.5px;stroke-linejoin:round;"/>
                </g>
                <g transform="matrix(1,0,0,1,153.379,817.655)">
                    <path d="M0,-785.814L-5.23,-785.814L-5.23,0L0,0" style="fill:none;fill-rule:nonzero;stroke:black;stroke-width:0.5px;"/>
                </g>
            </g>
        </g>
    </g>
</svg>
