<?xml version="1.0" encoding="UTF-8" standalone="no"?>
<!DOCTYPE svg PUBLIC "-//W3C//DTD SVG 1.1//EN" "http://www.w3.org/Graphics/SVG/1.1/DTD/svg11.dtd">
<svg width="100%" height="100%" viewBox="0 0 491 222" version="1.1" xmlns="http://www.w3.org/2000/svg" xmlns:xlink="http://www.w3.org/1999/xlink" xml:space="preserve" xmlns:serif="http://www.serif.com/" style="fill-rule:evenodd;clip-rule:evenodd;stroke-miterlimit:10;">
    <g transform="matrix(1.03554,0,0,1.06394,0,0)">
        <rect id="Artboard1" x="0" y="0" width="473.667" height="208" style="fill:none;"/>
        <g id="Artboard11" serif:id="Artboard1">
            <g id="Layer-1" serif:id="Layer 1" transform="matrix(0.965682,0,0,0.939901,9.84923,5.28623)">
                <g transform="matrix(1,0,0,1,164.545,147.548)">
                    <path d="M0,-5.659L0,0L253.995,0L253.995,-5.659" style="fill:none;fill-rule:nonzero;stroke:rgb(35,31,32);stroke-width:0.5px;"/>
                </g>
                <g>
                    <g transform="matrix(28,0,0,28,3.9756,95.3447)">
                        <path d="M0.051,-0.484L0.135,-0L0.217,-0L0.486,-0.484L0.395,-0.484L0.247,-0.202C0.219,-0.147 0.206,-0.115 0.196,-0.089L0.193,-0.089C0.191,-0.116 0.185,-0.153 0.178,-0.208L0.136,-0.484L0.051,-0.484Z" style="fill-rule:nonzero;"/>
                    </g>
                    <g transform="matrix(28,0,0,28,22.6516,95.3447)">
                        <path d="M0.195,-0.694C0.132,-0.61 0.065,-0.482 0.064,-0.285C0.064,-0.09 0.132,0.038 0.195,0.121L0.264,0.121C0.193,0.021 0.138,-0.107 0.138,-0.285C0.138,-0.466 0.191,-0.596 0.264,-0.694L0.195,-0.694Z" style="fill-rule:nonzero;"/>
                    </g>
                    <g transform="matrix(28,0,0,28,30.6036,95.3447)">
                        <path d="M0.403,-0.075C0.411,-0.013 0.446,0.011 0.489,0.011C0.503,0.011 0.509,0.01 0.519,0.007L0.526,-0.057C0.491,-0.059 0.48,-0.08 0.48,-0.133L0.48,-0.484L0.393,-0.484L0.393,-0.187C0.393,-0.171 0.39,-0.155 0.385,-0.142C0.369,-0.103 0.327,-0.061 0.269,-0.061C0.192,-0.061 0.16,-0.123 0.16,-0.198L0.16,-0.484L0.073,-0.484L0.073,0.02C0.073,0.097 0.077,0.168 0.087,0.198L0.166,0.198C0.156,0.158 0.155,0.069 0.155,0.016L0.155,-0.044C0.176,-0.007 0.217,0.009 0.261,0.009C0.333,0.009 0.38,-0.037 0.4,-0.075L0.403,-0.075Z" style="fill-rule:nonzero;"/>
                    </g>
                    <g transform="matrix(28,0,0,28,46.0876,95.3447)">
                        <path d="M0.073,-0L0.159,-0L0.159,-0.292C0.159,-0.307 0.161,-0.322 0.166,-0.335C0.18,-0.379 0.22,-0.423 0.275,-0.423C0.342,-0.423 0.376,-0.367 0.376,-0.29L0.376,-0L0.462,-0L0.462,-0.299C0.462,-0.315 0.465,-0.331 0.469,-0.343C0.484,-0.386 0.523,-0.423 0.573,-0.423C0.644,-0.423 0.678,-0.367 0.678,-0.274L0.678,-0L0.764,-0L0.764,-0.285C0.764,-0.453 0.669,-0.495 0.605,-0.495C0.559,-0.495 0.527,-0.483 0.498,-0.461C0.478,-0.446 0.459,-0.425 0.444,-0.398L0.442,-0.398C0.421,-0.455 0.371,-0.495 0.305,-0.495C0.225,-0.495 0.18,-0.452 0.153,-0.406L0.15,-0.406L0.146,-0.484L0.069,-0.484C0.072,-0.444 0.073,-0.403 0.073,-0.353L0.073,-0Z" style="fill-rule:nonzero;"/>
                    </g>
                    <g transform="matrix(28,0,0,28,69.4396,95.3447)">
                        <path d="M0.088,0.121C0.152,0.036 0.219,-0.091 0.219,-0.287C0.219,-0.484 0.152,-0.612 0.088,-0.694L0.02,-0.694C0.092,-0.595 0.146,-0.467 0.146,-0.288C0.146,-0.108 0.091,0.022 0.02,0.121L0.088,0.121Z" style="fill-rule:nonzero;"/>
                    </g>
                </g>
                <g transform="matrix(40,0,0,40,144.445,36.6064)">
                    <path d="M0.425,-0.388L0.163,-0.388L0.163,-0.601L0.44,-0.601L0.44,-0.674L0.076,-0.674L0.076,-0L0.455,-0L0.455,-0.073L0.163,-0.073L0.163,-0.316L0.425,-0.316L0.425,-0.388Z" style="fill:rgb(35,31,32);fill-rule:nonzero;"/>
                </g>
                <g transform="matrix(40,0,0,40,164.125,36.6064)">
                    <path d="M0.236,-0L0.321,-0L0.321,-0.65L0.246,-0.65L0.104,-0.574L0.121,-0.507L0.234,-0.568L0.236,-0.568L0.236,-0Z" style="fill:rgb(35,31,32);fill-rule:nonzero;"/>
                </g>
                <g transform="matrix(40,0,0,40,271.445,36.6064)">
                    <path d="M0.425,-0.388L0.163,-0.388L0.163,-0.601L0.44,-0.601L0.44,-0.674L0.076,-0.674L0.076,-0L0.455,-0L0.455,-0.073L0.163,-0.073L0.163,-0.316L0.425,-0.316L0.425,-0.388Z" style="fill:rgb(35,31,32);fill-rule:nonzero;"/>
                </g>
                <g transform="matrix(40,0,0,40,291.125,36.6064)">
                    <path d="M0.46,-0L0.46,-0.073L0.168,-0.073L0.168,-0.075L0.22,-0.123C0.357,-0.255 0.444,-0.352 0.444,-0.472C0.444,-0.565 0.385,-0.661 0.245,-0.661C0.17,-0.661 0.106,-0.633 0.061,-0.595L0.089,-0.533C0.119,-0.558 0.168,-0.588 0.227,-0.588C0.324,-0.588 0.356,-0.527 0.356,-0.461C0.355,-0.363 0.28,-0.279 0.114,-0.121L0.045,-0.054L0.045,-0L0.46,-0Z" style="fill:rgb(35,31,32);fill-rule:nonzero;"/>
                </g>
                <g transform="matrix(40,0,0,40,398.445,36.6064)">
                    <path d="M0.425,-0.388L0.163,-0.388L0.163,-0.601L0.44,-0.601L0.44,-0.674L0.076,-0.674L0.076,-0L0.455,-0L0.455,-0.073L0.163,-0.073L0.163,-0.316L0.425,-0.316L0.425,-0.388Z" style="fill:rgb(35,31,32);fill-rule:nonzero;"/>
                </g>
                <g transform="matrix(40,0,0,40,418.125,36.6064)">
                    <path d="M0.042,-0.033C0.074,-0.012 0.138,0.011 0.211,0.011C0.367,0.011 0.448,-0.08 0.448,-0.184C0.448,-0.275 0.383,-0.335 0.303,-0.351L0.303,-0.353C0.383,-0.382 0.423,-0.439 0.423,-0.506C0.423,-0.585 0.365,-0.661 0.237,-0.661C0.167,-0.661 0.101,-0.636 0.067,-0.611L0.09,-0.547C0.118,-0.567 0.168,-0.59 0.22,-0.59C0.301,-0.59 0.334,-0.544 0.334,-0.492C0.334,-0.415 0.253,-0.382 0.189,-0.382L0.14,-0.382L0.14,-0.316L0.189,-0.316C0.274,-0.316 0.356,-0.277 0.357,-0.186C0.358,-0.132 0.323,-0.06 0.21,-0.06C0.149,-0.06 0.091,-0.085 0.066,-0.101L0.042,-0.033Z" style="fill:rgb(35,31,32);fill-rule:nonzero;"/>
                </g>
                <g transform="matrix(24,0,0,24,91.5649,52.8296)">
                    <path d="M0.236,-0L0.321,-0L0.321,-0.65L0.246,-0.65L0.104,-0.574L0.121,-0.507L0.234,-0.568L0.236,-0.568L0.236,-0Z" style="fill:rgb(35,31,32);fill-rule:nonzero;"/>
                </g>
                <g transform="matrix(24,0,0,24,91.5649,95.3336)">
                    <path d="M0.262,-0.661C0.13,-0.661 0.036,-0.541 0.036,-0.323C0.038,-0.108 0.124,0.011 0.251,0.011C0.395,0.011 0.477,-0.111 0.477,-0.332C0.477,-0.539 0.399,-0.661 0.262,-0.661ZM0.257,-0.593C0.348,-0.593 0.389,-0.488 0.389,-0.328C0.389,-0.162 0.346,-0.057 0.256,-0.057C0.176,-0.057 0.124,-0.153 0.124,-0.322C0.124,-0.499 0.18,-0.593 0.257,-0.593Z" style="fill:rgb(35,31,32);fill-rule:nonzero;"/>
                </g>
                <g transform="matrix(24,0,0,24,79.5649,137.838)">
                    <rect x="0.03" y="-0.284" width="0.44" height="0.06" style="fill:rgb(35,31,32);fill-rule:nonzero;"/>
                </g>
                <g transform="matrix(24,0,0,24,91.5649,137.838)">
                    <path d="M0.236,-0L0.321,-0L0.321,-0.65L0.246,-0.65L0.104,-0.574L0.121,-0.507L0.234,-0.568L0.236,-0.568L0.236,-0Z" style="fill:rgb(35,31,32);fill-rule:nonzero;"/>
                </g>
                <g transform="matrix(24,0,0,24,412.386,171.065)">
                    <path d="M0.416,-0.66C0.4,-0.66 0.378,-0.659 0.352,-0.655C0.27,-0.645 0.198,-0.612 0.144,-0.559C0.08,-0.495 0.034,-0.394 0.034,-0.266C0.034,-0.097 0.125,0.011 0.264,0.011C0.399,0.011 0.48,-0.099 0.48,-0.218C0.48,-0.345 0.399,-0.428 0.284,-0.428C0.212,-0.428 0.158,-0.394 0.127,-0.353L0.124,-0.353C0.139,-0.46 0.212,-0.561 0.35,-0.584C0.375,-0.588 0.398,-0.589 0.416,-0.588L0.416,-0.66ZM0.264,-0.057C0.172,-0.057 0.123,-0.136 0.121,-0.243C0.121,-0.259 0.125,-0.272 0.131,-0.282C0.155,-0.329 0.204,-0.362 0.257,-0.362C0.338,-0.362 0.391,-0.306 0.391,-0.213C0.391,-0.12 0.34,-0.057 0.264,-0.057Z" style="fill-rule:nonzero;"/>
                </g>
                <g transform="matrix(24,0,0,24,285.378,171.065)">
                    <path d="M0.042,-0.033C0.074,-0.012 0.138,0.011 0.211,0.011C0.367,0.011 0.448,-0.08 0.448,-0.184C0.448,-0.275 0.383,-0.335 0.303,-0.351L0.303,-0.353C0.383,-0.382 0.423,-0.439 0.423,-0.506C0.423,-0.585 0.365,-0.661 0.237,-0.661C0.167,-0.661 0.101,-0.636 0.067,-0.611L0.09,-0.547C0.118,-0.567 0.168,-0.59 0.22,-0.59C0.301,-0.59 0.334,-0.544 0.334,-0.492C0.334,-0.415 0.253,-0.382 0.189,-0.382L0.14,-0.382L0.14,-0.316L0.189,-0.316C0.274,-0.316 0.356,-0.277 0.357,-0.186C0.358,-0.132 0.323,-0.06 0.21,-0.06C0.149,-0.06 0.091,-0.085 0.066,-0.101L0.042,-0.033Z" style="fill-rule:nonzero;"/>
                </g>
                <g transform="matrix(24,0,0,24,158.37,171.065)">
                    <path d="M0.262,-0.661C0.13,-0.661 0.036,-0.541 0.036,-0.323C0.038,-0.108 0.124,0.011 0.251,0.011C0.395,0.011 0.477,-0.111 0.477,-0.332C0.477,-0.539 0.399,-0.661 0.262,-0.661ZM0.257,-0.593C0.348,-0.593 0.389,-0.488 0.389,-0.328C0.389,-0.162 0.346,-0.057 0.256,-0.057C0.176,-0.057 0.124,-0.153 0.124,-0.322C0.124,-0.499 0.18,-0.593 0.257,-0.593Z" style="fill-rule:nonzero;"/>
                </g>
                <g>
                    <g transform="matrix(28,0,0,28,250.706,194.915)">
                        <path d="M0.417,-0.484L0.37,-0.236C0.35,-0.129 0.273,-0.059 0.213,-0.059C0.156,-0.059 0.135,-0.093 0.135,-0.143C0.135,-0.164 0.138,-0.187 0.144,-0.214L0.195,-0.484L0.112,-0.484L0.06,-0.21C0.054,-0.178 0.051,-0.152 0.051,-0.129C0.051,-0.019 0.116,0.011 0.178,0.011C0.242,0.011 0.306,-0.028 0.349,-0.091L0.351,-0.091L0.338,-0L0.413,-0C0.418,-0.04 0.425,-0.087 0.435,-0.141L0.5,-0.484L0.417,-0.484Z" style="fill-rule:nonzero;"/>
                    </g>
                    <g transform="matrix(28,0,0,28,271.37,194.915)">
                        <path d="M0.195,-0.694C0.132,-0.61 0.065,-0.482 0.064,-0.285C0.064,-0.09 0.132,0.038 0.195,0.121L0.264,0.121C0.193,0.021 0.138,-0.107 0.138,-0.285C0.138,-0.466 0.191,-0.596 0.264,-0.694L0.195,-0.694Z" style="fill-rule:nonzero;"/>
                    </g>
                    <g transform="matrix(28,0,0,28,279.322,194.915)">
                        <path d="M0.403,-0.075C0.411,-0.013 0.446,0.011 0.489,0.011C0.503,0.011 0.509,0.01 0.519,0.007L0.526,-0.057C0.491,-0.059 0.48,-0.08 0.48,-0.133L0.48,-0.484L0.393,-0.484L0.393,-0.187C0.393,-0.171 0.39,-0.155 0.385,-0.142C0.369,-0.103 0.327,-0.061 0.269,-0.061C0.192,-0.061 0.16,-0.123 0.16,-0.198L0.16,-0.484L0.073,-0.484L0.073,0.02C0.073,0.097 0.077,0.168 0.087,0.198L0.166,0.198C0.156,0.158 0.155,0.069 0.155,0.016L0.155,-0.044C0.176,-0.007 0.217,0.009 0.261,0.009C0.333,0.009 0.38,-0.037 0.4,-0.075L0.403,-0.075Z" style="fill-rule:nonzero;"/>
                    </g>
                    <g transform="matrix(28,0,0,28,294.806,194.915)">
                        <path d="M0.073,-0L0.159,-0L0.159,-0.292C0.159,-0.307 0.161,-0.322 0.166,-0.335C0.18,-0.379 0.22,-0.423 0.275,-0.423C0.342,-0.423 0.376,-0.367 0.376,-0.29L0.376,-0L0.462,-0L0.462,-0.299C0.462,-0.315 0.465,-0.331 0.469,-0.343C0.484,-0.386 0.523,-0.423 0.573,-0.423C0.644,-0.423 0.678,-0.367 0.678,-0.274L0.678,-0L0.764,-0L0.764,-0.285C0.764,-0.453 0.669,-0.495 0.605,-0.495C0.559,-0.495 0.527,-0.483 0.498,-0.461C0.478,-0.446 0.459,-0.425 0.444,-0.398L0.442,-0.398C0.421,-0.455 0.371,-0.495 0.305,-0.495C0.225,-0.495 0.18,-0.452 0.153,-0.406L0.15,-0.406L0.146,-0.484L0.069,-0.484C0.072,-0.444 0.073,-0.403 0.073,-0.353L0.073,-0Z" style="fill-rule:nonzero;"/>
                    </g>
                    <g transform="matrix(28,0,0,28,318.158,194.915)">
                        <path d="M0.088,0.121C0.152,0.036 0.219,-0.091 0.219,-0.287C0.219,-0.484 0.152,-0.612 0.088,-0.694L0.02,-0.694C0.092,-0.595 0.146,-0.467 0.146,-0.288C0.146,-0.108 0.091,0.022 0.02,0.121L0.088,0.121Z" style="fill-rule:nonzero;"/>
                    </g>
                </g>
                <g transform="matrix(1,0,0,1,115.824,130.721)">
                    <path d="M0,-84.75L-5.682,-84.75L-5.682,0L0,0" style="fill:none;fill-rule:nonzero;stroke:black;stroke-width:0.5px;"/>
                </g>
                <g transform="matrix(1,0,0,1,110.123,88.3037)">
                    <path d="M0,0L5.701,0" style="fill:none;fill-rule:nonzero;stroke:black;stroke-width:0.5px;stroke-linejoin:round;"/>
                </g>
                <g transform="matrix(1,0,0,1,206.879,88.3032)">
                    <path d="M0,0.084L-0.25,-4.416L-0.916,-8.749L-2.082,-12.999L-3.666,-17.166L-5.666,-21.166L-8.082,-24.833L-10.832,-28.249L-14,-31.416L-17.416,-34.249L-21.166,-36.583L-25.082,-38.666L-29.25,-40.249L-33.5,-41.333L-37.916,-42.083L-42.332,-42.333L-46.75,-42.083L-51.166,-41.333L-55.416,-40.249L-59.582,-38.666L-63.5,-36.583L-67.25,-34.249L-70.666,-31.416L-73.832,-28.249L-76.582,-24.833L-79,-21.166L-81,-17.166L-82.582,-12.999L-83.75,-8.749L-84.416,-4.416L-84.666,0.001L-84.416,4.501L-83.75,8.834L-82.582,13.084L-81,17.251L-79,21.251L-76.582,24.917L-73.832,28.334L-70.666,31.501L-67.25,34.334L-63.5,36.667L-59.582,38.751L-55.416,40.334L-51.166,41.417L-46.75,42.167L-42.332,42.417L-37.916,42.167L-33.5,41.417L-29.25,40.334L-25.082,38.751L-21.166,36.667L-17.416,34.334L-14,31.501L-10.832,28.334L-8.082,24.917L-5.666,21.251L-3.666,17.251L-2.082,13.084L-0.916,8.834L-0.25,4.501L0,0.084Z" style="fill:rgb(255,156,0);"/>
                </g>
                <g transform="matrix(1,0,0,1,333.871,88.3032)">
                    <path d="M0,0.084L-0.25,-4.416L-0.916,-8.749L-2.084,-12.999L-3.666,-17.166L-5.666,-21.166L-8.084,-24.833L-10.834,-28.249L-14,-31.416L-17.416,-34.249L-21.166,-36.583L-25.084,-38.666L-29.25,-40.249L-33.5,-41.333L-37.916,-42.083L-42.334,-42.333L-46.75,-42.083L-51.166,-41.333L-55.416,-40.249L-59.582,-38.666L-63.5,-36.583L-67.25,-34.249L-70.666,-31.416L-73.75,-28.249L-76.582,-24.833L-79,-21.166L-81,-17.166L-82.582,-12.999L-83.75,-8.749L-84.416,-4.416L-84.666,0.001L-84.416,4.501L-83.75,8.834L-82.582,13.084L-81,17.251L-79,21.251L-76.582,24.917L-73.75,28.334L-70.666,31.501L-67.25,34.334L-63.5,36.667L-59.582,38.751L-55.416,40.334L-51.166,41.417L-46.75,42.167L-42.334,42.417L-37.916,42.167L-33.5,41.417L-29.25,40.334L-25.084,38.751L-21.166,36.667L-17.416,34.334L-14,31.501L-10.834,28.334L-8.084,24.917L-5.666,21.251L-3.666,17.251L-2.084,13.084L-0.916,8.834L-0.25,4.501L0,0.084" style="fill:none;fill-rule:nonzero;stroke:rgb(255,156,0);stroke-width:0.5px;stroke-linejoin:round;"/>
                </g>
                <g transform="matrix(1,0,0,1,465.121,88.3042)">
                    <path d="M0,0.083L-0.25,-4.834L-1,-9.667L-2.25,-14.334L-4,-18.917L-6.25,-23.25L-8.916,-27.334L-11.916,-31.084L-15.416,-34.584L-19.166,-37.667L-23.25,-40.25L-27.584,-42.5L-32.166,-44.25L-36.916,-45.5L-41.666,-46.25L-46.584,-46.5L-51.416,-46.25L-56.25,-45.5L-60.916,-44.25L-65.5,-42.5L-69.834,-40.25L-73.916,-37.667L-77.75,-34.584L-81.166,-31.084L-84.25,-27.334L-86.916,-23.25L-89.084,-18.917L-90.834,-14.334L-92.084,-9.667L-92.916,-4.834L-93.166,-0L-92.916,4.916L-92.084,9.75L-90.834,14.416L-89.084,19L-86.916,23.333L-84.25,27.416L-81.166,31.166L-77.75,34.666L-73.916,37.75L-69.834,40.333L-65.5,42.583L-60.916,44.333L-56.25,45.583L-51.416,46.333L-46.584,46.583L-41.666,46.333L-36.916,45.583L-32.166,44.333L-27.584,42.583L-23.25,40.333L-19.166,37.75L-15.416,34.666L-11.916,31.166L-8.916,27.416L-6.25,23.333L-4,19L-2.25,14.416L-1,9.75L-0.25,4.916L0,0.083L-8.5,0.083L-8.666,4L-9.334,8L-10.334,11.833L-11.75,15.5L-13.584,19.083L-15.75,22.416L-18.25,25.5L-21.084,28.333L-24.166,30.833L-27.5,33L-31.084,34.833L-34.75,36.25L-38.666,37.333L-42.584,37.916L-46.584,38.166L-50.584,37.916L-54.5,37.333L-58.334,36.25L-62.084,34.833L-65.584,33L-69,30.833L-72.084,28.333L-74.916,25.5L-77.416,22.416L-79.584,19.083L-81.334,15.5L-82.834,11.833L-83.834,8L-84.5,4L-84.666,-0L-84.5,-3.917L-83.834,-7.917L-82.834,-11.75L-81.334,-15.417L-79.584,-19L-77.416,-22.334L-74.916,-25.417L-72.084,-28.25L-69,-30.75L-65.584,-32.917L-62.084,-34.75L-58.334,-36.167L-54.5,-37.25L-50.584,-37.834L-46.584,-38.084L-42.584,-37.834L-38.666,-37.25L-34.75,-36.167L-31.084,-34.75L-27.5,-32.917L-24.166,-30.75L-21.084,-28.25L-18.25,-25.417L-15.75,-22.334L-13.584,-19L-11.75,-15.417L-10.334,-11.75L-9.334,-7.917L-8.666,-3.917L-8.5,0.083L0,0.083Z" style="fill:rgb(255,156,0);"/>
                </g>
                <g transform="matrix(0,-1,-1,0,294.462,144.627)">
                    <path d="M-2.921,2.921L2.921,2.921" style="fill:none;fill-rule:nonzero;stroke:black;stroke-width:0.5px;stroke-linejoin:round;"/>
                </g>
            </g>
        </g>
    </g>
</svg>
