<?xml version="1.0" encoding="UTF-8" standalone="no"?>
<!DOCTYPE svg PUBLIC "-//W3C//DTD SVG 1.1//EN" "http://www.w3.org/Graphics/SVG/1.1/DTD/svg11.dtd">
<svg width="100%" height="100%" viewBox="0 0 489 760" version="1.1" xmlns="http://www.w3.org/2000/svg" xmlns:xlink="http://www.w3.org/1999/xlink" xml:space="preserve" xmlns:serif="http://www.serif.com/" style="fill-rule:evenodd;clip-rule:evenodd;stroke-miterlimit:10;">
    <g transform="matrix(1.03216,0,0,1.0141,0,0)">
        <rect id="Artboard1" x="0" y="0" width="473.667" height="749.333" style="fill:none;"/>
        <g id="Artboard11" serif:id="Artboard1">
            <g id="Layer-1" serif:id="Layer 1" transform="matrix(0.968842,0,0,0.986094,11.3994,0.115218)">
                <g transform="matrix(1,0,0,1,132.609,691.574)">
                    <path d="M0,-5.659L0,0L306.353,0L306.353,-5.659" style="fill:none;fill-rule:nonzero;stroke:rgb(35,31,32);stroke-width:0.5px;"/>
                </g>
                <g>
                    <g transform="matrix(28,0,0,28,2.7393,363.077)">
                        <path d="M0.051,-0.484L0.135,-0L0.217,-0L0.486,-0.484L0.395,-0.484L0.247,-0.202C0.219,-0.147 0.206,-0.115 0.196,-0.089L0.193,-0.089C0.191,-0.116 0.185,-0.153 0.178,-0.208L0.136,-0.484L0.051,-0.484Z" style="fill-rule:nonzero;"/>
                    </g>
                    <g transform="matrix(28,0,0,28,21.4153,363.077)">
                        <path d="M0.195,-0.694C0.132,-0.61 0.065,-0.482 0.064,-0.285C0.064,-0.09 0.132,0.038 0.195,0.121L0.264,0.121C0.193,0.021 0.138,-0.107 0.138,-0.285C0.138,-0.466 0.191,-0.596 0.264,-0.694L0.195,-0.694Z" style="fill-rule:nonzero;"/>
                    </g>
                    <g transform="matrix(28,0,0,28,29.3673,363.077)">
                        <path d="M0.403,-0.075C0.411,-0.013 0.446,0.011 0.489,0.011C0.503,0.011 0.509,0.01 0.519,0.007L0.526,-0.057C0.491,-0.059 0.48,-0.08 0.48,-0.133L0.48,-0.484L0.393,-0.484L0.393,-0.187C0.393,-0.171 0.39,-0.155 0.385,-0.142C0.369,-0.103 0.327,-0.061 0.269,-0.061C0.192,-0.061 0.16,-0.123 0.16,-0.198L0.16,-0.484L0.073,-0.484L0.073,0.02C0.073,0.097 0.077,0.168 0.087,0.198L0.166,0.198C0.156,0.158 0.155,0.069 0.155,0.016L0.155,-0.044C0.176,-0.007 0.217,0.009 0.261,0.009C0.333,0.009 0.38,-0.037 0.4,-0.075L0.403,-0.075Z" style="fill-rule:nonzero;"/>
                    </g>
                    <g transform="matrix(28,0,0,28,44.8513,363.077)">
                        <path d="M0.073,-0L0.159,-0L0.159,-0.292C0.159,-0.307 0.161,-0.322 0.166,-0.335C0.18,-0.379 0.22,-0.423 0.275,-0.423C0.342,-0.423 0.376,-0.367 0.376,-0.29L0.376,-0L0.462,-0L0.462,-0.299C0.462,-0.315 0.465,-0.331 0.469,-0.343C0.484,-0.386 0.523,-0.423 0.573,-0.423C0.644,-0.423 0.678,-0.367 0.678,-0.274L0.678,-0L0.764,-0L0.764,-0.285C0.764,-0.453 0.669,-0.495 0.605,-0.495C0.559,-0.495 0.527,-0.483 0.498,-0.461C0.478,-0.446 0.459,-0.425 0.444,-0.398L0.442,-0.398C0.421,-0.455 0.371,-0.495 0.305,-0.495C0.225,-0.495 0.18,-0.452 0.153,-0.406L0.15,-0.406L0.146,-0.484L0.069,-0.484C0.072,-0.444 0.073,-0.403 0.073,-0.353L0.073,-0Z" style="fill-rule:nonzero;"/>
                    </g>
                    <g transform="matrix(28,0,0,28,68.2033,363.077)">
                        <path d="M0.088,0.121C0.152,0.036 0.219,-0.091 0.219,-0.287C0.219,-0.484 0.152,-0.612 0.088,-0.694L0.02,-0.694C0.092,-0.595 0.146,-0.467 0.146,-0.288C0.146,-0.108 0.091,0.022 0.02,0.121L0.088,0.121Z" style="fill-rule:nonzero;"/>
                    </g>
                </g>
                <g transform="matrix(40,0,0,40,421.838,43.3281)">
                    <path d="M0.425,-0.388L0.163,-0.388L0.163,-0.601L0.44,-0.601L0.44,-0.674L0.076,-0.674L0.076,-0L0.455,-0L0.455,-0.073L0.163,-0.073L0.163,-0.316L0.425,-0.316L0.425,-0.388Z" style="fill:rgb(35,31,32);fill-rule:nonzero;"/>
                </g>
                <g transform="matrix(40,0,0,40,441.518,43.3281)">
                    <path d="M0.236,-0L0.321,-0L0.321,-0.65L0.246,-0.65L0.104,-0.574L0.121,-0.507L0.234,-0.568L0.236,-0.568L0.236,-0Z" style="fill:rgb(35,31,32);fill-rule:nonzero;"/>
                </g>
                <g transform="matrix(40,0,0,40,421.838,274.848)">
                    <path d="M0.425,-0.388L0.163,-0.388L0.163,-0.601L0.44,-0.601L0.44,-0.674L0.076,-0.674L0.076,-0L0.455,-0L0.455,-0.073L0.163,-0.073L0.163,-0.316L0.425,-0.316L0.425,-0.388Z" style="fill:rgb(35,31,32);fill-rule:nonzero;"/>
                </g>
                <g transform="matrix(40,0,0,40,441.518,274.848)">
                    <path d="M0.46,-0L0.46,-0.073L0.168,-0.073L0.168,-0.075L0.22,-0.123C0.357,-0.255 0.444,-0.352 0.444,-0.472C0.444,-0.565 0.385,-0.661 0.245,-0.661C0.17,-0.661 0.106,-0.633 0.061,-0.595L0.089,-0.533C0.119,-0.558 0.168,-0.588 0.227,-0.588C0.324,-0.588 0.356,-0.527 0.356,-0.461C0.355,-0.363 0.28,-0.279 0.114,-0.121L0.045,-0.054L0.045,-0L0.46,-0Z" style="fill:rgb(35,31,32);fill-rule:nonzero;"/>
                </g>
                <g transform="matrix(40,0,0,40,421.838,511.688)">
                    <path d="M0.425,-0.388L0.163,-0.388L0.163,-0.601L0.44,-0.601L0.44,-0.674L0.076,-0.674L0.076,-0L0.455,-0L0.455,-0.073L0.163,-0.073L0.163,-0.316L0.425,-0.316L0.425,-0.388Z" style="fill:rgb(35,31,32);fill-rule:nonzero;"/>
                </g>
                <g transform="matrix(40,0,0,40,441.518,511.688)">
                    <path d="M0.042,-0.033C0.074,-0.012 0.138,0.011 0.211,0.011C0.367,0.011 0.448,-0.08 0.448,-0.184C0.448,-0.275 0.383,-0.335 0.303,-0.351L0.303,-0.353C0.383,-0.382 0.423,-0.439 0.423,-0.506C0.423,-0.585 0.365,-0.661 0.237,-0.661C0.167,-0.661 0.101,-0.636 0.067,-0.611L0.09,-0.547C0.118,-0.567 0.168,-0.59 0.22,-0.59C0.301,-0.59 0.334,-0.544 0.334,-0.492C0.334,-0.415 0.253,-0.382 0.189,-0.382L0.14,-0.382L0.14,-0.316L0.189,-0.316C0.274,-0.316 0.356,-0.277 0.357,-0.186C0.358,-0.132 0.323,-0.06 0.21,-0.06C0.149,-0.06 0.091,-0.085 0.066,-0.101L0.042,-0.033Z" style="fill:rgb(35,31,32);fill-rule:nonzero;"/>
                </g>
                <g transform="matrix(24,0,0,24,83.8408,599.91)">
                    <path d="M0.262,-0.661C0.13,-0.661 0.036,-0.541 0.036,-0.323C0.038,-0.108 0.124,0.011 0.251,0.011C0.395,0.011 0.477,-0.111 0.477,-0.332C0.477,-0.539 0.399,-0.661 0.262,-0.661ZM0.257,-0.593C0.348,-0.593 0.389,-0.488 0.389,-0.328C0.389,-0.162 0.346,-0.057 0.256,-0.057C0.176,-0.057 0.124,-0.153 0.124,-0.322C0.124,-0.499 0.18,-0.593 0.257,-0.593Z" style="fill:rgb(35,31,32);fill-rule:nonzero;"/>
                </g>
                <g transform="matrix(24,0,0,24,83.8408,363.078)">
                    <path d="M0.042,-0.033C0.074,-0.012 0.138,0.011 0.211,0.011C0.367,0.011 0.448,-0.08 0.448,-0.184C0.448,-0.275 0.383,-0.335 0.303,-0.351L0.303,-0.353C0.383,-0.382 0.423,-0.439 0.423,-0.506C0.423,-0.585 0.365,-0.661 0.237,-0.661C0.167,-0.661 0.101,-0.636 0.067,-0.611L0.09,-0.547C0.118,-0.567 0.168,-0.59 0.22,-0.59C0.301,-0.59 0.334,-0.544 0.334,-0.492C0.334,-0.415 0.253,-0.382 0.189,-0.382L0.14,-0.382L0.14,-0.316L0.189,-0.316C0.274,-0.316 0.356,-0.277 0.357,-0.186C0.358,-0.132 0.323,-0.06 0.21,-0.06C0.149,-0.06 0.091,-0.085 0.066,-0.101L0.042,-0.033Z" style="fill:rgb(35,31,32);fill-rule:nonzero;"/>
                </g>
                <g transform="matrix(24,0,0,24,83.8408,131.55)">
                    <path d="M0.416,-0.66C0.4,-0.66 0.378,-0.659 0.352,-0.655C0.27,-0.645 0.198,-0.612 0.144,-0.559C0.08,-0.495 0.034,-0.394 0.034,-0.266C0.034,-0.097 0.125,0.011 0.264,0.011C0.399,0.011 0.48,-0.099 0.48,-0.218C0.48,-0.345 0.399,-0.428 0.284,-0.428C0.212,-0.428 0.158,-0.394 0.127,-0.353L0.124,-0.353C0.139,-0.46 0.212,-0.561 0.35,-0.584C0.375,-0.588 0.398,-0.589 0.416,-0.588L0.416,-0.66ZM0.264,-0.057C0.172,-0.057 0.123,-0.136 0.121,-0.243C0.121,-0.259 0.125,-0.272 0.131,-0.282C0.155,-0.329 0.204,-0.362 0.257,-0.362C0.338,-0.362 0.391,-0.306 0.391,-0.213C0.391,-0.12 0.34,-0.057 0.264,-0.057Z" style="fill:rgb(35,31,32);fill-rule:nonzero;"/>
                </g>
                <g transform="matrix(24,0,0,24,432.806,715.098)">
                    <path d="M0.46,-0L0.46,-0.073L0.168,-0.073L0.168,-0.075L0.22,-0.123C0.357,-0.255 0.444,-0.352 0.444,-0.472C0.444,-0.565 0.385,-0.661 0.245,-0.661C0.17,-0.661 0.106,-0.633 0.061,-0.595L0.089,-0.533C0.119,-0.558 0.168,-0.588 0.227,-0.588C0.324,-0.588 0.356,-0.527 0.356,-0.461C0.355,-0.363 0.28,-0.279 0.114,-0.121L0.045,-0.054L0.045,-0L0.46,-0Z" style="fill-rule:nonzero;"/>
                </g>
                <g transform="matrix(24,0,0,24,280.718,715.098)">
                    <path d="M0.262,-0.661C0.13,-0.661 0.036,-0.541 0.036,-0.323C0.038,-0.108 0.124,0.011 0.251,0.011C0.395,0.011 0.477,-0.111 0.477,-0.332C0.477,-0.539 0.399,-0.661 0.262,-0.661ZM0.257,-0.593C0.348,-0.593 0.389,-0.488 0.389,-0.328C0.389,-0.162 0.346,-0.057 0.256,-0.057C0.176,-0.057 0.124,-0.153 0.124,-0.322C0.124,-0.499 0.18,-0.593 0.257,-0.593Z" style="fill-rule:nonzero;"/>
                </g>
                <g transform="matrix(24,0,0,24,126.446,715.098)">
                    <path d="M0.46,-0L0.46,-0.073L0.168,-0.073L0.168,-0.075L0.22,-0.123C0.357,-0.255 0.444,-0.352 0.444,-0.472C0.444,-0.565 0.385,-0.661 0.245,-0.661C0.17,-0.661 0.106,-0.633 0.061,-0.595L0.089,-0.533C0.119,-0.558 0.168,-0.588 0.227,-0.588C0.324,-0.588 0.356,-0.527 0.356,-0.461C0.355,-0.363 0.28,-0.279 0.114,-0.121L0.045,-0.054L0.045,-0L0.46,-0Z" style="fill-rule:nonzero;"/>
                </g>
                <g>
                    <g transform="matrix(28,0,0,28,249.087,738.947)">
                        <path d="M0.417,-0.484L0.37,-0.236C0.35,-0.129 0.273,-0.059 0.213,-0.059C0.156,-0.059 0.135,-0.093 0.135,-0.143C0.135,-0.164 0.138,-0.187 0.144,-0.214L0.195,-0.484L0.112,-0.484L0.06,-0.21C0.054,-0.178 0.051,-0.152 0.051,-0.129C0.051,-0.019 0.116,0.011 0.178,0.011C0.242,0.011 0.306,-0.028 0.349,-0.091L0.351,-0.091L0.338,-0L0.413,-0C0.418,-0.04 0.425,-0.087 0.435,-0.141L0.5,-0.484L0.417,-0.484Z" style="fill-rule:nonzero;"/>
                    </g>
                    <g transform="matrix(28,0,0,28,269.751,738.947)">
                        <path d="M0.195,-0.694C0.132,-0.61 0.065,-0.482 0.064,-0.285C0.064,-0.09 0.132,0.038 0.195,0.121L0.264,0.121C0.193,0.021 0.138,-0.107 0.138,-0.285C0.138,-0.466 0.191,-0.596 0.264,-0.694L0.195,-0.694Z" style="fill-rule:nonzero;"/>
                    </g>
                    <g transform="matrix(28,0,0,28,277.703,738.947)">
                        <path d="M0.403,-0.075C0.411,-0.013 0.446,0.011 0.489,0.011C0.503,0.011 0.509,0.01 0.519,0.007L0.526,-0.057C0.491,-0.059 0.48,-0.08 0.48,-0.133L0.48,-0.484L0.393,-0.484L0.393,-0.187C0.393,-0.171 0.39,-0.155 0.385,-0.142C0.369,-0.103 0.327,-0.061 0.269,-0.061C0.192,-0.061 0.16,-0.123 0.16,-0.198L0.16,-0.484L0.073,-0.484L0.073,0.02C0.073,0.097 0.077,0.168 0.087,0.198L0.166,0.198C0.156,0.158 0.155,0.069 0.155,0.016L0.155,-0.044C0.176,-0.007 0.217,0.009 0.261,0.009C0.333,0.009 0.38,-0.037 0.4,-0.075L0.403,-0.075Z" style="fill-rule:nonzero;"/>
                    </g>
                    <g transform="matrix(28,0,0,28,293.187,738.947)">
                        <path d="M0.073,-0L0.159,-0L0.159,-0.292C0.159,-0.307 0.161,-0.322 0.166,-0.335C0.18,-0.379 0.22,-0.423 0.275,-0.423C0.342,-0.423 0.376,-0.367 0.376,-0.29L0.376,-0L0.462,-0L0.462,-0.299C0.462,-0.315 0.465,-0.331 0.469,-0.343C0.484,-0.386 0.523,-0.423 0.573,-0.423C0.644,-0.423 0.678,-0.367 0.678,-0.274L0.678,-0L0.764,-0L0.764,-0.285C0.764,-0.453 0.669,-0.495 0.605,-0.495C0.559,-0.495 0.527,-0.483 0.498,-0.461C0.478,-0.446 0.459,-0.425 0.444,-0.398L0.442,-0.398C0.421,-0.455 0.371,-0.495 0.305,-0.495C0.225,-0.495 0.18,-0.452 0.153,-0.406L0.15,-0.406L0.146,-0.484L0.069,-0.484C0.072,-0.444 0.073,-0.403 0.073,-0.353L0.073,-0Z" style="fill-rule:nonzero;"/>
                    </g>
                    <g transform="matrix(28,0,0,28,316.539,738.947)">
                        <path d="M0.088,0.121C0.152,0.036 0.219,-0.091 0.219,-0.287C0.219,-0.484 0.152,-0.612 0.088,-0.694L0.02,-0.694C0.092,-0.595 0.146,-0.467 0.146,-0.288C0.146,-0.108 0.091,0.022 0.02,0.121L0.088,0.121Z" style="fill-rule:nonzero;"/>
                    </g>
                </g>
                <g transform="matrix(1,0,0,1,111.193,592.914)">
                    <path d="M0,-468.011L-5.682,-468.011L-5.682,0L0,0" style="fill:none;fill-rule:nonzero;stroke:black;stroke-width:0.5px;"/>
                </g>
                <g transform="matrix(0,-1,-1,0,289.801,688.745)">
                    <path d="M-2.921,2.921L2.921,2.921" style="fill:none;fill-rule:nonzero;stroke:black;stroke-width:0.5px;stroke-linejoin:round;"/>
                </g>
                <g transform="matrix(1,0,0,1,105.492,354.74)">
                    <path d="M0,0L5.701,0" style="fill:none;fill-rule:nonzero;stroke:black;stroke-width:0.5px;stroke-linejoin:round;"/>
                </g>
                <g transform="matrix(1,0,0,1,440.409,152.006)">
                    <path d="M0,-54.207L-2.228,-62.189L-6.126,-69.614L-11.695,-76.67L-18.751,-83.168L-27.29,-88.923L-37.314,-94.12L-48.453,-98.575L-60.893,-102.289L-74.26,-105.259L-88.553,-107.116L-103.59,-108.415L-118.999,-108.601L-134.966,-107.858L-151.116,-106.372L-167.08,-103.96L-183.234,-100.618L-198.828,-96.72L-214.048,-91.892L-228.528,-86.322L-242.082,-80.196L-254.892,-73.328L-266.4,-66.088L-276.799,-58.476L-285.893,-50.309L-293.507,-42.14L-299.446,-33.601L-303.902,-25.061L-306.687,-16.519L-307.8,-8.166L-307.244,0.001L-305.016,7.799L-301.117,15.408L-295.548,22.466L-288.495,28.775L-279.954,34.719L-269.929,39.914L-258.79,44.369L-246.351,48.085L-232.984,50.869L-218.691,52.91L-203.653,54.024L-188.246,54.394L-172.278,53.654L-156.129,52.166L-140.163,49.756L-124.012,46.414L-108.417,42.328L-93.195,37.503L-78.715,32.116L-65.161,25.808L-52.352,19.124L-40.843,11.884L-30.446,4.087L-21.351,-3.897L-13.738,-12.251L-7.797,-20.605L-3.342,-29.145L-0.557,-37.685L0.558,-46.038L0,-54.207Z" style="fill:rgb(255,156,0);"/>
                </g>
                <g transform="matrix(1,0,0,1,440.409,386.107)">
                    <path d="M0,-54.395L-2.228,-62.192L-6.126,-69.619L-11.695,-76.672L-18.751,-83.169L-27.29,-89.111L-37.314,-94.308L-48.453,-98.764L-60.893,-102.478L-74.26,-105.262L-88.553,-107.304L-103.59,-108.417L-118.999,-108.603L-134.966,-108.047L-151.116,-106.376L-167.08,-103.962L-183.234,-100.807L-198.828,-96.722L-214.048,-91.896L-228.528,-86.327L-242.082,-80.2L-254.892,-73.517L-266.4,-66.277L-276.799,-58.479L-285.893,-50.497L-293.507,-42.142L-299.446,-33.789L-303.902,-25.249L-306.687,-16.708L-307.8,-8.354L-307.244,-0.187L-305.016,7.797L-301.117,15.222L-295.548,22.278L-288.495,28.774L-279.954,34.715L-269.929,39.913L-258.79,44.368L-246.351,47.896L-232.984,50.866L-218.691,52.909L-203.653,54.023L-188.246,54.208L-172.278,53.465L-156.129,51.98L-140.163,49.567L-124.012,46.411L-108.417,42.327L-93.195,37.5L-78.715,31.93L-65.161,25.804L-52.352,18.936L-40.843,11.696L-30.446,4.084L-21.351,-4.085L-13.738,-12.252L-7.797,-20.792L-3.342,-29.332L-0.557,-37.687L0.558,-46.227L0,-54.395" style="fill:none;fill-rule:nonzero;stroke:rgb(255,156,0);stroke-width:0.5px;stroke-linejoin:round;"/>
                </g>
                <g transform="matrix(1,0,0,1,448.019,621.318)">
                    <path d="M0,-56.808L-2.413,-65.533L-6.496,-73.887L-12.438,-81.684L-19.862,-88.738L-28.961,-95.421L-39.543,-101.177L-51.238,-106.189L-64.418,-110.274L-78.528,-113.616L-93.565,-115.843L-109.159,-117.142L-125.495,-117.514L-142.204,-116.956L-159.097,-115.471L-176.177,-112.872L-192.885,-109.531L-209.406,-105.261L-225.187,-100.063L-240.412,-94.122L-254.705,-87.439L-268.071,-80.013L-280.324,-72.216L-291.093,-63.863L-300.561,-55.137L-308.358,-46.04L-314.667,-36.758L-319.31,-27.476L-322.094,-18.193L-323.208,-8.912L-322.464,0L-320.053,8.725L-315.968,16.893L-310.028,24.69L-302.601,31.93L-293.503,38.428L-282.921,44.183L-271.226,49.196L-258.046,53.465L-243.936,56.622L-228.898,59.035L-213.304,60.335L-196.971,60.706L-180.263,60.149L-163.367,58.477L-146.287,56.065L-129.579,52.538L-113.058,48.268L-97.276,43.069L-82.055,37.13L-67.759,30.446L-54.393,23.206L-42.14,15.223L-31.373,6.869L-21.905,-1.857L-14.108,-10.767L-7.797,-20.05L-3.154,-29.331L-0.37,-38.615L0.744,-47.897L0,-56.808L-15.223,-54.209L-14.851,-46.783L-15.964,-39.171L-18.563,-31.56L-23.02,-23.763L-28.773,-16.152L-36.014,-8.726L-44.555,-1.299L-54.58,5.755L-65.531,12.438L-77.784,18.565L-90.78,24.32L-104.517,29.333L-118.997,33.788L-133.85,37.686L-149.072,40.656L-164.296,43.069L-179.705,44.554L-194.743,45.297L-209.406,45.112L-223.704,44.37L-237.252,42.699L-249.879,40.098L-261.575,36.944L-272.157,33.045L-281.625,28.403L-289.604,23.206L-296.288,17.45L-301.487,11.138L-305.199,4.456L-307.244,-2.785L-307.614,-10.025L-306.5,-17.636L-303.902,-25.247L-299.447,-33.044L-293.69,-40.657L-286.45,-48.268L-277.909,-55.508L-267.884,-62.562L-256.933,-69.246L-244.68,-75.372L-231.683,-81.127L-217.947,-86.326L-203.467,-90.781L-188.616,-94.494L-173.393,-97.65L-158.17,-99.878L-142.761,-101.363L-127.724,-102.106L-113.058,-102.106L-98.763,-101.177L-85.211,-99.506L-72.587,-97.093L-60.891,-93.751L-50.31,-89.853L-40.842,-85.398L-32.859,-80.013L-26.176,-74.259L-20.977,-67.947L-17.265,-61.263L-15.223,-54.208L0,-56.808Z" style="fill:rgb(255,156,0);"/>
                </g>
            </g>
        </g>
    </g>
</svg>
