<?xml version="1.0" encoding="UTF-8" standalone="no"?>
<!DOCTYPE svg PUBLIC "-//W3C//DTD SVG 1.1//EN" "http://www.w3.org/Graphics/SVG/1.1/DTD/svg11.dtd">
<svg width="100%" height="100%" viewBox="0 0 493 595" version="1.1" xmlns="http://www.w3.org/2000/svg" xmlns:xlink="http://www.w3.org/1999/xlink" xml:space="preserve" xmlns:serif="http://www.serif.com/" style="fill-rule:evenodd;clip-rule:evenodd;stroke-miterlimit:10;">
    <g transform="matrix(1.03955,0,0,1.00934,0,0)">
        <rect id="Artboard1" x="0" y="0" width="473.667" height="589" style="fill:none;"/>
        <g id="Artboard11" serif:id="Artboard1">
            <g id="Layer-1" serif:id="Layer 1" transform="matrix(0.961956,0,0,0.990749,9.8177,-3.07686)">
                <g transform="matrix(1,0,0,1,289.745,328.787)">
                    <path d="M0,0L171.459,0" style="fill:none;fill-rule:nonzero;stroke:rgb(200,200,200);stroke-width:0.5px;stroke-dasharray:1,2;"/>
                </g>
                <g transform="matrix(1,0,0,1,118.286,500.25)">
                    <path d="M0,0L0.5,0" style="fill:none;fill-rule:nonzero;stroke:rgb(200,200,200);stroke-width:0.5px;"/>
                </g>
                <g transform="matrix(1,0,0,1,120.791,500.25)">
                    <path d="M0,0L167.451,0" style="fill:none;fill-rule:nonzero;stroke:rgb(200,200,200);stroke-width:0.5px;stroke-dasharray:1,2.01;"/>
                </g>
                <g transform="matrix(1,0,0,1,289.245,500.25)">
                    <path d="M0,0L0.5,0" style="fill:none;fill-rule:nonzero;stroke:rgb(200,200,200);stroke-width:0.5px;"/>
                </g>
                <g transform="matrix(24,0,0,24,455.048,237.898)">
                    <path d="M0.46,-0L0.46,-0.073L0.168,-0.073L0.168,-0.075L0.22,-0.123C0.357,-0.255 0.444,-0.352 0.444,-0.472C0.444,-0.565 0.385,-0.661 0.245,-0.661C0.17,-0.661 0.106,-0.633 0.061,-0.595L0.089,-0.533C0.119,-0.558 0.168,-0.588 0.227,-0.588C0.324,-0.588 0.356,-0.527 0.356,-0.461C0.355,-0.363 0.28,-0.279 0.114,-0.121L0.045,-0.054L0.045,-0L0.46,-0Z" style="fill-rule:nonzero;"/>
                </g>
                <g transform="matrix(24,0,0,24,283.588,237.898)">
                    <path d="M0.236,-0L0.321,-0L0.321,-0.65L0.246,-0.65L0.104,-0.574L0.121,-0.507L0.234,-0.568L0.236,-0.568L0.236,-0Z" style="fill-rule:nonzero;"/>
                </g>
                <g transform="matrix(24,0,0,24,112.129,237.898)">
                    <path d="M0.262,-0.661C0.13,-0.661 0.036,-0.541 0.036,-0.323C0.038,-0.108 0.124,0.011 0.251,0.011C0.395,0.011 0.477,-0.111 0.477,-0.332C0.477,-0.539 0.399,-0.661 0.262,-0.661ZM0.257,-0.593C0.348,-0.593 0.389,-0.488 0.389,-0.328C0.389,-0.162 0.346,-0.057 0.256,-0.057C0.176,-0.057 0.124,-0.153 0.124,-0.322C0.124,-0.499 0.18,-0.593 0.257,-0.593Z" style="fill-rule:nonzero;"/>
                </g>
                <g>
                    <g transform="matrix(28,0,0,28,252.044,261.748)">
                        <path d="M0.417,-0.484L0.37,-0.236C0.35,-0.129 0.273,-0.059 0.213,-0.059C0.156,-0.059 0.135,-0.093 0.135,-0.143C0.135,-0.164 0.138,-0.187 0.144,-0.214L0.195,-0.484L0.112,-0.484L0.06,-0.21C0.054,-0.178 0.051,-0.152 0.051,-0.129C0.051,-0.019 0.116,0.011 0.178,0.011C0.242,0.011 0.306,-0.028 0.349,-0.091L0.351,-0.091L0.338,-0L0.413,-0C0.418,-0.04 0.425,-0.087 0.435,-0.141L0.5,-0.484L0.417,-0.484Z" style="fill-rule:nonzero;"/>
                    </g>
                    <g transform="matrix(28,0,0,28,272.708,261.748)">
                        <path d="M0.195,-0.694C0.132,-0.61 0.065,-0.482 0.064,-0.285C0.064,-0.09 0.132,0.038 0.195,0.121L0.264,0.121C0.193,0.021 0.138,-0.107 0.138,-0.285C0.138,-0.466 0.191,-0.596 0.264,-0.694L0.195,-0.694Z" style="fill-rule:nonzero;"/>
                    </g>
                    <g transform="matrix(28,0,0,28,280.66,261.748)">
                        <path d="M0.403,-0.075C0.411,-0.013 0.446,0.011 0.489,0.011C0.503,0.011 0.509,0.01 0.519,0.007L0.526,-0.057C0.491,-0.059 0.48,-0.08 0.48,-0.133L0.48,-0.484L0.393,-0.484L0.393,-0.187C0.393,-0.171 0.39,-0.155 0.385,-0.142C0.369,-0.103 0.327,-0.061 0.269,-0.061C0.192,-0.061 0.16,-0.123 0.16,-0.198L0.16,-0.484L0.073,-0.484L0.073,0.02C0.073,0.097 0.077,0.168 0.087,0.198L0.166,0.198C0.156,0.158 0.155,0.069 0.155,0.016L0.155,-0.044C0.176,-0.007 0.217,0.009 0.261,0.009C0.333,0.009 0.38,-0.037 0.4,-0.075L0.403,-0.075Z" style="fill-rule:nonzero;"/>
                    </g>
                    <g transform="matrix(28,0,0,28,296.144,261.748)">
                        <path d="M0.073,-0L0.159,-0L0.159,-0.292C0.159,-0.307 0.161,-0.322 0.166,-0.335C0.18,-0.379 0.22,-0.423 0.275,-0.423C0.342,-0.423 0.376,-0.367 0.376,-0.29L0.376,-0L0.462,-0L0.462,-0.299C0.462,-0.315 0.465,-0.331 0.469,-0.343C0.484,-0.386 0.523,-0.423 0.573,-0.423C0.644,-0.423 0.678,-0.367 0.678,-0.274L0.678,-0L0.764,-0L0.764,-0.285C0.764,-0.453 0.669,-0.495 0.605,-0.495C0.559,-0.495 0.527,-0.483 0.498,-0.461C0.478,-0.446 0.459,-0.425 0.444,-0.398L0.442,-0.398C0.421,-0.455 0.371,-0.495 0.305,-0.495C0.225,-0.495 0.18,-0.452 0.153,-0.406L0.15,-0.406L0.146,-0.484L0.069,-0.484C0.072,-0.444 0.073,-0.403 0.073,-0.353L0.073,-0Z" style="fill-rule:nonzero;"/>
                    </g>
                    <g transform="matrix(28,0,0,28,319.496,261.748)">
                        <path d="M0.088,0.121C0.152,0.036 0.219,-0.091 0.219,-0.287C0.219,-0.484 0.152,-0.612 0.088,-0.694L0.02,-0.694C0.092,-0.595 0.146,-0.467 0.146,-0.288C0.146,-0.108 0.091,0.022 0.02,0.121L0.088,0.121Z" style="fill-rule:nonzero;"/>
                    </g>
                </g>
                <g>
                    <g transform="matrix(28,0,0,28,4.3839,116.512)">
                        <path d="M0.051,-0.484L0.135,-0L0.217,-0L0.486,-0.484L0.395,-0.484L0.247,-0.202C0.219,-0.147 0.206,-0.115 0.196,-0.089L0.193,-0.089C0.191,-0.116 0.185,-0.153 0.178,-0.208L0.136,-0.484L0.051,-0.484Z" style="fill-rule:nonzero;"/>
                    </g>
                    <g transform="matrix(28,0,0,28,23.0599,116.512)">
                        <path d="M0.195,-0.694C0.132,-0.61 0.065,-0.482 0.064,-0.285C0.064,-0.09 0.132,0.038 0.195,0.121L0.264,0.121C0.193,0.021 0.138,-0.107 0.138,-0.285C0.138,-0.466 0.191,-0.596 0.264,-0.694L0.195,-0.694Z" style="fill-rule:nonzero;"/>
                    </g>
                    <g transform="matrix(28,0,0,28,31.0119,116.512)">
                        <path d="M0.403,-0.075C0.411,-0.013 0.446,0.011 0.489,0.011C0.503,0.011 0.509,0.01 0.519,0.007L0.526,-0.057C0.491,-0.059 0.48,-0.08 0.48,-0.133L0.48,-0.484L0.393,-0.484L0.393,-0.187C0.393,-0.171 0.39,-0.155 0.385,-0.142C0.369,-0.103 0.327,-0.061 0.269,-0.061C0.192,-0.061 0.16,-0.123 0.16,-0.198L0.16,-0.484L0.073,-0.484L0.073,0.02C0.073,0.097 0.077,0.168 0.087,0.198L0.166,0.198C0.156,0.158 0.155,0.069 0.155,0.016L0.155,-0.044C0.176,-0.007 0.217,0.009 0.261,0.009C0.333,0.009 0.38,-0.037 0.4,-0.075L0.403,-0.075Z" style="fill-rule:nonzero;"/>
                    </g>
                    <g transform="matrix(28,0,0,28,46.4959,116.512)">
                        <path d="M0.073,-0L0.159,-0L0.159,-0.292C0.159,-0.307 0.161,-0.322 0.166,-0.335C0.18,-0.379 0.22,-0.423 0.275,-0.423C0.342,-0.423 0.376,-0.367 0.376,-0.29L0.376,-0L0.462,-0L0.462,-0.299C0.462,-0.315 0.465,-0.331 0.469,-0.343C0.484,-0.386 0.523,-0.423 0.573,-0.423C0.644,-0.423 0.678,-0.367 0.678,-0.274L0.678,-0L0.764,-0L0.764,-0.285C0.764,-0.453 0.669,-0.495 0.605,-0.495C0.559,-0.495 0.527,-0.483 0.498,-0.461C0.478,-0.446 0.459,-0.425 0.444,-0.398L0.442,-0.398C0.421,-0.455 0.371,-0.495 0.305,-0.495C0.225,-0.495 0.18,-0.452 0.153,-0.406L0.15,-0.406L0.146,-0.484L0.069,-0.484C0.072,-0.444 0.073,-0.403 0.073,-0.353L0.073,-0Z" style="fill-rule:nonzero;"/>
                    </g>
                    <g transform="matrix(28,0,0,28,69.8479,116.512)">
                        <path d="M0.088,0.121C0.152,0.036 0.219,-0.091 0.219,-0.287C0.219,-0.484 0.152,-0.612 0.088,-0.694L0.02,-0.694C0.092,-0.595 0.146,-0.467 0.146,-0.288C0.146,-0.108 0.091,0.022 0.02,0.121L0.088,0.121Z" style="fill-rule:nonzero;"/>
                    </g>
                </g>
                <g>
                    <g transform="matrix(40,0,0,40,16.3599,53.8682)">
                        <path d="M0.425,-0.388L0.163,-0.388L0.163,-0.601L0.44,-0.601L0.44,-0.674L0.076,-0.674L0.076,-0L0.455,-0L0.455,-0.073L0.163,-0.073L0.163,-0.316L0.425,-0.316L0.425,-0.388Z" style="fill-rule:nonzero;"/>
                    </g>
                    <g transform="matrix(40,0,0,40,36.0399,53.8682)">
                        <path d="M0.236,-0L0.321,-0L0.321,-0.65L0.246,-0.65L0.104,-0.574L0.121,-0.507L0.234,-0.568L0.236,-0.568L0.236,-0Z" style="fill-rule:nonzero;"/>
                    </g>
                    <g transform="matrix(24,0,0,24,86.9474,34.394)">
                        <path d="M0.236,-0L0.321,-0L0.321,-0.65L0.246,-0.65L0.104,-0.574L0.121,-0.507L0.234,-0.568L0.236,-0.568L0.236,-0Z" style="fill-rule:nonzero;"/>
                    </g>
                </g>
                <g transform="matrix(24,0,0,24,86.9473,209.351)">
                    <path d="M0.262,-0.661C0.13,-0.661 0.036,-0.541 0.036,-0.323C0.038,-0.108 0.124,0.011 0.251,0.011C0.395,0.011 0.477,-0.111 0.477,-0.332C0.477,-0.539 0.399,-0.661 0.262,-0.661ZM0.257,-0.593C0.348,-0.593 0.389,-0.488 0.389,-0.328C0.389,-0.162 0.346,-0.057 0.256,-0.057C0.176,-0.057 0.124,-0.153 0.124,-0.322C0.124,-0.499 0.18,-0.593 0.257,-0.593Z" style="fill-rule:nonzero;"/>
                </g>
                <g transform="matrix(24,0,0,24,455.048,552.44)">
                    <path d="M0.46,-0L0.46,-0.073L0.168,-0.073L0.168,-0.075L0.22,-0.123C0.357,-0.255 0.444,-0.352 0.444,-0.472C0.444,-0.565 0.385,-0.661 0.245,-0.661C0.17,-0.661 0.106,-0.633 0.061,-0.595L0.089,-0.533C0.119,-0.558 0.168,-0.588 0.227,-0.588C0.324,-0.588 0.356,-0.527 0.356,-0.461C0.355,-0.363 0.28,-0.279 0.114,-0.121L0.045,-0.054L0.045,-0L0.46,-0Z" style="fill-rule:nonzero;"/>
                </g>
                <g transform="matrix(24,0,0,24,283.588,552.44)">
                    <path d="M0.236,-0L0.321,-0L0.321,-0.65L0.246,-0.65L0.104,-0.574L0.121,-0.507L0.234,-0.568L0.236,-0.568L0.236,-0Z" style="fill-rule:nonzero;"/>
                </g>
                <g transform="matrix(24,0,0,24,112.13,552.44)">
                    <path d="M0.262,-0.661C0.13,-0.661 0.036,-0.541 0.036,-0.323C0.038,-0.108 0.124,0.011 0.251,0.011C0.395,0.011 0.477,-0.111 0.477,-0.332C0.477,-0.539 0.399,-0.661 0.262,-0.661ZM0.257,-0.593C0.348,-0.593 0.389,-0.488 0.389,-0.328C0.389,-0.162 0.346,-0.057 0.256,-0.057C0.176,-0.057 0.124,-0.153 0.124,-0.322C0.124,-0.499 0.18,-0.593 0.257,-0.593Z" style="fill-rule:nonzero;"/>
                </g>
                <g>
                    <g transform="matrix(28,0,0,28,252.044,576.29)">
                        <path d="M0.417,-0.484L0.37,-0.236C0.35,-0.129 0.273,-0.059 0.213,-0.059C0.156,-0.059 0.135,-0.093 0.135,-0.143C0.135,-0.164 0.138,-0.187 0.144,-0.214L0.195,-0.484L0.112,-0.484L0.06,-0.21C0.054,-0.178 0.051,-0.152 0.051,-0.129C0.051,-0.019 0.116,0.011 0.178,0.011C0.242,0.011 0.306,-0.028 0.349,-0.091L0.351,-0.091L0.338,-0L0.413,-0C0.418,-0.04 0.425,-0.087 0.435,-0.141L0.5,-0.484L0.417,-0.484Z" style="fill-rule:nonzero;"/>
                    </g>
                    <g transform="matrix(28,0,0,28,272.708,576.29)">
                        <path d="M0.195,-0.694C0.132,-0.61 0.065,-0.482 0.064,-0.285C0.064,-0.09 0.132,0.038 0.195,0.121L0.264,0.121C0.193,0.021 0.138,-0.107 0.138,-0.285C0.138,-0.466 0.191,-0.596 0.264,-0.694L0.195,-0.694Z" style="fill-rule:nonzero;"/>
                    </g>
                    <g transform="matrix(28,0,0,28,280.66,576.29)">
                        <path d="M0.403,-0.075C0.411,-0.013 0.446,0.011 0.489,0.011C0.503,0.011 0.509,0.01 0.519,0.007L0.526,-0.057C0.491,-0.059 0.48,-0.08 0.48,-0.133L0.48,-0.484L0.393,-0.484L0.393,-0.187C0.393,-0.171 0.39,-0.155 0.385,-0.142C0.369,-0.103 0.327,-0.061 0.269,-0.061C0.192,-0.061 0.16,-0.123 0.16,-0.198L0.16,-0.484L0.073,-0.484L0.073,0.02C0.073,0.097 0.077,0.168 0.087,0.198L0.166,0.198C0.156,0.158 0.155,0.069 0.155,0.016L0.155,-0.044C0.176,-0.007 0.217,0.009 0.261,0.009C0.333,0.009 0.38,-0.037 0.4,-0.075L0.403,-0.075Z" style="fill-rule:nonzero;"/>
                    </g>
                    <g transform="matrix(28,0,0,28,296.144,576.29)">
                        <path d="M0.073,-0L0.159,-0L0.159,-0.292C0.159,-0.307 0.161,-0.322 0.166,-0.335C0.18,-0.379 0.22,-0.423 0.275,-0.423C0.342,-0.423 0.376,-0.367 0.376,-0.29L0.376,-0L0.462,-0L0.462,-0.299C0.462,-0.315 0.465,-0.331 0.469,-0.343C0.484,-0.386 0.523,-0.423 0.573,-0.423C0.644,-0.423 0.678,-0.367 0.678,-0.274L0.678,-0L0.764,-0L0.764,-0.285C0.764,-0.453 0.669,-0.495 0.605,-0.495C0.559,-0.495 0.527,-0.483 0.498,-0.461C0.478,-0.446 0.459,-0.425 0.444,-0.398L0.442,-0.398C0.421,-0.455 0.371,-0.495 0.305,-0.495C0.225,-0.495 0.18,-0.452 0.153,-0.406L0.15,-0.406L0.146,-0.484L0.069,-0.484C0.072,-0.444 0.073,-0.403 0.073,-0.353L0.073,-0Z" style="fill-rule:nonzero;"/>
                    </g>
                    <g transform="matrix(28,0,0,28,319.496,576.29)">
                        <path d="M0.088,0.121C0.152,0.036 0.219,-0.091 0.219,-0.287C0.219,-0.484 0.152,-0.612 0.088,-0.694L0.02,-0.694C0.092,-0.595 0.146,-0.467 0.146,-0.288C0.146,-0.108 0.091,0.022 0.02,0.121L0.088,0.121Z" style="fill-rule:nonzero;"/>
                    </g>
                </g>
                <g transform="matrix(24,0,0,24,170.032,458.123)">
                    <path d="M0.262,-0.661C0.13,-0.661 0.036,-0.541 0.036,-0.323C0.038,-0.108 0.124,0.011 0.251,0.011C0.395,0.011 0.477,-0.111 0.477,-0.332C0.477,-0.539 0.399,-0.661 0.262,-0.661ZM0.257,-0.593C0.348,-0.593 0.389,-0.488 0.389,-0.328C0.389,-0.162 0.346,-0.057 0.256,-0.057C0.176,-0.057 0.124,-0.153 0.124,-0.322C0.124,-0.499 0.18,-0.593 0.257,-0.593Z" style="fill-rule:nonzero;"/>
                </g>
                <g transform="matrix(24,0,0,24,182.344,458.123)">
                    <path d="M0.111,0.011C0.148,0.011 0.171,-0.016 0.171,-0.052C0.171,-0.089 0.147,-0.115 0.112,-0.115C0.077,-0.115 0.052,-0.089 0.052,-0.052C0.052,-0.016 0.076,0.011 0.111,0.011Z" style="fill-rule:nonzero;"/>
                </g>
                <g transform="matrix(24,0,0,24,187.312,458.123)">
                    <path d="M0.46,-0L0.46,-0.073L0.168,-0.073L0.168,-0.075L0.22,-0.123C0.357,-0.255 0.444,-0.352 0.444,-0.472C0.444,-0.565 0.385,-0.661 0.245,-0.661C0.17,-0.661 0.106,-0.633 0.061,-0.595L0.089,-0.533C0.119,-0.558 0.168,-0.588 0.227,-0.588C0.324,-0.588 0.356,-0.527 0.356,-0.461C0.355,-0.363 0.28,-0.279 0.114,-0.121L0.045,-0.054L0.045,-0L0.46,-0Z" style="fill-rule:nonzero;"/>
                </g>
                <g transform="matrix(24,0,0,24,204.712,458.123)">
                    <path d="M0.403,-0.075C0.411,-0.013 0.446,0.011 0.489,0.011C0.503,0.011 0.509,0.01 0.519,0.007L0.526,-0.057C0.491,-0.059 0.48,-0.08 0.48,-0.133L0.48,-0.484L0.393,-0.484L0.393,-0.187C0.393,-0.171 0.39,-0.155 0.385,-0.142C0.369,-0.103 0.327,-0.061 0.269,-0.061C0.192,-0.061 0.16,-0.123 0.16,-0.198L0.16,-0.484L0.073,-0.484L0.073,0.02C0.073,0.097 0.077,0.168 0.087,0.198L0.166,0.198C0.156,0.158 0.155,0.069 0.155,0.016L0.155,-0.044C0.176,-0.007 0.217,0.009 0.261,0.009C0.333,0.009 0.38,-0.037 0.4,-0.075L0.403,-0.075Z" style="fill-rule:nonzero;"/>
                </g>
                <g transform="matrix(24,0,0,24,217.984,458.123)">
                    <path d="M0.073,-0L0.159,-0L0.159,-0.292C0.159,-0.307 0.161,-0.322 0.166,-0.335C0.18,-0.379 0.22,-0.423 0.275,-0.423C0.342,-0.423 0.376,-0.367 0.376,-0.29L0.376,-0L0.462,-0L0.462,-0.299C0.462,-0.315 0.465,-0.331 0.469,-0.343C0.484,-0.386 0.523,-0.423 0.573,-0.423C0.644,-0.423 0.678,-0.367 0.678,-0.274L0.678,-0L0.764,-0L0.764,-0.285C0.764,-0.453 0.669,-0.495 0.605,-0.495C0.559,-0.495 0.527,-0.483 0.498,-0.461C0.478,-0.446 0.459,-0.425 0.444,-0.398L0.442,-0.398C0.421,-0.455 0.371,-0.495 0.305,-0.495C0.225,-0.495 0.18,-0.452 0.153,-0.406L0.15,-0.406L0.146,-0.484L0.069,-0.484C0.072,-0.444 0.073,-0.403 0.073,-0.353L0.073,-0Z" style="fill-rule:nonzero;"/>
                </g>
                <g transform="matrix(24,0,0,24,341.488,436.115)">
                    <path d="M0.262,-0.661C0.13,-0.661 0.036,-0.541 0.036,-0.323C0.038,-0.108 0.124,0.011 0.251,0.011C0.395,0.011 0.477,-0.111 0.477,-0.332C0.477,-0.539 0.399,-0.661 0.262,-0.661ZM0.257,-0.593C0.348,-0.593 0.389,-0.488 0.389,-0.328C0.389,-0.162 0.346,-0.057 0.256,-0.057C0.176,-0.057 0.124,-0.153 0.124,-0.322C0.124,-0.499 0.18,-0.593 0.257,-0.593Z" style="fill-rule:nonzero;"/>
                </g>
                <g transform="matrix(24,0,0,24,353.8,436.115)">
                    <path d="M0.111,0.011C0.148,0.011 0.171,-0.016 0.171,-0.052C0.171,-0.089 0.147,-0.115 0.112,-0.115C0.077,-0.115 0.052,-0.089 0.052,-0.052C0.052,-0.016 0.076,0.011 0.111,0.011Z" style="fill-rule:nonzero;"/>
                </g>
                <g transform="matrix(24,0,0,24,358.768,436.115)">
                    <path d="M0.433,-0.65L0.122,-0.65L0.08,-0.338C0.104,-0.341 0.133,-0.345 0.17,-0.345C0.3,-0.345 0.356,-0.285 0.357,-0.201C0.357,-0.114 0.286,-0.06 0.203,-0.06C0.144,-0.06 0.091,-0.08 0.064,-0.096L0.042,-0.029C0.073,-0.009 0.133,0.011 0.204,0.011C0.345,0.011 0.446,-0.084 0.446,-0.211C0.446,-0.293 0.404,-0.349 0.353,-0.378C0.313,-0.402 0.263,-0.413 0.213,-0.413C0.189,-0.413 0.175,-0.411 0.16,-0.409L0.185,-0.576L0.433,-0.576L0.433,-0.65Z" style="fill-rule:nonzero;"/>
                </g>
                <g transform="matrix(24,0,0,24,376.168,436.115)">
                    <path d="M0.403,-0.075C0.411,-0.013 0.446,0.011 0.489,0.011C0.503,0.011 0.509,0.01 0.519,0.007L0.526,-0.057C0.491,-0.059 0.48,-0.08 0.48,-0.133L0.48,-0.484L0.393,-0.484L0.393,-0.187C0.393,-0.171 0.39,-0.155 0.385,-0.142C0.369,-0.103 0.327,-0.061 0.269,-0.061C0.192,-0.061 0.16,-0.123 0.16,-0.198L0.16,-0.484L0.073,-0.484L0.073,0.02C0.073,0.097 0.077,0.168 0.087,0.198L0.166,0.198C0.156,0.158 0.155,0.069 0.155,0.016L0.155,-0.044C0.176,-0.007 0.217,0.009 0.261,0.009C0.333,0.009 0.38,-0.037 0.4,-0.075L0.403,-0.075Z" style="fill-rule:nonzero;"/>
                </g>
                <g transform="matrix(24,0,0,24,389.44,436.115)">
                    <path d="M0.073,-0L0.159,-0L0.159,-0.292C0.159,-0.307 0.161,-0.322 0.166,-0.335C0.18,-0.379 0.22,-0.423 0.275,-0.423C0.342,-0.423 0.376,-0.367 0.376,-0.29L0.376,-0L0.462,-0L0.462,-0.299C0.462,-0.315 0.465,-0.331 0.469,-0.343C0.484,-0.386 0.523,-0.423 0.573,-0.423C0.644,-0.423 0.678,-0.367 0.678,-0.274L0.678,-0L0.764,-0L0.764,-0.285C0.764,-0.453 0.669,-0.495 0.605,-0.495C0.559,-0.495 0.527,-0.483 0.498,-0.461C0.478,-0.446 0.459,-0.425 0.444,-0.398L0.442,-0.398C0.421,-0.455 0.371,-0.495 0.305,-0.495C0.225,-0.495 0.18,-0.452 0.153,-0.406L0.15,-0.406L0.146,-0.484L0.069,-0.484C0.072,-0.444 0.073,-0.403 0.073,-0.353L0.073,-0Z" style="fill-rule:nonzero;"/>
                </g>
                <g>
                    <g transform="matrix(28,0,0,28,4.3711,414.519)">
                        <path d="M0.051,-0.484L0.135,-0L0.217,-0L0.486,-0.484L0.395,-0.484L0.247,-0.202C0.219,-0.147 0.206,-0.115 0.196,-0.089L0.193,-0.089C0.191,-0.116 0.185,-0.153 0.178,-0.208L0.136,-0.484L0.051,-0.484Z" style="fill-rule:nonzero;"/>
                    </g>
                    <g transform="matrix(28,0,0,28,23.0471,414.519)">
                        <path d="M0.195,-0.694C0.132,-0.61 0.065,-0.482 0.064,-0.285C0.064,-0.09 0.132,0.038 0.195,0.121L0.264,0.121C0.193,0.021 0.138,-0.107 0.138,-0.285C0.138,-0.466 0.191,-0.596 0.264,-0.694L0.195,-0.694Z" style="fill-rule:nonzero;"/>
                    </g>
                    <g transform="matrix(28,0,0,28,30.9991,414.519)">
                        <path d="M0.403,-0.075C0.411,-0.013 0.446,0.011 0.489,0.011C0.503,0.011 0.509,0.01 0.519,0.007L0.526,-0.057C0.491,-0.059 0.48,-0.08 0.48,-0.133L0.48,-0.484L0.393,-0.484L0.393,-0.187C0.393,-0.171 0.39,-0.155 0.385,-0.142C0.369,-0.103 0.327,-0.061 0.269,-0.061C0.192,-0.061 0.16,-0.123 0.16,-0.198L0.16,-0.484L0.073,-0.484L0.073,0.02C0.073,0.097 0.077,0.168 0.087,0.198L0.166,0.198C0.156,0.158 0.155,0.069 0.155,0.016L0.155,-0.044C0.176,-0.007 0.217,0.009 0.261,0.009C0.333,0.009 0.38,-0.037 0.4,-0.075L0.403,-0.075Z" style="fill-rule:nonzero;"/>
                    </g>
                    <g transform="matrix(28,0,0,28,46.4831,414.519)">
                        <path d="M0.073,-0L0.159,-0L0.159,-0.292C0.159,-0.307 0.161,-0.322 0.166,-0.335C0.18,-0.379 0.22,-0.423 0.275,-0.423C0.342,-0.423 0.376,-0.367 0.376,-0.29L0.376,-0L0.462,-0L0.462,-0.299C0.462,-0.315 0.465,-0.331 0.469,-0.343C0.484,-0.386 0.523,-0.423 0.573,-0.423C0.644,-0.423 0.678,-0.367 0.678,-0.274L0.678,-0L0.764,-0L0.764,-0.285C0.764,-0.453 0.669,-0.495 0.605,-0.495C0.559,-0.495 0.527,-0.483 0.498,-0.461C0.478,-0.446 0.459,-0.425 0.444,-0.398L0.442,-0.398C0.421,-0.455 0.371,-0.495 0.305,-0.495C0.225,-0.495 0.18,-0.452 0.153,-0.406L0.15,-0.406L0.146,-0.484L0.069,-0.484C0.072,-0.444 0.073,-0.403 0.073,-0.353L0.073,-0Z" style="fill-rule:nonzero;"/>
                    </g>
                    <g transform="matrix(28,0,0,28,69.8351,414.519)">
                        <path d="M0.088,0.121C0.152,0.036 0.219,-0.091 0.219,-0.287C0.219,-0.484 0.152,-0.612 0.088,-0.694L0.02,-0.694C0.092,-0.595 0.146,-0.467 0.146,-0.288C0.146,-0.108 0.091,0.022 0.02,0.121L0.088,0.121Z" style="fill-rule:nonzero;"/>
                    </g>
                </g>
                <g>
                    <g transform="matrix(40,0,0,40,16.3599,351.868)">
                        <path d="M0.425,-0.388L0.163,-0.388L0.163,-0.601L0.44,-0.601L0.44,-0.674L0.076,-0.674L0.076,-0L0.455,-0L0.455,-0.073L0.163,-0.073L0.163,-0.316L0.425,-0.316L0.425,-0.388Z" style="fill-rule:nonzero;"/>
                    </g>
                    <g transform="matrix(40,0,0,40,36.0399,351.868)">
                        <path d="M0.46,-0L0.46,-0.073L0.168,-0.073L0.168,-0.075L0.22,-0.123C0.357,-0.255 0.444,-0.352 0.444,-0.472C0.444,-0.565 0.385,-0.661 0.245,-0.661C0.17,-0.661 0.106,-0.633 0.061,-0.595L0.089,-0.533C0.119,-0.558 0.168,-0.588 0.227,-0.588C0.324,-0.588 0.356,-0.527 0.356,-0.461C0.355,-0.363 0.28,-0.279 0.114,-0.121L0.045,-0.054L0.045,-0L0.46,-0Z" style="fill-rule:nonzero;"/>
                    </g>
                    <g transform="matrix(24,0,0,24,70.3874,332.393)">
                        <path d="M0.236,-0L0.321,-0L0.321,-0.65L0.246,-0.65L0.104,-0.574L0.121,-0.507L0.234,-0.568L0.236,-0.568L0.236,-0Z" style="fill-rule:nonzero;"/>
                    </g>
                </g>
                <g transform="matrix(24,0,0,24,70.3877,507.351)">
                    <path d="M0.262,-0.661C0.13,-0.661 0.036,-0.541 0.036,-0.323C0.038,-0.108 0.124,0.011 0.251,0.011C0.395,0.011 0.477,-0.111 0.477,-0.332C0.477,-0.539 0.399,-0.661 0.262,-0.661ZM0.257,-0.593C0.348,-0.593 0.389,-0.488 0.389,-0.328C0.389,-0.162 0.346,-0.057 0.256,-0.057C0.176,-0.057 0.124,-0.153 0.124,-0.322C0.124,-0.499 0.18,-0.593 0.257,-0.593Z" style="fill-rule:nonzero;"/>
                </g>
                <g transform="matrix(0,-1,-1,0,292.574,211.459)">
                    <path d="M-2.83,2.83L2.83,2.83" style="fill:none;fill-rule:nonzero;stroke:black;stroke-width:0.5px;stroke-linejoin:round;"/>
                </g>
                <g transform="matrix(1,0,0,1,118.285,214.288)">
                    <path d="M0,-5.659L0,0L342.919,0L342.919,-5.659" style="fill:none;fill-rule:nonzero;stroke:black;stroke-width:0.5px;"/>
                </g>
                <g transform="matrix(1,0,0,1,111.904,202.25)">
                    <path d="M0,-171.462L-5.661,-171.462L-5.661,0L0,0" style="fill:none;fill-rule:nonzero;stroke:black;stroke-width:0.5px;"/>
                </g>
                <g transform="matrix(0,1,1,0,375.476,-54.9409)">
                    <path d="M85.728,-257.19L257.19,-257.19L257.19,-85.732L85.728,-85.732L85.728,85.729" style="fill:none;fill-rule:nonzero;stroke:rgb(255,156,0);stroke-width:0.5px;"/>
                </g>
                <g transform="matrix(0,-1,-1,0,292.574,525.999)">
                    <path d="M-2.83,2.83L2.83,2.83" style="fill:none;fill-rule:nonzero;stroke:black;stroke-width:0.5px;stroke-linejoin:round;"/>
                </g>
                <g transform="matrix(1,0,0,1,118.285,528.828)">
                    <path d="M0,-5.659L0,0L342.919,0L342.919,-5.659" style="fill:none;fill-rule:nonzero;stroke:black;stroke-width:0.5px;"/>
                </g>
                <g transform="matrix(1,0,0,1,95.3394,500.25)">
                    <path d="M0,-171.463L-5.661,-171.463L-5.661,0L0,0" style="fill:none;fill-rule:nonzero;stroke:black;stroke-width:0.5px;"/>
                </g>
                <g transform="matrix(0,-1,-1,0,213.824,483.104)">
                    <path d="M-9.809,9.809L9.809,9.809" style="fill:none;fill-rule:nonzero;stroke:black;stroke-width:1px;stroke-linejoin:round;stroke-miterlimit:4;"/>
                </g>
                <g transform="matrix(1,0,0,1,204.015,498.279)">
                    <path d="M0,-6.981L-3.243,-8.953L-3.316,-8.843L-1.216,-3.555C-0.811,-1.713 -0.406,0.129 0,1.972C0.405,0.129 0.81,-1.713 1.216,-3.555L3.316,-8.843L3.261,-8.953L0,-6.981Z" style="fill-rule:nonzero;"/>
                </g>
                <g transform="matrix(1,0,0,1,204.015,467.93)">
                    <path d="M0,6.981L-3.243,8.953L-3.316,8.843L-1.216,3.555C-0.811,1.713 -0.406,-0.129 0,-1.972C0.405,-0.129 0.81,1.713 1.216,3.555L3.316,8.843L3.261,8.953L0,6.981Z" style="fill-rule:nonzero;"/>
                </g>
                <g transform="matrix(0,-1,-1,0,410.868,371.59)">
                    <path d="M-35.394,35.394L35.394,35.394" style="fill:none;fill-rule:nonzero;stroke:black;stroke-width:1px;stroke-linejoin:round;stroke-miterlimit:4;"/>
                </g>
                <g transform="matrix(1,0,0,1,375.474,412.349)">
                    <path d="M0,-6.981L-3.243,-8.953L-3.316,-8.843L-1.216,-3.555C-0.811,-1.713 -0.406,0.129 0,1.972C0.405,0.129 0.81,-1.713 1.216,-3.555L3.316,-8.843L3.261,-8.953L0,-6.981Z" style="fill-rule:nonzero;"/>
                </g>
                <g transform="matrix(1,0,0,1,375.474,330.831)">
                    <path d="M0,6.981L-3.243,8.953L-3.316,8.843L-1.216,3.555C-0.811,1.713 -0.406,-0.129 0,-1.972C0.405,-0.129 0.81,1.713 1.216,3.555L3.316,8.843L3.261,8.953L0,6.981Z" style="fill-rule:nonzero;"/>
                </g>
                <g transform="matrix(1,0,0,1,118.286,500.25)">
                    <path d="M0,-171.391L0,0L4.431,-3.954L8.931,-7.704L13.703,-11.249L18.612,-14.589L23.657,-17.657L28.838,-20.452L34.156,-23.043L39.609,-25.361L45.132,-27.474L50.722,-29.247L56.449,-30.747L62.243,-32.042L68.038,-32.996L73.97,-33.678L79.833,-34.155L85.764,-34.292L91.627,-34.155L97.558,-33.678L103.421,-32.996L109.216,-32.042L115.011,-30.747L120.737,-29.247L126.396,-27.474L131.918,-25.361L137.304,-23.043L142.621,-20.452L147.871,-17.657L152.916,-14.589L157.756,-11.249L162.528,-7.704L167.096,-3.954L171.459,0L171.459,-171.391L171.868,-163.006L173.095,-154.688L175.141,-146.507L178.004,-138.599L181.549,-131.032L185.912,-123.805L190.889,-117.056L196.548,-110.784L202.82,-105.125L209.569,-100.148L216.795,-95.785L224.363,-92.24L232.271,-89.377L240.452,-87.332L248.769,-86.105L257.155,-85.695L265.608,-86.105L273.926,-87.332L282.039,-89.377L289.947,-92.24L297.582,-95.785L304.809,-100.148L311.558,-105.125L317.762,-110.784L323.421,-117.056L328.465,-123.805L332.76,-131.032L336.374,-138.599L339.169,-146.507L341.214,-154.688L342.509,-163.006L342.919,-171.391" style="fill:none;fill-rule:nonzero;stroke:rgb(255,156,0);stroke-width:0.5px;"/>
                </g>
            </g>
        </g>
    </g>
</svg>
