<?xml version="1.0" encoding="UTF-8" standalone="no"?>
<!DOCTYPE svg PUBLIC "-//W3C//DTD SVG 1.1//EN" "http://www.w3.org/Graphics/SVG/1.1/DTD/svg11.dtd">
<svg width="100%" height="100%" viewBox="0 0 492 595" version="1.1" xmlns="http://www.w3.org/2000/svg" xmlns:xlink="http://www.w3.org/1999/xlink" xml:space="preserve" xmlns:serif="http://www.serif.com/" style="fill-rule:evenodd;clip-rule:evenodd;stroke-linejoin:round;stroke-miterlimit:10;">
    <g transform="matrix(1.03744,0,0,1.00985,0,0)">
        <rect id="Artboard1" x="0" y="0" width="473.667" height="589" style="fill:none;"/>
        <g id="Artboard11" serif:id="Artboard1">
            <g id="Layer-1" serif:id="Layer 1" transform="matrix(0.963913,0,0,0.990249,9.0917,-2.87253)">
                <g transform="matrix(0,-1,-1,0,292.574,211.459)">
                    <path d="M-2.83,2.83L2.83,2.83" style="fill:none;fill-rule:nonzero;stroke:black;stroke-width:0.5px;"/>
                </g>
                <g transform="matrix(1,0,0,1,118.285,214.288)">
                    <path d="M0,-5.659L0,0L342.919,0L342.919,-5.659" style="fill:none;fill-rule:nonzero;stroke:black;stroke-width:0.5px;stroke-linejoin:miter;"/>
                </g>
                <g transform="matrix(1,0,0,1,111.904,202.25)">
                    <path d="M0,-171.462L-5.661,-171.462L-5.661,0L0,0" style="fill:none;fill-rule:nonzero;stroke:black;stroke-width:0.5px;stroke-linejoin:miter;"/>
                </g>
                <g transform="matrix(0,1,1,0,375.476,-54.9404)">
                    <path d="M85.728,-257.19L257.19,-257.19L257.19,-85.732L85.728,-85.732L85.728,85.728" style="fill:none;fill-rule:nonzero;stroke:rgb(255,156,0);stroke-width:0.5px;"/>
                </g>
                <g transform="matrix(0,-1,-1,0,292.574,525.999)">
                    <path d="M-2.83,2.83L2.83,2.83" style="fill:none;fill-rule:nonzero;stroke:black;stroke-width:0.5px;"/>
                </g>
                <g transform="matrix(1,0,0,1,118.285,528.828)">
                    <path d="M0,-5.659L0,0L342.919,0L342.919,-5.659" style="fill:none;fill-rule:nonzero;stroke:black;stroke-width:0.5px;stroke-linejoin:miter;"/>
                </g>
                <g transform="matrix(1,0,0,1,95.3394,500.25)">
                    <path d="M0,-171.463L-5.661,-171.463L-5.661,0L0,0" style="fill:none;fill-rule:nonzero;stroke:black;stroke-width:0.5px;stroke-linejoin:miter;"/>
                </g>
                <g transform="matrix(24,0,0,24,455.048,237.898)">
                    <path d="M0.46,-0L0.46,-0.073L0.168,-0.073L0.168,-0.075L0.22,-0.123C0.357,-0.255 0.444,-0.352 0.444,-0.472C0.444,-0.565 0.385,-0.661 0.245,-0.661C0.17,-0.661 0.106,-0.633 0.061,-0.595L0.089,-0.533C0.119,-0.558 0.168,-0.588 0.227,-0.588C0.324,-0.588 0.356,-0.527 0.356,-0.461C0.355,-0.363 0.28,-0.279 0.114,-0.121L0.045,-0.054L0.045,-0L0.46,-0Z" style="fill-rule:nonzero;"/>
                </g>
                <g transform="matrix(24,0,0,24,283.588,237.898)">
                    <path d="M0.236,-0L0.321,-0L0.321,-0.65L0.246,-0.65L0.104,-0.574L0.121,-0.507L0.234,-0.568L0.236,-0.568L0.236,-0Z" style="fill-rule:nonzero;"/>
                </g>
                <g transform="matrix(24,0,0,24,112.129,237.898)">
                    <path d="M0.262,-0.661C0.13,-0.661 0.036,-0.541 0.036,-0.323C0.038,-0.108 0.124,0.011 0.251,0.011C0.395,0.011 0.477,-0.111 0.477,-0.332C0.477,-0.539 0.399,-0.661 0.262,-0.661ZM0.257,-0.593C0.348,-0.593 0.389,-0.488 0.389,-0.328C0.389,-0.162 0.346,-0.057 0.256,-0.057C0.176,-0.057 0.124,-0.153 0.124,-0.322C0.124,-0.499 0.18,-0.593 0.257,-0.593Z" style="fill-rule:nonzero;"/>
                </g>
                <g>
                    <g transform="matrix(28,0,0,28,252.044,261.748)">
                        <path d="M0.417,-0.484L0.37,-0.236C0.35,-0.129 0.273,-0.059 0.213,-0.059C0.156,-0.059 0.135,-0.093 0.135,-0.143C0.135,-0.164 0.138,-0.187 0.144,-0.214L0.195,-0.484L0.112,-0.484L0.06,-0.21C0.054,-0.178 0.051,-0.152 0.051,-0.129C0.051,-0.019 0.116,0.011 0.178,0.011C0.242,0.011 0.306,-0.028 0.349,-0.091L0.351,-0.091L0.338,-0L0.413,-0C0.418,-0.04 0.425,-0.087 0.435,-0.141L0.5,-0.484L0.417,-0.484Z" style="fill-rule:nonzero;"/>
                    </g>
                    <g transform="matrix(28,0,0,28,272.708,261.748)">
                        <path d="M0.195,-0.694C0.132,-0.61 0.065,-0.482 0.064,-0.285C0.064,-0.09 0.132,0.038 0.195,0.121L0.264,0.121C0.193,0.021 0.138,-0.107 0.138,-0.285C0.138,-0.466 0.191,-0.596 0.264,-0.694L0.195,-0.694Z" style="fill-rule:nonzero;"/>
                    </g>
                    <g transform="matrix(28,0,0,28,280.66,261.748)">
                        <path d="M0.403,-0.075C0.411,-0.013 0.446,0.011 0.489,0.011C0.503,0.011 0.509,0.01 0.519,0.007L0.526,-0.057C0.491,-0.059 0.48,-0.08 0.48,-0.133L0.48,-0.484L0.393,-0.484L0.393,-0.187C0.393,-0.171 0.39,-0.155 0.385,-0.142C0.369,-0.103 0.327,-0.061 0.269,-0.061C0.192,-0.061 0.16,-0.123 0.16,-0.198L0.16,-0.484L0.073,-0.484L0.073,0.02C0.073,0.097 0.077,0.168 0.087,0.198L0.166,0.198C0.156,0.158 0.155,0.069 0.155,0.016L0.155,-0.044C0.176,-0.007 0.217,0.009 0.261,0.009C0.333,0.009 0.38,-0.037 0.4,-0.075L0.403,-0.075Z" style="fill-rule:nonzero;"/>
                    </g>
                    <g transform="matrix(28,0,0,28,296.144,261.748)">
                        <path d="M0.073,-0L0.159,-0L0.159,-0.292C0.159,-0.307 0.161,-0.322 0.166,-0.335C0.18,-0.379 0.22,-0.423 0.275,-0.423C0.342,-0.423 0.376,-0.367 0.376,-0.29L0.376,-0L0.462,-0L0.462,-0.299C0.462,-0.315 0.465,-0.331 0.469,-0.343C0.484,-0.386 0.523,-0.423 0.573,-0.423C0.644,-0.423 0.678,-0.367 0.678,-0.274L0.678,-0L0.764,-0L0.764,-0.285C0.764,-0.453 0.669,-0.495 0.605,-0.495C0.559,-0.495 0.527,-0.483 0.498,-0.461C0.478,-0.446 0.459,-0.425 0.444,-0.398L0.442,-0.398C0.421,-0.455 0.371,-0.495 0.305,-0.495C0.225,-0.495 0.18,-0.452 0.153,-0.406L0.15,-0.406L0.146,-0.484L0.069,-0.484C0.072,-0.444 0.073,-0.403 0.073,-0.353L0.073,-0Z" style="fill-rule:nonzero;"/>
                    </g>
                    <g transform="matrix(28,0,0,28,319.496,261.748)">
                        <path d="M0.088,0.121C0.152,0.036 0.219,-0.091 0.219,-0.287C0.219,-0.484 0.152,-0.612 0.088,-0.694L0.02,-0.694C0.092,-0.595 0.146,-0.467 0.146,-0.288C0.146,-0.108 0.091,0.022 0.02,0.121L0.088,0.121Z" style="fill-rule:nonzero;"/>
                    </g>
                </g>
                <g>
                    <g transform="matrix(28,0,0,28,4.3839,116.512)">
                        <path d="M0.051,-0.484L0.135,-0L0.217,-0L0.486,-0.484L0.395,-0.484L0.247,-0.202C0.219,-0.147 0.206,-0.115 0.196,-0.089L0.193,-0.089C0.191,-0.116 0.185,-0.153 0.178,-0.208L0.136,-0.484L0.051,-0.484Z" style="fill-rule:nonzero;"/>
                    </g>
                    <g transform="matrix(28,0,0,28,23.0599,116.512)">
                        <path d="M0.195,-0.694C0.132,-0.61 0.065,-0.482 0.064,-0.285C0.064,-0.09 0.132,0.038 0.195,0.121L0.264,0.121C0.193,0.021 0.138,-0.107 0.138,-0.285C0.138,-0.466 0.191,-0.596 0.264,-0.694L0.195,-0.694Z" style="fill-rule:nonzero;"/>
                    </g>
                    <g transform="matrix(28,0,0,28,31.0119,116.512)">
                        <path d="M0.403,-0.075C0.411,-0.013 0.446,0.011 0.489,0.011C0.503,0.011 0.509,0.01 0.519,0.007L0.526,-0.057C0.491,-0.059 0.48,-0.08 0.48,-0.133L0.48,-0.484L0.393,-0.484L0.393,-0.187C0.393,-0.171 0.39,-0.155 0.385,-0.142C0.369,-0.103 0.327,-0.061 0.269,-0.061C0.192,-0.061 0.16,-0.123 0.16,-0.198L0.16,-0.484L0.073,-0.484L0.073,0.02C0.073,0.097 0.077,0.168 0.087,0.198L0.166,0.198C0.156,0.158 0.155,0.069 0.155,0.016L0.155,-0.044C0.176,-0.007 0.217,0.009 0.261,0.009C0.333,0.009 0.38,-0.037 0.4,-0.075L0.403,-0.075Z" style="fill-rule:nonzero;"/>
                    </g>
                    <g transform="matrix(28,0,0,28,46.4959,116.512)">
                        <path d="M0.073,-0L0.159,-0L0.159,-0.292C0.159,-0.307 0.161,-0.322 0.166,-0.335C0.18,-0.379 0.22,-0.423 0.275,-0.423C0.342,-0.423 0.376,-0.367 0.376,-0.29L0.376,-0L0.462,-0L0.462,-0.299C0.462,-0.315 0.465,-0.331 0.469,-0.343C0.484,-0.386 0.523,-0.423 0.573,-0.423C0.644,-0.423 0.678,-0.367 0.678,-0.274L0.678,-0L0.764,-0L0.764,-0.285C0.764,-0.453 0.669,-0.495 0.605,-0.495C0.559,-0.495 0.527,-0.483 0.498,-0.461C0.478,-0.446 0.459,-0.425 0.444,-0.398L0.442,-0.398C0.421,-0.455 0.371,-0.495 0.305,-0.495C0.225,-0.495 0.18,-0.452 0.153,-0.406L0.15,-0.406L0.146,-0.484L0.069,-0.484C0.072,-0.444 0.073,-0.403 0.073,-0.353L0.073,-0Z" style="fill-rule:nonzero;"/>
                    </g>
                    <g transform="matrix(28,0,0,28,69.8479,116.512)">
                        <path d="M0.088,0.121C0.152,0.036 0.219,-0.091 0.219,-0.287C0.219,-0.484 0.152,-0.612 0.088,-0.694L0.02,-0.694C0.092,-0.595 0.146,-0.467 0.146,-0.288C0.146,-0.108 0.091,0.022 0.02,0.121L0.088,0.121Z" style="fill-rule:nonzero;"/>
                    </g>
                </g>
                <g>
                    <g transform="matrix(40,0,0,40,16.3599,53.8682)">
                        <path d="M0.425,-0.388L0.163,-0.388L0.163,-0.601L0.44,-0.601L0.44,-0.674L0.076,-0.674L0.076,-0L0.455,-0L0.455,-0.073L0.163,-0.073L0.163,-0.316L0.425,-0.316L0.425,-0.388Z" style="fill-rule:nonzero;"/>
                    </g>
                    <g transform="matrix(40,0,0,40,36.0399,53.8682)">
                        <path d="M0.236,-0L0.321,-0L0.321,-0.65L0.246,-0.65L0.104,-0.574L0.121,-0.507L0.234,-0.568L0.236,-0.568L0.236,-0Z" style="fill-rule:nonzero;"/>
                    </g>
                    <g transform="matrix(24,0,0,24,86.9474,34.394)">
                        <path d="M0.236,-0L0.321,-0L0.321,-0.65L0.246,-0.65L0.104,-0.574L0.121,-0.507L0.234,-0.568L0.236,-0.568L0.236,-0Z" style="fill-rule:nonzero;"/>
                    </g>
                </g>
                <g transform="matrix(24,0,0,24,86.9473,209.351)">
                    <path d="M0.262,-0.661C0.13,-0.661 0.036,-0.541 0.036,-0.323C0.038,-0.108 0.124,0.011 0.251,0.011C0.395,0.011 0.477,-0.111 0.477,-0.332C0.477,-0.539 0.399,-0.661 0.262,-0.661ZM0.257,-0.593C0.348,-0.593 0.389,-0.488 0.389,-0.328C0.389,-0.162 0.346,-0.057 0.256,-0.057C0.176,-0.057 0.124,-0.153 0.124,-0.322C0.124,-0.499 0.18,-0.593 0.257,-0.593Z" style="fill-rule:nonzero;"/>
                </g>
                <g transform="matrix(24,0,0,24,455.048,552.44)">
                    <path d="M0.46,-0L0.46,-0.073L0.168,-0.073L0.168,-0.075L0.22,-0.123C0.357,-0.255 0.444,-0.352 0.444,-0.472C0.444,-0.565 0.385,-0.661 0.245,-0.661C0.17,-0.661 0.106,-0.633 0.061,-0.595L0.089,-0.533C0.119,-0.558 0.168,-0.588 0.227,-0.588C0.324,-0.588 0.356,-0.527 0.356,-0.461C0.355,-0.363 0.28,-0.279 0.114,-0.121L0.045,-0.054L0.045,-0L0.46,-0Z" style="fill-rule:nonzero;"/>
                </g>
                <g transform="matrix(24,0,0,24,283.588,552.44)">
                    <path d="M0.236,-0L0.321,-0L0.321,-0.65L0.246,-0.65L0.104,-0.574L0.121,-0.507L0.234,-0.568L0.236,-0.568L0.236,-0Z" style="fill-rule:nonzero;"/>
                </g>
                <g transform="matrix(24,0,0,24,112.13,552.44)">
                    <path d="M0.262,-0.661C0.13,-0.661 0.036,-0.541 0.036,-0.323C0.038,-0.108 0.124,0.011 0.251,0.011C0.395,0.011 0.477,-0.111 0.477,-0.332C0.477,-0.539 0.399,-0.661 0.262,-0.661ZM0.257,-0.593C0.348,-0.593 0.389,-0.488 0.389,-0.328C0.389,-0.162 0.346,-0.057 0.256,-0.057C0.176,-0.057 0.124,-0.153 0.124,-0.322C0.124,-0.499 0.18,-0.593 0.257,-0.593Z" style="fill-rule:nonzero;"/>
                </g>
                <g>
                    <g transform="matrix(28,0,0,28,252.044,576.29)">
                        <path d="M0.417,-0.484L0.37,-0.236C0.35,-0.129 0.273,-0.059 0.213,-0.059C0.156,-0.059 0.135,-0.093 0.135,-0.143C0.135,-0.164 0.138,-0.187 0.144,-0.214L0.195,-0.484L0.112,-0.484L0.06,-0.21C0.054,-0.178 0.051,-0.152 0.051,-0.129C0.051,-0.019 0.116,0.011 0.178,0.011C0.242,0.011 0.306,-0.028 0.349,-0.091L0.351,-0.091L0.338,-0L0.413,-0C0.418,-0.04 0.425,-0.087 0.435,-0.141L0.5,-0.484L0.417,-0.484Z" style="fill-rule:nonzero;"/>
                    </g>
                    <g transform="matrix(28,0,0,28,272.708,576.29)">
                        <path d="M0.195,-0.694C0.132,-0.61 0.065,-0.482 0.064,-0.285C0.064,-0.09 0.132,0.038 0.195,0.121L0.264,0.121C0.193,0.021 0.138,-0.107 0.138,-0.285C0.138,-0.466 0.191,-0.596 0.264,-0.694L0.195,-0.694Z" style="fill-rule:nonzero;"/>
                    </g>
                    <g transform="matrix(28,0,0,28,280.66,576.29)">
                        <path d="M0.403,-0.075C0.411,-0.013 0.446,0.011 0.489,0.011C0.503,0.011 0.509,0.01 0.519,0.007L0.526,-0.057C0.491,-0.059 0.48,-0.08 0.48,-0.133L0.48,-0.484L0.393,-0.484L0.393,-0.187C0.393,-0.171 0.39,-0.155 0.385,-0.142C0.369,-0.103 0.327,-0.061 0.269,-0.061C0.192,-0.061 0.16,-0.123 0.16,-0.198L0.16,-0.484L0.073,-0.484L0.073,0.02C0.073,0.097 0.077,0.168 0.087,0.198L0.166,0.198C0.156,0.158 0.155,0.069 0.155,0.016L0.155,-0.044C0.176,-0.007 0.217,0.009 0.261,0.009C0.333,0.009 0.38,-0.037 0.4,-0.075L0.403,-0.075Z" style="fill-rule:nonzero;"/>
                    </g>
                    <g transform="matrix(28,0,0,28,296.144,576.29)">
                        <path d="M0.073,-0L0.159,-0L0.159,-0.292C0.159,-0.307 0.161,-0.322 0.166,-0.335C0.18,-0.379 0.22,-0.423 0.275,-0.423C0.342,-0.423 0.376,-0.367 0.376,-0.29L0.376,-0L0.462,-0L0.462,-0.299C0.462,-0.315 0.465,-0.331 0.469,-0.343C0.484,-0.386 0.523,-0.423 0.573,-0.423C0.644,-0.423 0.678,-0.367 0.678,-0.274L0.678,-0L0.764,-0L0.764,-0.285C0.764,-0.453 0.669,-0.495 0.605,-0.495C0.559,-0.495 0.527,-0.483 0.498,-0.461C0.478,-0.446 0.459,-0.425 0.444,-0.398L0.442,-0.398C0.421,-0.455 0.371,-0.495 0.305,-0.495C0.225,-0.495 0.18,-0.452 0.153,-0.406L0.15,-0.406L0.146,-0.484L0.069,-0.484C0.072,-0.444 0.073,-0.403 0.073,-0.353L0.073,-0Z" style="fill-rule:nonzero;"/>
                    </g>
                    <g transform="matrix(28,0,0,28,319.496,576.29)">
                        <path d="M0.088,0.121C0.152,0.036 0.219,-0.091 0.219,-0.287C0.219,-0.484 0.152,-0.612 0.088,-0.694L0.02,-0.694C0.092,-0.595 0.146,-0.467 0.146,-0.288C0.146,-0.108 0.091,0.022 0.02,0.121L0.088,0.121Z" style="fill-rule:nonzero;"/>
                    </g>
                </g>
                <g transform="matrix(24,0,0,24,341.262,422.29)">
                    <path d="M0.262,-0.661C0.13,-0.661 0.036,-0.541 0.036,-0.323C0.038,-0.108 0.124,0.011 0.251,0.011C0.395,0.011 0.477,-0.111 0.477,-0.332C0.477,-0.539 0.399,-0.661 0.262,-0.661ZM0.257,-0.593C0.348,-0.593 0.389,-0.488 0.389,-0.328C0.389,-0.162 0.346,-0.057 0.256,-0.057C0.176,-0.057 0.124,-0.153 0.124,-0.322C0.124,-0.499 0.18,-0.593 0.257,-0.593Z" style="fill-rule:nonzero;"/>
                </g>
                <g transform="matrix(24,0,0,24,353.574,422.29)">
                    <path d="M0.111,0.011C0.148,0.011 0.171,-0.016 0.171,-0.052C0.171,-0.089 0.147,-0.115 0.112,-0.115C0.077,-0.115 0.052,-0.089 0.052,-0.052C0.052,-0.016 0.076,0.011 0.111,0.011Z" style="fill-rule:nonzero;"/>
                </g>
                <g transform="matrix(24,0,0,24,358.542,422.29)">
                    <path d="M0.46,-0L0.46,-0.073L0.168,-0.073L0.168,-0.075L0.22,-0.123C0.357,-0.255 0.444,-0.352 0.444,-0.472C0.444,-0.565 0.385,-0.661 0.245,-0.661C0.17,-0.661 0.106,-0.633 0.061,-0.595L0.089,-0.533C0.119,-0.558 0.168,-0.588 0.227,-0.588C0.324,-0.588 0.356,-0.527 0.356,-0.461C0.355,-0.363 0.28,-0.279 0.114,-0.121L0.045,-0.054L0.045,-0L0.46,-0Z" style="fill-rule:nonzero;"/>
                </g>
                <g transform="matrix(24,0,0,24,375.942,422.29)">
                    <path d="M0.403,-0.075C0.411,-0.013 0.446,0.011 0.489,0.011C0.503,0.011 0.509,0.01 0.519,0.007L0.526,-0.057C0.491,-0.059 0.48,-0.08 0.48,-0.133L0.48,-0.484L0.393,-0.484L0.393,-0.187C0.393,-0.171 0.39,-0.155 0.385,-0.142C0.369,-0.103 0.327,-0.061 0.269,-0.061C0.192,-0.061 0.16,-0.123 0.16,-0.198L0.16,-0.484L0.073,-0.484L0.073,0.02C0.073,0.097 0.077,0.168 0.087,0.198L0.166,0.198C0.156,0.158 0.155,0.069 0.155,0.016L0.155,-0.044C0.176,-0.007 0.217,0.009 0.261,0.009C0.333,0.009 0.38,-0.037 0.4,-0.075L0.403,-0.075Z" style="fill-rule:nonzero;"/>
                </g>
                <g transform="matrix(24,0,0,24,389.214,422.29)">
                    <path d="M0.073,-0L0.159,-0L0.159,-0.292C0.159,-0.307 0.161,-0.322 0.166,-0.335C0.18,-0.379 0.22,-0.423 0.275,-0.423C0.342,-0.423 0.376,-0.367 0.376,-0.29L0.376,-0L0.462,-0L0.462,-0.299C0.462,-0.315 0.465,-0.331 0.469,-0.343C0.484,-0.386 0.523,-0.423 0.573,-0.423C0.644,-0.423 0.678,-0.367 0.678,-0.274L0.678,-0L0.764,-0L0.764,-0.285C0.764,-0.453 0.669,-0.495 0.605,-0.495C0.559,-0.495 0.527,-0.483 0.498,-0.461C0.478,-0.446 0.459,-0.425 0.444,-0.398L0.442,-0.398C0.421,-0.455 0.371,-0.495 0.305,-0.495C0.225,-0.495 0.18,-0.452 0.153,-0.406L0.15,-0.406L0.146,-0.484L0.069,-0.484C0.072,-0.444 0.073,-0.403 0.073,-0.353L0.073,-0Z" style="fill-rule:nonzero;"/>
                </g>
                <g>
                    <g transform="matrix(28,0,0,28,4.3711,414.519)">
                        <path d="M0.051,-0.484L0.135,-0L0.217,-0L0.486,-0.484L0.395,-0.484L0.247,-0.202C0.219,-0.147 0.206,-0.115 0.196,-0.089L0.193,-0.089C0.191,-0.116 0.185,-0.153 0.178,-0.208L0.136,-0.484L0.051,-0.484Z" style="fill-rule:nonzero;"/>
                    </g>
                    <g transform="matrix(28,0,0,28,23.0471,414.519)">
                        <path d="M0.195,-0.694C0.132,-0.61 0.065,-0.482 0.064,-0.285C0.064,-0.09 0.132,0.038 0.195,0.121L0.264,0.121C0.193,0.021 0.138,-0.107 0.138,-0.285C0.138,-0.466 0.191,-0.596 0.264,-0.694L0.195,-0.694Z" style="fill-rule:nonzero;"/>
                    </g>
                    <g transform="matrix(28,0,0,28,30.9991,414.519)">
                        <path d="M0.403,-0.075C0.411,-0.013 0.446,0.011 0.489,0.011C0.503,0.011 0.509,0.01 0.519,0.007L0.526,-0.057C0.491,-0.059 0.48,-0.08 0.48,-0.133L0.48,-0.484L0.393,-0.484L0.393,-0.187C0.393,-0.171 0.39,-0.155 0.385,-0.142C0.369,-0.103 0.327,-0.061 0.269,-0.061C0.192,-0.061 0.16,-0.123 0.16,-0.198L0.16,-0.484L0.073,-0.484L0.073,0.02C0.073,0.097 0.077,0.168 0.087,0.198L0.166,0.198C0.156,0.158 0.155,0.069 0.155,0.016L0.155,-0.044C0.176,-0.007 0.217,0.009 0.261,0.009C0.333,0.009 0.38,-0.037 0.4,-0.075L0.403,-0.075Z" style="fill-rule:nonzero;"/>
                    </g>
                    <g transform="matrix(28,0,0,28,46.4831,414.519)">
                        <path d="M0.073,-0L0.159,-0L0.159,-0.292C0.159,-0.307 0.161,-0.322 0.166,-0.335C0.18,-0.379 0.22,-0.423 0.275,-0.423C0.342,-0.423 0.376,-0.367 0.376,-0.29L0.376,-0L0.462,-0L0.462,-0.299C0.462,-0.315 0.465,-0.331 0.469,-0.343C0.484,-0.386 0.523,-0.423 0.573,-0.423C0.644,-0.423 0.678,-0.367 0.678,-0.274L0.678,-0L0.764,-0L0.764,-0.285C0.764,-0.453 0.669,-0.495 0.605,-0.495C0.559,-0.495 0.527,-0.483 0.498,-0.461C0.478,-0.446 0.459,-0.425 0.444,-0.398L0.442,-0.398C0.421,-0.455 0.371,-0.495 0.305,-0.495C0.225,-0.495 0.18,-0.452 0.153,-0.406L0.15,-0.406L0.146,-0.484L0.069,-0.484C0.072,-0.444 0.073,-0.403 0.073,-0.353L0.073,-0Z" style="fill-rule:nonzero;"/>
                    </g>
                    <g transform="matrix(28,0,0,28,69.8351,414.519)">
                        <path d="M0.088,0.121C0.152,0.036 0.219,-0.091 0.219,-0.287C0.219,-0.484 0.152,-0.612 0.088,-0.694L0.02,-0.694C0.092,-0.595 0.146,-0.467 0.146,-0.288C0.146,-0.108 0.091,0.022 0.02,0.121L0.088,0.121Z" style="fill-rule:nonzero;"/>
                    </g>
                </g>
                <g>
                    <g transform="matrix(40,0,0,40,16.3599,351.868)">
                        <path d="M0.425,-0.388L0.163,-0.388L0.163,-0.601L0.44,-0.601L0.44,-0.674L0.076,-0.674L0.076,-0L0.455,-0L0.455,-0.073L0.163,-0.073L0.163,-0.316L0.425,-0.316L0.425,-0.388Z" style="fill-rule:nonzero;"/>
                    </g>
                    <g transform="matrix(40,0,0,40,36.0399,351.868)">
                        <path d="M0.46,-0L0.46,-0.073L0.168,-0.073L0.168,-0.075L0.22,-0.123C0.357,-0.255 0.444,-0.352 0.444,-0.472C0.444,-0.565 0.385,-0.661 0.245,-0.661C0.17,-0.661 0.106,-0.633 0.061,-0.595L0.089,-0.533C0.119,-0.558 0.168,-0.588 0.227,-0.588C0.324,-0.588 0.356,-0.527 0.356,-0.461C0.355,-0.363 0.28,-0.279 0.114,-0.121L0.045,-0.054L0.045,-0L0.46,-0Z" style="fill-rule:nonzero;"/>
                    </g>
                    <g transform="matrix(24,0,0,24,70.3874,332.393)">
                        <path d="M0.236,-0L0.321,-0L0.321,-0.65L0.246,-0.65L0.104,-0.574L0.121,-0.507L0.234,-0.568L0.236,-0.568L0.236,-0Z" style="fill-rule:nonzero;"/>
                    </g>
                </g>
                <g transform="matrix(24,0,0,24,70.3877,507.351)">
                    <path d="M0.262,-0.661C0.13,-0.661 0.036,-0.541 0.036,-0.323C0.038,-0.108 0.124,0.011 0.251,0.011C0.395,0.011 0.477,-0.111 0.477,-0.332C0.477,-0.539 0.399,-0.661 0.262,-0.661ZM0.257,-0.593C0.348,-0.593 0.389,-0.488 0.389,-0.328C0.389,-0.162 0.346,-0.057 0.256,-0.057C0.176,-0.057 0.124,-0.153 0.124,-0.322C0.124,-0.499 0.18,-0.593 0.257,-0.593Z" style="fill-rule:nonzero;"/>
                </g>
                <g transform="matrix(24,0,0,24,344.915,122.851)">
                    <path d="M0.039,-0.023C0.073,-0.003 0.122,0.01 0.175,0.01C0.29,0.01 0.356,-0.05 0.356,-0.135C0.356,-0.207 0.313,-0.249 0.229,-0.281C0.166,-0.305 0.137,-0.323 0.137,-0.363C0.137,-0.399 0.166,-0.429 0.218,-0.429C0.263,-0.429 0.298,-0.413 0.317,-0.401L0.339,-0.465C0.312,-0.481 0.269,-0.495 0.22,-0.495C0.116,-0.495 0.053,-0.431 0.053,-0.353C0.053,-0.295 0.094,-0.247 0.181,-0.216C0.246,-0.192 0.271,-0.169 0.271,-0.127C0.271,-0.087 0.241,-0.055 0.177,-0.055C0.133,-0.055 0.087,-0.073 0.061,-0.09L0.039,-0.023Z" style="fill-rule:nonzero;"/>
                </g>
                <g transform="matrix(24,0,0,24,354.419,122.851)">
                    <path d="M0.161,-0L0.161,-0.484L0.073,-0.484L0.073,-0L0.161,-0ZM0.117,-0.675C0.085,-0.675 0.062,-0.651 0.062,-0.62C0.062,-0.59 0.084,-0.566 0.115,-0.566C0.15,-0.566 0.172,-0.59 0.171,-0.62C0.171,-0.651 0.15,-0.675 0.117,-0.675Z" style="fill-rule:nonzero;"/>
                </g>
                <g transform="matrix(24,0,0,24,360.035,122.851)">
                    <path d="M0.073,-0L0.161,-0L0.161,-0.291C0.161,-0.306 0.163,-0.321 0.167,-0.332C0.182,-0.381 0.227,-0.422 0.285,-0.422C0.368,-0.422 0.397,-0.357 0.397,-0.279L0.397,-0L0.485,-0L0.485,-0.289C0.485,-0.455 0.381,-0.495 0.314,-0.495C0.234,-0.495 0.178,-0.45 0.154,-0.404L0.152,-0.404L0.147,-0.484L0.069,-0.484C0.072,-0.444 0.073,-0.403 0.073,-0.353L0.073,-0Z" style="fill-rule:nonzero;"/>
                </g>
                <g transform="matrix(24,0,0,24,373.355,122.851)">
                    <path d="M0.413,-0.484L0.409,-0.411L0.407,-0.411C0.386,-0.451 0.34,-0.495 0.256,-0.495C0.145,-0.495 0.038,-0.402 0.038,-0.238C0.038,-0.104 0.124,-0.002 0.244,-0.002C0.319,-0.002 0.371,-0.038 0.398,-0.083L0.4,-0.083L0.4,-0.029C0.4,0.093 0.334,0.14 0.244,0.14C0.184,0.14 0.134,0.122 0.102,0.102L0.08,0.169C0.119,0.195 0.183,0.209 0.241,0.209C0.302,0.209 0.37,0.195 0.417,0.151C0.464,0.109 0.486,0.041 0.486,-0.07L0.486,-0.351C0.486,-0.41 0.488,-0.449 0.49,-0.484L0.413,-0.484ZM0.399,-0.206C0.399,-0.191 0.397,-0.174 0.392,-0.159C0.373,-0.103 0.324,-0.069 0.27,-0.069C0.175,-0.069 0.127,-0.148 0.127,-0.243C0.127,-0.355 0.187,-0.426 0.271,-0.426C0.335,-0.426 0.378,-0.384 0.394,-0.333C0.398,-0.321 0.399,-0.308 0.399,-0.293L0.399,-0.206Z" style="fill-rule:nonzero;"/>
                </g>
                <g transform="matrix(24,0,0,24,386.771,122.851)">
                    <rect x="0.073" y="-0.71" width="0.088" height="0.71" style="fill-rule:nonzero;"/>
                </g>
                <g transform="matrix(24,0,0,24,392.435,122.851)">
                    <path d="M0.462,-0.226C0.463,-0.235 0.465,-0.249 0.465,-0.267C0.465,-0.356 0.423,-0.495 0.265,-0.495C0.124,-0.495 0.038,-0.38 0.038,-0.234C0.038,-0.088 0.127,0.01 0.276,0.01C0.353,0.01 0.406,-0.006 0.437,-0.02L0.422,-0.083C0.389,-0.069 0.351,-0.058 0.288,-0.058C0.2,-0.058 0.124,-0.107 0.122,-0.226L0.462,-0.226ZM0.123,-0.289C0.13,-0.35 0.169,-0.432 0.258,-0.432C0.357,-0.432 0.381,-0.345 0.38,-0.289L0.123,-0.289Z" style="fill-rule:nonzero;"/>
                </g>
                <g transform="matrix(24,0,0,24,404.459,122.851)">
                    <rect x="0.03" y="-0.303" width="0.247" height="0.065" style="fill-rule:nonzero;"/>
                </g>
                <g transform="matrix(24,0,0,24,411.827,122.851)">
                    <path d="M0.073,0.198L0.16,0.198L0.16,-0.065L0.162,-0.065C0.191,-0.017 0.247,0.011 0.311,0.011C0.425,0.011 0.531,-0.075 0.531,-0.249C0.531,-0.396 0.443,-0.495 0.326,-0.495C0.247,-0.495 0.19,-0.46 0.154,-0.401L0.152,-0.401L0.148,-0.484L0.069,-0.484C0.071,-0.438 0.073,-0.388 0.073,-0.326L0.073,0.198ZM0.16,-0.28C0.16,-0.292 0.163,-0.305 0.166,-0.316C0.183,-0.382 0.239,-0.425 0.299,-0.425C0.392,-0.425 0.443,-0.342 0.443,-0.245C0.443,-0.134 0.389,-0.058 0.296,-0.058C0.233,-0.058 0.18,-0.1 0.164,-0.161C0.162,-0.172 0.16,-0.184 0.16,-0.197L0.16,-0.28Z" style="fill-rule:nonzero;"/>
                </g>
                <g transform="matrix(24,0,0,24,425.483,122.851)">
                    <path d="M0.161,-0L0.161,-0.484L0.073,-0.484L0.073,-0L0.161,-0ZM0.117,-0.675C0.085,-0.675 0.062,-0.651 0.062,-0.62C0.062,-0.59 0.084,-0.566 0.115,-0.566C0.15,-0.566 0.172,-0.59 0.171,-0.62C0.171,-0.651 0.15,-0.675 0.117,-0.675Z" style="fill-rule:nonzero;"/>
                </g>
                <g transform="matrix(24,0,0,24,431.099,122.851)">
                    <path d="M0.016,-0.484L0.18,-0.247L0.008,-0L0.105,-0L0.175,-0.109C0.193,-0.138 0.21,-0.164 0.226,-0.193L0.228,-0.193C0.245,-0.164 0.261,-0.137 0.28,-0.109L0.351,-0L0.451,-0L0.281,-0.25L0.446,-0.484L0.351,-0.484L0.283,-0.381C0.267,-0.355 0.251,-0.33 0.235,-0.301L0.232,-0.301C0.216,-0.328 0.201,-0.353 0.183,-0.38L0.114,-0.484L0.016,-0.484Z" style="fill-rule:nonzero;"/>
                </g>
                <g transform="matrix(24,0,0,24,442.211,122.851)">
                    <path d="M0.462,-0.226C0.463,-0.235 0.465,-0.249 0.465,-0.267C0.465,-0.356 0.423,-0.495 0.265,-0.495C0.124,-0.495 0.038,-0.38 0.038,-0.234C0.038,-0.088 0.127,0.01 0.276,0.01C0.353,0.01 0.406,-0.006 0.437,-0.02L0.422,-0.083C0.389,-0.069 0.351,-0.058 0.288,-0.058C0.2,-0.058 0.124,-0.107 0.122,-0.226L0.462,-0.226ZM0.123,-0.289C0.13,-0.35 0.169,-0.432 0.258,-0.432C0.357,-0.432 0.381,-0.345 0.38,-0.289L0.123,-0.289Z" style="fill-rule:nonzero;"/>
                </g>
                <g transform="matrix(24,0,0,24,454.235,122.851)">
                    <rect x="0.073" y="-0.71" width="0.088" height="0.71" style="fill-rule:nonzero;"/>
                </g>
                <g transform="matrix(24,0,0,24,384.083,151.651)">
                    <rect x="0.073" y="-0.71" width="0.088" height="0.71" style="fill-rule:nonzero;"/>
                </g>
                <g transform="matrix(24,0,0,24,389.747,151.651)">
                    <path d="M0.161,-0L0.161,-0.484L0.073,-0.484L0.073,-0L0.161,-0ZM0.117,-0.675C0.085,-0.675 0.062,-0.651 0.062,-0.62C0.062,-0.59 0.084,-0.566 0.115,-0.566C0.15,-0.566 0.172,-0.59 0.171,-0.62C0.171,-0.651 0.15,-0.675 0.117,-0.675Z" style="fill-rule:nonzero;"/>
                </g>
                <g transform="matrix(24,0,0,24,395.363,151.651)">
                    <path d="M0.073,-0L0.161,-0L0.161,-0.291C0.161,-0.306 0.163,-0.321 0.167,-0.332C0.182,-0.381 0.227,-0.422 0.285,-0.422C0.368,-0.422 0.397,-0.357 0.397,-0.279L0.397,-0L0.485,-0L0.485,-0.289C0.485,-0.455 0.381,-0.495 0.314,-0.495C0.234,-0.495 0.178,-0.45 0.154,-0.404L0.152,-0.404L0.147,-0.484L0.069,-0.484C0.072,-0.444 0.073,-0.403 0.073,-0.353L0.073,-0Z" style="fill-rule:nonzero;"/>
                </g>
                <g transform="matrix(24,0,0,24,408.683,151.651)">
                    <path d="M0.462,-0.226C0.463,-0.235 0.465,-0.249 0.465,-0.267C0.465,-0.356 0.423,-0.495 0.265,-0.495C0.124,-0.495 0.038,-0.38 0.038,-0.234C0.038,-0.088 0.127,0.01 0.276,0.01C0.353,0.01 0.406,-0.006 0.437,-0.02L0.422,-0.083C0.389,-0.069 0.351,-0.058 0.288,-0.058C0.2,-0.058 0.124,-0.107 0.122,-0.226L0.462,-0.226ZM0.123,-0.289C0.13,-0.35 0.169,-0.432 0.258,-0.432C0.357,-0.432 0.381,-0.345 0.38,-0.289L0.123,-0.289Z" style="fill-rule:nonzero;"/>
                </g>
                <g transform="matrix(1,0,0,1,101.139,500.318)">
                    <path d="M0,-171.598L0,17.093L205.784,17.093L205.784,-154.508L360.065,-154.508L360.065,-188.691L171.374,-188.691L171.374,-17.318L34.183,-17.318L34.183,-171.598L0,-171.598Z" style="fill:rgb(255,156,0);"/>
                </g>
                <g transform="matrix(1,0,0,1,314.26,414.519)">
                    <path d="M0,0L20.746,0" style="fill:none;fill-rule:nonzero;stroke:black;stroke-width:1px;stroke-miterlimit:4;"/>
                </g>
                <g transform="matrix(1,0,0,1,315.875,414.519)">
                    <path d="M0,0L1.973,-3.242L1.862,-3.316L-3.426,-1.216C-5.268,-0.811 -7.11,-0.405 -8.952,0C-7.11,0.406 -5.268,0.811 -3.426,1.217L1.862,3.316L1.973,3.262L0,0Z" style="fill-rule:nonzero;"/>
                </g>
                <g transform="matrix(1,0,0,1,303.337,116.519)">
                    <path d="M0,0L36.33,0" style="fill:none;fill-rule:nonzero;stroke:black;stroke-width:1px;stroke-miterlimit:4;"/>
                </g>
                <g transform="matrix(1,0,0,1,304.952,116.519)">
                    <path d="M0,0L1.973,-3.242L1.862,-3.316L-3.426,-1.215C-5.268,-0.811 -7.11,-0.405 -8.952,0C-7.11,0.406 -5.268,0.811 -3.426,1.216L1.862,3.316L1.973,3.262L0,0Z" style="fill-rule:nonzero;"/>
                </g>
                <g transform="matrix(-1,0,0,1,244.428,414.519)">
                    <path d="M-20.748,0L0,0" style="fill:none;fill-rule:nonzero;stroke:black;stroke-width:1px;stroke-miterlimit:4;"/>
                </g>
                <g transform="matrix(1,0,0,1,263.56,414.519)">
                    <path d="M0,0L-1.973,3.242L-1.862,3.316L3.426,1.216C5.268,0.811 7.11,0.405 8.952,0C7.11,-0.406 5.268,-0.811 3.426,-1.217L-1.862,-3.316L-1.973,-3.262L0,0Z" style="fill-rule:nonzero;"/>
                </g>
            </g>
        </g>
    </g>
</svg>
