<?xml version="1.0" encoding="UTF-8" standalone="no"?>
<!DOCTYPE svg PUBLIC "-//W3C//DTD SVG 1.1//EN" "http://www.w3.org/Graphics/SVG/1.1/DTD/svg11.dtd">
<svg width="100%" height="100%" viewBox="0 0 492 446" version="1.1" xmlns="http://www.w3.org/2000/svg" xmlns:xlink="http://www.w3.org/1999/xlink" xml:space="preserve" xmlns:serif="http://www.serif.com/" style="fill-rule:evenodd;clip-rule:evenodd;stroke-linejoin:round;stroke-miterlimit:10;">
    <g transform="matrix(1.0387,0,0,1.04089,0,0)">
        <rect id="Artboard1" x="0" y="0" width="473.667" height="428" style="fill:none;"/>
        <g id="Artboard11" serif:id="Artboard1">
            <g id="Layer-1" serif:id="Layer 1" transform="matrix(0.962738,0,0,0.960718,9.53754,7.95357)">
                <g transform="matrix(24,0,0,24,455.048,391.898)">
                    <path d="M0.46,-0L0.46,-0.073L0.168,-0.073L0.168,-0.075L0.22,-0.123C0.357,-0.255 0.444,-0.352 0.444,-0.472C0.444,-0.565 0.385,-0.661 0.245,-0.661C0.17,-0.661 0.106,-0.633 0.061,-0.595L0.089,-0.533C0.119,-0.558 0.168,-0.588 0.227,-0.588C0.324,-0.588 0.356,-0.527 0.356,-0.461C0.355,-0.363 0.28,-0.279 0.114,-0.121L0.045,-0.054L0.045,-0L0.46,-0Z" style="fill-rule:nonzero;"/>
                </g>
                <g transform="matrix(24,0,0,24,283.588,391.898)">
                    <path d="M0.236,-0L0.321,-0L0.321,-0.65L0.246,-0.65L0.104,-0.574L0.121,-0.507L0.234,-0.568L0.236,-0.568L0.236,-0Z" style="fill-rule:nonzero;"/>
                </g>
                <g transform="matrix(24,0,0,24,112.129,391.898)">
                    <path d="M0.262,-0.661C0.13,-0.661 0.036,-0.541 0.036,-0.323C0.038,-0.108 0.124,0.011 0.251,0.011C0.395,0.011 0.477,-0.111 0.477,-0.332C0.477,-0.539 0.399,-0.661 0.262,-0.661ZM0.257,-0.593C0.348,-0.593 0.389,-0.488 0.389,-0.328C0.389,-0.162 0.346,-0.057 0.256,-0.057C0.176,-0.057 0.124,-0.153 0.124,-0.322C0.124,-0.499 0.18,-0.593 0.257,-0.593Z" style="fill-rule:nonzero;"/>
                </g>
                <g>
                    <g transform="matrix(28,0,0,28,252.044,415.748)">
                        <path d="M0.417,-0.484L0.37,-0.236C0.35,-0.129 0.273,-0.059 0.213,-0.059C0.156,-0.059 0.135,-0.093 0.135,-0.143C0.135,-0.164 0.138,-0.187 0.144,-0.214L0.195,-0.484L0.112,-0.484L0.06,-0.21C0.054,-0.178 0.051,-0.152 0.051,-0.129C0.051,-0.019 0.116,0.011 0.178,0.011C0.242,0.011 0.306,-0.028 0.349,-0.091L0.351,-0.091L0.338,-0L0.413,-0C0.418,-0.04 0.425,-0.087 0.435,-0.141L0.5,-0.484L0.417,-0.484Z" style="fill-rule:nonzero;"/>
                    </g>
                    <g transform="matrix(28,0,0,28,272.708,415.748)">
                        <path d="M0.195,-0.694C0.132,-0.61 0.065,-0.482 0.064,-0.285C0.064,-0.09 0.132,0.038 0.195,0.121L0.264,0.121C0.193,0.021 0.138,-0.107 0.138,-0.285C0.138,-0.466 0.191,-0.596 0.264,-0.694L0.195,-0.694Z" style="fill-rule:nonzero;"/>
                    </g>
                    <g transform="matrix(28,0,0,28,280.66,415.748)">
                        <path d="M0.403,-0.075C0.411,-0.013 0.446,0.011 0.489,0.011C0.503,0.011 0.509,0.01 0.519,0.007L0.526,-0.057C0.491,-0.059 0.48,-0.08 0.48,-0.133L0.48,-0.484L0.393,-0.484L0.393,-0.187C0.393,-0.171 0.39,-0.155 0.385,-0.142C0.369,-0.103 0.327,-0.061 0.269,-0.061C0.192,-0.061 0.16,-0.123 0.16,-0.198L0.16,-0.484L0.073,-0.484L0.073,0.02C0.073,0.097 0.077,0.168 0.087,0.198L0.166,0.198C0.156,0.158 0.155,0.069 0.155,0.016L0.155,-0.044C0.176,-0.007 0.217,0.009 0.261,0.009C0.333,0.009 0.38,-0.037 0.4,-0.075L0.403,-0.075Z" style="fill-rule:nonzero;"/>
                    </g>
                    <g transform="matrix(28,0,0,28,296.144,415.748)">
                        <path d="M0.073,-0L0.159,-0L0.159,-0.292C0.159,-0.307 0.161,-0.322 0.166,-0.335C0.18,-0.379 0.22,-0.423 0.275,-0.423C0.342,-0.423 0.376,-0.367 0.376,-0.29L0.376,-0L0.462,-0L0.462,-0.299C0.462,-0.315 0.465,-0.331 0.469,-0.343C0.484,-0.386 0.523,-0.423 0.573,-0.423C0.644,-0.423 0.678,-0.367 0.678,-0.274L0.678,-0L0.764,-0L0.764,-0.285C0.764,-0.453 0.669,-0.495 0.605,-0.495C0.559,-0.495 0.527,-0.483 0.498,-0.461C0.478,-0.446 0.459,-0.425 0.444,-0.398L0.442,-0.398C0.421,-0.455 0.371,-0.495 0.305,-0.495C0.225,-0.495 0.18,-0.452 0.153,-0.406L0.15,-0.406L0.146,-0.484L0.069,-0.484C0.072,-0.444 0.073,-0.403 0.073,-0.353L0.073,-0Z" style="fill-rule:nonzero;"/>
                    </g>
                    <g transform="matrix(28,0,0,28,319.496,415.748)">
                        <path d="M0.088,0.121C0.152,0.036 0.219,-0.091 0.219,-0.287C0.219,-0.484 0.152,-0.612 0.088,-0.694L0.02,-0.694C0.092,-0.595 0.146,-0.467 0.146,-0.288C0.146,-0.108 0.091,0.022 0.02,0.121L0.088,0.121Z" style="fill-rule:nonzero;"/>
                    </g>
                </g>
                <g>
                    <g transform="matrix(28,0,0,28,4.3839,188.388)">
                        <path d="M0.051,-0.484L0.135,-0L0.217,-0L0.486,-0.484L0.395,-0.484L0.247,-0.202C0.219,-0.147 0.206,-0.115 0.196,-0.089L0.193,-0.089C0.191,-0.116 0.185,-0.153 0.178,-0.208L0.136,-0.484L0.051,-0.484Z" style="fill-rule:nonzero;"/>
                    </g>
                    <g transform="matrix(28,0,0,28,23.0599,188.388)">
                        <path d="M0.195,-0.694C0.132,-0.61 0.065,-0.482 0.064,-0.285C0.064,-0.09 0.132,0.038 0.195,0.121L0.264,0.121C0.193,0.021 0.138,-0.107 0.138,-0.285C0.138,-0.466 0.191,-0.596 0.264,-0.694L0.195,-0.694Z" style="fill-rule:nonzero;"/>
                    </g>
                    <g transform="matrix(28,0,0,28,31.0119,188.388)">
                        <path d="M0.403,-0.075C0.411,-0.013 0.446,0.011 0.489,0.011C0.503,0.011 0.509,0.01 0.519,0.007L0.526,-0.057C0.491,-0.059 0.48,-0.08 0.48,-0.133L0.48,-0.484L0.393,-0.484L0.393,-0.187C0.393,-0.171 0.39,-0.155 0.385,-0.142C0.369,-0.103 0.327,-0.061 0.269,-0.061C0.192,-0.061 0.16,-0.123 0.16,-0.198L0.16,-0.484L0.073,-0.484L0.073,0.02C0.073,0.097 0.077,0.168 0.087,0.198L0.166,0.198C0.156,0.158 0.155,0.069 0.155,0.016L0.155,-0.044C0.176,-0.007 0.217,0.009 0.261,0.009C0.333,0.009 0.38,-0.037 0.4,-0.075L0.403,-0.075Z" style="fill-rule:nonzero;"/>
                    </g>
                    <g transform="matrix(28,0,0,28,46.4959,188.388)">
                        <path d="M0.073,-0L0.159,-0L0.159,-0.292C0.159,-0.307 0.161,-0.322 0.166,-0.335C0.18,-0.379 0.22,-0.423 0.275,-0.423C0.342,-0.423 0.376,-0.367 0.376,-0.29L0.376,-0L0.462,-0L0.462,-0.299C0.462,-0.315 0.465,-0.331 0.469,-0.343C0.484,-0.386 0.523,-0.423 0.573,-0.423C0.644,-0.423 0.678,-0.367 0.678,-0.274L0.678,-0L0.764,-0L0.764,-0.285C0.764,-0.453 0.669,-0.495 0.605,-0.495C0.559,-0.495 0.527,-0.483 0.498,-0.461C0.478,-0.446 0.459,-0.425 0.444,-0.398L0.442,-0.398C0.421,-0.455 0.371,-0.495 0.305,-0.495C0.225,-0.495 0.18,-0.452 0.153,-0.406L0.15,-0.406L0.146,-0.484L0.069,-0.484C0.072,-0.444 0.073,-0.403 0.073,-0.353L0.073,-0Z" style="fill-rule:nonzero;"/>
                    </g>
                    <g transform="matrix(28,0,0,28,69.8479,188.388)">
                        <path d="M0.088,0.121C0.152,0.036 0.219,-0.091 0.219,-0.287C0.219,-0.484 0.152,-0.612 0.088,-0.694L0.02,-0.694C0.092,-0.595 0.146,-0.467 0.146,-0.288C0.146,-0.108 0.091,0.022 0.02,0.121L0.088,0.121Z" style="fill-rule:nonzero;"/>
                    </g>
                    <g transform="matrix(24,0,0,24,86.9464,188.388)">
                        <path d="M0.236,-0L0.321,-0L0.321,-0.65L0.246,-0.65L0.104,-0.574L0.121,-0.507L0.234,-0.568L0.236,-0.568L0.236,-0Z" style="fill-rule:nonzero;"/>
                    </g>
                </g>
                <g transform="matrix(24,0,0,24,86.9473,23.3232)">
                    <path d="M0.46,-0L0.46,-0.073L0.168,-0.073L0.168,-0.075L0.22,-0.123C0.357,-0.255 0.444,-0.352 0.444,-0.472C0.444,-0.565 0.385,-0.661 0.245,-0.661C0.17,-0.661 0.106,-0.633 0.061,-0.595L0.089,-0.533C0.119,-0.558 0.168,-0.588 0.227,-0.588C0.324,-0.588 0.356,-0.527 0.356,-0.461C0.355,-0.363 0.28,-0.279 0.114,-0.121L0.045,-0.054L0.045,-0L0.46,-0Z" style="fill-rule:nonzero;"/>
                </g>
                <g transform="matrix(24,0,0,24,86.9473,363.355)">
                    <path d="M0.262,-0.661C0.13,-0.661 0.036,-0.541 0.036,-0.323C0.038,-0.108 0.124,0.011 0.251,0.011C0.395,0.011 0.477,-0.111 0.477,-0.332C0.477,-0.539 0.399,-0.661 0.262,-0.661ZM0.257,-0.593C0.348,-0.593 0.389,-0.488 0.389,-0.328C0.389,-0.162 0.346,-0.057 0.256,-0.057C0.176,-0.057 0.124,-0.153 0.124,-0.322C0.124,-0.499 0.18,-0.593 0.257,-0.593Z" style="fill-rule:nonzero;"/>
                </g>
                <g transform="matrix(0,-1,-1,0,292.574,365.459)">
                    <path d="M-2.83,2.83L2.83,2.83" style="fill:none;fill-rule:nonzero;stroke:black;stroke-width:0.5px;"/>
                </g>
                <g transform="matrix(1,0,0,1,118.285,368.288)">
                    <path d="M0,-5.659L0,0L342.919,0L342.919,-5.659" style="fill:none;fill-rule:nonzero;stroke:black;stroke-width:0.5px;"/>
                </g>
                <g transform="matrix(1,0,0,1,106.459,181.19)">
                    <path d="M0,0L5.229,0" style="fill:none;fill-rule:nonzero;stroke:black;stroke-width:0.5px;"/>
                </g>
                <g transform="matrix(1,0,0,1,111.904,356.25)">
                    <path d="M0,-342.917L-5.661,-342.917L-5.661,0L0,0" style="fill:none;fill-rule:nonzero;stroke:black;stroke-width:0.5px;"/>
                </g>
                <g transform="matrix(1,0,0,1,118.285,13.333)">
                    <path d="M0,342.917L342.919,342.917L342.919,171.507L171.507,171.507L171.507,0L0,0L0,342.917Z" style="fill:rgb(255,156,0);"/>
                </g>
            </g>
        </g>
    </g>
</svg>
