<?xml version="1.0" encoding="UTF-8" standalone="no"?>
<!DOCTYPE svg PUBLIC "-//W3C//DTD SVG 1.1//EN" "http://www.w3.org/Graphics/SVG/1.1/DTD/svg11.dtd">
<svg width="100%" height="100%" viewBox="0 0 485 362" version="1.1" xmlns="http://www.w3.org/2000/svg" xmlns:xlink="http://www.w3.org/1999/xlink" xml:space="preserve" xmlns:serif="http://www.serif.com/" style="fill-rule:evenodd;clip-rule:evenodd;stroke-miterlimit:10;">
    <g transform="matrix(1.02287,0,0,1.03709,0,0)">
        <rect id="Artboard1" x="0" y="0" width="473.667" height="348.667" style="fill:none;"/>
        <g id="Artboard11" serif:id="Artboard1">
            <g id="Layer-1" serif:id="Layer 1" transform="matrix(0.977641,0,0,0.964234,5.82492,7.03383)">
                <g transform="matrix(0.866019,-0.500011,-0.500011,-0.866019,191.348,275.147)">
                    <path d="M-0.033,0.125L0.466,0.125" style="fill:none;fill-rule:nonzero;stroke:rgb(200,200,200);stroke-width:0.5px;"/>
                </g>
                <g transform="matrix(0.865954,-0.500123,-0.500123,-0.865954,215.639,296.026)">
                    <path d="M-8.136,30.353L113.249,30.354" style="fill:none;fill-rule:nonzero;stroke:rgb(200,200,200);stroke-width:0.5px;stroke-dasharray:1,1.99;"/>
                </g>
                <g transform="matrix(0.866019,-0.500011,-0.500011,-0.866019,299.48,212.697)">
                    <path d="M-0.033,0.125L0.466,0.125" style="fill:none;fill-rule:nonzero;stroke:rgb(200,200,200);stroke-width:0.5px;"/>
                </g>
                <g transform="matrix(1,0,0,1,191.257,275.055)">
                    <path d="M0,0L0.5,0" style="fill:none;fill-rule:nonzero;stroke:rgb(200,200,200);stroke-width:0.5px;"/>
                </g>
                <g transform="matrix(1,-0.000148289,-0.000148289,-1,193.747,275.064)">
                    <path d="M-0,0.009L121.385,0.009" style="fill:none;fill-rule:nonzero;stroke:rgb(200,200,200);stroke-width:0.5px;stroke-dasharray:1,1.99;"/>
                </g>
                <g transform="matrix(1,0,0,1,316.127,275.037)">
                    <path d="M0,0L0.5,0" style="fill:none;fill-rule:nonzero;stroke:rgb(200,200,200);stroke-width:0.5px;"/>
                </g>
                <g>
                    <g transform="matrix(28,0,0,28,7.7852,153.117)">
                        <path d="M0.051,-0.484L0.135,-0L0.217,-0L0.486,-0.484L0.395,-0.484L0.247,-0.202C0.219,-0.147 0.206,-0.115 0.196,-0.089L0.193,-0.089C0.191,-0.116 0.185,-0.153 0.178,-0.208L0.136,-0.484L0.051,-0.484Z" style="fill-rule:nonzero;"/>
                    </g>
                    <g transform="matrix(28,0,0,28,26.4612,153.117)">
                        <path d="M0.195,-0.694C0.132,-0.61 0.065,-0.482 0.064,-0.285C0.064,-0.09 0.132,0.038 0.195,0.121L0.264,0.121C0.193,0.021 0.138,-0.107 0.138,-0.285C0.138,-0.466 0.191,-0.596 0.264,-0.694L0.195,-0.694Z" style="fill-rule:nonzero;"/>
                    </g>
                    <g transform="matrix(28,0,0,28,34.4132,153.117)">
                        <path d="M0.403,-0.075C0.411,-0.013 0.446,0.011 0.489,0.011C0.503,0.011 0.509,0.01 0.519,0.007L0.526,-0.057C0.491,-0.059 0.48,-0.08 0.48,-0.133L0.48,-0.484L0.393,-0.484L0.393,-0.187C0.393,-0.171 0.39,-0.155 0.385,-0.142C0.369,-0.103 0.327,-0.061 0.269,-0.061C0.192,-0.061 0.16,-0.123 0.16,-0.198L0.16,-0.484L0.073,-0.484L0.073,0.02C0.073,0.097 0.077,0.168 0.087,0.198L0.166,0.198C0.156,0.158 0.155,0.069 0.155,0.016L0.155,-0.044C0.176,-0.007 0.217,0.009 0.261,0.009C0.333,0.009 0.38,-0.037 0.4,-0.075L0.403,-0.075Z" style="fill-rule:nonzero;"/>
                    </g>
                    <g transform="matrix(28,0,0,28,49.8972,153.117)">
                        <path d="M0.073,-0L0.159,-0L0.159,-0.292C0.159,-0.307 0.161,-0.322 0.166,-0.335C0.18,-0.379 0.22,-0.423 0.275,-0.423C0.342,-0.423 0.376,-0.367 0.376,-0.29L0.376,-0L0.462,-0L0.462,-0.299C0.462,-0.315 0.465,-0.331 0.469,-0.343C0.484,-0.386 0.523,-0.423 0.573,-0.423C0.644,-0.423 0.678,-0.367 0.678,-0.274L0.678,-0L0.764,-0L0.764,-0.285C0.764,-0.453 0.669,-0.495 0.605,-0.495C0.559,-0.495 0.527,-0.483 0.498,-0.461C0.478,-0.446 0.459,-0.425 0.444,-0.398L0.442,-0.398C0.421,-0.455 0.371,-0.495 0.305,-0.495C0.225,-0.495 0.18,-0.452 0.153,-0.406L0.15,-0.406L0.146,-0.484L0.069,-0.484C0.072,-0.444 0.073,-0.403 0.073,-0.353L0.073,-0Z" style="fill-rule:nonzero;"/>
                    </g>
                    <g transform="matrix(28,0,0,28,73.2492,153.117)">
                        <path d="M0.088,0.121C0.152,0.036 0.219,-0.091 0.219,-0.287C0.219,-0.484 0.152,-0.612 0.088,-0.694L0.02,-0.694C0.092,-0.595 0.146,-0.467 0.146,-0.288C0.146,-0.108 0.091,0.022 0.02,0.121L0.088,0.121Z" style="fill-rule:nonzero;"/>
                    </g>
                </g>
                <g transform="matrix(24,0,0,24,177.205,74.6201)">
                    <path d="M0.042,-0.033C0.074,-0.012 0.138,0.011 0.211,0.011C0.367,0.011 0.448,-0.08 0.448,-0.184C0.448,-0.275 0.383,-0.335 0.303,-0.351L0.303,-0.353C0.383,-0.382 0.423,-0.439 0.423,-0.506C0.423,-0.585 0.365,-0.661 0.237,-0.661C0.167,-0.661 0.101,-0.636 0.067,-0.611L0.09,-0.547C0.118,-0.567 0.168,-0.59 0.22,-0.59C0.301,-0.59 0.334,-0.544 0.334,-0.492C0.334,-0.415 0.253,-0.382 0.189,-0.382L0.14,-0.382L0.14,-0.316L0.189,-0.316C0.274,-0.316 0.356,-0.277 0.357,-0.186C0.358,-0.132 0.323,-0.06 0.21,-0.06C0.149,-0.06 0.091,-0.085 0.066,-0.101L0.042,-0.033Z" style="fill:rgb(200,200,200);fill-rule:nonzero;"/>
                </g>
                <g transform="matrix(24,0,0,24,194.605,74.6201)">
                    <path d="M0.403,-0.075C0.411,-0.013 0.446,0.011 0.489,0.011C0.503,0.011 0.509,0.01 0.519,0.007L0.526,-0.057C0.491,-0.059 0.48,-0.08 0.48,-0.133L0.48,-0.484L0.393,-0.484L0.393,-0.187C0.393,-0.171 0.39,-0.155 0.385,-0.142C0.369,-0.103 0.327,-0.061 0.269,-0.061C0.192,-0.061 0.16,-0.123 0.16,-0.198L0.16,-0.484L0.073,-0.484L0.073,0.02C0.073,0.097 0.077,0.168 0.087,0.198L0.166,0.198C0.156,0.158 0.155,0.069 0.155,0.016L0.155,-0.044C0.176,-0.007 0.217,0.009 0.261,0.009C0.333,0.009 0.38,-0.037 0.4,-0.075L0.403,-0.075Z" style="fill:rgb(200,200,200);fill-rule:nonzero;"/>
                </g>
                <g transform="matrix(24,0,0,24,207.877,74.6201)">
                    <path d="M0.073,-0L0.159,-0L0.159,-0.292C0.159,-0.307 0.161,-0.322 0.166,-0.335C0.18,-0.379 0.22,-0.423 0.275,-0.423C0.342,-0.423 0.376,-0.367 0.376,-0.29L0.376,-0L0.462,-0L0.462,-0.299C0.462,-0.315 0.465,-0.331 0.469,-0.343C0.484,-0.386 0.523,-0.423 0.573,-0.423C0.644,-0.423 0.678,-0.367 0.678,-0.274L0.678,-0L0.764,-0L0.764,-0.285C0.764,-0.453 0.669,-0.495 0.605,-0.495C0.559,-0.495 0.527,-0.483 0.498,-0.461C0.478,-0.446 0.459,-0.425 0.444,-0.398L0.442,-0.398C0.421,-0.455 0.371,-0.495 0.305,-0.495C0.225,-0.495 0.18,-0.452 0.153,-0.406L0.15,-0.406L0.146,-0.484L0.069,-0.484C0.072,-0.444 0.073,-0.403 0.073,-0.353L0.073,-0Z" style="fill:rgb(200,200,200);fill-rule:nonzero;"/>
                </g>
                <g transform="matrix(24,0,0,24,309.613,250.42)">
                    <path d="M0.042,-0.033C0.074,-0.012 0.138,0.011 0.211,0.011C0.367,0.011 0.448,-0.08 0.448,-0.184C0.448,-0.275 0.383,-0.335 0.303,-0.351L0.303,-0.353C0.383,-0.382 0.423,-0.439 0.423,-0.506C0.423,-0.585 0.365,-0.661 0.237,-0.661C0.167,-0.661 0.101,-0.636 0.067,-0.611L0.09,-0.547C0.118,-0.567 0.168,-0.59 0.22,-0.59C0.301,-0.59 0.334,-0.544 0.334,-0.492C0.334,-0.415 0.253,-0.382 0.189,-0.382L0.14,-0.382L0.14,-0.316L0.189,-0.316C0.274,-0.316 0.356,-0.277 0.357,-0.186C0.358,-0.132 0.323,-0.06 0.21,-0.06C0.149,-0.06 0.091,-0.085 0.066,-0.101L0.042,-0.033Z" style="fill:rgb(200,200,200);fill-rule:nonzero;"/>
                </g>
                <g transform="matrix(24,0,0,24,321.925,250.42)">
                    <path d="M0.262,-0.661C0.13,-0.661 0.036,-0.541 0.036,-0.323C0.038,-0.108 0.124,0.011 0.251,0.011C0.395,0.011 0.477,-0.111 0.477,-0.332C0.477,-0.539 0.399,-0.661 0.262,-0.661ZM0.257,-0.593C0.348,-0.593 0.389,-0.488 0.389,-0.328C0.389,-0.162 0.346,-0.057 0.256,-0.057C0.176,-0.057 0.124,-0.153 0.124,-0.322C0.124,-0.499 0.18,-0.593 0.257,-0.593Z" style="fill:rgb(200,200,200);fill-rule:nonzero;"/>
                </g>
                <g transform="matrix(24,0,0,24,334.237,250.42)">
                    <path d="M0.162,-0.685C0.088,-0.685 0.028,-0.627 0.029,-0.55C0.029,-0.48 0.082,-0.421 0.16,-0.421C0.229,-0.421 0.294,-0.474 0.294,-0.555C0.294,-0.623 0.244,-0.685 0.162,-0.685ZM0.161,-0.638C0.218,-0.638 0.24,-0.591 0.24,-0.554C0.24,-0.505 0.206,-0.468 0.161,-0.468C0.117,-0.468 0.083,-0.504 0.083,-0.55C0.083,-0.593 0.109,-0.638 0.161,-0.638Z" style="fill:rgb(200,200,200);fill-rule:nonzero;"/>
                </g>
                <g transform="matrix(24,0,0,24,400.141,68.0201)">
                    <path d="M0.46,-0L0.46,-0.073L0.168,-0.073L0.168,-0.075L0.22,-0.123C0.357,-0.255 0.444,-0.352 0.444,-0.472C0.444,-0.565 0.385,-0.661 0.245,-0.661C0.17,-0.661 0.106,-0.633 0.061,-0.595L0.089,-0.533C0.119,-0.558 0.168,-0.588 0.227,-0.588C0.324,-0.588 0.356,-0.527 0.356,-0.461C0.355,-0.363 0.28,-0.279 0.114,-0.121L0.045,-0.054L0.045,-0L0.46,-0Z" style="fill:rgb(200,200,200);fill-rule:nonzero;"/>
                </g>
                <g transform="matrix(24,0,0,24,417.541,68.0201)">
                    <path d="M0.403,-0.075C0.411,-0.013 0.446,0.011 0.489,0.011C0.503,0.011 0.509,0.01 0.519,0.007L0.526,-0.057C0.491,-0.059 0.48,-0.08 0.48,-0.133L0.48,-0.484L0.393,-0.484L0.393,-0.187C0.393,-0.171 0.39,-0.155 0.385,-0.142C0.369,-0.103 0.327,-0.061 0.269,-0.061C0.192,-0.061 0.16,-0.123 0.16,-0.198L0.16,-0.484L0.073,-0.484L0.073,0.02C0.073,0.097 0.077,0.168 0.087,0.198L0.166,0.198C0.156,0.158 0.155,0.069 0.155,0.016L0.155,-0.044C0.176,-0.007 0.217,0.009 0.261,0.009C0.333,0.009 0.38,-0.037 0.4,-0.075L0.403,-0.075Z" style="fill:rgb(200,200,200);fill-rule:nonzero;"/>
                </g>
                <g transform="matrix(24,0,0,24,430.813,68.0201)">
                    <path d="M0.073,-0L0.159,-0L0.159,-0.292C0.159,-0.307 0.161,-0.322 0.166,-0.335C0.18,-0.379 0.22,-0.423 0.275,-0.423C0.342,-0.423 0.376,-0.367 0.376,-0.29L0.376,-0L0.462,-0L0.462,-0.299C0.462,-0.315 0.465,-0.331 0.469,-0.343C0.484,-0.386 0.523,-0.423 0.573,-0.423C0.644,-0.423 0.678,-0.367 0.678,-0.274L0.678,-0L0.764,-0L0.764,-0.285C0.764,-0.453 0.669,-0.495 0.605,-0.495C0.559,-0.495 0.527,-0.483 0.498,-0.461C0.478,-0.446 0.459,-0.425 0.444,-0.398L0.442,-0.398C0.421,-0.455 0.371,-0.495 0.305,-0.495C0.225,-0.495 0.18,-0.452 0.153,-0.406L0.15,-0.406L0.146,-0.484L0.069,-0.484C0.072,-0.444 0.073,-0.403 0.073,-0.353L0.073,-0Z" style="fill:rgb(200,200,200);fill-rule:nonzero;"/>
                </g>
                <g transform="matrix(24,0,0,24,71.6099,282.232)">
                    <path d="M0.46,-0L0.46,-0.073L0.168,-0.073L0.168,-0.075L0.22,-0.123C0.357,-0.255 0.444,-0.352 0.444,-0.472C0.444,-0.565 0.385,-0.661 0.245,-0.661C0.17,-0.661 0.106,-0.633 0.061,-0.595L0.089,-0.533C0.119,-0.558 0.168,-0.588 0.227,-0.588C0.324,-0.588 0.356,-0.527 0.356,-0.461C0.355,-0.363 0.28,-0.279 0.114,-0.121L0.045,-0.054L0.045,-0L0.46,-0Z" style="fill:rgb(35,31,32);fill-rule:nonzero;"/>
                </g>
                <g transform="matrix(24,0,0,24,83.9219,282.232)">
                    <path d="M0.262,-0.661C0.13,-0.661 0.036,-0.541 0.036,-0.323C0.038,-0.108 0.124,0.011 0.251,0.011C0.395,0.011 0.477,-0.111 0.477,-0.332C0.477,-0.539 0.399,-0.661 0.262,-0.661ZM0.257,-0.593C0.348,-0.593 0.389,-0.488 0.389,-0.328C0.389,-0.162 0.346,-0.057 0.256,-0.057C0.176,-0.057 0.124,-0.153 0.124,-0.322C0.124,-0.499 0.18,-0.593 0.257,-0.593Z" style="fill:rgb(35,31,32);fill-rule:nonzero;"/>
                </g>
                <g transform="matrix(24,0,0,24,71.6099,23.8004)">
                    <path d="M0.042,-0.033C0.074,-0.012 0.138,0.011 0.211,0.011C0.367,0.011 0.448,-0.08 0.448,-0.184C0.448,-0.275 0.383,-0.335 0.303,-0.351L0.303,-0.353C0.383,-0.382 0.423,-0.439 0.423,-0.506C0.423,-0.585 0.365,-0.661 0.237,-0.661C0.167,-0.661 0.101,-0.636 0.067,-0.611L0.09,-0.547C0.118,-0.567 0.168,-0.59 0.22,-0.59C0.301,-0.59 0.334,-0.544 0.334,-0.492C0.334,-0.415 0.253,-0.382 0.189,-0.382L0.14,-0.382L0.14,-0.316L0.189,-0.316C0.274,-0.316 0.356,-0.277 0.357,-0.186C0.358,-0.132 0.323,-0.06 0.21,-0.06C0.149,-0.06 0.091,-0.085 0.066,-0.101L0.042,-0.033Z" style="fill:rgb(35,31,32);fill-rule:nonzero;"/>
                </g>
                <g transform="matrix(24,0,0,24,83.9219,23.8004)">
                    <path d="M0.262,-0.661C0.13,-0.661 0.036,-0.541 0.036,-0.323C0.038,-0.108 0.124,0.011 0.251,0.011C0.395,0.011 0.477,-0.111 0.477,-0.332C0.477,-0.539 0.399,-0.661 0.262,-0.661ZM0.257,-0.593C0.348,-0.593 0.389,-0.488 0.389,-0.328C0.389,-0.162 0.346,-0.057 0.256,-0.057C0.176,-0.057 0.124,-0.153 0.124,-0.322C0.124,-0.499 0.18,-0.593 0.257,-0.593Z" style="fill:rgb(35,31,32);fill-rule:nonzero;"/>
                </g>
                <g transform="matrix(24,0,0,24,439.188,319.571)">
                    <path d="M0.46,-0L0.46,-0.073L0.168,-0.073L0.168,-0.075L0.22,-0.123C0.357,-0.255 0.444,-0.352 0.444,-0.472C0.444,-0.565 0.385,-0.661 0.245,-0.661C0.17,-0.661 0.106,-0.633 0.061,-0.595L0.089,-0.533C0.119,-0.558 0.168,-0.588 0.227,-0.588C0.324,-0.588 0.356,-0.527 0.356,-0.461C0.355,-0.363 0.28,-0.279 0.114,-0.121L0.045,-0.054L0.045,-0L0.46,-0Z" style="fill-rule:nonzero;"/>
                </g>
                <g transform="matrix(24,0,0,24,451.5,319.571)">
                    <path d="M0.262,-0.661C0.13,-0.661 0.036,-0.541 0.036,-0.323C0.038,-0.108 0.124,0.011 0.251,0.011C0.395,0.011 0.477,-0.111 0.477,-0.332C0.477,-0.539 0.399,-0.661 0.262,-0.661ZM0.257,-0.593C0.348,-0.593 0.389,-0.488 0.389,-0.328C0.389,-0.162 0.346,-0.057 0.256,-0.057C0.176,-0.057 0.124,-0.153 0.124,-0.322C0.124,-0.499 0.18,-0.593 0.257,-0.593Z" style="fill-rule:nonzero;"/>
                </g>
                <g transform="matrix(24,0,0,24,178.812,319.571)">
                    <path d="M0.236,-0L0.321,-0L0.321,-0.65L0.246,-0.65L0.104,-0.574L0.121,-0.507L0.234,-0.568L0.236,-0.568L0.236,-0Z" style="fill-rule:nonzero;"/>
                </g>
                <g transform="matrix(24,0,0,24,191.125,319.571)">
                    <path d="M0.262,-0.661C0.13,-0.661 0.036,-0.541 0.036,-0.323C0.038,-0.108 0.124,0.011 0.251,0.011C0.395,0.011 0.477,-0.111 0.477,-0.332C0.477,-0.539 0.399,-0.661 0.262,-0.661ZM0.257,-0.593C0.348,-0.593 0.389,-0.488 0.389,-0.328C0.389,-0.162 0.346,-0.057 0.256,-0.057C0.176,-0.057 0.124,-0.153 0.124,-0.322C0.124,-0.499 0.18,-0.593 0.257,-0.593Z" style="fill-rule:nonzero;"/>
                </g>
                <g>
                    <g transform="matrix(28,0,0,28,282.539,333.232)">
                        <path d="M0.417,-0.484L0.37,-0.236C0.35,-0.129 0.273,-0.059 0.213,-0.059C0.156,-0.059 0.135,-0.093 0.135,-0.143C0.135,-0.164 0.138,-0.187 0.144,-0.214L0.195,-0.484L0.112,-0.484L0.06,-0.21C0.054,-0.178 0.051,-0.152 0.051,-0.129C0.051,-0.019 0.116,0.011 0.178,0.011C0.242,0.011 0.306,-0.028 0.349,-0.091L0.351,-0.091L0.338,-0L0.413,-0C0.418,-0.04 0.425,-0.087 0.435,-0.141L0.5,-0.484L0.417,-0.484Z" style="fill-rule:nonzero;"/>
                    </g>
                    <g transform="matrix(28,0,0,28,303.203,333.232)">
                        <path d="M0.195,-0.694C0.132,-0.61 0.065,-0.482 0.064,-0.285C0.064,-0.09 0.132,0.038 0.195,0.121L0.264,0.121C0.193,0.021 0.138,-0.107 0.138,-0.285C0.138,-0.466 0.191,-0.596 0.264,-0.694L0.195,-0.694Z" style="fill-rule:nonzero;"/>
                    </g>
                    <g transform="matrix(28,0,0,28,311.155,333.232)">
                        <path d="M0.403,-0.075C0.411,-0.013 0.446,0.011 0.489,0.011C0.503,0.011 0.509,0.01 0.519,0.007L0.526,-0.057C0.491,-0.059 0.48,-0.08 0.48,-0.133L0.48,-0.484L0.393,-0.484L0.393,-0.187C0.393,-0.171 0.39,-0.155 0.385,-0.142C0.369,-0.103 0.327,-0.061 0.269,-0.061C0.192,-0.061 0.16,-0.123 0.16,-0.198L0.16,-0.484L0.073,-0.484L0.073,0.02C0.073,0.097 0.077,0.168 0.087,0.198L0.166,0.198C0.156,0.158 0.155,0.069 0.155,0.016L0.155,-0.044C0.176,-0.007 0.217,0.009 0.261,0.009C0.333,0.009 0.38,-0.037 0.4,-0.075L0.403,-0.075Z" style="fill-rule:nonzero;"/>
                    </g>
                    <g transform="matrix(28,0,0,28,326.639,333.232)">
                        <path d="M0.073,-0L0.159,-0L0.159,-0.292C0.159,-0.307 0.161,-0.322 0.166,-0.335C0.18,-0.379 0.22,-0.423 0.275,-0.423C0.342,-0.423 0.376,-0.367 0.376,-0.29L0.376,-0L0.462,-0L0.462,-0.299C0.462,-0.315 0.465,-0.331 0.469,-0.343C0.484,-0.386 0.523,-0.423 0.573,-0.423C0.644,-0.423 0.678,-0.367 0.678,-0.274L0.678,-0L0.764,-0L0.764,-0.285C0.764,-0.453 0.669,-0.495 0.605,-0.495C0.559,-0.495 0.527,-0.483 0.498,-0.461C0.478,-0.446 0.459,-0.425 0.444,-0.398L0.442,-0.398C0.421,-0.455 0.371,-0.495 0.305,-0.495C0.225,-0.495 0.18,-0.452 0.153,-0.406L0.15,-0.406L0.146,-0.484L0.069,-0.484C0.072,-0.444 0.073,-0.403 0.073,-0.353L0.073,-0Z" style="fill-rule:nonzero;"/>
                    </g>
                    <g transform="matrix(28,0,0,28,349.991,333.232)">
                        <path d="M0.088,0.121C0.152,0.036 0.219,-0.091 0.219,-0.287C0.219,-0.484 0.152,-0.612 0.088,-0.694L0.02,-0.694C0.092,-0.595 0.146,-0.467 0.146,-0.288C0.146,-0.108 0.091,0.022 0.02,0.121L0.088,0.121Z" style="fill-rule:nonzero;"/>
                    </g>
                </g>
                <g transform="matrix(1,0,0,1,110.546,275.037)">
                    <path d="M0,-258.239L-7.312,-258.239L-7.312,0L0,0" style="fill:none;fill-rule:nonzero;stroke:black;stroke-width:0.5px;"/>
                </g>
                <g transform="matrix(1,0,0,1,191.121,294.338)">
                    <path d="M0,-7.311L0,0.001L258.238,0.001L258.238,-7.312" style="fill:none;fill-rule:nonzero;stroke:black;stroke-width:0.5px;"/>
                </g>
                <g transform="matrix(0.500011,0.866019,0.866019,-0.500011,180.996,102.261)">
                    <path d="M-0.125,-0.217L0.375,-0.217" style="fill:none;fill-rule:nonzero;stroke:rgb(200,200,200);stroke-width:0.5px;"/>
                </g>
                <g transform="matrix(0.500136,0.865947,0.865947,-0.500136,192.914,104.343)">
                    <path d="M-5.482,-9.496L16.451,-9.496" style="fill:none;fill-rule:nonzero;stroke:rgb(200,200,200);stroke-width:0.5px;stroke-dasharray:0.95,1.91;"/>
                </g>
                <g transform="matrix(0.500011,0.866019,0.866019,-0.500011,193.645,124.164)">
                    <path d="M-0.125,-0.217L0.375,-0.217" style="fill:none;fill-rule:nonzero;stroke:rgb(200,200,200);stroke-width:0.5px;"/>
                </g>
                <g transform="matrix(0.500011,0.866019,0.866019,-0.500011,248.035,63.4526)">
                    <path d="M-0.125,-0.217L0.375,-0.217" style="fill:none;fill-rule:nonzero;stroke:rgb(200,200,200);stroke-width:0.5px;"/>
                </g>
                <g transform="matrix(0.500136,0.865947,0.865947,-0.500136,259.954,65.5345)">
                    <path d="M-5.482,-9.496L16.451,-9.496" style="fill:none;fill-rule:nonzero;stroke:rgb(200,200,200);stroke-width:0.5px;stroke-dasharray:0.95,1.91;"/>
                </g>
                <g transform="matrix(0.500011,0.866019,0.866019,-0.500011,260.685,85.355)">
                    <path d="M-0.125,-0.217L0.375,-0.217" style="fill:none;fill-rule:nonzero;stroke:rgb(200,200,200);stroke-width:0.5px;"/>
                </g>
                <g transform="matrix(0.500109,0.865963,0.865963,-0.500109,405.356,49.1946)">
                    <path d="M-10.861,-18.815L32.593,-18.815" style="fill:none;fill-rule:nonzero;stroke:rgb(200,200,200);stroke-width:0.5px;"/>
                </g>
                <g transform="matrix(1,0,0,1,384.08,47.5241)">
                    <path d="M0,2.452L2.107,2.5L2.112,2.426L-0.367,0.466C-1.074,-0.308 -1.78,-1.082 -2.487,-1.855C-2.171,-0.856 -1.854,0.142 -1.537,1.141L-1.078,4.269L-1.021,4.307L0,2.452Z" style="fill:rgb(200,200,200);fill-rule:nonzero;"/>
                </g>
                <g transform="matrix(1,0,0,1,404.915,88.5083)">
                    <path d="M0,-2.457L1.012,-4.307L1.078,-4.274L1.536,-1.146C1.854,-0.147 2.17,0.851 2.487,1.85C1.78,1.077 1.074,0.303 0.366,-0.471L-2.112,-2.431L-2.117,-2.499L0,-2.457Z" style="fill:rgb(200,200,200);fill-rule:nonzero;"/>
                </g>
                <g transform="matrix(0.866019,-0.500011,-0.500011,-0.866019,388.848,101.22)">
                    <path d="M-0.033,0.125L0.466,0.125" style="fill:none;fill-rule:nonzero;stroke:rgb(200,200,200);stroke-width:0.5px;"/>
                </g>
                <g transform="matrix(0.865947,-0.500136,-0.500136,-0.865947,394.857,103.939)">
                    <path d="M-1.47,5.485L20.462,5.485" style="fill:none;fill-rule:nonzero;stroke:rgb(200,200,200);stroke-width:0.5px;stroke-dasharray:0.95,1.91;"/>
                </g>
                <g transform="matrix(0.866019,-0.500011,-0.500011,-0.866019,410.751,88.5705)">
                    <path d="M-0.033,0.125L0.466,0.125" style="fill:none;fill-rule:nonzero;stroke:rgb(200,200,200);stroke-width:0.5px;"/>
                </g>
                <g transform="matrix(0.866019,-0.500011,-0.500011,-0.866019,363.024,56.4787)">
                    <path d="M-0.033,0.125L0.466,0.125" style="fill:none;fill-rule:nonzero;stroke:rgb(200,200,200);stroke-width:0.5px;"/>
                </g>
                <g transform="matrix(0.865947,-0.500136,-0.500136,-0.865947,369.033,59.1977)">
                    <path d="M-1.47,5.485L20.462,5.485" style="fill:none;fill-rule:nonzero;stroke:rgb(200,200,200);stroke-width:0.5px;stroke-dasharray:0.95,1.91;"/>
                </g>
                <g transform="matrix(0.866019,-0.500011,-0.500011,-0.866019,384.927,43.8293)">
                    <path d="M-0.033,0.125L0.466,0.125" style="fill:none;fill-rule:nonzero;stroke:rgb(200,200,200);stroke-width:0.5px;"/>
                </g>
                <g transform="matrix(0.865943,-0.500143,-0.500143,-0.865943,199.188,116.652)">
                    <path d="M-4.64,17.31L64.579,17.31" style="fill:none;fill-rule:nonzero;stroke:rgb(200,200,200);stroke-width:0.5px;"/>
                </g>
                <g transform="matrix(1,0,0,1,187.29,103.909)">
                    <path d="M0,-0.374L0.048,-2.482L-0.026,-2.487L-1.986,-0.007C-2.76,0.7 -3.534,1.407 -4.307,2.113C-3.308,1.797 -2.31,1.48 -1.311,1.163L1.817,0.704L1.855,0.647L0,-0.374Z" style="fill:rgb(200,200,200);fill-rule:nonzero;"/>
                </g>
                <g transform="matrix(1,0,0,1,245.675,69.4435)">
                    <path d="M0,0.37L-1.85,-0.642L-1.817,-0.708L1.311,-1.167C2.309,-1.484 3.308,-1.8 4.307,-2.117C3.533,-1.41 2.76,-0.704 1.986,0.003L0.025,2.483L-0.043,2.487L0,0.37Z" style="fill:rgb(200,200,200);fill-rule:nonzero;"/>
                </g>
                <g transform="matrix(-0.258544,-0.965999,-0.965999,0.258544,324.294,231.454)">
                    <path d="M-37.446,28.741C-17.217,23.327 3.197,23.662 22.061,28.742" style="fill:none;fill-rule:nonzero;stroke:rgb(200,200,200);stroke-width:0.5px;"/>
                </g>
                <g transform="matrix(1,0,0,1,191.171,246.177)">
                    <path d="M0,28.878L22.353,15.907L15.907,4.732L4.732,11.176L-1.794,0L-12.971,6.445L0,28.878Z" style="fill:rgb(255,156,0);"/>
                </g>
                <g transform="matrix(1,0,0,1,165.312,201.474)">
                    <path d="M0,28.796L22.353,15.907L15.907,4.731L4.732,11.175L-1.713,0L-12.889,6.444L0,28.796Z" style="fill:rgb(255,156,0);"/>
                </g>
                <g transform="matrix(1,0,0,1,139.533,156.769)">
                    <path d="M0,28.796L22.353,15.907L15.908,4.731L4.649,11.176L-1.793,0L-12.971,6.444L0,28.796Z" style="fill:rgb(255,156,0);"/>
                </g>
                <g transform="matrix(1,0,0,1,258.227,207.51)">
                    <path d="M0,28.796L22.354,15.907L15.907,4.65L4.732,11.176L-1.714,0L-12.889,6.444L0,28.796Z" style="fill:rgb(255,156,0);"/>
                </g>
                <g transform="matrix(1,0,0,1,232.369,162.725)">
                    <path d="M0,28.878L22.432,15.907L15.906,4.732L4.73,11.176L-1.714,0L-12.889,6.444L0,28.878Z" style="fill:rgb(255,156,0);"/>
                </g>
                <g transform="matrix(1,0,0,1,206.589,118.019)">
                    <path d="M0,28.797L22.354,15.908L15.908,4.732L4.732,11.177L-1.713,0L-12.888,6.445L0,28.797Z" style="fill:rgb(255,156,0);"/>
                </g>
                <g transform="matrix(1,0,0,1,325.284,168.761)">
                    <path d="M0,28.797L22.433,15.908L15.908,4.731L4.732,11.177L-1.714,0L-12.889,6.444L0,28.797Z" style="fill:rgb(255,156,0);"/>
                </g>
                <g transform="matrix(1,0,0,1,299.506,123.976)">
                    <path d="M0,28.878L22.352,15.907L15.906,4.731L4.731,11.257L-1.714,0L-12.89,6.525L0,28.878Z" style="fill:rgb(255,156,0);"/>
                </g>
                <g transform="matrix(1,0,0,1,273.647,79.2714)">
                    <path d="M0,28.796L22.352,15.907L15.907,4.731L4.731,11.175L-1.714,0L-12.89,6.444L0,28.796Z" style="fill:rgb(255,156,0);"/>
                </g>
                <g transform="matrix(1,0,0,1,392.422,130.012)">
                    <path d="M0,28.797L22.352,15.907L15.908,4.732L4.73,11.176L-1.713,0L-12.889,6.444L0,28.797Z" style="fill:rgb(255,156,0);"/>
                </g>
                <g transform="matrix(1,0,0,1,366.561,85.3075)">
                    <path d="M0,28.797L22.353,15.908L15.906,4.732L4.732,11.175L-1.713,0L-12.889,6.444L0,28.797Z" style="fill:rgb(255,156,0);"/>
                </g>
                <g transform="matrix(1,0,0,1,340.784,40.5219)">
                    <path d="M0,28.878L22.352,15.907L15.907,4.732L4.729,11.176L-1.714,0L-12.971,6.525L0,28.878Z" style="fill:rgb(255,156,0);"/>
                </g>
            </g>
        </g>
    </g>
</svg>
