<?xml version="1.0" encoding="UTF-8" standalone="no"?>
<!DOCTYPE svg PUBLIC "-//W3C//DTD SVG 1.1//EN" "http://www.w3.org/Graphics/SVG/1.1/DTD/svg11.dtd">
<svg width="100%" height="100%" viewBox="0 0 497 122" version="1.1" xmlns="http://www.w3.org/2000/svg" xmlns:xlink="http://www.w3.org/1999/xlink" xml:space="preserve" xmlns:serif="http://www.serif.com/" style="fill-rule:evenodd;clip-rule:evenodd;stroke-miterlimit:10;">
    <g transform="matrix(1.04736,0,0,1.10182,0,0)">
        <rect id="Artboard1" x="0" y="0" width="473.667" height="110" style="fill:none;"/>
        <g id="Artboard11" serif:id="Artboard1">
            <g id="Layer-1" serif:id="Layer 1" transform="matrix(0.954781,0,0,0.907591,9.24768,6.67753)">
                <g transform="matrix(24,0,0,24,428.553,71.8535)">
                    <path d="M0.53,-0.292L0.53,-0.351L0.066,-0.543L0.066,-0.477L0.448,-0.322L0.448,-0.32L0.066,-0.166L0.066,-0.099L0.53,-0.292ZM0.528,-0L0.528,-0.058L0.066,-0.058L0.066,-0L0.528,-0Z" style="fill-rule:nonzero;"/>
                </g>
                <g transform="matrix(24,0,0,24,442.857,71.8535)">
                    <path d="M0.236,-0L0.321,-0L0.321,-0.65L0.246,-0.65L0.104,-0.574L0.121,-0.507L0.234,-0.568L0.236,-0.568L0.236,-0Z" style="fill-rule:nonzero;"/>
                </g>
                <g transform="matrix(24,0,0,24,455.169,71.8535)">
                    <path d="M0.111,0.011C0.148,0.011 0.171,-0.016 0.171,-0.052C0.171,-0.089 0.147,-0.115 0.112,-0.115C0.077,-0.115 0.052,-0.089 0.052,-0.052C0.052,-0.016 0.076,0.011 0.111,0.011Z" style="fill-rule:nonzero;"/>
                </g>
                <g transform="matrix(24,0,0,24,460.137,71.8535)">
                    <path d="M0.433,-0.65L0.122,-0.65L0.08,-0.338C0.104,-0.341 0.133,-0.345 0.17,-0.345C0.3,-0.345 0.356,-0.285 0.357,-0.201C0.357,-0.114 0.286,-0.06 0.203,-0.06C0.144,-0.06 0.091,-0.08 0.064,-0.096L0.042,-0.029C0.073,-0.009 0.133,0.011 0.204,0.011C0.345,0.011 0.446,-0.084 0.446,-0.211C0.446,-0.293 0.404,-0.349 0.353,-0.378C0.313,-0.402 0.263,-0.413 0.213,-0.413C0.189,-0.413 0.175,-0.411 0.16,-0.409L0.185,-0.576L0.433,-0.576L0.433,-0.65Z" style="fill-rule:nonzero;"/>
                </g>
                <g transform="matrix(24,0,0,24,4.8327,71.8535)">
                    <path d="M0.262,-0.661C0.13,-0.661 0.036,-0.541 0.036,-0.323C0.038,-0.108 0.124,0.011 0.251,0.011C0.395,0.011 0.477,-0.111 0.477,-0.332C0.477,-0.539 0.399,-0.661 0.262,-0.661ZM0.257,-0.593C0.348,-0.593 0.389,-0.488 0.389,-0.328C0.389,-0.162 0.346,-0.057 0.256,-0.057C0.176,-0.057 0.124,-0.153 0.124,-0.322C0.124,-0.499 0.18,-0.593 0.257,-0.593Z" style="fill-rule:nonzero;"/>
                </g>
                <g transform="matrix(24,0,0,24,142.689,71.8535)">
                    <path d="M0.262,-0.661C0.13,-0.661 0.036,-0.541 0.036,-0.323C0.038,-0.108 0.124,0.011 0.251,0.011C0.395,0.011 0.477,-0.111 0.477,-0.332C0.477,-0.539 0.399,-0.661 0.262,-0.661ZM0.257,-0.593C0.348,-0.593 0.389,-0.488 0.389,-0.328C0.389,-0.162 0.346,-0.057 0.256,-0.057C0.176,-0.057 0.124,-0.153 0.124,-0.322C0.124,-0.499 0.18,-0.593 0.257,-0.593Z" style="fill-rule:nonzero;"/>
                </g>
                <g transform="matrix(24,0,0,24,155.001,71.8535)">
                    <path d="M0.111,0.011C0.148,0.011 0.171,-0.016 0.171,-0.052C0.171,-0.089 0.147,-0.115 0.112,-0.115C0.077,-0.115 0.052,-0.089 0.052,-0.052C0.052,-0.016 0.076,0.011 0.111,0.011Z" style="fill-rule:nonzero;"/>
                </g>
                <g transform="matrix(24,0,0,24,159.969,71.8535)">
                    <path d="M0.433,-0.65L0.122,-0.65L0.08,-0.338C0.104,-0.341 0.133,-0.345 0.17,-0.345C0.3,-0.345 0.356,-0.285 0.357,-0.201C0.357,-0.114 0.286,-0.06 0.203,-0.06C0.144,-0.06 0.091,-0.08 0.064,-0.096L0.042,-0.029C0.073,-0.009 0.133,0.011 0.204,0.011C0.345,0.011 0.446,-0.084 0.446,-0.211C0.446,-0.293 0.404,-0.349 0.353,-0.378C0.313,-0.402 0.263,-0.413 0.213,-0.413C0.189,-0.413 0.175,-0.411 0.16,-0.409L0.185,-0.576L0.433,-0.576L0.433,-0.65Z" style="fill-rule:nonzero;"/>
                </g>
                <g transform="matrix(24,0,0,24,289.185,71.8535)">
                    <path d="M0.236,-0L0.321,-0L0.321,-0.65L0.246,-0.65L0.104,-0.574L0.121,-0.507L0.234,-0.568L0.236,-0.568L0.236,-0Z" style="fill-rule:nonzero;"/>
                </g>
                <g transform="matrix(24,0,0,24,301.497,71.8535)">
                    <path d="M0.111,0.011C0.148,0.011 0.171,-0.016 0.171,-0.052C0.171,-0.089 0.147,-0.115 0.112,-0.115C0.077,-0.115 0.052,-0.089 0.052,-0.052C0.052,-0.016 0.076,0.011 0.111,0.011Z" style="fill-rule:nonzero;"/>
                </g>
                <g transform="matrix(24,0,0,24,306.465,71.8535)">
                    <path d="M0.262,-0.661C0.13,-0.661 0.036,-0.541 0.036,-0.323C0.038,-0.108 0.124,0.011 0.251,0.011C0.395,0.011 0.477,-0.111 0.477,-0.332C0.477,-0.539 0.399,-0.661 0.262,-0.661ZM0.257,-0.593C0.348,-0.593 0.389,-0.488 0.389,-0.328C0.389,-0.162 0.346,-0.057 0.256,-0.057C0.176,-0.057 0.124,-0.153 0.124,-0.322C0.124,-0.499 0.18,-0.593 0.257,-0.593Z" style="fill-rule:nonzero;"/>
                </g>
                <g transform="matrix(28,0,0,28,164.209,98.583)">
                    <path d="M0.076,-0.002C0.12,0.003 0.172,0.006 0.234,0.006C0.365,0.006 0.469,-0.028 0.532,-0.091C0.595,-0.153 0.629,-0.243 0.629,-0.353C0.629,-0.462 0.594,-0.54 0.534,-0.595C0.475,-0.65 0.386,-0.679 0.261,-0.679C0.192,-0.679 0.129,-0.673 0.076,-0.665L0.076,-0.002ZM0.163,-0.601C0.186,-0.606 0.22,-0.61 0.265,-0.61C0.449,-0.61 0.539,-0.509 0.538,-0.35C0.538,-0.168 0.437,-0.064 0.251,-0.064C0.217,-0.064 0.185,-0.065 0.163,-0.069L0.163,-0.601Z" style="fill-rule:nonzero;"/>
                </g>
                <g transform="matrix(28,0,0,28,182.857,98.583)">
                    <path d="M0.278,-0.495C0.144,-0.495 0.038,-0.4 0.038,-0.238C0.038,-0.085 0.139,0.011 0.27,0.011C0.387,0.011 0.511,-0.067 0.511,-0.246C0.511,-0.394 0.417,-0.495 0.278,-0.495ZM0.276,-0.429C0.38,-0.429 0.421,-0.325 0.421,-0.243C0.421,-0.134 0.358,-0.055 0.274,-0.055C0.188,-0.055 0.127,-0.135 0.127,-0.241C0.127,-0.333 0.172,-0.429 0.276,-0.429Z" style="fill-rule:nonzero;"/>
                </g>
                <g transform="matrix(28,0,0,28,198.229,98.583)">
                    <path d="M0.039,-0.023C0.073,-0.003 0.122,0.01 0.175,0.01C0.29,0.01 0.356,-0.05 0.356,-0.135C0.356,-0.207 0.313,-0.249 0.229,-0.281C0.166,-0.305 0.137,-0.323 0.137,-0.363C0.137,-0.399 0.166,-0.429 0.218,-0.429C0.263,-0.429 0.298,-0.413 0.317,-0.401L0.339,-0.465C0.312,-0.481 0.269,-0.495 0.22,-0.495C0.116,-0.495 0.053,-0.431 0.053,-0.353C0.053,-0.295 0.094,-0.247 0.181,-0.216C0.246,-0.192 0.271,-0.169 0.271,-0.127C0.271,-0.087 0.241,-0.055 0.177,-0.055C0.133,-0.055 0.087,-0.073 0.061,-0.09L0.039,-0.023Z" style="fill-rule:nonzero;"/>
                </g>
                <g transform="matrix(28,0,0,28,209.317,98.583)">
                    <path d="M0.462,-0.226C0.463,-0.235 0.465,-0.249 0.465,-0.267C0.465,-0.356 0.423,-0.495 0.265,-0.495C0.124,-0.495 0.038,-0.38 0.038,-0.234C0.038,-0.088 0.127,0.01 0.276,0.01C0.353,0.01 0.406,-0.006 0.437,-0.02L0.422,-0.083C0.389,-0.069 0.351,-0.058 0.288,-0.058C0.2,-0.058 0.124,-0.107 0.122,-0.226L0.462,-0.226ZM0.123,-0.289C0.13,-0.35 0.169,-0.432 0.258,-0.432C0.357,-0.432 0.381,-0.345 0.38,-0.289L0.123,-0.289Z" style="fill-rule:nonzero;"/>
                </g>
                <g transform="matrix(28,0,0,28,229.281,98.583)">
                    <path d="M0.169,-0L0.169,-0.417L0.286,-0.417L0.286,-0.484L0.169,-0.484L0.169,-0.51C0.169,-0.584 0.188,-0.65 0.263,-0.65C0.288,-0.65 0.306,-0.645 0.319,-0.639L0.331,-0.707C0.314,-0.714 0.287,-0.721 0.256,-0.721C0.215,-0.721 0.171,-0.708 0.138,-0.676C0.097,-0.637 0.082,-0.575 0.082,-0.507L0.082,-0.484L0.014,-0.484L0.014,-0.417L0.082,-0.417L0.082,-0L0.169,-0Z" style="fill-rule:nonzero;"/>
                </g>
                <g transform="matrix(28,0,0,28,237.457,98.583)">
                    <path d="M0.421,-0C0.415,-0.033 0.413,-0.074 0.413,-0.116L0.413,-0.297C0.413,-0.394 0.377,-0.495 0.229,-0.495C0.168,-0.495 0.11,-0.478 0.07,-0.452L0.09,-0.394C0.124,-0.416 0.171,-0.43 0.216,-0.43C0.315,-0.43 0.326,-0.358 0.326,-0.318L0.326,-0.308C0.139,-0.309 0.035,-0.245 0.035,-0.128C0.035,-0.058 0.085,0.011 0.183,0.011C0.252,0.011 0.304,-0.023 0.331,-0.061L0.334,-0.061L0.341,-0L0.421,-0ZM0.328,-0.163C0.328,-0.154 0.326,-0.144 0.323,-0.135C0.309,-0.094 0.269,-0.054 0.206,-0.054C0.161,-0.054 0.123,-0.081 0.123,-0.138C0.123,-0.232 0.232,-0.249 0.328,-0.247L0.328,-0.163Z" style="fill-rule:nonzero;"/>
                </g>
                <g transform="matrix(28,0,0,28,250.953,98.583)">
                    <path d="M0.403,-0.084C0.378,-0.073 0.345,-0.06 0.295,-0.06C0.199,-0.06 0.127,-0.129 0.127,-0.241C0.127,-0.342 0.187,-0.424 0.298,-0.424C0.346,-0.424 0.379,-0.413 0.4,-0.401L0.42,-0.469C0.396,-0.481 0.35,-0.494 0.298,-0.494C0.14,-0.494 0.038,-0.386 0.038,-0.237C0.038,-0.089 0.133,0.01 0.279,0.01C0.344,0.01 0.395,-0.006 0.418,-0.018L0.403,-0.084Z" style="fill-rule:nonzero;"/>
                </g>
                <g transform="matrix(28,0,0,28,263.497,98.583)">
                    <path d="M0.093,-0.6L0.093,-0.484L0.018,-0.484L0.018,-0.417L0.093,-0.417L0.093,-0.153C0.093,-0.096 0.102,-0.053 0.127,-0.027C0.148,-0.003 0.181,0.01 0.222,0.01C0.256,0.01 0.283,0.005 0.3,-0.002L0.296,-0.068C0.285,-0.065 0.268,-0.062 0.245,-0.062C0.196,-0.062 0.179,-0.096 0.179,-0.156L0.179,-0.417L0.305,-0.417L0.305,-0.484L0.179,-0.484L0.179,-0.623L0.093,-0.6Z" style="fill-rule:nonzero;"/>
                </g>
                <g transform="matrix(28,0,0,28,272.765,98.583)">
                    <path d="M0.278,-0.495C0.144,-0.495 0.038,-0.4 0.038,-0.238C0.038,-0.085 0.139,0.011 0.27,0.011C0.387,0.011 0.511,-0.067 0.511,-0.246C0.511,-0.394 0.417,-0.495 0.278,-0.495ZM0.276,-0.429C0.38,-0.429 0.421,-0.325 0.421,-0.243C0.421,-0.134 0.358,-0.055 0.274,-0.055C0.188,-0.055 0.127,-0.135 0.127,-0.241C0.127,-0.333 0.172,-0.429 0.276,-0.429Z" style="fill-rule:nonzero;"/>
                </g>
                <g transform="matrix(28,0,0,28,288.137,98.583)">
                    <path d="M0.073,-0L0.16,-0L0.16,-0.258C0.16,-0.273 0.162,-0.287 0.164,-0.299C0.176,-0.365 0.22,-0.412 0.282,-0.412C0.294,-0.412 0.303,-0.411 0.312,-0.409L0.312,-0.492C0.304,-0.494 0.297,-0.495 0.287,-0.495C0.228,-0.495 0.175,-0.454 0.153,-0.389L0.149,-0.389L0.146,-0.484L0.069,-0.484C0.072,-0.439 0.073,-0.39 0.073,-0.333L0.073,-0Z" style="fill-rule:nonzero;"/>
                </g>
                <g transform="matrix(1,0,0,1,0,-66.437)">
                    <rect x="11" y="74.875" width="56.339" height="26.687" style="fill:rgb(0,0,255);"/>
                </g>
                <g transform="matrix(95.7236,0,0,-95.7236,67.3394,21.7818)">
                    <rect x="-0" y="-0.139" width="1" height="0.279" style="fill:url(#_Linear1);"/>
                </g>
                <g transform="matrix(95.8555,0,0,-95.8555,163.063,21.7818)">
                    <rect x="0" y="-0.139" width="1" height="0.278" style="fill:url(#_Linear2);"/>
                </g>
                <g transform="matrix(95.7256,0,0,-95.7256,258.919,21.7818)">
                    <rect x="0" y="-0.139" width="1" height="0.279" style="fill:url(#_Linear3);"/>
                </g>
                <g transform="matrix(95.8555,0,0,-95.8555,354.645,21.7818)">
                    <rect x="0" y="-0.139" width="1" height="0.278" style="fill:url(#_Linear4);"/>
                </g>
                <g transform="matrix(0,1,1,0,80.6829,21.7815)">
                    <path d="M-13.344,-13.344L13.344,-13.344" style="fill:none;fill-rule:nonzero;stroke:rgb(0,0,255);stroke-width:0.5px;"/>
                </g>
                <g transform="matrix(0,1,1,0,176.407,21.7815)">
                    <path d="M-13.344,-13.344L13.344,-13.344" style="fill:none;fill-rule:nonzero;stroke:rgb(0,255,255);stroke-width:0.5px;"/>
                </g>
                <g transform="matrix(0,1,1,0,272.262,21.7815)">
                    <path d="M-13.344,-13.344L13.344,-13.344" style="fill:none;fill-rule:nonzero;stroke:rgb(0,255,0);stroke-width:0.5px;"/>
                </g>
                <g transform="matrix(0,1,1,0,367.988,21.7815)">
                    <path d="M-13.344,-13.344L13.344,-13.344" style="fill:none;fill-rule:nonzero;stroke:rgb(255,255,0);stroke-width:0.5px;"/>
                </g>
                <g transform="matrix(1,0,0,1,11,48.33)">
                    <path d="M0,-8.54L0,0L439.5,0L439.5,-8.54" style="fill:none;fill-rule:nonzero;stroke:rgb(35,31,32);stroke-width:0.5px;"/>
                </g>
                <g transform="matrix(0,1,1,0,161.77,44.06)">
                    <path d="M-4.27,-4.27L4.27,-4.27" style="fill:none;fill-rule:nonzero;stroke:rgb(35,31,32);stroke-width:0.5px;"/>
                </g>
                <g transform="matrix(0,1,1,0,43.1298,45.5004)">
                    <path d="M-2.83,-2.83L2.83,-2.83" style="fill:none;fill-rule:nonzero;stroke:rgb(35,31,32);stroke-width:0.5px;"/>
                </g>
                <g transform="matrix(0,1,1,0,72.4296,45.5004)">
                    <path d="M-2.83,-2.83L2.83,-2.83" style="fill:none;fill-rule:nonzero;stroke:rgb(35,31,32);stroke-width:0.5px;"/>
                </g>
                <g transform="matrix(0,1,1,0,101.73,45.5004)">
                    <path d="M-2.83,-2.83L2.83,-2.83" style="fill:none;fill-rule:nonzero;stroke:rgb(35,31,32);stroke-width:0.5px;"/>
                </g>
                <g transform="matrix(0,1,1,0,131.029,45.5004)">
                    <path d="M-2.83,-2.83L2.83,-2.83" style="fill:none;fill-rule:nonzero;stroke:rgb(35,31,32);stroke-width:0.5px;"/>
                </g>
                <g transform="matrix(0,1,1,0,308.27,44.06)">
                    <path d="M-4.27,-4.27L4.27,-4.27" style="fill:none;fill-rule:nonzero;stroke:rgb(35,31,32);stroke-width:0.5px;"/>
                </g>
                <g transform="matrix(0,1,1,0,189.629,45.5004)">
                    <path d="M-2.83,-2.83L2.83,-2.83" style="fill:none;fill-rule:nonzero;stroke:rgb(35,31,32);stroke-width:0.5px;"/>
                </g>
                <g transform="matrix(0,1,1,0,218.93,45.5004)">
                    <path d="M-2.83,-2.83L2.83,-2.83" style="fill:none;fill-rule:nonzero;stroke:rgb(35,31,32);stroke-width:0.5px;"/>
                </g>
                <g transform="matrix(0,1,1,0,248.229,45.5004)">
                    <path d="M-2.83,-2.83L2.83,-2.83" style="fill:none;fill-rule:nonzero;stroke:rgb(35,31,32);stroke-width:0.5px;"/>
                </g>
                <g transform="matrix(0,1,1,0,277.529,45.5004)">
                    <path d="M-2.83,-2.83L2.83,-2.83" style="fill:none;fill-rule:nonzero;stroke:rgb(35,31,32);stroke-width:0.5px;"/>
                </g>
                <g transform="matrix(0,1,1,0,336.129,45.5004)">
                    <path d="M-2.83,-2.83L2.83,-2.83" style="fill:none;fill-rule:nonzero;stroke:rgb(35,31,32);stroke-width:0.5px;"/>
                </g>
                <g transform="matrix(0,1,1,0,365.429,45.5004)">
                    <path d="M-2.83,-2.83L2.83,-2.83" style="fill:none;fill-rule:nonzero;stroke:rgb(35,31,32);stroke-width:0.5px;"/>
                </g>
                <g transform="matrix(0,1,1,0,394.729,45.5004)">
                    <path d="M-2.83,-2.83L2.83,-2.83" style="fill:none;fill-rule:nonzero;stroke:rgb(35,31,32);stroke-width:0.5px;"/>
                </g>
                <g transform="matrix(0,1,1,0,424.03,45.5004)">
                    <path d="M-2.83,-2.83L2.83,-2.83" style="fill:none;fill-rule:nonzero;stroke:rgb(35,31,32);stroke-width:0.5px;"/>
                </g>
            </g>
        </g>
    </g>
    <defs>
        <linearGradient id="_Linear1" x1="0" y1="0" x2="1" y2="0" gradientUnits="userSpaceOnUse" gradientTransform="matrix(1,0,0,-1,0,5.22337e-06)"><stop offset="0" style="stop-color:rgb(0,0,255);stop-opacity:1"/><stop offset="1" style="stop-color:rgb(0,255,255);stop-opacity:1"/></linearGradient>
        <linearGradient id="_Linear2" x1="0" y1="0" x2="1" y2="0" gradientUnits="userSpaceOnUse" gradientTransform="matrix(1,0,0,-1,0,5.21619e-06)"><stop offset="0" style="stop-color:rgb(0,255,255);stop-opacity:1"/><stop offset="1" style="stop-color:rgb(0,255,0);stop-opacity:1"/></linearGradient>
        <linearGradient id="_Linear3" x1="0" y1="0" x2="1" y2="0" gradientUnits="userSpaceOnUse" gradientTransform="matrix(1,0,0,-1,0,5.22326e-06)"><stop offset="0" style="stop-color:rgb(0,255,0);stop-opacity:1"/><stop offset="1" style="stop-color:rgb(255,255,0);stop-opacity:1"/></linearGradient>
        <linearGradient id="_Linear4" x1="0" y1="0" x2="1" y2="0" gradientUnits="userSpaceOnUse" gradientTransform="matrix(1,0,0,-1,0,5.21619e-06)"><stop offset="0" style="stop-color:rgb(255,255,0);stop-opacity:1"/><stop offset="1" style="stop-color:rgb(255,0,0);stop-opacity:1"/></linearGradient>
    </defs>
</svg>
