<?xml version="1.0" encoding="UTF-8" standalone="no"?>
<!DOCTYPE svg PUBLIC "-//W3C//DTD SVG 1.1//EN" "http://www.w3.org/Graphics/SVG/1.1/DTD/svg11.dtd">
<svg width="100%" height="100%" viewBox="0 0 486 366" version="1.1" xmlns="http://www.w3.org/2000/svg" xmlns:xlink="http://www.w3.org/1999/xlink" xml:space="preserve" xmlns:serif="http://www.serif.com/" style="fill-rule:evenodd;clip-rule:evenodd;stroke-miterlimit:10;">
    <g transform="matrix(1.02456,0,0,1.0576,0,0)">
        <rect id="Artboard1" x="0" y="0" width="473.667" height="345.5" style="fill:none;"/>
        <g id="Artboard11" serif:id="Artboard1">
            <g id="Layer-1" serif:id="Layer 1" transform="matrix(0.976029,0,0,0.945539,3.95143,4.63197)">
                <g>
                    <text x="9.995px" y="144.369px" style="font-family:'MyriadPro-It', 'Myriad Pro', sans-serif;font-style:italic;font-size:28px;">v</text>
                    <text x="28.671px" y="144.369px" style="font-family:'MyriadPro-Regular', 'Myriad Pro', sans-serif;font-size:28px;">(µm)</text>
                </g>
                <text x="78.51px" y="260.051px" style="font-family:'MyriadPro-Regular', 'Myriad Pro', sans-serif;font-size:24px;fill:rgb(35,31,32);">–4</text>
                <text x="90.51px" y="126.443px" style="font-family:'MyriadPro-Regular', 'Myriad Pro', sans-serif;font-size:24px;fill:rgb(35,31,32);">0</text>
                <text x="90.51px" y="26.339px" style="font-family:'MyriadPro-Regular', 'Myriad Pro', sans-serif;font-size:24px;fill:rgb(35,31,32);">3</text>
                <g>
                    <text x="292.084px" y="255.838px" style="font-family:'Helvetica';font-size:10px;fill:rgb(255,0,0);">+</text>
                    <text x="265.334px" y="267.338px" style="font-family:'Helvetica';font-size:10px;">[radius_label</text>
                    <text x="322.024px" y="267.338px" style="font-family:'Helvetica';font-size:10px;fill:rgb(35,31,32);">]</text>
                </g>
                <text x="455.3px" y="316.018px" style="font-family:'MyriadPro-Regular', 'Myriad Pro', sans-serif;font-size:24px;">5</text>
                <text x="288.884px" y="316.018px" style="font-family:'MyriadPro-Regular', 'Myriad Pro', sans-serif;font-size:24px;">0</text>
                <text x="116.396px" y="316.018px" style="font-family:'MyriadPro-Regular', 'Myriad Pro', sans-serif;font-size:24px;">–5</text>
                <g>
                    <text x="257.296px" y="339.867px" style="font-family:'MyriadPro-It', 'Myriad Pro', sans-serif;font-style:italic;font-size:28px;">u</text>
                    <text x="277.96px" y="339.867px" style="font-family:'MyriadPro-Regular', 'Myriad Pro', sans-serif;font-size:28px;">(µm)</text>
                </g>
                <g transform="matrix(1,0,0,1,113.543,252.333)">
                    <path d="M0,-233.083L-5.682,-233.083L-5.682,0L0,0" style="fill:none;fill-rule:nonzero;stroke:black;stroke-width:0.5px;"/>
                </g>
                <g transform="matrix(1,0,0,1,107.861,119.167)">
                    <path d="M0,0L5.682,0" style="fill:none;fill-rule:nonzero;stroke:black;stroke-width:0.5px;stroke-linejoin:round;"/>
                </g>
                <g transform="matrix(1,0,0,1,356.128,14.25)">
                    <path d="M0,205L3.25,205L4.917,204.918L6.5,204.834L8.083,204.668L9.75,204.584L11.333,204.418L12.917,204.168L14.583,204L16.167,203.75L17.75,203.5L19.333,203.168L20.917,202.834L22.5,202.5L24.083,202.168L25.667,201.75L27.25,201.334L28.75,200.918L30.333,200.418L31.833,199.918L33.417,199.418L34.917,198.918L37.917,197.75L39.417,197.168L40.917,196.5L42.417,195.834L43.833,195.168L45.333,194.5L46.75,193.75L48.25,193L49.667,192.25L51.083,191.417L52.417,190.583L53.833,189.75L55.167,188.917L56.583,188L57.917,187.167L59.25,186.167L60.5,185.25L61.833,184.333L63.083,183.333L64.417,182.333L65.667,181.25L66.833,180.25L68.083,179.167L69.25,178.083L70.5,177L73.917,173.583L75,172.417L76.083,171.167L77.167,170L78.25,168.75L79.25,167.5L80.333,166.25L81.333,165L82.25,163.667L83.25,162.417L84.167,161.083L85.083,159.75L86,158.417L86.833,157L87.667,155.666L89.333,152.834L90.083,151.416L91.583,148.584L92.333,147.084L93,145.666L93.667,144.166L94.333,142.666L94.917,141.166L95.583,139.666L96.083,138.166L96.667,136.666L97.167,135.166L97.667,133.584L98.167,132L98.667,130.5L99.083,128.916L99.5,127.334L99.833,125.75L100.167,124.25L100.5,122.666L100.833,121L101.083,119.417L101.333,117.833L101.833,114.667L102,113L102.167,111.417L102.25,109.833L102.333,108.167L102.417,106.583L102.5,105L102.5,100.083L102.417,98.5L102.333,96.833L102.167,93.667L102,92L101.833,90.417L101.583,88.833L101.333,87.25L101.083,85.583L100.833,84L100.5,82.417L100.167,80.833L99.833,79.25L99.5,77.667L99.083,76.167L98.667,74.583L98.167,73L97.667,71.5L97.167,69.917L96.667,68.417L96.083,66.917L95.583,65.417L94.917,63.833L94.333,62.417L93.667,60.917L93,59.417L92.333,58L91.583,56.5L90.833,55.083L90.083,53.667L89.333,52.25L88.5,50.833L87.667,49.417L86.833,48.083L86,46.667L85.083,45.333L84.167,44L83.25,42.667L82.25,41.417L81.333,40.083L80.333,38.833L79.25,37.583L78.25,36.333L77.167,35.083L76.083,33.833L75,32.667L73.917,31.5L72.75,30.333L71.667,29.167L70.5,28.083L69.25,27L68.083,25.917L66.833,24.833L65.667,23.75L64.417,22.75L63.083,21.75L61.833,20.75L60.5,19.833L59.25,18.833L57.917,17.917L56.583,17L55.167,16.167L53.833,15.333L52.417,14.417L51.083,13.667L49.667,12.833L48.25,12.083L46.75,11.333L45.333,10.583L43.833,9.917L42.417,9.25L40.917,8.583L39.417,7.917L37.917,7.333L34.917,6.167L33.417,5.583L31.833,5.083L30.333,4.583L28.75,4.167L27.25,3.75L25.667,3.333L24.083,2.917L22.5,2.5L20.917,2.167L19.333,1.917L17.75,1.583L16.167,1.333L14.583,1.083L12.917,0.833L11.333,0.667L9.75,0.5L8.083,0.333L4.917,0.167L3.25,0.083L1.667,0.083L0,0L0,9.833L3,9.833L4.417,9.917L5.917,10L7.333,10.083L8.833,10.25L10.25,10.333L11.75,10.5L13.167,10.75L14.583,10.917L16.083,11.167L17.5,11.5L18.917,11.75L20.333,12.083L21.75,12.417L23.167,12.75L24.583,13.083L27.417,13.917L28.833,14.417L30.25,14.833L31.583,15.333L33,15.833L34.333,16.417L35.667,16.917L38.333,18.083L39.667,18.75L41,19.333L42.333,20L43.583,20.667L44.917,21.417L46.167,22.083L48.667,23.583L49.917,24.417L51.167,25.167L52.417,26L53.583,26.833L54.75,27.667L55.917,28.583L57.083,29.417L58.25,30.333L59.417,31.25L60.5,32.25L61.583,33.167L62.667,34.167L64.833,36.167L65.833,37.25L66.917,38.25L67.917,39.333L68.917,40.417L69.833,41.5L70.833,42.583L72.667,44.917L73.583,46L74.417,47.167L75.333,48.417L76.167,49.583L77,50.75L77.75,52L78.583,53.25L80.833,57L81.5,58.333L82.25,59.583L82.917,60.917L83.5,62.167L84.167,63.5L84.75,64.833L85.333,66.167L85.917,67.583L86.417,68.917L87,70.25L87.5,71.667L87.917,73.083L88.417,74.417L88.833,75.833L89.667,78.667L90,80.083L90.333,81.5L90.667,82.917L91,84.333L91.25,85.75L91.5,87.25L91.75,88.667L91.917,90.167L92.083,91.583L92.25,93L92.417,94.5L92.5,95.917L92.583,97.417L92.667,98.833L92.75,100.333L92.75,104.75L92.667,106.167L92.583,107.667L92.5,109.083L92.417,110.583L92.25,112L92.083,113.5L91.917,114.917L91.75,116.417L91.5,117.833L91.25,119.25L91,120.75L90.667,122.166L90.333,123.583L90,125L89.667,126.416L88.833,129.25L88.417,130.666L87.917,132L87.5,133.416L87,134.75L86.417,136.166L85.917,137.5L85.333,138.833L84.75,140.166L84.167,141.5L83.5,142.833L82.917,144.166L82.25,145.5L81.5,146.75L80.833,148.083L78.583,151.833L77.75,153.083L77,154.25L76.167,155.5L75.333,156.667L74.417,157.833L73.583,159L72.667,160.167L71.75,161.333L70.833,162.417L69.833,163.583L68.917,164.667L66.917,166.833L65.833,167.833L64.833,168.833L63.75,169.917L62.667,170.917L61.583,171.833L60.5,172.833L59.417,173.75L58.25,174.667L57.083,175.583L55.917,176.5L54.75,177.417L53.583,178.25L52.417,179.083L51.167,179.917L49.917,180.667L48.667,181.5L46.167,183L44.917,183.667L43.583,184.417L42.333,185.083L41,185.75L39.667,186.333L38.333,187L37,187.583L35.667,188.167L34.333,188.667L33,189.25L31.583,189.75L30.25,190.25L28.833,190.667L27.417,191.083L26,191.583L24.583,191.918L23.167,192.334L21.75,192.668L20.333,193L18.917,193.334L16.083,193.834L14.583,194.084L13.167,194.334L11.75,194.5L10.25,194.668L8.833,194.834L7.333,195L5.917,195.084L4.417,195.168L3,195.25L0,195.25L0,205Z" style="fill:rgb(255,156,0);"/>
                </g>
                <g transform="matrix(1,0,0,1,226.044,219.25)">
                    <path d="M0,-205L-1.666,-204.917L-3.25,-204.917L-4.916,-204.833L-6.5,-204.75L-8.082,-204.667L-9.75,-204.5L-11.332,-204.333L-12.916,-204.167L-14.582,-203.917L-17.75,-203.417L-19.332,-203.083L-20.916,-202.833L-22.5,-202.5L-24.082,-202.083L-25.666,-201.667L-27.25,-201.25L-28.75,-200.833L-30.332,-200.417L-31.832,-199.917L-33.416,-199.417L-34.916,-198.833L-37.916,-197.667L-39.416,-197.083L-40.916,-196.417L-42.416,-195.75L-43.832,-195.083L-45.332,-194.417L-46.75,-193.667L-48.25,-192.917L-49.666,-192.167L-51.082,-191.333L-52.416,-190.583L-53.832,-189.667L-55.166,-188.833L-56.582,-188L-57.916,-187.083L-59.25,-186.167L-60.5,-185.167L-61.832,-184.25L-63.082,-183.25L-64.416,-182.25L-65.666,-181.25L-66.832,-180.167L-68.082,-179.083L-69.25,-178L-70.5,-176.917L-71.666,-175.833L-72.75,-174.667L-73.916,-173.5L-75,-172.333L-76.082,-171.167L-78.25,-168.667L-79.25,-167.417L-80.332,-166.167L-81.332,-164.917L-82.25,-163.583L-83.25,-162.333L-85.082,-159.667L-86,-158.333L-86.832,-156.917L-87.666,-155.583L-88.5,-154.167L-89.332,-152.75L-90.082,-151.333L-90.832,-149.917L-91.582,-148.5L-92.332,-147L-93,-145.583L-94.332,-142.583L-94.916,-141.167L-95.582,-139.583L-96.082,-138.083L-96.666,-136.583L-97.166,-135.083L-97.666,-133.5L-98.166,-132L-98.666,-130.417L-99.082,-128.833L-99.5,-127.333L-99.832,-125.75L-100.166,-124.167L-100.5,-122.583L-100.832,-121L-101.082,-119.417L-101.332,-117.75L-101.582,-116.167L-101.832,-114.583L-102,-113L-102.166,-111.333L-102.25,-109.75L-102.332,-108.167L-102.416,-106.5L-102.5,-104.917L-102.5,-100L-102.416,-98.417L-102.332,-96.833L-102.25,-95.167L-102.166,-93.583L-102,-92L-101.832,-90.333L-101.332,-87.167L-101.082,-85.583L-100.832,-84L-100.5,-82.334L-100.166,-80.75L-99.832,-79.25L-99.5,-77.666L-99.082,-76.084L-98.666,-74.5L-98.166,-73L-97.666,-71.416L-97.166,-69.834L-96.666,-68.334L-96.082,-66.834L-95.582,-65.334L-94.916,-63.834L-94.332,-62.334L-93,-59.334L-92.332,-57.916L-91.582,-56.416L-90.082,-53.584L-89.332,-52.166L-88.5,-50.75L-87.666,-49.334L-86.832,-48L-86,-46.583L-85.082,-45.25L-84.166,-43.917L-83.25,-42.583L-82.25,-41.333L-81.332,-40L-80.332,-38.75L-79.25,-37.5L-78.25,-36.25L-77.166,-35L-76.082,-33.833L-75,-32.583L-73.916,-31.417L-72.75,-30.25L-71.666,-29.167L-70.5,-28L-69.25,-26.917L-68.082,-25.833L-66.832,-24.75L-65.666,-23.75L-64.416,-22.667L-63.082,-21.667L-61.832,-20.667L-60.5,-19.75L-59.25,-18.833L-57.916,-17.833L-56.582,-17L-55.166,-16.083L-53.832,-15.25L-52.416,-14.417L-51.082,-13.583L-49.666,-12.75L-48.25,-12L-46.75,-11.25L-45.332,-10.5L-43.832,-9.832L-42.416,-9.166L-40.916,-8.5L-39.416,-7.832L-37.916,-7.25L-34.916,-6.082L-33.416,-5.582L-31.832,-5.082L-30.332,-4.582L-28.75,-4.082L-27.25,-3.666L-25.666,-3.25L-24.082,-2.832L-22.5,-2.5L-19.332,-1.832L-17.75,-1.5L-14.582,-1L-12.916,-0.832L-11.332,-0.582L-9.75,-0.416L-8.082,-0.332L-6.5,-0.166L-4.916,-0.082L-3.25,0L0,0L0,-9.75L-3,-9.75L-4.416,-9.832L-5.916,-9.916L-7.332,-10L-8.832,-10.166L-10.25,-10.332L-11.75,-10.5L-13.166,-10.666L-14.582,-10.916L-16.082,-11.166L-17.5,-11.416L-18.916,-11.666L-20.332,-12L-21.75,-12.332L-23.166,-12.666L-24.582,-13.082L-26,-13.417L-27.416,-13.917L-28.832,-14.333L-30.25,-14.75L-31.582,-15.25L-33,-15.75L-34.332,-16.333L-35.666,-16.833L-37,-17.417L-38.332,-18L-39.666,-18.667L-41,-19.25L-42.332,-19.917L-43.582,-20.583L-44.916,-21.333L-46.166,-22L-48.666,-23.5L-49.916,-24.333L-51.166,-25.083L-52.416,-25.917L-53.582,-26.75L-54.75,-27.583L-57.082,-29.417L-58.25,-30.333L-59.416,-31.25L-60.5,-32.167L-61.582,-33.167L-62.666,-34.083L-63.75,-35.083L-64.832,-36.167L-65.832,-37.167L-66.916,-38.167L-68.916,-40.333L-69.832,-41.417L-70.832,-42.583L-71.75,-43.667L-72.666,-44.833L-73.582,-46L-74.416,-47.167L-75.332,-48.333L-76.166,-49.5L-77,-50.75L-77.75,-51.916L-78.582,-53.166L-80.832,-56.916L-81.5,-58.25L-82.25,-59.5L-82.916,-60.834L-83.5,-62.166L-84.166,-63.5L-84.75,-64.834L-85.332,-66.166L-85.916,-67.5L-86.416,-68.834L-87,-70.25L-87.5,-71.584L-87.916,-73L-88.416,-74.334L-88.832,-75.75L-89.25,-77.166L-89.666,-78.584L-90,-80L-90.332,-81.416L-90.666,-82.834L-91,-84.25L-91.25,-85.75L-91.5,-87.167L-91.75,-88.583L-91.916,-90.083L-92.082,-91.5L-92.25,-93L-92.416,-94.417L-92.5,-95.917L-92.582,-97.333L-92.666,-98.833L-92.75,-100.25L-92.75,-104.667L-92.666,-106.167L-92.582,-107.583L-92.5,-109.083L-92.416,-110.5L-92.25,-112L-92.082,-113.417L-91.916,-114.833L-91.75,-116.333L-91.5,-117.75L-91.25,-119.25L-91,-120.667L-90.666,-122.083L-90.332,-123.5L-90,-124.917L-89.666,-126.333L-89.25,-127.75L-88.832,-129.167L-88.416,-130.583L-87.916,-131.917L-87.5,-133.333L-87,-134.75L-86.416,-136.083L-85.916,-137.417L-85.332,-138.833L-84.75,-140.167L-84.166,-141.5L-83.5,-142.833L-82.916,-144.083L-82.25,-145.417L-81.5,-146.667L-80.832,-148L-78.582,-151.75L-77.75,-153L-77,-154.25L-76.166,-155.417L-75.332,-156.583L-74.416,-157.833L-73.582,-159L-72.666,-160.083L-71.75,-161.25L-70.832,-162.417L-69.832,-163.5L-68.916,-164.583L-67.916,-165.667L-66.916,-166.75L-65.832,-167.75L-64.832,-168.833L-63.75,-169.833L-61.582,-171.833L-60.5,-172.75L-59.416,-173.75L-58.25,-174.667L-57.082,-175.583L-55.916,-176.417L-54.75,-177.333L-53.582,-178.167L-52.416,-179L-51.166,-179.833L-49.916,-180.583L-48.666,-181.417L-46.166,-182.917L-44.916,-183.583L-43.582,-184.333L-42.332,-185L-41,-185.667L-39.666,-186.25L-38.332,-186.917L-37,-187.5L-35.666,-188.083L-34.332,-188.583L-33,-189.167L-31.582,-189.667L-30.25,-190.167L-28.832,-190.583L-27.416,-191.083L-26,-191.5L-24.582,-191.917L-21.75,-192.583L-20.332,-192.917L-18.916,-193.25L-17.5,-193.5L-16.082,-193.833L-14.582,-194.083L-13.166,-194.25L-11.75,-194.5L-10.25,-194.667L-8.832,-194.75L-7.332,-194.917L-5.916,-195L-4.416,-195.083L-3,-195.167L0,-195.167L0,-205Z" style="fill:rgb(255,156,0);"/>
                </g>
                <g transform="matrix(1,0,0,1,0,-307.167)">
                    <rect x="226.044" y="321.417" width="130.084" height="9.833" style="fill:rgb(255,156,0);"/>
                </g>
                <g transform="matrix(1,0,0,1,0,83.25)">
                    <rect x="226.044" y="126.25" width="130.084" height="9.75" style="fill:rgb(255,156,0);"/>
                </g>
                <g transform="matrix(1,0,0,1,128.539,292.493)">
                    <path d="M0,-5.658L0,0L325.209,0L325.209,-5.658" style="fill:none;fill-rule:nonzero;stroke:rgb(35,31,32);stroke-width:0.5px;"/>
                </g>
                <g transform="matrix(0,-1,-1,0,297.868,289.664)">
                    <path d="M-2.829,2.829L2.829,2.829" style="fill:none;fill-rule:nonzero;stroke:black;stroke-width:0.5px;stroke-linejoin:round;"/>
                </g>
            </g>
        </g>
    </g>
</svg>
