<?xml version="1.0" encoding="UTF-8" standalone="no"?>
<!DOCTYPE svg PUBLIC "-//W3C//DTD SVG 1.1//EN" "http://www.w3.org/Graphics/SVG/1.1/DTD/svg11.dtd">
<svg width="100%" height="100%" viewBox="0 0 480 409" version="1.1" xmlns="http://www.w3.org/2000/svg" xmlns:xlink="http://www.w3.org/1999/xlink" xml:space="preserve" xmlns:serif="http://www.serif.com/" style="fill-rule:evenodd;clip-rule:evenodd;stroke-miterlimit:10;">
    <g transform="matrix(1.01189,0,0,1.03316,0,0)">
        <rect id="Artboard1" x="0" y="0" width="473.667" height="395" style="fill:none;"/>
        <g id="Artboard11" serif:id="Artboard1">
            <g id="Layer-1" serif:id="Layer 1" transform="matrix(0.988247,0,0,0.9679,4.42692,4.85714)">
                <g>
                    <text x="9.995px" y="177.369px" style="font-family:'MyriadPro-It', 'Myriad Pro', sans-serif;font-style:italic;font-size:28px;">v</text>
                    <text x="28.671px" y="177.369px" style="font-family:'MyriadPro-Regular', 'Myriad Pro', sans-serif;font-size:28px;">(µm)</text>
                </g>
                <text x="78.51px" y="319.047px" style="font-family:'MyriadPro-Regular', 'Myriad Pro', sans-serif;font-size:24px;fill:rgb(35,31,32);">–6</text>
                <text x="90.51px" y="124.287px" style="font-family:'MyriadPro-Regular', 'Myriad Pro', sans-serif;font-size:24px;fill:rgb(35,31,32);">0</text>
                <text x="90.51px" y="26.343px" style="font-family:'MyriadPro-Regular', 'Myriad Pro', sans-serif;font-size:24px;fill:rgb(35,31,32);">3</text>
                <text x="448.577px" y="358.516px" style="font-family:'MyriadPro-Regular', 'Myriad Pro', sans-serif;font-size:24px;">5</text>
                <text x="285.857px" y="358.516px" style="font-family:'MyriadPro-Regular', 'Myriad Pro', sans-serif;font-size:24px;">0</text>
                <text x="117.161px" y="358.516px" style="font-family:'MyriadPro-Regular', 'Myriad Pro', sans-serif;font-size:24px;">–5</text>
                <g>
                    <text x="257.342px" y="382.365px" style="font-family:'MyriadPro-It', 'Myriad Pro', sans-serif;font-style:italic;font-size:28px;">u</text>
                    <text x="278.006px" y="382.365px" style="font-family:'MyriadPro-Regular', 'Myriad Pro', sans-serif;font-size:28px;">(µm)</text>
                </g>
                <g transform="matrix(1,0,0,1,113.543,312.128)">
                    <path d="M0,-292.833L-5.682,-292.833L-5.682,0L0,0" style="fill:none;fill-rule:nonzero;stroke:black;stroke-width:0.5px;"/>
                </g>
                <g transform="matrix(1,0,0,1,129.316,334.992)">
                    <path d="M0,-5.658L0,0L325.417,0L325.417,-5.658" style="fill:none;fill-rule:nonzero;stroke:rgb(35,31,32);stroke-width:0.5px;"/>
                </g>
                <g transform="matrix(0,-1,-1,0,294.854,332.163)">
                    <path d="M-2.829,2.829L2.829,2.829" style="fill:none;fill-rule:nonzero;stroke:black;stroke-width:0.5px;stroke-linejoin:round;"/>
                </g>
                <g transform="matrix(1,0,0,1,107.861,116.879)">
                    <path d="M0,0L5.682,0" style="fill:none;fill-rule:nonzero;stroke:black;stroke-width:0.5px;stroke-linejoin:round;"/>
                </g>
                <g transform="matrix(1,0,0,1,357.149,14.4619)">
                    <path d="M0,204.917L3.167,204.917L4.834,204.834L6.417,204.75L8,204.584L9.667,204.5L11.25,204.334L12.834,204.084L14.5,203.917L16.084,203.667L17.667,203.417L19.25,203.084L20.834,202.75L24,202.084L25.584,201.667L27.167,201.25L28.667,200.834L30.25,200.334L31.75,199.834L33.334,199.334L34.834,198.834L36.334,198.25L39.334,197.084L42.334,195.75L43.75,195.084L45.25,194.417L46.667,193.667L48.167,192.917L49.584,192.167L51,191.334L52.334,190.5L53.75,189.667L55.084,188.834L56.5,187.917L57.834,187.084L59.167,186.084L60.417,185.167L61.75,184.25L63,183.25L64.334,182.25L65.584,181.167L66.75,180.167L68,179.084L69.167,178L70.417,176.917L73.834,173.5L74.917,172.334L76,171.084L77.084,169.917L78.167,168.667L79.167,167.417L80.25,166.167L81.25,164.917L82.167,163.584L83.167,162.334L84.084,161L85,159.667L85.917,158.334L86.75,156.917L87.584,155.584L89.25,152.75L90,151.334L91.5,148.5L92.25,147L92.917,145.584L93.584,144.084L94.25,142.584L94.834,141.084L95.5,139.584L96,138.084L96.584,136.584L97.084,135.084L97.584,133.5L98.084,131.917L98.584,130.417L99,128.834L99.417,127.25L99.75,125.667L100.084,124.167L100.417,122.584L100.75,120.917L101,119.334L101.25,117.75L101.75,114.584L101.917,112.917L102.084,111.334L102.167,109.75L102.25,108.084L102.334,106.5L102.417,104.917L102.417,100L102.334,98.417L102.25,96.75L102.084,93.584L101.917,91.917L101.75,90.334L101.5,88.75L101.25,87.167L101,85.5L100.75,83.917L100.417,82.334L100.084,80.75L99.75,79.167L99.417,77.584L99,76.084L98.584,74.5L98.084,72.917L97.584,71.417L97.084,69.834L96.584,68.334L96,66.834L95.5,65.334L94.834,63.75L94.25,62.334L93.584,60.834L92.917,59.334L92.25,57.917L91.5,56.417L90.75,55L90,53.584L89.25,52.167L88.417,50.75L87.584,49.334L86.75,48L85.917,46.584L85,45.25L84.084,43.917L83.167,42.584L82.167,41.334L81.25,40L80.25,38.75L79.167,37.5L78.167,36.25L77.084,35L76,33.75L74.917,32.584L73.834,31.417L72.667,30.25L71.584,29.084L70.417,28L69.167,26.917L68,25.834L66.75,24.75L65.584,23.667L64.334,22.667L63,21.667L61.75,20.667L60.417,19.75L59.167,18.75L57.834,17.834L56.5,16.917L55.084,16.084L53.75,15.25L52.334,14.334L51,13.584L49.584,12.75L48.167,12L46.667,11.25L45.25,10.5L43.75,9.834L42.334,9.167L40.834,8.5L39.334,7.834L37.834,7.25L34.834,6.084L33.334,5.5L31.75,5L30.25,4.5L28.667,4.084L27.167,3.667L25.584,3.25L24,2.834L22.417,2.417L20.834,2.084L19.25,1.834L17.667,1.5L16.084,1.25L14.5,1L12.834,0.75L11.25,0.584L9.667,0.417L8,0.25L4.834,0.084L3.167,0L0,0L-0.083,9.75L2.917,9.75L4.334,9.834L5.834,9.917L7.25,10L8.75,10.167L10.167,10.25L11.667,10.417L13.084,10.667L14.5,10.834L16,11.084L17.417,11.417L18.834,11.667L20.25,12L21.667,12.334L23.084,12.667L24.5,13L27.334,13.834L28.75,14.334L30.167,14.75L31.5,15.25L32.917,15.75L34.25,16.334L35.584,16.834L38.25,18L39.584,18.667L40.917,19.25L42.25,19.917L43.5,20.584L44.834,21.334L46.084,22L48.584,23.5L49.834,24.334L51.084,25.084L52.334,25.917L53.5,26.75L54.667,27.584L55.834,28.5L57,29.334L58.167,30.25L59.334,31.167L60.417,32.167L61.5,33.084L62.584,34.084L64.75,36.084L65.75,37.167L66.834,38.167L67.834,39.25L68.834,40.334L69.75,41.417L70.75,42.5L72.584,44.834L73.5,45.917L74.334,47.084L75.25,48.334L76.084,49.5L76.917,50.667L77.667,51.917L78.5,53.167L80.75,56.917L81.417,58.25L82.167,59.5L82.834,60.834L83.417,62.084L84.084,63.417L84.667,64.75L85.25,66.084L85.834,67.5L86.334,68.834L86.917,70.167L87.417,71.584L87.834,73L88.334,74.334L88.75,75.75L89.584,78.584L89.917,80L90.25,81.417L90.584,82.834L90.917,84.25L91.167,85.667L91.417,87.167L91.667,88.584L91.834,90.084L92,91.5L92.167,92.917L92.334,94.417L92.417,95.834L92.5,97.334L92.584,98.75L92.667,100.25L92.667,104.667L92.584,106.084L92.5,107.584L92.417,109L92.334,110.5L92.167,111.917L92,113.417L91.834,114.834L91.667,116.334L91.417,117.75L91.167,119.167L90.917,120.667L90.584,122.084L90.25,123.5L89.584,126.334L89.167,127.75L88.75,129.167L88.334,130.584L87.834,131.917L87.417,133.334L86.917,134.667L86.334,136.084L85.834,137.417L85.25,138.75L84.667,140.084L84.084,141.417L83.417,142.75L82.834,144.084L82.167,145.417L81.417,146.667L80.75,148L78.5,151.75L77.667,153L76.917,154.167L76.084,155.417L75.25,156.584L74.334,157.75L73.5,158.917L72.584,160.084L71.667,161.25L70.75,162.334L69.75,163.5L68.834,164.584L66.834,166.75L65.75,167.75L64.75,168.75L63.667,169.834L62.584,170.834L61.5,171.75L60.417,172.75L59.334,173.667L58.167,174.584L57,175.5L55.834,176.417L54.667,177.334L53.5,178.167L52.334,179L51.084,179.834L49.834,180.584L48.584,181.417L46.084,182.917L44.834,183.584L43.5,184.334L42.25,185L40.917,185.667L39.584,186.25L38.25,186.917L36.917,187.5L35.584,188.084L34.25,188.584L32.917,189.167L31.5,189.667L30.167,190.167L28.75,190.584L27.334,191L25.917,191.5L24.5,191.834L23.084,192.25L21.667,192.584L20.25,192.917L18.834,193.25L16,193.75L14.5,194L13.084,194.25L11.667,194.417L10.167,194.584L8.75,194.75L7.25,194.917L5.834,195L4.334,195.084L2.917,195.167L-0.083,195.167L0,204.917Z" style="fill:rgb(255,156,0);"/>
                </g>
                <g transform="matrix(1,0,0,1,226.9,219.379)">
                    <path d="M0,-204.917L-3.168,-204.917L-4.834,-204.834L-6.418,-204.75L-8,-204.667L-9.668,-204.5L-11.25,-204.334L-12.834,-204.167L-14.5,-203.917L-17.668,-203.417L-19.25,-203.084L-20.834,-202.834L-22.418,-202.5L-24,-202.084L-27.168,-201.25L-28.668,-200.834L-30.25,-200.417L-31.75,-199.917L-33.334,-199.417L-34.834,-198.834L-36.334,-198.25L-39.334,-197.084L-42.334,-195.75L-43.75,-195.084L-45.25,-194.417L-46.668,-193.667L-48.168,-192.917L-49.584,-192.167L-51,-191.334L-52.334,-190.584L-53.75,-189.667L-55.084,-188.834L-56.5,-188L-57.834,-187.084L-59.168,-186.167L-60.418,-185.167L-61.75,-184.25L-63,-183.25L-64.334,-182.25L-65.584,-181.25L-66.75,-180.167L-68,-179.084L-69.168,-178L-70.418,-176.917L-71.584,-175.834L-72.668,-174.667L-73.834,-173.5L-74.918,-172.334L-76,-171.167L-78.168,-168.667L-79.168,-167.417L-80.25,-166.167L-81.25,-164.917L-82.168,-163.584L-83.168,-162.334L-84.084,-161L-85,-159.667L-85.918,-158.334L-86.75,-156.917L-87.584,-155.584L-88.418,-154.167L-89.25,-152.75L-90,-151.334L-91.5,-148.5L-92.25,-147L-92.918,-145.584L-94.25,-142.584L-94.834,-141.167L-95.5,-139.584L-96,-138.084L-96.584,-136.584L-97.084,-135.084L-97.584,-133.5L-98.084,-132L-98.584,-130.417L-99,-128.834L-99.417,-127.334L-99.75,-125.75L-100.084,-124.167L-100.417,-122.584L-100.75,-121L-101,-119.417L-101.25,-117.75L-101.75,-114.584L-101.917,-113L-102.084,-111.334L-102.167,-109.75L-102.25,-108.167L-102.334,-106.5L-102.417,-104.917L-102.417,-100L-102.334,-98.417L-102.25,-96.834L-102.167,-95.167L-102.084,-93.584L-101.917,-92L-101.75,-90.334L-101.5,-88.75L-101,-85.584L-100.75,-84L-100.417,-82.334L-100.084,-80.75L-99.75,-79.25L-99.417,-77.667L-99,-76.084L-98.584,-74.5L-98.084,-73L-97.084,-69.834L-96.584,-68.334L-96,-66.834L-95.5,-65.334L-94.834,-63.834L-94.25,-62.334L-92.918,-59.334L-92.25,-57.917L-91.5,-56.417L-90.75,-55L-90,-53.584L-89.25,-52.167L-88.418,-50.75L-87.584,-49.334L-86.75,-48L-85.918,-46.584L-85,-45.25L-83.168,-42.584L-82.168,-41.334L-81.25,-40L-80.25,-38.75L-79.168,-37.5L-78.168,-36.25L-77.084,-35L-76,-33.834L-74.918,-32.584L-73.834,-31.417L-72.668,-30.25L-71.584,-29.167L-70.418,-28L-69.168,-26.917L-68,-25.834L-66.75,-24.75L-65.584,-23.75L-64.334,-22.667L-63,-21.667L-61.75,-20.667L-60.418,-19.75L-59.168,-18.834L-57.834,-17.834L-56.5,-17L-55.084,-16.084L-53.75,-15.25L-52.334,-14.417L-51,-13.584L-49.584,-12.75L-48.168,-12L-46.668,-11.25L-45.25,-10.5L-43.75,-9.834L-42.334,-9.167L-40.834,-8.5L-39.334,-7.834L-37.834,-7.25L-34.834,-6.084L-33.334,-5.584L-31.75,-5.084L-30.25,-4.584L-28.668,-4.084L-27.168,-3.667L-25.584,-3.25L-24,-2.834L-22.418,-2.5L-19.25,-1.834L-17.668,-1.5L-14.5,-1L-12.834,-0.834L-11.25,-0.584L-9.668,-0.417L-8,-0.334L-6.418,-0.167L-4.834,-0.084L-3.168,0L0,0L0.082,-9.75L-2.918,-9.75L-4.334,-9.834L-5.834,-9.917L-7.25,-10L-8.75,-10.167L-10.168,-10.334L-11.668,-10.5L-13.084,-10.667L-14.5,-10.917L-16,-11.167L-17.418,-11.417L-18.834,-11.667L-20.25,-12L-21.668,-12.334L-23.084,-12.667L-24.5,-13.084L-25.918,-13.417L-27.334,-13.917L-28.75,-14.334L-30.168,-14.75L-31.5,-15.25L-32.918,-15.75L-34.25,-16.334L-35.584,-16.834L-36.918,-17.417L-38.25,-18L-39.584,-18.667L-40.918,-19.25L-42.25,-19.917L-43.5,-20.584L-44.834,-21.334L-46.084,-22L-48.584,-23.5L-49.834,-24.334L-51.084,-25.084L-52.334,-25.917L-53.5,-26.75L-54.668,-27.584L-55.834,-28.5L-57,-29.417L-58.168,-30.334L-59.334,-31.25L-60.418,-32.167L-61.5,-33.167L-62.584,-34.084L-63.668,-35.084L-64.75,-36.167L-65.75,-37.167L-66.834,-38.167L-67.834,-39.25L-68.834,-40.334L-69.75,-41.417L-70.75,-42.584L-71.668,-43.667L-72.584,-44.834L-73.5,-46L-74.334,-47.167L-75.25,-48.334L-76.084,-49.5L-76.918,-50.75L-77.668,-51.917L-78.5,-53.167L-80.75,-56.917L-81.418,-58.25L-82.168,-59.5L-82.834,-60.834L-83.418,-62.167L-84.084,-63.5L-84.668,-64.834L-85.25,-66.167L-85.834,-67.5L-86.334,-68.834L-86.918,-70.25L-87.418,-71.584L-87.834,-73L-88.334,-74.334L-88.75,-75.75L-89.168,-77.167L-89.584,-78.584L-89.918,-80L-90.25,-81.417L-90.584,-82.834L-90.918,-84.25L-91.168,-85.75L-91.668,-88.584L-91.834,-90.084L-92,-91.5L-92.168,-93L-92.334,-94.417L-92.418,-95.917L-92.5,-97.334L-92.584,-98.834L-92.668,-100.25L-92.668,-104.667L-92.584,-106.167L-92.5,-107.584L-92.418,-109.084L-92.334,-110.5L-92.168,-112L-92,-113.417L-91.834,-114.834L-91.668,-116.334L-91.418,-117.75L-91.168,-119.25L-90.918,-120.667L-90.584,-122.084L-90.25,-123.5L-89.918,-124.917L-89.584,-126.334L-89.168,-127.75L-88.75,-129.167L-88.334,-130.584L-87.834,-131.917L-87.418,-133.334L-86.918,-134.75L-86.334,-136.084L-85.834,-137.417L-85.25,-138.834L-84.668,-140.167L-84.084,-141.5L-83.418,-142.834L-82.834,-144.084L-82.168,-145.417L-81.418,-146.667L-80.75,-148L-78.5,-151.75L-77.668,-153L-76.918,-154.25L-75.25,-156.584L-74.334,-157.834L-73.5,-159L-72.584,-160.084L-71.668,-161.25L-70.75,-162.417L-69.75,-163.5L-68.834,-164.584L-66.834,-166.75L-65.75,-167.75L-64.75,-168.834L-63.668,-169.834L-61.5,-171.834L-60.418,-172.75L-59.334,-173.75L-58.168,-174.667L-57,-175.584L-55.834,-176.417L-54.668,-177.334L-53.5,-178.167L-52.334,-179L-51.084,-179.834L-49.834,-180.584L-48.584,-181.417L-46.084,-182.917L-44.834,-183.584L-43.5,-184.334L-42.25,-185L-40.918,-185.667L-39.584,-186.25L-38.25,-186.917L-36.918,-187.5L-35.584,-188.084L-34.25,-188.584L-32.918,-189.167L-31.5,-189.667L-30.168,-190.167L-28.75,-190.584L-27.334,-191.084L-25.918,-191.5L-24.5,-191.917L-23.084,-192.25L-21.668,-192.584L-20.25,-192.917L-18.834,-193.25L-17.418,-193.5L-16,-193.834L-14.5,-194.084L-13.084,-194.25L-11.668,-194.5L-10.168,-194.667L-8.75,-194.75L-7.25,-194.917L-5.834,-195L-4.334,-195.084L-2.918,-195.167L0.082,-195.167L0,-204.917Z" style="fill:rgb(255,156,0);"/>
                </g>
                <g transform="matrix(1,0,0,1,0,-356.409)">
                    <rect x="226.982" y="370.788" width="130.084" height="9.833" style="fill:rgb(255,156,0);"/>
                </g>
                <g transform="matrix(1,0,0,1,0,34.008)">
                    <rect x="226.982" y="175.621" width="130.084" height="9.75" style="fill:rgb(255,156,0);"/>
                </g>
                <g transform="matrix(1,0,0,1,238.732,301.379)">
                    <path d="M0,-42.25L0,-34.417L-0.332,-30.917L-1.666,-27.417L-4.082,-25L-7.332,-23.667L-4,-21.75L-1.25,-19.333L0.168,-16.333L0.584,-12.75L0.584,0.167L0,3.75L-1.832,7.167L-4.916,9.667L-8.25,11.167L-12.666,12.167L-16.166,12.583L-20.416,12.583L-24,12.167L-28.416,11.167L-31.75,9.75L-34.75,7.25L-36.666,3.75L-37.25,0.5L-37.25,-4L-32.166,-4L-32.166,-0.083L-31.332,3.333L-28.832,5.833L-25.082,7.333L-20.832,8.083L-16.832,8.083L-13.25,7.667L-9.666,6.583L-6.666,4.5L-4.5,1.5L-4.5,-12.75L-5.25,-16.083L-7.25,-18.75L-10.082,-20.333L-14.082,-21.167L-28,-21.167L-28,-25.583L-15,-25.583L-11.666,-26.083L-8.5,-27.667L-6.082,-30.417L-5.082,-33.667L-5.082,-40.667L-5.5,-44.333L-7.416,-47.25L-10.416,-49.083L-13.832,-50L-17.082,-50.333L-20.75,-50.25L-24.666,-49.667L-28.25,-48.167L-30.75,-45.667L-31.666,-42.333L-31.666,-38.417L-36.75,-38.417L-36.75,-42.333L-36.25,-46L-34.582,-49.5L-31.666,-52L-28.416,-53.5L-24.082,-54.5L-20.5,-54.833L-16.166,-54.833L-12.666,-54.5L-8.25,-53.583L-5,-52.167L-2.082,-49.667L-0.5,-46L0,-42.25Z" style="fill:rgb(255,0,0);"/>
                </g>
                <g transform="matrix(1,0,0,1,284.483,265.379)">
                    <path d="M0,48.417L4.5,48.25L7.916,47.667L11.166,46.583L14.5,44.917L17.166,43.083L17.166,47.833L22,47.833L22,0L17.166,0L17.166,38.417L13.916,40.583L10.5,42.167L7.25,43.167L3.75,43.833L0,43.75L-3.251,42.917L-6.083,40.583L-7.167,37.25L-7.167,0L-12.001,0L-12.001,36.583L-11.583,40.333L-10.001,43.917L-7.333,46.5L-3.667,47.917L0,48.417Z" style="fill:rgb(255,0,0);"/>
                </g>
                <g transform="matrix(1,0,0,1,370.566,312.879)">
                    <path d="M0,-48.167L-4.75,-48L-8.417,-47.25L-12,-46L-15.5,-44L-18.417,-41.833L-20.167,-44.667L-22.833,-46.583L-26.25,-47.75L-29.667,-48.167L-33.25,-48L-36.583,-47.5L-39.917,-46.583L-43.167,-45L-46.5,-42.833L-46.5,-47.5L-51.333,-47.5L-51.333,0L-46.5,0L-46.5,-38.167L-43.25,-40.25L-39.917,-41.833L-36.667,-42.917L-33.167,-43.5L-29.417,-43.5L-26.167,-42.583L-23.333,-40.25L-22.25,-37L-22.25,0L-17.417,0L-17.417,-36.25L-17.5,-37.917L-15.5,-39.333L-12.083,-41.167L-8.667,-42.5L-5.5,-43.333L-2.25,-43.667L1.083,-43.25L4.583,-41.75L6.583,-39.333L7.167,-37L7.167,0L12,0L12,-36.25L11.583,-40L10,-43.667L7.333,-46.167L3.667,-47.667L0,-48.167Z" style="fill:rgb(255,0,0);"/>
                </g>
            </g>
        </g>
    </g>
</svg>
