<?xml version="1.0" encoding="UTF-8" standalone="no"?>
<!DOCTYPE svg PUBLIC "-//W3C//DTD SVG 1.1//EN" "http://www.w3.org/Graphics/SVG/1.1/DTD/svg11.dtd">
<svg width="100%" height="100%" viewBox="0 0 504 325" version="1.1" xmlns="http://www.w3.org/2000/svg" xmlns:xlink="http://www.w3.org/1999/xlink" xml:space="preserve" xmlns:serif="http://www.serif.com/" style="fill-rule:evenodd;clip-rule:evenodd;stroke-miterlimit:10;">
    <g transform="matrix(1.06341,0,0,1.081,0,0)">
        <rect id="Artboard1" x="0" y="0" width="473.667" height="300" style="fill:none;"/>
        <g id="Artboard11" serif:id="Artboard1">
            <g id="Layer-1" serif:id="Layer 1" transform="matrix(0.940375,0,0,0.925069,14.1211,8.60675)">
                <g transform="matrix(1,0,0,1,87.2529,234.567)">
                    <path d="M0,-220.055L-5.682,-220.055L-5.682,0L0,0" style="fill:none;fill-rule:nonzero;stroke:black;stroke-width:0.5px;"/>
                </g>
                <text x="27.292px" y="241.288px" style="font-family:'MyriadPro-Regular', 'Myriad Pro', sans-serif;font-size:24px;">3945</text>
                <text x="27.292px" y="21.83px" style="font-family:'MyriadPro-Regular', 'Myriad Pro', sans-serif;font-size:24px;">3975</text>
                <text x="437.37px" y="278.452px" style="font-family:'MyriadPro-Regular', 'Myriad Pro', sans-serif;font-size:24px;">985</text>
                <text x="70.559px" y="278.452px" style="font-family:'MyriadPro-Regular', 'Myriad Pro', sans-serif;font-size:24px;">935</text>
                <g>
                    <text x="234.73px" y="293.303px" style="font-family:'MyriadPro-It', 'Myriad Pro', sans-serif;font-style:italic;font-size:28px;">u</text>
                    <text x="255.394px" y="293.303px" style="font-family:'MyriadPro-Regular', 'Myriad Pro', sans-serif;font-size:28px;">(µm)</text>
                </g>
                <g>
                    <text x="-1.282px" y="132.723px" style="font-family:'MyriadPro-It', 'Myriad Pro', sans-serif;font-style:italic;font-size:28px;">v</text>
                    <text x="17.395px" y="132.723px" style="font-family:'MyriadPro-Regular', 'Myriad Pro', sans-serif;font-size:28px;">(µm)</text>
                </g>
                <text x="164.837px" y="26.32px" style="font-family:'MyriadPro-Regular', 'Myriad Pro', sans-serif;font-size:24px;">WA of racetrack</text>
                <text x="174.173px" y="231.592px" style="font-family:'MyriadPro-Regular', 'Myriad Pro', sans-serif;font-size:24px;">WA of label</text>
                <g transform="matrix(1,0,0,1,89.0259,254.917)">
                    <path d="M0,-5.658L0,0L366.812,0L366.812,-5.658" style="fill:none;fill-rule:nonzero;stroke:rgb(35,31,32);stroke-width:0.5px;"/>
                </g>
                <g transform="matrix(1,0,0,1,199.015,197.878)">
                    <path d="M0,0L1.5,0" style="fill:none;fill-rule:nonzero;stroke:rgb(39,170,255);stroke-width:0.75px;stroke-linejoin:round;stroke-miterlimit:4;"/>
                </g>
                <g transform="matrix(1,0,0,1,203.49,197.878)">
                    <path d="M0,0L212.67,0" style="fill:none;fill-rule:nonzero;stroke:rgb(39,170,255);stroke-width:0.75px;stroke-linejoin:round;stroke-miterlimit:4;stroke-dasharray:2.97,2.97;"/>
                </g>
                <g transform="matrix(1,0,0,1,417.648,196.378)">
                    <path d="M0,1.5L1.5,1.5L1.5,0" style="fill:none;fill-rule:nonzero;stroke:rgb(39,170,255);stroke-width:0.75px;stroke-linejoin:round;stroke-miterlimit:4;"/>
                </g>
                <g transform="matrix(0,-1,-1,0,488.694,123.775)">
                    <path d="M-69.546,69.546L69.546,69.546" style="fill:none;fill-rule:nonzero;stroke:rgb(39,170,255);stroke-width:0.75px;stroke-linejoin:round;stroke-miterlimit:4;stroke-dasharray:3.06,3.06;"/>
                </g>
                <g transform="matrix(1,0,0,1,419.148,51.2007)">
                    <path d="M0,1.5L0,0L-1.5,0" style="fill:none;fill-rule:nonzero;stroke:rgb(39,170,255);stroke-width:0.75px;stroke-linejoin:round;stroke-miterlimit:4;"/>
                </g>
                <g transform="matrix(-1,0,0,1,202.003,51.2007)">
                    <path d="M-212.67,0L0,0" style="fill:none;fill-rule:nonzero;stroke:rgb(39,170,255);stroke-width:0.75px;stroke-linejoin:round;stroke-miterlimit:4;stroke-dasharray:2.97,2.97;"/>
                </g>
                <g transform="matrix(1,0,0,1,200.515,52.7007)">
                    <path d="M0,-1.5L-1.5,-1.5L-1.5,0" style="fill:none;fill-rule:nonzero;stroke:rgb(39,170,255);stroke-width:0.75px;stroke-linejoin:round;stroke-miterlimit:4;"/>
                </g>
                <g transform="matrix(0,1,1,0,268.561,125.304)">
                    <path d="M-69.546,-69.546L69.546,-69.546" style="fill:none;fill-rule:nonzero;stroke:rgb(39,170,255);stroke-width:0.75px;stroke-linejoin:round;stroke-miterlimit:4;stroke-dasharray:3.06,3.06;"/>
                </g>
                <g transform="matrix(0,1,1,0,199.765,197.128)">
                    <path d="M-0.75,-0.75L0.75,-0.75" style="fill:none;fill-rule:nonzero;stroke:rgb(39,170,255);stroke-width:0.75px;stroke-linejoin:round;stroke-miterlimit:4;"/>
                </g>
                <g transform="matrix(1,0,0,1,125.636,190.556)">
                    <path d="M0,0L1.5,0" style="fill:none;fill-rule:nonzero;stroke:rgb(39,170,255);stroke-width:0.75px;stroke-linejoin:round;stroke-miterlimit:4;"/>
                </g>
                <g transform="matrix(1,0,0,1,130.11,190.556)">
                    <path d="M0,0L212.673,0" style="fill:none;fill-rule:nonzero;stroke:rgb(39,170,255);stroke-width:0.75px;stroke-linejoin:round;stroke-miterlimit:4;stroke-dasharray:2.97,2.97;"/>
                </g>
                <g transform="matrix(1,0,0,1,344.27,189.056)">
                    <path d="M0,1.5L1.5,1.5L1.5,0" style="fill:none;fill-rule:nonzero;stroke:rgb(39,170,255);stroke-width:0.75px;stroke-linejoin:round;stroke-miterlimit:4;"/>
                </g>
                <g transform="matrix(0,-1,-1,0,378.664,153.102)">
                    <path d="M-32.894,32.894L32.894,32.894" style="fill:none;fill-rule:nonzero;stroke:rgb(39,170,255);stroke-width:0.75px;stroke-linejoin:round;stroke-miterlimit:4;stroke-dasharray:3.06,3.06;"/>
                </g>
                <g transform="matrix(1,0,0,1,345.77,117.178)">
                    <path d="M0,1.5L0,0L-1.5,0" style="fill:none;fill-rule:nonzero;stroke:rgb(39,170,255);stroke-width:0.75px;stroke-linejoin:round;stroke-miterlimit:4;"/>
                </g>
                <g transform="matrix(-1,0,0,1,128.623,117.178)">
                    <path d="M-212.673,0L0,0" style="fill:none;fill-rule:nonzero;stroke:rgb(39,170,255);stroke-width:0.75px;stroke-linejoin:round;stroke-miterlimit:4;stroke-dasharray:2.97,2.97;"/>
                </g>
                <g transform="matrix(1,0,0,1,127.136,118.678)">
                    <path d="M0,-1.5L-1.5,-1.5L-1.5,0" style="fill:none;fill-rule:nonzero;stroke:rgb(39,170,255);stroke-width:0.75px;stroke-linejoin:round;stroke-miterlimit:4;"/>
                </g>
                <g transform="matrix(0,1,1,0,158.53,154.632)">
                    <path d="M-32.894,-32.894L32.894,-32.894" style="fill:none;fill-rule:nonzero;stroke:rgb(39,170,255);stroke-width:0.75px;stroke-linejoin:round;stroke-miterlimit:4;stroke-dasharray:3.06,3.06;"/>
                </g>
                <g transform="matrix(0,1,1,0,126.386,189.806)">
                    <path d="M-0.75,-0.75L0.75,-0.75" style="fill:none;fill-rule:nonzero;stroke:rgb(39,170,255);stroke-width:0.75px;stroke-linejoin:round;stroke-miterlimit:4;"/>
                </g>
                <g transform="matrix(1,0,0,1,287.037,101.432)">
                    <path d="M0,46.215L1.102,46.215L1.495,46.137L2.203,46.137L2.598,46.058L2.912,46.058L3.307,45.979L3.7,45.901L4.015,45.901L4.408,45.821L4.724,45.743L5.117,45.664L5.432,45.585L5.825,45.507L6.141,45.428L6.534,45.271L6.849,45.192L7.242,45.113L7.558,44.956L7.872,44.798L8.266,44.719L8.581,44.562L8.896,44.404L9.211,44.326L9.604,44.168L9.92,44.011L10.234,43.853L10.55,43.695L10.864,43.539L11.179,43.302L11.494,43.145L11.81,42.987L12.123,42.751L12.438,42.594L12.754,42.358L13.068,42.2L13.384,41.964L13.699,41.728L13.935,41.57L14.25,41.334L14.565,41.097L14.801,40.861L15.116,40.625L15.352,40.389L15.667,40.152L15.902,39.917L16.14,39.602L16.455,39.365L16.927,38.893L17.163,38.578L17.399,38.342L17.635,38.027L17.872,37.791L18.107,37.476L18.344,37.161L18.58,36.925L18.816,36.61L18.974,36.295L19.209,35.98L19.367,35.665L19.604,35.429L19.762,35.114L19.997,34.799L20.154,34.484L20.313,34.169L20.548,33.776L20.706,33.461L20.863,33.146L21.179,32.516L21.257,32.122L21.414,31.807L21.729,31.177L21.808,30.784L21.965,30.469L22.044,30.074L22.123,29.761L22.28,29.445L22.359,29.052L22.438,28.737L22.516,28.343L22.596,28.028L22.674,27.635L22.753,27.24L22.831,26.926L22.91,26.532L22.91,26.218L22.988,25.823L22.988,25.509L23.068,25.114L23.068,24.406L23.146,24.013L23.146,22.202L23.068,21.808L23.068,21.099L22.988,20.706L22.988,20.39L22.91,19.998L22.91,19.682L22.831,19.289L22.753,18.973L22.674,18.58L22.596,18.187L22.516,17.872L22.438,17.479L22.359,17.163L22.28,16.77L22.123,16.455L22.044,16.139L21.965,15.746L21.808,15.43L21.729,15.038L21.414,14.408L21.257,14.093L21.179,13.699L20.863,13.069L20.706,12.755L20.548,12.44L20.313,12.046L20.154,11.731L19.997,11.416L19.762,11.101L19.604,10.786L19.367,10.55L19.209,10.235L18.974,9.92L18.816,9.605L18.58,9.29L18.344,9.054L18.107,8.739L17.872,8.424L17.635,8.188L17.399,7.873L17.163,7.636L16.927,7.322L16.69,7.086L16.455,6.849L16.14,6.613L15.902,6.298L15.667,6.062L15.352,5.826L15.116,5.59L14.801,5.354L14.565,5.117L13.935,4.645L13.699,4.487L13.384,4.251L13.068,4.015L12.754,3.858L12.438,3.621L12.123,3.464L11.81,3.228L11.494,3.07L11.179,2.913L10.864,2.676L9.92,2.204L9.604,2.047L9.211,1.889L8.896,1.811L8.266,1.495L7.872,1.417L7.558,1.259L7.242,1.102L6.849,1.023L6.534,0.944L6.141,0.787L5.825,0.708L5.432,0.63L5.117,0.55L4.724,0.472L4.408,0.394L4.015,0.315L3.7,0.315L3.307,0.236L2.912,0.157L2.598,0.157L2.203,0.078L1.495,0.078L1.102,0L0,0L0,2.204L1.338,2.204L1.652,2.283L1.968,2.283L2.361,2.361L2.676,2.361L2.991,2.44L3.307,2.44L3.62,2.519L3.936,2.598L4.251,2.676L4.645,2.676L4.959,2.756L5.274,2.834L5.59,2.913L5.904,3.07L6.534,3.228L6.849,3.306L7.164,3.464L7.479,3.543L7.794,3.7L8.03,3.779L8.345,3.937L8.66,4.093L8.975,4.173L9.289,4.33L9.525,4.487L10.471,4.96L10.706,5.117L11.021,5.275L11.259,5.511L11.572,5.669L11.81,5.826L12.123,6.062L12.36,6.219L12.596,6.456L12.911,6.613L13.147,6.849L13.384,7.007L13.699,7.243L14.171,7.715L14.407,7.952L14.644,8.188L14.879,8.345L15.116,8.581L15.352,8.897L15.589,9.133L15.745,9.369L15.982,9.605L16.218,9.841L16.375,10.077L16.611,10.392L16.769,10.629L17.006,10.864L17.163,11.179L17.399,11.416L17.557,11.731L17.714,11.967L17.872,12.282L18.107,12.596L18.265,12.832L18.423,13.148L18.58,13.464L18.737,13.699L18.816,14.013L18.974,14.329L19.131,14.644L19.289,14.881L19.367,15.194L19.524,15.51L19.604,15.825L19.762,16.139L19.84,16.455L19.918,16.77L20.075,17.084L20.154,17.4L20.233,17.715L20.313,18.028L20.391,18.344L20.47,18.66L20.548,18.973L20.627,19.368L20.627,19.682L20.706,19.998L20.785,20.313L20.785,20.627L20.863,20.943L20.863,21.651L20.941,21.966L20.941,24.249L20.863,24.565L20.863,25.273L20.785,25.587L20.785,25.902L20.706,26.218L20.627,26.532L20.627,26.847L20.548,27.24L20.47,27.556L20.391,27.871L20.313,28.185L20.233,28.501L20.154,28.816L20.075,29.13L19.918,29.445L19.84,29.761L19.762,30.074L19.604,30.39L19.524,30.705L19.367,31.02L19.289,31.335L19.131,31.571L18.974,31.886L18.816,32.201L18.737,32.516L18.58,32.752L18.423,33.067L18.265,33.382L18.107,33.618L17.872,33.933L17.714,34.248L17.557,34.484L17.399,34.799L17.163,35.035L17.006,35.35L16.769,35.587L16.611,35.823L16.375,36.137L16.218,36.374L15.982,36.61L15.745,36.846L15.589,37.082L15.352,37.319L15.116,37.633L14.879,37.87L14.644,38.027L14.407,38.263L14.171,38.499L13.935,38.736L13.699,38.972L13.384,39.208L13.147,39.365L12.911,39.602L12.596,39.759L12.36,39.996L12.123,40.152L11.81,40.389L11.572,40.547L11.259,40.704L11.021,40.941L10.706,41.097L10.471,41.255L9.525,41.728L9.289,41.885L8.975,42.042L8.66,42.121L8.345,42.278L8.03,42.436L7.794,42.515L7.479,42.673L7.164,42.751L6.849,42.908L5.904,43.145L5.59,43.302L5.274,43.381L4.959,43.46L4.645,43.539L4.251,43.539L3.936,43.617L3.62,43.695L3.307,43.775L2.991,43.775L2.676,43.853L2.361,43.853L1.968,43.932L1.652,43.932L1.338,44.011L0,44.011L0,46.215Z" style="fill:rgb(255,156,0);"/>
                </g>
                <g transform="matrix(1,0,0,1,257.748,147.647)">
                    <path d="M0,-46.215L-1.102,-46.215L-1.496,-46.136L-2.205,-46.136L-2.598,-46.057L-2.913,-46.057L-3.307,-45.979L-3.7,-45.9L-4.016,-45.9L-4.408,-45.821L-4.724,-45.742L-5.117,-45.664L-5.433,-45.585L-5.825,-45.507L-6.141,-45.428L-6.534,-45.27L-6.85,-45.192L-7.242,-45.112L-7.874,-44.798L-8.267,-44.719L-8.582,-44.562L-8.896,-44.404L-9.212,-44.325L-9.604,-44.168L-9.92,-44.011L-10.236,-43.853L-10.549,-43.695L-10.864,-43.538L-11.181,-43.302L-11.494,-43.144L-11.81,-42.987L-12.126,-42.751L-12.438,-42.593L-12.754,-42.357L-13.07,-42.2L-13.384,-41.964L-13.699,-41.727L-13.936,-41.569L-14.251,-41.334L-14.564,-41.097L-14.801,-40.861L-15.116,-40.625L-15.353,-40.389L-15.668,-40.152L-15.904,-39.916L-16.141,-39.602L-16.454,-39.365L-16.69,-39.129L-16.927,-38.893L-17.162,-38.578L-17.399,-38.342L-17.635,-38.027L-17.871,-37.791L-18.107,-37.476L-18.344,-37.161L-18.58,-36.925L-18.816,-36.61L-18.975,-36.295L-19.211,-35.98L-19.368,-35.665L-19.604,-35.428L-19.761,-35.114L-19.997,-34.799L-20.156,-34.484L-20.313,-34.169L-20.549,-33.775L-20.706,-33.46L-20.864,-33.146L-21.021,-32.83L-21.178,-32.516L-21.258,-32.122L-21.414,-31.807L-21.573,-31.493L-21.729,-31.177L-21.809,-30.784L-21.966,-30.468L-22.045,-30.076L-22.123,-29.76L-22.281,-29.444L-22.359,-29.051L-22.438,-28.736L-22.518,-28.343L-22.595,-28.027L-22.675,-27.634L-22.754,-27.241L-22.832,-26.925L-22.91,-26.533L-22.91,-26.217L-22.99,-25.824L-22.99,-25.508L-23.068,-25.115L-23.068,-24.407L-23.147,-24.012L-23.147,-22.202L-23.068,-21.809L-23.068,-21.1L-22.99,-20.705L-22.99,-20.392L-22.91,-19.997L-22.91,-19.683L-22.832,-19.288L-22.754,-18.975L-22.675,-18.58L-22.595,-18.186L-22.518,-17.871L-22.438,-17.478L-22.359,-17.162L-22.281,-16.769L-22.123,-16.454L-22.045,-16.14L-21.966,-15.746L-21.809,-15.431L-21.729,-15.037L-21.573,-14.722L-21.414,-14.407L-21.258,-14.092L-21.178,-13.699L-20.864,-13.069L-20.706,-12.754L-20.549,-12.439L-20.313,-12.046L-20.156,-11.731L-19.997,-11.415L-19.761,-11.101L-19.604,-10.786L-19.368,-10.549L-19.211,-10.235L-18.975,-9.92L-18.816,-9.605L-18.58,-9.29L-18.344,-9.053L-18.107,-8.738L-17.871,-8.424L-17.635,-8.188L-17.399,-7.872L-17.162,-7.636L-16.927,-7.321L-16.69,-7.085L-16.454,-6.849L-16.141,-6.613L-15.904,-6.298L-15.668,-6.062L-15.353,-5.826L-15.116,-5.59L-14.801,-5.353L-14.564,-5.117L-14.251,-4.881L-13.936,-4.645L-13.699,-4.487L-13.384,-4.251L-13.07,-4.015L-12.754,-3.857L-12.438,-3.621L-12.126,-3.464L-11.81,-3.228L-11.494,-3.07L-11.181,-2.912L-10.864,-2.676L-10.549,-2.519L-10.236,-2.361L-9.604,-2.047L-9.212,-1.889L-8.896,-1.811L-8.582,-1.653L-8.267,-1.495L-7.874,-1.417L-7.558,-1.259L-7.242,-1.102L-6.85,-1.023L-6.534,-0.944L-6.141,-0.787L-5.825,-0.708L-5.433,-0.63L-5.117,-0.55L-4.724,-0.472L-4.408,-0.393L-4.016,-0.314L-3.7,-0.314L-3.307,-0.236L-2.913,-0.157L-2.598,-0.157L-2.205,-0.078L-1.496,-0.078L-1.102,0L0,0L0,-2.204L-1.338,-2.204L-1.653,-2.283L-1.969,-2.283L-2.361,-2.361L-2.678,-2.361L-2.991,-2.44L-3.307,-2.44L-3.622,-2.519L-3.936,-2.598L-4.251,-2.676L-4.645,-2.676L-5.275,-2.834L-5.59,-2.912L-5.905,-3.07L-6.22,-3.149L-6.534,-3.228L-6.85,-3.306L-7.165,-3.464L-7.479,-3.542L-7.794,-3.7L-8.03,-3.778L-8.347,-3.936L-8.659,-4.093L-8.975,-4.173L-9.291,-4.329L-9.526,-4.487L-9.841,-4.645L-10.156,-4.802L-10.472,-4.96L-10.708,-5.117L-11.021,-5.274L-11.258,-5.51L-11.573,-5.668L-11.81,-5.826L-12.126,-6.062L-12.361,-6.219L-12.598,-6.455L-12.911,-6.613L-13.147,-6.849L-13.384,-7.007L-13.699,-7.243L-13.936,-7.479L-14.408,-7.951L-14.644,-8.188L-14.88,-8.345L-15.116,-8.581L-15.353,-8.896L-15.589,-9.132L-15.745,-9.369L-15.982,-9.605L-16.218,-9.841L-16.377,-10.077L-16.612,-10.392L-16.77,-10.628L-17.006,-10.864L-17.162,-11.179L-17.399,-11.415L-17.558,-11.731L-17.715,-11.967L-17.871,-12.281L-18.107,-12.596L-18.267,-12.833L-18.423,-13.148L-18.58,-13.463L-18.739,-13.699L-18.816,-14.013L-18.975,-14.329L-19.132,-14.644L-19.289,-14.88L-19.368,-15.194L-19.524,-15.51L-19.604,-15.824L-19.761,-16.14L-19.84,-16.454L-19.919,-16.769L-20.076,-17.085L-20.156,-17.399L-20.233,-17.714L-20.313,-18.029L-20.392,-18.343L-20.469,-18.659L-20.549,-18.975L-20.629,-19.367L-20.629,-19.683L-20.706,-19.997L-20.785,-20.312L-20.785,-20.628L-20.864,-20.942L-20.864,-21.65L-20.941,-21.965L-20.941,-24.248L-20.864,-24.564L-20.864,-25.272L-20.785,-25.588L-20.785,-25.902L-20.706,-26.217L-20.629,-26.533L-20.629,-26.846L-20.549,-27.241L-20.469,-27.555L-20.392,-27.87L-20.313,-28.186L-20.233,-28.5L-20.156,-28.815L-20.076,-29.131L-19.919,-29.444L-19.761,-30.076L-19.604,-30.389L-19.524,-30.705L-19.368,-31.021L-19.289,-31.334L-19.132,-31.57L-18.975,-31.886L-18.816,-32.201L-18.739,-32.515L-18.58,-32.751L-18.423,-33.067L-18.267,-33.382L-18.107,-33.619L-17.871,-33.932L-17.715,-34.248L-17.558,-34.484L-17.399,-34.799L-17.162,-35.035L-17.006,-35.35L-16.77,-35.586L-16.612,-35.822L-16.377,-36.137L-16.218,-36.373L-15.982,-36.61L-15.745,-36.846L-15.589,-37.082L-15.353,-37.318L-15.116,-37.633L-14.88,-37.87L-14.644,-38.027L-14.172,-38.499L-13.936,-38.736L-13.699,-38.971L-13.384,-39.208L-13.147,-39.365L-12.911,-39.602L-12.598,-39.759L-12.361,-39.995L-12.126,-40.152L-11.81,-40.389L-11.573,-40.546L-11.258,-40.704L-11.021,-40.94L-10.708,-41.097L-10.472,-41.255L-10.156,-41.413L-9.841,-41.569L-9.526,-41.727L-9.291,-41.885L-8.975,-42.042L-8.659,-42.121L-8.347,-42.278L-8.03,-42.436L-7.794,-42.514L-7.479,-42.672L-7.165,-42.751L-6.85,-42.908L-6.534,-42.987L-6.22,-43.066L-5.905,-43.144L-5.59,-43.302L-5.275,-43.381L-4.96,-43.459L-4.645,-43.538L-4.251,-43.538L-3.936,-43.617L-3.622,-43.695L-3.307,-43.775L-2.991,-43.775L-2.678,-43.853L-2.361,-43.853L-1.969,-43.932L-1.653,-43.932L-1.338,-44.011L0,-44.011L0,-46.215Z" style="fill:rgb(255,156,0);"/>
                </g>
                <g transform="matrix(1,0,0,1,0,-94.932)">
                    <rect x="257.748" y="196.364" width="29.289" height="2.204" style="fill:rgb(255,156,0);"/>
                </g>
                <g transform="matrix(1,0,0,1,0,-6.91)">
                    <rect x="257.748" y="152.353" width="29.289" height="2.204" style="fill:rgb(255,156,0);"/>
                </g>
                <g transform="matrix(1,0,0,1,260.347,166.15)">
                    <path d="M0,-9.527L0,-7.795L-0.08,-7.007L-0.315,-6.22L-0.865,-5.67L-1.653,-5.354L-0.865,-4.961L-0.236,-4.409L0.079,-3.701L0.156,-2.914L0.156,-0.001L0,0.866L-0.394,1.574L-1.103,2.204L-1.811,2.519L-2.835,2.755L-3.622,2.834L-4.567,2.834L-5.354,2.755L-6.377,2.519L-7.166,2.204L-7.795,1.653L-8.267,0.866L-8.347,0.078L-8.347,-0.945L-7.243,-0.945L-7.243,-0.079L-7.007,0.708L-6.457,1.338L-5.59,1.653L-4.645,1.81L-3.779,1.81L-2.992,1.732L-2.126,1.495L-1.497,1.023L-0.945,0.315L-0.945,-2.914L-1.181,-3.622L-1.574,-4.252L-2.283,-4.646L-3.15,-4.803L-6.299,-4.803L-6.299,-5.826L-3.387,-5.826L-2.599,-5.905L-1.89,-6.22L-1.338,-6.85L-1.103,-7.637L-1.103,-9.212L-1.181,-9.999L-1.653,-10.708L-2.283,-11.102L-3.07,-11.259L-3.779,-11.338L-4.645,-11.338L-5.512,-11.18L-6.377,-10.865L-6.93,-10.314L-7.086,-9.527L-7.086,-8.661L-8.267,-8.661L-8.267,-9.527L-8.188,-10.393L-7.795,-11.18L-7.086,-11.731L-6.377,-12.047L-5.354,-12.283L-4.567,-12.361L-3.622,-12.361L-2.835,-12.283L-1.811,-12.125L-1.103,-11.81L-0.473,-11.18L-0.08,-10.393L0,-9.527Z" style="fill:rgb(255,0,0);"/>
                </g>
                <g transform="matrix(1,0,0,1,270.66,158.04)">
                    <path d="M0,10.865L1.023,10.865L1.811,10.707L2.52,10.471L3.307,10.078L3.857,9.684L3.857,10.786L4.961,10.786L4.961,0L3.857,0L3.857,8.66L3.149,9.133L2.362,9.448L1.654,9.684L0.865,9.842L0,9.842L-0.708,9.605L-1.339,9.133L-1.574,8.345L-1.574,0L-2.677,0L-2.677,8.188L-2.598,9.054L-2.205,9.842L-1.652,10.471L-0.788,10.786L0,10.865Z" style="fill:rgb(255,0,0);"/>
                </g>
                <g transform="matrix(1,0,0,1,290.106,168.747)">
                    <path d="M0,-10.865L-1.102,-10.865L-1.89,-10.707L-2.676,-10.392L-3.542,-9.92L-4.173,-9.448L-4.565,-10.077L-5.117,-10.55L-5.904,-10.785L-6.691,-10.865L-7.479,-10.865L-8.266,-10.707L-8.975,-10.55L-9.762,-10.156L-10.471,-9.684L-10.471,-10.707L-11.573,-10.707L-11.573,0L-10.471,0L-10.471,-8.581L-9.762,-9.132L-8.975,-9.448L-8.266,-9.684L-7.479,-9.841L-6.613,-9.841L-5.904,-9.605L-5.274,-9.132L-5.038,-8.345L-5.038,0L-3.937,0L-3.937,-8.581L-3.542,-8.896L-2.756,-9.29L-1.968,-9.605L-1.259,-9.762L-0.472,-9.841L0.237,-9.762L1.023,-9.448L1.496,-8.896L1.575,-8.345L1.575,0L2.677,0L2.677,-8.187L2.599,-9.054L2.284,-9.841L1.654,-10.471L0.788,-10.785L0,-10.865Z" style="fill:rgb(255,0,0);"/>
                </g>
                <g transform="matrix(0.815784,0.578357,0.578357,-0.815784,331.563,13.7048)">
                    <path d="M-3.003,-9.43C13.614,2.352 23.398,-2.801 29.604,-9.43" style="fill:none;fill-rule:nonzero;stroke:black;stroke-width:1px;"/>
                </g>
                <g transform="matrix(1,0,0,1,349.988,44.2314)">
                    <path d="M0,-7.496L3.446,-9.925L3.537,-9.808L1.604,-3.789C1.293,-1.716 0.982,0.356 0.671,2.429C0.083,0.417 -0.504,-1.595 -1.092,-3.607L-3.815,-9.311L-3.764,-9.438L0,-7.496Z" style="fill-rule:nonzero;"/>
                </g>
                <g transform="matrix(-0.815784,-0.578357,-0.578357,0.815784,153.5,200.064)">
                    <path d="M-29.604,9.43C-12.986,21.211 -3.202,16.059 3.003,9.429" style="fill:none;fill-rule:nonzero;stroke:black;stroke-width:1px;"/>
                </g>
                <g transform="matrix(1,0,0,1,145.867,200.307)">
                    <path d="M0,7.496L-3.447,9.925L-3.537,9.808L-1.604,3.789C-1.293,1.716 -0.982,-0.356 -0.671,-2.429C-0.083,-0.417 0.503,1.595 1.092,3.607L3.815,9.311L3.764,9.438L0,7.496Z" style="fill-rule:nonzero;"/>
                </g>
            </g>
        </g>
    </g>
</svg>
