<?xml version="1.0" encoding="UTF-8" standalone="no"?>
<!DOCTYPE svg PUBLIC "-//W3C//DTD SVG 1.1//EN" "http://www.w3.org/Graphics/SVG/1.1/DTD/svg11.dtd">
<svg width="100%" height="100%" viewBox="0 0 501 416" version="1.1" xmlns="http://www.w3.org/2000/svg" xmlns:xlink="http://www.w3.org/1999/xlink" xml:space="preserve" xmlns:serif="http://www.serif.com/" style="fill-rule:evenodd;clip-rule:evenodd;stroke-miterlimit:10;">
    <g transform="matrix(1.05771,0,0,1.05316,0,0)">
        <rect id="Artboard1" x="0" y="0" width="473.667" height="395" style="fill:none;"/>
        <g id="Artboard11" serif:id="Artboard1">
            <g id="Layer-1" serif:id="Layer 1" transform="matrix(0.945443,0,0,0.949519,14.18,5.69724)">
                <g transform="matrix(1,0,0,1,323.079,123.823)">
                    <path d="M0,97.233L1.465,97.233L2.235,97.156L3.007,97.156L3.778,97.08L4.549,97.002L5.32,96.925L6.092,96.848L6.862,96.771L7.634,96.617L8.328,96.539L9.099,96.385L9.869,96.231L10.641,96.076L11.335,95.923L12.105,95.691L12.877,95.537L13.57,95.306L14.342,95.074L15.036,94.843L15.807,94.612L16.501,94.304L17.195,94.072L17.966,93.763L18.66,93.532L20.048,92.916L20.741,92.607L21.436,92.222L22.13,91.913L22.823,91.527L23.518,91.142L24.135,90.756L24.829,90.371L25.446,89.985L26.14,89.599L26.756,89.214L27.373,88.752L28.067,88.289L28.685,87.903L29.301,87.441L29.918,86.978L30.457,86.439L31.691,85.513L32.231,84.973L32.849,84.433L33.388,83.971L33.927,83.431L34.468,82.891L35.007,82.352L35.547,81.734L36.087,81.195L36.55,80.655L37.089,80.038L37.552,79.421L38.015,78.881L38.477,78.264L38.939,77.648L39.865,76.414L40.327,75.72L40.713,75.104L41.176,74.486L41.561,73.793L41.946,73.175L42.333,72.482L42.718,71.787L43.026,71.171L43.411,70.477L43.721,69.783L44.105,69.089L44.723,67.701L44.954,66.93L45.262,66.235L45.571,65.542L45.803,64.771L46.265,63.383L46.496,62.612L46.728,61.918L46.959,61.147L47.112,60.376L47.344,59.682L47.498,58.911L47.653,58.139L47.807,57.368L47.885,56.674L48.038,55.903L48.115,55.132L48.27,54.361L48.424,52.819L48.424,52.048L48.501,51.277L48.578,50.505L48.578,46.728L48.501,45.956L48.424,45.185L48.424,44.414L48.27,42.872L48.115,42.101L48.038,41.33L47.885,40.559L47.807,39.864L47.653,39.094L47.498,38.322L47.344,37.551L47.112,36.858L46.959,36.087L46.728,35.316L46.496,34.621L46.265,33.85L45.803,32.462L45.571,31.691L45.262,30.997L44.954,30.303L44.723,29.532L44.105,28.144L43.721,27.45L43.411,26.756L43.026,26.062L42.718,25.445L42.333,24.752L41.946,24.058L41.561,23.441L41.176,22.747L40.713,22.13L40.327,21.513L39.865,20.819L38.939,19.585L38.477,18.968L38.015,18.352L37.552,17.812L37.089,17.195L36.55,16.578L36.087,16.039L35.547,15.499L35.007,14.882L34.468,14.342L33.927,13.802L33.388,13.263L32.849,12.8L32.231,12.26L31.691,11.72L31.074,11.257L30.457,10.795L29.918,10.255L29.301,9.793L28.685,9.33L28.067,8.944L27.373,8.482L26.756,8.019L26.14,7.633L25.446,7.248L24.829,6.862L24.135,6.477L23.518,6.091L22.823,5.706L22.13,5.32L21.436,5.012L20.741,4.627L20.048,4.318L19.354,4.01L18.66,3.701L17.966,3.47L17.195,3.161L16.501,2.93L15.807,2.622L15.036,2.39L14.342,2.159L13.57,1.928L12.877,1.696L12.105,1.542L11.335,1.311L10.641,1.156L9.869,1.003L9.099,0.848L8.328,0.694L7.634,0.617L6.862,0.462L6.092,0.385L5.32,0.309L4.549,0.231L3.007,0.077L2.235,0.077L1.465,0L0,0L-0.077,4.627L1.311,4.627L2.004,4.704L2.698,4.704L3.393,4.78L4.086,4.78L4.78,4.858L5.475,4.935L6.168,5.089L6.862,5.166L7.556,5.32L8.25,5.398L8.944,5.552L9.562,5.706L10.255,5.86L10.949,6.014L11.644,6.169L12.261,6.4L12.954,6.554L13.648,6.786L14.265,7.017L14.958,7.248L15.575,7.48L16.192,7.711L16.887,8.019L17.503,8.25L18.12,8.559L18.737,8.867L19.432,9.176L20.048,9.484L20.665,9.793L21.282,10.101L21.821,10.487L22.438,10.795L23.055,11.181L23.595,11.566L24.212,11.951L24.829,12.337L25.368,12.723L25.908,13.108L26.448,13.494L27.065,13.957L27.604,14.342L28.144,14.805L28.606,15.267L29.147,15.73L29.687,16.192L30.226,16.655L30.688,17.118L31.151,17.658L31.691,18.121L32.154,18.66L32.617,19.123L33.079,19.663L33.542,20.202L34.005,20.742L34.39,21.282L34.853,21.822L35.238,22.361L35.701,22.901L36.087,23.518L36.472,24.058L36.857,24.674L37.243,25.214L37.552,25.831L37.938,26.448L38.322,26.987L38.632,27.605L38.939,28.221L39.557,29.455L39.865,30.15L40.173,30.766L40.404,31.383L40.713,32L40.944,32.694L41.176,33.311L41.407,34.004L41.639,34.621L41.87,35.316L42.102,35.933L42.255,36.627L42.486,37.32L42.641,37.937L42.949,39.325L43.104,40.019L43.258,40.636L43.335,41.33L43.489,42.024L43.643,43.412L43.721,44.106L43.797,44.799L43.874,45.494L43.874,46.188L43.952,46.881L43.952,50.352L43.874,51.045L43.874,51.739L43.797,52.433L43.721,53.128L43.643,53.821L43.489,55.209L43.335,55.903L43.258,56.598L43.104,57.214L42.949,57.908L42.641,59.296L42.486,59.913L42.255,60.607L42.102,61.301L41.87,61.918L41.639,62.612L41.407,63.228L41.176,63.922L40.944,64.54L40.713,65.233L40.404,65.851L40.173,66.467L39.865,67.084L39.557,67.778L39.248,68.395L38.939,69.011L38.632,69.629L38.322,70.246L37.938,70.785L37.552,71.402L37.243,72.019L36.857,72.559L36.472,73.175L36.087,73.716L35.701,74.332L35.238,74.872L34.853,75.412L34.39,75.951L34.005,76.492L33.079,77.57L32.617,78.111L32.154,78.573L31.691,79.113L31.151,79.576L30.688,80.115L30.226,80.578L29.687,81.04L29.147,81.503L28.606,81.965L28.144,82.428L27.604,82.891L27.065,83.277L26.448,83.739L25.908,84.125L25.368,84.51L24.829,84.896L24.212,85.282L23.595,85.667L23.055,86.053L22.438,86.439L21.821,86.747L21.282,87.132L20.665,87.441L20.048,87.749L19.432,88.058L18.737,88.366L18.12,88.674L17.503,88.983L16.887,89.214L16.192,89.523L14.958,89.985L14.265,90.216L13.648,90.448L12.954,90.679L12.261,90.834L11.644,91.065L10.949,91.219L10.255,91.373L9.562,91.527L8.944,91.681L8.25,91.836L7.556,91.913L6.862,92.067L6.168,92.144L5.475,92.298L4.78,92.375L4.086,92.453L3.393,92.453L2.698,92.53L2.004,92.53L1.311,92.607L-0.077,92.607L0,97.233Z" style="fill:rgb(255,156,0);"/>
                </g>
                <g transform="matrix(1,0,0,1,261.238,221.056)">
                    <path d="M0,-97.233L-1.465,-97.233L-2.237,-97.156L-3.007,-97.156L-3.778,-97.079L-4.55,-97.002L-5.32,-96.924L-6.092,-96.848L-6.862,-96.771L-7.633,-96.616L-8.326,-96.539L-9.098,-96.385L-10.64,-96.077L-11.333,-95.922L-12.104,-95.691L-12.877,-95.537L-13.57,-95.305L-14.341,-95.074L-15.034,-94.843L-15.806,-94.611L-16.5,-94.303L-17.194,-94.072L-17.966,-93.763L-18.659,-93.532L-19.354,-93.223L-20.048,-92.915L-20.741,-92.607L-21.436,-92.221L-22.13,-91.913L-22.823,-91.527L-23.518,-91.142L-24.134,-90.756L-24.828,-90.371L-25.444,-89.985L-26.138,-89.6L-26.756,-89.214L-27.372,-88.752L-28.066,-88.289L-28.683,-87.903L-29.301,-87.441L-29.917,-86.978L-30.457,-86.438L-31.073,-85.976L-31.69,-85.513L-32.23,-84.973L-32.846,-84.433L-33.387,-83.97L-33.927,-83.431L-34.466,-82.891L-35.006,-82.351L-35.546,-81.734L-36.085,-81.194L-36.547,-80.655L-37.088,-80.038L-37.551,-79.421L-38.013,-78.881L-38.476,-78.265L-38.938,-77.648L-39.864,-76.414L-40.327,-75.72L-40.711,-75.103L-41.174,-74.486L-41.561,-73.792L-41.946,-73.175L-42.331,-72.482L-42.717,-71.788L-43.024,-71.171L-43.411,-70.477L-43.719,-69.783L-44.105,-69.089L-44.413,-68.395L-44.722,-67.701L-44.953,-66.93L-45.262,-66.236L-45.569,-65.542L-45.8,-64.771L-46.032,-64.077L-46.263,-63.382L-46.495,-62.612L-46.726,-61.918L-46.957,-61.147L-47.113,-60.375L-47.344,-59.681L-47.498,-58.911L-47.651,-58.139L-47.807,-57.368L-47.882,-56.674L-48.038,-55.903L-48.114,-55.132L-48.269,-54.361L-48.345,-53.59L-48.423,-52.819L-48.423,-52.047L-48.5,-51.277L-48.577,-50.505L-48.577,-46.727L-48.423,-45.185L-48.423,-44.414L-48.345,-43.643L-48.269,-42.872L-48.114,-42.101L-48.038,-41.33L-47.882,-40.559L-47.807,-39.865L-47.651,-39.094L-47.498,-38.322L-47.344,-37.551L-47.113,-36.858L-46.957,-36.087L-46.726,-35.315L-46.495,-34.621L-46.263,-33.85L-46.032,-33.156L-45.8,-32.462L-45.569,-31.691L-45.262,-30.998L-44.953,-30.303L-44.722,-29.532L-44.413,-28.838L-44.105,-28.144L-43.719,-27.45L-43.411,-26.756L-43.024,-26.062L-42.717,-25.446L-42.331,-24.752L-41.946,-24.058L-41.561,-23.441L-41.174,-22.747L-40.711,-22.129L-40.327,-21.513L-39.864,-20.819L-38.938,-19.585L-38.476,-18.969L-38.013,-18.352L-37.551,-17.812L-37.088,-17.195L-36.547,-16.578L-36.085,-16.038L-35.546,-15.499L-35.006,-14.881L-34.466,-14.342L-33.927,-13.802L-33.387,-13.262L-32.846,-12.8L-32.23,-12.26L-31.69,-11.72L-31.073,-11.257L-30.457,-10.795L-29.917,-10.255L-29.301,-9.793L-28.683,-9.33L-28.066,-8.944L-27.372,-8.482L-26.756,-8.019L-26.138,-7.634L-25.444,-7.248L-24.828,-6.862L-24.134,-6.477L-23.518,-6.091L-22.823,-5.706L-22.13,-5.32L-21.436,-5.011L-20.741,-4.627L-20.048,-4.317L-19.354,-4.009L-18.659,-3.701L-17.966,-3.47L-17.194,-3.161L-16.5,-2.929L-15.806,-2.621L-15.034,-2.39L-14.341,-2.159L-13.57,-1.927L-12.877,-1.696L-12.104,-1.542L-11.333,-1.31L-10.64,-1.157L-9.869,-1.002L-9.098,-0.848L-8.326,-0.694L-7.633,-0.616L-6.862,-0.462L-6.092,-0.385L-5.32,-0.308L-4.55,-0.232L-3.778,-0.153L-3.007,-0.077L-2.237,-0.077L-1.465,0L0,0L0.076,-4.627L-1.312,-4.627L-2.006,-4.703L-2.699,-4.703L-3.394,-4.78L-4.088,-4.78L-4.781,-4.858L-5.476,-4.935L-6.17,-5.089L-6.862,-5.166L-7.557,-5.32L-8.25,-5.397L-8.944,-5.552L-9.561,-5.706L-10.254,-5.86L-10.948,-6.014L-11.643,-6.168L-12.259,-6.4L-12.952,-6.554L-13.646,-6.785L-14.265,-7.017L-14.958,-7.248L-15.574,-7.479L-16.191,-7.711L-16.885,-8.019L-17.503,-8.25L-18.119,-8.559L-18.735,-8.867L-19.43,-9.175L-20.048,-9.484L-20.664,-9.793L-21.28,-10.101L-21.82,-10.486L-22.437,-10.795L-23.055,-11.18L-23.594,-11.566L-24.211,-11.951L-24.828,-12.337L-25.368,-12.723L-25.907,-13.108L-26.447,-13.494L-27.063,-13.956L-27.604,-14.342L-28.144,-14.805L-28.606,-15.268L-29.145,-15.73L-29.686,-16.193L-30.226,-16.655L-30.688,-17.118L-31.151,-17.657L-31.69,-18.12L-32.152,-18.66L-32.615,-19.122L-33.078,-19.663L-33.541,-20.202L-34.003,-20.741L-34.39,-21.282L-34.853,-21.821L-35.237,-22.361L-35.7,-22.901L-36.085,-23.517L-36.472,-24.058L-36.856,-24.674L-37.242,-25.214L-37.551,-25.831L-37.936,-26.448L-38.322,-26.987L-38.629,-27.605L-38.938,-28.222L-39.248,-28.838L-39.555,-29.455L-39.864,-30.149L-40.173,-30.766L-40.404,-31.382L-40.711,-32L-40.943,-32.693L-41.174,-33.311L-41.405,-34.005L-41.637,-34.621L-41.868,-35.315L-42.099,-35.932L-42.255,-36.626L-42.486,-37.32L-42.64,-37.937L-42.793,-38.631L-42.949,-39.325L-43.103,-40.019L-43.256,-40.635L-43.333,-41.33L-43.487,-42.024L-43.643,-43.412L-43.719,-44.106L-43.796,-44.8L-43.874,-45.494L-43.874,-46.188L-43.95,-46.881L-43.95,-50.352L-43.874,-51.045L-43.874,-51.739L-43.796,-52.434L-43.719,-53.128L-43.643,-53.821L-43.565,-54.515L-43.487,-55.21L-43.333,-55.903L-43.256,-56.597L-43.103,-57.214L-42.949,-57.908L-42.793,-58.602L-42.64,-59.296L-42.486,-59.913L-42.255,-60.607L-42.099,-61.3L-41.868,-61.918L-41.637,-62.612L-41.405,-63.229L-41.174,-63.922L-40.943,-64.539L-40.711,-65.233L-40.404,-65.85L-40.173,-66.467L-39.864,-67.084L-39.555,-67.778L-39.248,-68.395L-38.938,-69.012L-38.629,-69.629L-38.322,-70.246L-37.936,-70.785L-37.551,-71.402L-37.242,-72.019L-36.856,-72.559L-36.472,-73.175L-36.085,-73.715L-35.7,-74.332L-35.237,-74.872L-34.853,-75.411L-34.39,-75.951L-34.003,-76.491L-33.541,-77.031L-33.078,-77.57L-32.615,-78.11L-32.152,-78.573L-31.69,-79.112L-31.151,-79.575L-30.688,-80.115L-30.226,-80.578L-29.686,-81.041L-29.145,-81.503L-28.606,-81.966L-28.144,-82.428L-27.604,-82.891L-27.063,-83.276L-26.447,-83.739L-25.907,-84.125L-25.368,-84.51L-24.828,-84.896L-24.211,-85.282L-23.594,-85.667L-23.055,-86.052L-22.437,-86.438L-21.82,-86.746L-21.28,-87.132L-20.664,-87.441L-20.048,-87.749L-19.43,-88.057L-18.735,-88.366L-18.119,-88.674L-17.503,-88.983L-16.885,-89.214L-16.191,-89.522L-15.574,-89.754L-14.958,-89.985L-14.265,-90.216L-13.646,-90.447L-12.952,-90.679L-12.259,-90.834L-11.643,-91.065L-10.948,-91.219L-10.254,-91.373L-9.561,-91.527L-8.944,-91.681L-8.25,-91.836L-7.557,-91.913L-6.862,-92.067L-6.17,-92.144L-5.476,-92.298L-4.781,-92.376L-4.088,-92.453L-3.394,-92.453L-2.699,-92.529L-2.006,-92.529L-1.312,-92.607L0.076,-92.607L0,-97.233Z" style="fill:rgb(255,156,0);"/>
                </g>
                <g transform="matrix(1,0,0,1,0,-142.726)">
                    <rect x="261.314" y="266.55" width="61.688" height="4.626" style="fill:rgb(255,156,0);"/>
                </g>
                <g transform="matrix(1,0,0,1,0,42.486)">
                    <rect x="261.314" y="173.944" width="61.688" height="4.626" style="fill:rgb(255,156,0);"/>
                </g>
                <g transform="matrix(1,0,0,1,266.866,259.917)">
                    <path d="M0,-19.969L0,-16.268L-0.153,-14.649L-0.77,-12.952L-1.927,-11.796L-3.47,-11.179L-1.851,-10.254L-0.616,-9.097L0.078,-7.709L0.31,-6.013L0.31,0.156L0,1.852L-0.848,3.471L-2.313,4.628L-3.933,5.322L-6.015,5.784L-7.709,6.015L-9.716,6.015L-11.41,5.862L-13.491,5.399L-15.034,4.628L-16.498,3.471L-17.424,1.852L-17.655,0.233L-17.655,-1.849L-15.266,-1.849L-15.266,0.002L-14.879,1.621L-13.646,2.778L-11.873,3.549L-9.869,3.857L-7.94,3.857L-6.321,3.703L-4.626,3.163L-3.161,2.161L-2.157,0.773L-2.157,-6.013L-2.467,-7.554L-3.392,-8.865L-4.78,-9.636L-6.631,-10.022L-13.261,-10.022L-13.261,-12.104L-7.093,-12.104L-5.552,-12.336L-4.008,-13.106L-2.852,-14.417L-2.389,-15.96L-2.389,-19.275L-2.62,-20.971L-3.47,-22.359L-4.934,-23.284L-6.553,-23.67L-8.097,-23.825L-9.869,-23.825L-11.72,-23.516L-13.416,-22.822L-14.572,-21.589L-15.034,-20.046L-15.034,-18.196L-17.424,-18.196L-17.424,-20.046L-17.192,-21.82L-16.423,-23.439L-15.034,-24.595L-13.491,-25.29L-11.41,-25.829L-9.716,-25.984L-7.634,-25.984L-6.015,-25.829L-3.933,-25.366L-2.389,-24.673L-1.001,-23.516L-0.231,-21.743L0,-19.969Z" style="fill:rgb(255,0,0);"/>
                </g>
                <g transform="matrix(1,0,0,1,288.611,242.878)">
                    <path d="M0,22.978L2.082,22.901L3.702,22.592L5.243,22.13L6.862,21.282L8.097,20.434L8.097,22.67L10.41,22.67L10.41,0L8.097,0L8.097,18.197L6.555,19.277L4.936,19.971L3.393,20.511L1.773,20.82L-0.077,20.742L-1.542,20.357L-2.93,19.277L-3.393,17.658L-3.393,0L-5.706,0L-5.706,17.35L-5.552,19.123L-4.78,20.82L-3.547,22.053L-1.773,22.747L0,22.978Z" style="fill:rgb(255,0,0);"/>
                </g>
                <g transform="matrix(1,0,0,1,329.401,265.393)">
                    <path d="M0,-22.824L-2.236,-22.746L-4.009,-22.361L-5.628,-21.821L-7.325,-20.819L-8.713,-19.817L-9.561,-21.127L-10.795,-22.052L-12.414,-22.669L-14.033,-22.824L-15.729,-22.746L-17.349,-22.515L-18.892,-22.052L-20.511,-21.358L-22.052,-20.28L-22.052,-22.515L-24.365,-22.515L-24.365,0L-22.052,0L-22.052,-18.043L-20.511,-19.123L-18.892,-19.817L-17.349,-20.356L-15.729,-20.664L-13.879,-20.588L-12.414,-20.201L-11.026,-19.123L-10.486,-17.504L-10.486,0L-8.25,0L-8.25,-17.966L-7.325,-18.66L-5.706,-19.508L-4.087,-20.125L-2.621,-20.511L-1.079,-20.664L0.54,-20.511L2.237,-19.817L3.162,-18.66L3.394,-17.504L3.394,0L5.707,0L5.707,-17.195L5.552,-18.968L4.781,-20.664L3.547,-21.899L1.774,-22.593L0,-22.824Z" style="fill:rgb(255,0,0);"/>
                </g>
                <g>
                    <text x="-0.073px" y="179.197px" style="font-family:'MyriadPro-It', 'Myriad Pro', sans-serif;font-style:italic;font-size:28px;">v</text>
                    <text x="16.27px" y="179.197px" style="font-family:'MyriadPro-Regular', 'Myriad Pro', sans-serif;font-size:28px;">(µm)</text>
                </g>
                <text x="74.362px" y="333.798px" style="font-family:'MyriadPro-Regular', 'Myriad Pro', sans-serif;font-size:24px;">3990</text>
                <text x="74.362px" y="179.19px" style="font-family:'MyriadPro-Regular', 'Myriad Pro', sans-serif;font-size:24px;">4000</text>
                <text x="74.362px" y="25.35px" style="font-family:'MyriadPro-Regular', 'Myriad Pro', sans-serif;font-size:24px;">4010</text>
                <text x="421.906px" y="365.25px" style="font-family:'MyriadPro-Regular', 'Myriad Pro', sans-serif;font-size:24px;">1010</text>
                <text x="267.538px" y="365.25px" style="font-family:'MyriadPro-Regular', 'Myriad Pro', sans-serif;font-size:24px;">1000</text>
                <text x="119.314px" y="365.25px" style="font-family:'MyriadPro-Regular', 'Myriad Pro', sans-serif;font-size:24px;">990</text>
                <g>
                    <text x="257.476px" y="389.1px" style="font-family:'MyriadPro-It', 'Myriad Pro', sans-serif;font-style:italic;font-size:28px;">u</text>
                    <text x="278.14px" y="389.1px" style="font-family:'MyriadPro-Regular', 'Myriad Pro', sans-serif;font-size:28px;">(µm)</text>
                </g>
                <g transform="matrix(1,0,0,1,134.325,326.84)">
                    <path d="M0,-308.81L-5.682,-308.81L-5.682,0L0,0" style="fill:none;fill-rule:nonzero;stroke:black;stroke-width:0.5px;"/>
                </g>
                <g transform="matrix(1,0,0,1,137.789,341.718)">
                    <path d="M0,-5.658L0,0L308.741,0L308.741,-5.658" style="fill:none;fill-rule:nonzero;stroke:rgb(35,31,32);stroke-width:0.5px;"/>
                </g>
                <g transform="matrix(0,-1,-1,0,294.987,338.889)">
                    <path d="M-2.829,2.829L2.829,2.829" style="fill:none;fill-rule:nonzero;stroke:black;stroke-width:0.5px;stroke-linejoin:round;"/>
                </g>
                <g transform="matrix(1,0,0,1,128.644,172.478)">
                    <path d="M0,0L5.682,0" style="fill:none;fill-rule:nonzero;stroke:black;stroke-width:0.5px;stroke-linejoin:round;"/>
                </g>
            </g>
        </g>
    </g>
</svg>
