<?xml version="1.0" encoding="UTF-8" standalone="no"?>
<!DOCTYPE svg PUBLIC "-//W3C//DTD SVG 1.1//EN" "http://www.w3.org/Graphics/SVG/1.1/DTD/svg11.dtd">
<svg width="100%" height="100%" viewBox="0 0 504 435" version="1.1" xmlns="http://www.w3.org/2000/svg" xmlns:xlink="http://www.w3.org/1999/xlink" xml:space="preserve" xmlns:serif="http://www.serif.com/" style="fill-rule:evenodd;clip-rule:evenodd;stroke-miterlimit:10;">
    <g transform="matrix(1.06341,0,0,1.04863,0,0)">
        <rect id="Artboard1" x="0" y="0" width="473.667" height="414.16" style="fill:none;"/>
        <g id="Artboard11" serif:id="Artboard1">
            <g id="Layer-1" serif:id="Layer 1" transform="matrix(0.940375,0,0,0.953627,14.1211,10.5039)">
                <g transform="matrix(1,0,0,1,88.0918,351.715)">
                    <path d="M0,-338.531L-5.682,-338.531L-5.682,0L0,0" style="fill:none;fill-rule:nonzero;stroke:black;stroke-width:0.5px;"/>
                </g>
                <text x="28.125px" y="359.403px" style="font-family:'MyriadPro-Regular', 'Myriad Pro', sans-serif;font-size:24px;">3950</text>
                <text x="28.125px" y="20.181px" style="font-family:'MyriadPro-Regular', 'Myriad Pro', sans-serif;font-size:24px;">4055</text>
                <text x="423.876px" y="387.071px" style="font-family:'MyriadPro-Regular', 'Myriad Pro', sans-serif;font-size:24px;">1050</text>
                <text x="75.373px" y="387.071px" style="font-family:'MyriadPro-Regular', 'Myriad Pro', sans-serif;font-size:24px;">940</text>
                <g>
                    <text x="233.471px" y="401.922px" style="font-family:'MyriadPro-It', 'Myriad Pro', sans-serif;font-style:italic;font-size:28px;">u</text>
                    <text x="254.135px" y="401.922px" style="font-family:'MyriadPro-Regular', 'Myriad Pro', sans-serif;font-size:28px;">(µm)</text>
                </g>
                <g>
                    <text x="-0.447px" y="190.967px" style="font-family:'MyriadPro-It', 'Myriad Pro', sans-serif;font-style:italic;font-size:28px;">v</text>
                    <text x="18.229px" y="190.967px" style="font-family:'MyriadPro-Regular', 'Myriad Pro', sans-serif;font-size:28px;">(µm)</text>
                </g>
                <g transform="matrix(1,0,0,1,93.8457,363.535)">
                    <path d="M0,-5.658L0,0L354.653,0L354.653,-5.658" style="fill:none;fill-rule:nonzero;stroke:rgb(35,31,32);stroke-width:0.5px;"/>
                </g>
                <g transform="matrix(1,0,0,1,126.088,351.715)">
                    <path d="M0,0L1.5,0" style="fill:none;fill-rule:nonzero;stroke:rgb(39,170,255);stroke-width:0.75px;stroke-linejoin:round;stroke-miterlimit:4;"/>
                </g>
                <g transform="matrix(1,0,0,1,130.611,351.715)">
                    <path d="M0,0L89.188,0" style="fill:none;fill-rule:nonzero;stroke:rgb(39,170,255);stroke-width:0.75px;stroke-linejoin:round;stroke-miterlimit:4;stroke-dasharray:3.02,3.02;"/>
                </g>
                <g transform="matrix(1,0,0,1,221.311,350.215)">
                    <path d="M0,1.5L1.5,1.5L1.5,0" style="fill:none;fill-rule:nonzero;stroke:rgb(39,170,255);stroke-width:0.75px;stroke-linejoin:round;stroke-miterlimit:4;"/>
                </g>
                <g transform="matrix(0,-1,-1,0,251.357,318.742)">
                    <path d="M-28.546,28.546L28.546,28.546" style="fill:none;fill-rule:nonzero;stroke:rgb(39,170,255);stroke-width:0.75px;stroke-linejoin:round;stroke-miterlimit:4;stroke-dasharray:2.93,2.93;"/>
                </g>
                <g transform="matrix(1,0,0,1,222.811,287.232)">
                    <path d="M0,1.5L0,0L-1.5,0" style="fill:none;fill-rule:nonzero;stroke:rgb(39,170,255);stroke-width:0.75px;stroke-linejoin:round;stroke-miterlimit:4;"/>
                </g>
                <g transform="matrix(-1,0,0,1,129.1,287.232)">
                    <path d="M-89.188,0L0,0" style="fill:none;fill-rule:nonzero;stroke:rgb(39,170,255);stroke-width:0.75px;stroke-linejoin:round;stroke-miterlimit:4;stroke-dasharray:3.02,3.02;"/>
                </g>
                <g transform="matrix(1,0,0,1,127.588,288.732)">
                    <path d="M0,-1.5L-1.5,-1.5L-1.5,0" style="fill:none;fill-rule:nonzero;stroke:rgb(39,170,255);stroke-width:0.75px;stroke-linejoin:round;stroke-miterlimit:4;"/>
                </g>
                <g transform="matrix(0,1,1,0,154.633,320.206)">
                    <path d="M-28.546,-28.546L28.546,-28.546" style="fill:none;fill-rule:nonzero;stroke:rgb(39,170,255);stroke-width:0.75px;stroke-linejoin:round;stroke-miterlimit:4;stroke-dasharray:2.93,2.93;"/>
                </g>
                <g transform="matrix(0,1,1,0,126.838,350.965)">
                    <path d="M-0.75,-0.75L0.75,-0.75" style="fill:none;fill-rule:nonzero;stroke:rgb(39,170,255);stroke-width:0.75px;stroke-linejoin:round;stroke-miterlimit:4;"/>
                </g>
                <g transform="matrix(1,0,0,1,93.8457,348.437)">
                    <path d="M0,0L1.5,0" style="fill:none;fill-rule:nonzero;stroke:rgb(39,170,255);stroke-width:0.75px;stroke-linejoin:round;stroke-miterlimit:4;"/>
                </g>
                <g transform="matrix(1,0,0,1,98.3691,348.437)">
                    <path d="M0,0L89.189,0" style="fill:none;fill-rule:nonzero;stroke:rgb(39,170,255);stroke-width:0.75px;stroke-linejoin:round;stroke-miterlimit:4;stroke-dasharray:3.02,3.02;"/>
                </g>
                <g transform="matrix(1,0,0,1,189.07,346.937)">
                    <path d="M0,1.5L1.5,1.5L1.5,0" style="fill:none;fill-rule:nonzero;stroke:rgb(39,170,255);stroke-width:0.75px;stroke-linejoin:round;stroke-miterlimit:4;"/>
                </g>
                <g transform="matrix(0,-1,-1,0,202.754,331.505)">
                    <path d="M-12.184,12.184L12.184,12.184" style="fill:none;fill-rule:nonzero;stroke:rgb(39,170,255);stroke-width:0.75px;stroke-linejoin:round;stroke-miterlimit:4;stroke-dasharray:3.25,3.25;"/>
                </g>
                <g transform="matrix(1,0,0,1,190.57,316.197)">
                    <path d="M0,1.5L0,0L-1.5,0" style="fill:none;fill-rule:nonzero;stroke:rgb(39,170,255);stroke-width:0.75px;stroke-linejoin:round;stroke-miterlimit:4;"/>
                </g>
                <g transform="matrix(-1,0,0,1,96.8579,316.197)">
                    <path d="M-89.189,0L0,0" style="fill:none;fill-rule:nonzero;stroke:rgb(39,170,255);stroke-width:0.75px;stroke-linejoin:round;stroke-miterlimit:4;stroke-dasharray:3.02,3.02;"/>
                </g>
                <g transform="matrix(1,0,0,1,95.3457,317.697)">
                    <path d="M0,-1.5L-1.5,-1.5L-1.5,0" style="fill:none;fill-rule:nonzero;stroke:rgb(39,170,255);stroke-width:0.75px;stroke-linejoin:round;stroke-miterlimit:4;"/>
                </g>
                <g transform="matrix(0,1,1,0,106.029,333.13)">
                    <path d="M-12.184,-12.184L12.184,-12.184" style="fill:none;fill-rule:nonzero;stroke:rgb(39,170,255);stroke-width:0.75px;stroke-linejoin:round;stroke-miterlimit:4;stroke-dasharray:3.25,3.25;"/>
                </g>
                <g transform="matrix(0,1,1,0,94.5957,347.687)">
                    <path d="M-0.75,-0.75L0.75,-0.75" style="fill:none;fill-rule:nonzero;stroke:rgb(39,170,255);stroke-width:0.75px;stroke-linejoin:round;stroke-miterlimit:4;"/>
                </g>
                <g transform="matrix(1,0,0,1,164.795,309.287)">
                    <path d="M0,20.285L0.976,20.285L1.063,20.195L1.594,20.195L1.772,20.107L2.039,20.107L2.215,20.019L2.48,20.019L2.656,19.93L2.836,19.93L3.012,19.842L3.102,19.754L3.277,19.754L3.454,19.664L3.633,19.664L3.72,19.576L3.898,19.488L4.074,19.488L4.164,19.398L4.341,19.31L4.43,19.222L4.606,19.222L4.783,19.133L4.872,19.045L5.049,18.957L5.138,18.867L5.492,18.691L5.581,18.601L5.758,18.514L5.847,18.426L5.936,18.336L6.112,18.248L6.201,18.16L6.379,18.07L6.822,17.627L6.998,17.539L7.087,17.449L7.176,17.273L7.264,17.185L7.441,17.096L7.529,16.92L7.707,16.742L7.795,16.564L7.973,16.476L8.061,16.299L8.15,16.209L8.238,16.033L8.326,15.943L8.416,15.767L8.504,15.678L8.592,15.502L8.682,15.412L8.77,15.236L8.857,15.146L8.947,14.971L8.947,14.881L9.035,14.703L9.123,14.527L9.213,14.437L9.301,14.262L9.301,14.084L9.389,13.996L9.479,13.818L9.479,13.64L9.566,13.553L9.654,13.375L9.654,13.199L9.744,13.109L9.744,12.933L9.832,12.756L9.832,12.49L9.921,12.312L9.921,12.137L10.01,11.959L10.01,11.515L10.098,11.34L10.098,8.947L10.01,8.769L10.01,8.326L9.921,8.15L9.921,7.972L9.832,7.795L9.832,7.529L9.744,7.353L9.744,7.176L9.654,7.086L9.654,6.91L9.566,6.732L9.479,6.644L9.479,6.467L9.389,6.289L9.301,6.201L9.301,6.023L9.213,5.847L9.123,5.758L9.035,5.58L8.947,5.404L8.947,5.314L8.857,5.137L8.77,5.051L8.682,4.871L8.592,4.783L8.504,4.607L8.416,4.517L8.326,4.34L8.238,4.252L8.15,4.074L8.061,3.986L7.973,3.808L7.795,3.721L7.707,3.543L7.619,3.455L7.529,3.367L7.441,3.189L7.264,3.101L7.176,3.012L7.087,2.836L6.998,2.746L6.822,2.658L6.732,2.57L6.644,2.48L6.467,2.305L6.379,2.215L6.201,2.127L6.112,2.039L5.936,1.949L5.758,1.773L5.581,1.683L5.492,1.596L5.315,1.508L5.138,1.418L5.049,1.33L4.872,1.24L4.783,1.152L4.606,1.064L4.43,1.064L4.341,0.974L4.164,0.887L4.074,0.797L3.898,0.797L3.72,0.711L3.633,0.621L3.454,0.621L3.277,0.531L3.102,0.531L3.012,0.443L2.836,0.353L2.656,0.353L2.48,0.267L2.215,0.267L2.039,0.178L1.772,0.178L1.594,0.09L1.063,0.09L0.976,0L0,0L0,0.974L0.976,0.974L1.152,1.064L1.594,1.064L1.684,1.152L2.039,1.152L2.125,1.24L2.392,1.24L2.57,1.33L2.656,1.33L2.836,1.418L3.012,1.418L3.102,1.508L3.277,1.596L3.367,1.596L3.543,1.683L3.633,1.683L3.809,1.773L3.898,1.861L4.074,1.861L4.164,1.949L4.341,2.039L4.43,2.127L4.518,2.215L4.695,2.215L4.783,2.305L4.961,2.392L5.049,2.48L5.138,2.57L5.315,2.658L5.404,2.746L5.492,2.836L5.669,2.924L5.758,3.012L5.847,3.101L5.936,3.189L6.112,3.277L6.201,3.367L6.379,3.543L6.467,3.633L6.644,3.808L6.732,3.898L6.822,3.986L6.91,4.074L6.998,4.164L7.087,4.34L7.176,4.43L7.264,4.517L7.354,4.695L7.441,4.783L7.529,4.871L7.619,5.051L7.707,5.137L7.795,5.226L7.885,5.404L7.885,5.494L7.973,5.67L8.15,5.847L8.15,6.023L8.238,6.113L8.326,6.289L8.416,6.377L8.416,6.556L8.504,6.644L8.504,6.82L8.592,6.91L8.682,7.086L8.682,7.264L8.77,7.353L8.77,7.529L8.857,7.619L8.857,7.885L8.947,8.06L8.947,8.238L9.035,8.326L9.035,8.769L9.123,8.947L9.123,9.744L9.213,9.92L9.213,10.363L9.123,10.541L9.123,11.34L9.035,11.515L9.035,11.959L8.947,12.047L8.947,12.222L8.857,12.402L8.857,12.666L8.77,12.756L8.77,12.933L8.682,13.021L8.682,13.199L8.592,13.375L8.504,13.465L8.504,13.64L8.416,13.73L8.416,13.906L8.326,13.996L8.238,14.172L8.15,14.262L8.15,14.437L8.061,14.527L7.973,14.615L7.885,14.793L7.885,14.881L7.795,15.058L7.707,15.146L7.619,15.236L7.529,15.412L7.441,15.5L7.354,15.59L7.264,15.767L7.176,15.855L7.087,15.943L6.998,16.121L6.91,16.209L6.822,16.299L6.732,16.387L6.644,16.476L6.467,16.652L6.379,16.742L6.29,16.83L6.201,16.92L6.112,17.006L5.936,17.096L5.847,17.185L5.758,17.273L5.669,17.363L5.492,17.449L5.404,17.539L5.315,17.627L5.138,17.717L4.961,17.892L4.783,17.982L4.695,18.07L4.518,18.07L4.43,18.16L4.341,18.248L4.164,18.336L4.074,18.426L3.898,18.426L3.809,18.514L3.633,18.601L3.543,18.601L3.367,18.691L3.277,18.691L3.102,18.779L3.012,18.867L2.836,18.867L2.656,18.957L2.57,18.957L2.392,19.045L2.125,19.045L2.039,19.133L1.684,19.133L1.594,19.222L1.152,19.222L0.976,19.31L0,19.31L0,20.285Z" style="fill:rgb(255,156,0);"/>
                </g>
                <g transform="matrix(1,0,0,1,151.863,329.572)">
                    <path d="M0,-20.285L-0.974,-20.285L-1.063,-20.195L-1.594,-20.195L-1.771,-20.107L-2.036,-20.107L-2.215,-20.017L-2.48,-20.017L-2.656,-19.93L-2.834,-19.93L-3.012,-19.842L-3.1,-19.754L-3.277,-19.754L-3.454,-19.664L-3.631,-19.664L-3.72,-19.574L-3.897,-19.488L-4.074,-19.488L-4.163,-19.398L-4.341,-19.31L-4.429,-19.221L-4.606,-19.221L-4.783,-19.131L-4.872,-19.045L-5.049,-18.955L-5.138,-18.867L-5.314,-18.777L-5.492,-18.689L-5.58,-18.601L-5.758,-18.512L-5.846,-18.424L-5.936,-18.336L-6.111,-18.246L-6.201,-18.158L-6.377,-18.068L-6.467,-17.98L-6.643,-17.805L-6.732,-17.715L-6.82,-17.627L-6.998,-17.539L-7.086,-17.449L-7.174,-17.271L-7.264,-17.183L-7.439,-17.096L-7.529,-16.918L-7.617,-16.83L-7.706,-16.74L-7.795,-16.564L-7.971,-16.474L-8.061,-16.299L-8.148,-16.209L-8.237,-16.033L-8.326,-15.943L-8.414,-15.767L-8.503,-15.678L-8.592,-15.502L-8.681,-15.412L-8.769,-15.234L-8.857,-15.146L-8.946,-14.971L-8.946,-14.881L-9.123,-14.527L-9.212,-14.437L-9.301,-14.262L-9.301,-14.084L-9.389,-13.996L-9.478,-13.818L-9.478,-13.64L-9.565,-13.553L-9.655,-13.375L-9.655,-13.199L-9.744,-13.109L-9.744,-12.931L-9.832,-12.756L-9.832,-12.488L-9.921,-12.312L-9.921,-12.135L-10.009,-11.959L-10.009,-11.515L-10.098,-11.338L-10.098,-8.945L-10.009,-8.769L-10.009,-8.326L-9.921,-8.148L-9.921,-7.972L-9.832,-7.795L-9.832,-7.529L-9.744,-7.351L-9.744,-7.176L-9.655,-7.086L-9.655,-6.908L-9.565,-6.732L-9.478,-6.642L-9.478,-6.465L-9.389,-6.289L-9.301,-6.199L-9.301,-6.023L-9.212,-5.846L-9.123,-5.758L-9.034,-5.58L-8.946,-5.402L-8.946,-5.314L-8.857,-5.137L-8.769,-5.049L-8.681,-4.871L-8.592,-4.783L-8.503,-4.605L-8.414,-4.517L-8.326,-4.34L-8.237,-4.252L-8.148,-4.074L-8.061,-3.986L-7.971,-3.808L-7.795,-3.721L-7.706,-3.543L-7.617,-3.455L-7.529,-3.365L-7.439,-3.189L-7.264,-3.099L-7.174,-3.012L-7.086,-2.836L-6.998,-2.746L-6.82,-2.658L-6.732,-2.568L-6.643,-2.48L-6.467,-2.303L-6.377,-2.215L-6.201,-2.125L-6.111,-2.037L-5.936,-1.949L-5.758,-1.771L-5.58,-1.683L-5.492,-1.594L-5.314,-1.506L-5.138,-1.416L-5.049,-1.328L-4.872,-1.24L-4.783,-1.152L-4.606,-1.062L-4.429,-1.062L-4.341,-0.974L-4.163,-0.887L-4.074,-0.797L-3.897,-0.797L-3.72,-0.709L-3.631,-0.619L-3.454,-0.619L-3.277,-0.531L-3.1,-0.531L-3.012,-0.443L-2.834,-0.353L-2.656,-0.353L-2.48,-0.265L-2.215,-0.265L-2.036,-0.178L-1.771,-0.178L-1.594,-0.088L-1.063,-0.088L-0.974,0L0,0L0,-0.974L-0.974,-0.974L-1.152,-1.062L-1.594,-1.062L-1.684,-1.152L-2.036,-1.152L-2.125,-1.24L-2.392,-1.24L-2.568,-1.328L-2.656,-1.328L-2.834,-1.416L-3.012,-1.416L-3.1,-1.506L-3.277,-1.594L-3.366,-1.594L-3.543,-1.683L-3.631,-1.683L-3.81,-1.771L-3.897,-1.859L-4.074,-1.859L-4.163,-1.949L-4.341,-2.037L-4.429,-2.125L-4.518,-2.215L-4.694,-2.215L-4.783,-2.303L-4.961,-2.392L-5.049,-2.48L-5.138,-2.568L-5.314,-2.658L-5.404,-2.746L-5.492,-2.836L-5.669,-2.922L-5.758,-3.012L-5.846,-3.099L-5.936,-3.189L-6.111,-3.277L-6.201,-3.365L-6.289,-3.455L-6.467,-3.633L-6.643,-3.808L-6.732,-3.898L-6.998,-4.164L-7.086,-4.34L-7.174,-4.43L-7.264,-4.517L-7.352,-4.695L-7.439,-4.783L-7.529,-4.871L-7.617,-5.049L-7.706,-5.137L-7.795,-5.226L-7.883,-5.402L-7.883,-5.492L-7.971,-5.668L-8.061,-5.758L-8.148,-5.846L-8.148,-6.023L-8.237,-6.111L-8.326,-6.289L-8.414,-6.377L-8.414,-6.555L-8.503,-6.642L-8.503,-6.82L-8.592,-6.908L-8.681,-7.086L-8.681,-7.262L-8.769,-7.351L-8.769,-7.529L-8.857,-7.619L-8.857,-7.883L-8.946,-8.06L-8.946,-8.238L-9.034,-8.326L-9.034,-8.769L-9.123,-8.945L-9.123,-9.744L-9.212,-9.92L-9.212,-10.363L-9.123,-10.541L-9.123,-11.338L-9.034,-11.515L-9.034,-11.959L-8.946,-12.047L-8.946,-12.222L-8.857,-12.4L-8.857,-12.666L-8.769,-12.756L-8.769,-12.931L-8.681,-13.021L-8.681,-13.199L-8.592,-13.375L-8.503,-13.465L-8.503,-13.64L-8.414,-13.728L-8.414,-13.908L-8.326,-13.996L-8.237,-14.172L-8.148,-14.262L-8.148,-14.437L-8.061,-14.527L-7.971,-14.615L-7.883,-14.791L-7.883,-14.881L-7.795,-15.058L-7.617,-15.234L-7.529,-15.412L-7.439,-15.502L-7.352,-15.59L-7.264,-15.767L-7.174,-15.855L-7.086,-15.943L-6.998,-16.121L-6.908,-16.209L-6.82,-16.299L-6.732,-16.387L-6.643,-16.474L-6.467,-16.652L-6.377,-16.74L-6.289,-16.83L-6.201,-16.918L-6.111,-17.006L-5.936,-17.096L-5.846,-17.183L-5.758,-17.271L-5.669,-17.361L-5.492,-17.449L-5.404,-17.539L-5.314,-17.627L-5.138,-17.715L-5.049,-17.805L-4.961,-17.892L-4.783,-17.98L-4.694,-18.068L-4.518,-18.068L-4.429,-18.158L-4.341,-18.246L-4.163,-18.336L-4.074,-18.424L-3.897,-18.424L-3.81,-18.512L-3.631,-18.601L-3.543,-18.601L-3.366,-18.689L-3.277,-18.689L-3.1,-18.777L-3.012,-18.867L-2.834,-18.867L-2.656,-18.955L-2.568,-18.955L-2.392,-19.045L-2.125,-19.045L-2.036,-19.131L-1.684,-19.131L-1.594,-19.221L-1.152,-19.221L-0.974,-19.31L0,-19.31L0,-20.285Z" style="fill:rgb(255,156,0);"/>
                </g>
                <g transform="matrix(1,0,0,1,0,205.387)">
                    <rect x="151.863" y="103.899" width="12.931" height="0.975" style="fill:rgb(255,156,0);"/>
                </g>
                <g transform="matrix(1,0,0,1,0,244.01)">
                    <rect x="151.863" y="84.588" width="12.931" height="0.974" style="fill:rgb(255,156,0);"/>
                </g>
                <g transform="matrix(1,0,0,1,153.016,337.63)">
                    <path d="M0,-4.515L0,-3.009L-0.179,-2.656L-0.355,-2.39L-0.71,-2.301L-0.355,-2.037L-0.09,-1.859L0.088,-1.504L0.088,0.09L0,0.446L-0.179,0.799L-0.443,1.065L-0.797,1.153L-1.241,1.242L-1.594,1.33L-2.305,1.33L-2.746,1.153L-3.102,1.065L-3.455,0.799L-3.633,0.446L-3.633,-0.351L-3.188,-0.351L-3.188,0.09L-3.102,0.446L-2.836,0.621L-2.48,0.799L-2.039,0.887L-1.594,0.887L-1.241,0.799L-0.887,0.711L-0.621,0.532L-0.443,0.268L-0.443,-1.504L-0.71,-1.771L-0.976,-1.947L-1.328,-2.037L-2.746,-2.037L-2.746,-2.478L-1.152,-2.478L-0.797,-2.656L-0.531,-2.922L-0.443,-3.275L-0.443,-3.984L-0.531,-4.338L-0.71,-4.605L-0.976,-4.781L-1.328,-4.871L-2.391,-4.871L-2.746,-4.693L-3.012,-4.427L-3.102,-4.072L-3.102,-3.718L-3.633,-3.718L-3.633,-4.072L-3.544,-4.515L-3.367,-4.781L-3.102,-5.047L-2.746,-5.224L-2.391,-5.314L-2.039,-5.402L-1.594,-5.402L-1.241,-5.314L-0.797,-5.224L-0.443,-5.047L-0.179,-4.871L0,-4.515Z" style="fill:rgb(255,0,0);"/>
                </g>
                <g transform="matrix(1,0,0,1,157.62,334.178)">
                    <path d="M0,4.783L0.444,4.783L0.71,4.695L1.063,4.605L1.418,4.428L1.684,4.252L1.684,4.695L2.126,4.695L2.126,0L1.684,0L1.684,3.808L1.329,3.984L0.976,4.164L0.71,4.252L0.354,4.34L0,4.34L-0.353,4.252L-0.618,3.984L-0.708,3.631L-0.708,0L-1.239,0L-1.239,3.631L-1.149,3.984L-1.063,4.34L-0.798,4.605L-0.442,4.695L0,4.783Z" style="fill:rgb(255,0,0);"/>
                </g>
                <g transform="matrix(1,0,0,1,166.123,338.873)">
                    <path d="M0.355,-4.783L-0.442,-4.783L-0.884,-4.695L-1.239,-4.607L-1.505,-4.342L-1.859,-4.164L-2.036,-4.429L-2.302,-4.607L-2.656,-4.783L-3.275,-4.783L-3.631,-4.695L-3.986,-4.607L-4.251,-4.517L-4.604,-4.252L-4.604,-4.695L-5.136,-4.695L-5.136,0L-4.604,0L-4.604,-3.81L-4.339,-3.986L-3.986,-4.164L-3.631,-4.252L-3.275,-4.342L-2.923,-4.342L-2.568,-4.252L-2.302,-3.986L-2.213,-3.72L-2.213,0L-1.771,0L-1.771,-3.81L-1.505,-3.898L-1.239,-4.076L-0.884,-4.252L-0.531,-4.342L0.09,-4.342L0.444,-4.164L0.621,-3.898L0.711,-3.72L0.711,0L1.152,0L1.152,-3.986L0.976,-4.342L0.711,-4.607L0.355,-4.783Z" style="fill:rgb(255,0,0);"/>
                </g>
                <g transform="matrix(1,0,0,1,126.088,351.715)">
                    <path d="M0,0L1.5,0" style="fill:none;fill-rule:nonzero;stroke:rgb(0,166,81);stroke-width:0.75px;stroke-linejoin:round;stroke-miterlimit:4;"/>
                </g>
                <g transform="matrix(1,0,0,1,130.573,351.715)">
                    <path d="M0,0L314.934,0" style="fill:none;fill-rule:nonzero;stroke:rgb(0,166,81);stroke-width:0.75px;stroke-linejoin:round;stroke-miterlimit:4;stroke-dasharray:2.99,2.99;"/>
                </g>
                <g transform="matrix(1,0,0,1,446.999,350.215)">
                    <path d="M0,1.5L1.5,1.5L1.5,0" style="fill:none;fill-rule:nonzero;stroke:rgb(0,166,81);stroke-width:0.75px;stroke-linejoin:round;stroke-miterlimit:4;"/>
                </g>
                <g transform="matrix(0,-1,-1,0,605.965,189.763)">
                    <path d="M-157.466,157.466L157.466,157.466" style="fill:none;fill-rule:nonzero;stroke:rgb(0,166,81);stroke-width:0.75px;stroke-linejoin:round;stroke-miterlimit:4;stroke-dasharray:2.99,2.99;"/>
                </g>
                <g transform="matrix(1,0,0,1,448.499,29.3045)">
                    <path d="M0,1.5L0,0L-1.5,0" style="fill:none;fill-rule:nonzero;stroke:rgb(0,166,81);stroke-width:0.75px;stroke-linejoin:round;stroke-miterlimit:4;"/>
                </g>
                <g transform="matrix(-1,0,0,1,129.081,29.3045)">
                    <path d="M-314.933,0L0,0" style="fill:none;fill-rule:nonzero;stroke:rgb(0,166,81);stroke-width:0.75px;stroke-linejoin:round;stroke-miterlimit:4;stroke-dasharray:2.99,2.99;"/>
                </g>
                <g transform="matrix(1,0,0,1,127.588,30.8045)">
                    <path d="M0,-1.5L-1.5,-1.5L-1.5,0" style="fill:none;fill-rule:nonzero;stroke:rgb(0,166,81);stroke-width:0.75px;stroke-linejoin:round;stroke-miterlimit:4;"/>
                </g>
                <g transform="matrix(0,1,1,0,283.554,191.256)">
                    <path d="M-157.466,-157.466L157.466,-157.466" style="fill:none;fill-rule:nonzero;stroke:rgb(0,166,81);stroke-width:0.75px;stroke-linejoin:round;stroke-miterlimit:4;stroke-dasharray:2.99,2.99;"/>
                </g>
                <g transform="matrix(0,1,1,0,126.838,350.965)">
                    <path d="M-0.75,-0.75L0.75,-0.75" style="fill:none;fill-rule:nonzero;stroke:rgb(0,166,81);stroke-width:0.75px;stroke-linejoin:round;stroke-miterlimit:4;"/>
                </g>
                <g transform="matrix(0,-1,-1,0,287.277,190.305)">
                    <path d="M-0.266,-0.266C-0.411,-0.266 -0.532,-0.147 -0.532,0.001C-0.532,0.148 -0.411,0.266 -0.266,0.266C-0.118,0.266 0.001,0.148 0.001,0.001C0.001,-0.147 -0.118,-0.266 -0.266,-0.266" style="fill:rgb(0,166,81);fill-rule:nonzero;"/>
                </g>
                <g transform="matrix(1,0,0,1,287.294,193.699)">
                    <path d="M0,-6.377L0,0M-3.189,-3.188L3.188,-3.188" style="fill:none;fill-rule:nonzero;stroke:rgb(0,166,81);stroke-width:0.5px;stroke-linejoin:round;"/>
                </g>
                <g transform="matrix(1,0,0,1,93.8457,348.437)">
                    <path d="M0,0L1.5,0" style="fill:none;fill-rule:nonzero;stroke:rgb(0,166,81);stroke-width:0.75px;stroke-linejoin:round;stroke-miterlimit:4;"/>
                </g>
                <g transform="matrix(1,0,0,1,98.3311,348.437)">
                    <path d="M0,0L314.936,0" style="fill:none;fill-rule:nonzero;stroke:rgb(0,166,81);stroke-width:0.75px;stroke-linejoin:round;stroke-miterlimit:4;stroke-dasharray:2.99,2.99;"/>
                </g>
                <g transform="matrix(1,0,0,1,414.759,346.937)">
                    <path d="M0,1.5L1.5,1.5L1.5,0" style="fill:none;fill-rule:nonzero;stroke:rgb(0,166,81);stroke-width:0.75px;stroke-linejoin:round;stroke-miterlimit:4;"/>
                </g>
                <g transform="matrix(0,-1,-1,0,573.725,186.486)">
                    <path d="M-157.466,157.466L157.466,157.466" style="fill:none;fill-rule:nonzero;stroke:rgb(0,166,81);stroke-width:0.75px;stroke-linejoin:round;stroke-miterlimit:4;stroke-dasharray:2.99,2.99;"/>
                </g>
                <g transform="matrix(1,0,0,1,416.259,26.0272)">
                    <path d="M0,1.5L0,0L-1.5,0" style="fill:none;fill-rule:nonzero;stroke:rgb(0,166,81);stroke-width:0.75px;stroke-linejoin:round;stroke-miterlimit:4;"/>
                </g>
                <g transform="matrix(-1,0,0,1,96.8384,26.0272)">
                    <path d="M-314.935,0L0,0" style="fill:none;fill-rule:nonzero;stroke:rgb(0,166,81);stroke-width:0.75px;stroke-linejoin:round;stroke-miterlimit:4;stroke-dasharray:2.99,2.99;"/>
                </g>
                <g transform="matrix(1,0,0,1,95.3457,27.5272)">
                    <path d="M0,-1.5L-1.5,-1.5L-1.5,0" style="fill:none;fill-rule:nonzero;stroke:rgb(0,166,81);stroke-width:0.75px;stroke-linejoin:round;stroke-miterlimit:4;"/>
                </g>
                <g transform="matrix(0,1,1,0,251.312,187.979)">
                    <path d="M-157.466,-157.466L157.466,-157.466" style="fill:none;fill-rule:nonzero;stroke:rgb(0,166,81);stroke-width:0.75px;stroke-linejoin:round;stroke-miterlimit:4;stroke-dasharray:2.99,2.99;"/>
                </g>
                <g transform="matrix(0,1,1,0,94.5957,347.687)">
                    <path d="M-0.75,-0.75L0.75,-0.75" style="fill:none;fill-rule:nonzero;stroke:rgb(0,166,81);stroke-width:0.75px;stroke-linejoin:round;stroke-miterlimit:4;"/>
                </g>
                <g transform="matrix(0,-1,-1,0,255.134,186.988)">
                    <path d="M-0.265,-0.265C-0.412,-0.265 -0.531,-0.147 -0.531,0C-0.531,0.148 -0.412,0.265 -0.265,0.265C-0.119,0.265 0.001,0.148 0.001,0C0.001,-0.147 -0.119,-0.265 -0.265,-0.265" style="fill:rgb(0,166,81);fill-rule:nonzero;"/>
                </g>
                <g transform="matrix(1,0,0,1,255.054,190.421)">
                    <path d="M0,-6.377L0,0M-3.189,-3.188L3.188,-3.188" style="fill:none;fill-rule:nonzero;stroke:rgb(0,166,81);stroke-width:0.5px;stroke-linejoin:round;"/>
                </g>
            </g>
        </g>
    </g>
</svg>
