<?xml version="1.0" encoding="UTF-8" standalone="no"?>
<!DOCTYPE svg PUBLIC "-//W3C//DTD SVG 1.1//EN" "http://www.w3.org/Graphics/SVG/1.1/DTD/svg11.dtd">
<svg width="100%" height="100%" viewBox="0 0 485 317" version="1.1" xmlns="http://www.w3.org/2000/svg" xmlns:xlink="http://www.w3.org/1999/xlink" xml:space="preserve" xmlns:serif="http://www.serif.com/" style="fill-rule:evenodd;clip-rule:evenodd;stroke-miterlimit:10;">
    <g transform="matrix(1.02371,0,0,1.03738,0,0)">
        <rect id="Artboard1" x="0" y="0" width="473.667" height="305" style="fill:none;"/>
        <g id="Artboard11" serif:id="Artboard1">
            <g id="Layer-1" serif:id="Layer 1" transform="matrix(0.976834,0,0,0.96397,3.84553,2.85992)">
                <g transform="matrix(1,0,0,1,127.226,245.058)">
                    <path d="M0,-5.659L0,0L332.917,0L332.917,-5.659" style="fill:none;fill-rule:nonzero;stroke:rgb(35,31,32);stroke-width:0.5px;"/>
                </g>
                <g>
                    <g transform="matrix(28,0,0,28,9.9951,129.506)">
                        <path d="M0.051,-0.484L0.135,-0L0.217,-0L0.486,-0.484L0.395,-0.484L0.247,-0.202C0.219,-0.147 0.206,-0.115 0.196,-0.089L0.193,-0.089C0.191,-0.116 0.185,-0.153 0.178,-0.208L0.136,-0.484L0.051,-0.484Z" style="fill-rule:nonzero;"/>
                    </g>
                    <g transform="matrix(28,0,0,28,28.6711,129.506)">
                        <path d="M0.195,-0.694C0.132,-0.61 0.065,-0.482 0.064,-0.285C0.064,-0.09 0.132,0.038 0.195,0.121L0.264,0.121C0.193,0.021 0.138,-0.107 0.138,-0.285C0.138,-0.466 0.191,-0.596 0.264,-0.694L0.195,-0.694Z" style="fill-rule:nonzero;"/>
                    </g>
                    <g transform="matrix(28,0,0,28,36.6231,129.506)">
                        <path d="M0.403,-0.075C0.411,-0.013 0.446,0.011 0.489,0.011C0.503,0.011 0.509,0.01 0.519,0.007L0.526,-0.057C0.491,-0.059 0.48,-0.08 0.48,-0.133L0.48,-0.484L0.393,-0.484L0.393,-0.187C0.393,-0.171 0.39,-0.155 0.385,-0.142C0.369,-0.103 0.327,-0.061 0.269,-0.061C0.192,-0.061 0.16,-0.123 0.16,-0.198L0.16,-0.484L0.073,-0.484L0.073,0.02C0.073,0.097 0.077,0.168 0.087,0.198L0.166,0.198C0.156,0.158 0.155,0.069 0.155,0.016L0.155,-0.044C0.176,-0.007 0.217,0.009 0.261,0.009C0.333,0.009 0.38,-0.037 0.4,-0.075L0.403,-0.075Z" style="fill-rule:nonzero;"/>
                    </g>
                    <g transform="matrix(28,0,0,28,52.1071,129.506)">
                        <path d="M0.073,-0L0.159,-0L0.159,-0.292C0.159,-0.307 0.161,-0.322 0.166,-0.335C0.18,-0.379 0.22,-0.423 0.275,-0.423C0.342,-0.423 0.376,-0.367 0.376,-0.29L0.376,-0L0.462,-0L0.462,-0.299C0.462,-0.315 0.465,-0.331 0.469,-0.343C0.484,-0.386 0.523,-0.423 0.573,-0.423C0.644,-0.423 0.678,-0.367 0.678,-0.274L0.678,-0L0.764,-0L0.764,-0.285C0.764,-0.453 0.669,-0.495 0.605,-0.495C0.559,-0.495 0.527,-0.483 0.498,-0.461C0.478,-0.446 0.459,-0.425 0.444,-0.398L0.442,-0.398C0.421,-0.455 0.371,-0.495 0.305,-0.495C0.225,-0.495 0.18,-0.452 0.153,-0.406L0.15,-0.406L0.146,-0.484L0.069,-0.484C0.072,-0.444 0.073,-0.403 0.073,-0.353L0.073,-0Z" style="fill-rule:nonzero;"/>
                    </g>
                    <g transform="matrix(28,0,0,28,75.4591,129.506)">
                        <path d="M0.088,0.121C0.152,0.036 0.219,-0.091 0.219,-0.287C0.219,-0.484 0.152,-0.612 0.088,-0.694L0.02,-0.694C0.092,-0.595 0.146,-0.467 0.146,-0.288C0.146,-0.108 0.091,0.022 0.02,0.121L0.088,0.121Z" style="fill-rule:nonzero;"/>
                    </g>
                    <g transform="matrix(24,0,0,24,90.5103,128.331)">
                        <path d="M0.262,-0.661C0.13,-0.661 0.036,-0.541 0.036,-0.323C0.038,-0.108 0.124,0.011 0.251,0.011C0.395,0.011 0.477,-0.111 0.477,-0.332C0.477,-0.539 0.399,-0.661 0.262,-0.661ZM0.257,-0.593C0.348,-0.593 0.389,-0.488 0.389,-0.328C0.389,-0.162 0.346,-0.057 0.256,-0.057C0.176,-0.057 0.124,-0.153 0.124,-0.322C0.124,-0.499 0.18,-0.593 0.257,-0.593Z" style="fill:rgb(35,31,32);fill-rule:nonzero;"/>
                    </g>
                </g>
                <g transform="matrix(24,0,0,24,78.5103,228.435)">
                    <rect x="0.03" y="-0.284" width="0.44" height="0.06" style="fill:rgb(35,31,32);fill-rule:nonzero;"/>
                </g>
                <g transform="matrix(24,0,0,24,90.5103,228.435)">
                    <path d="M0.042,-0.033C0.074,-0.012 0.138,0.011 0.211,0.011C0.367,0.011 0.448,-0.08 0.448,-0.184C0.448,-0.275 0.383,-0.335 0.303,-0.351L0.303,-0.353C0.383,-0.382 0.423,-0.439 0.423,-0.506C0.423,-0.585 0.365,-0.661 0.237,-0.661C0.167,-0.661 0.101,-0.636 0.067,-0.611L0.09,-0.547C0.118,-0.567 0.168,-0.59 0.22,-0.59C0.301,-0.59 0.334,-0.544 0.334,-0.492C0.334,-0.415 0.253,-0.382 0.189,-0.382L0.14,-0.382L0.14,-0.316L0.189,-0.316C0.274,-0.316 0.356,-0.277 0.357,-0.186C0.358,-0.132 0.323,-0.06 0.21,-0.06C0.149,-0.06 0.091,-0.085 0.066,-0.101L0.042,-0.033Z" style="fill:rgb(35,31,32);fill-rule:nonzero;"/>
                </g>
                <g transform="matrix(24,0,0,24,90.5103,28.2511)">
                    <path d="M0.042,-0.033C0.074,-0.012 0.138,0.011 0.211,0.011C0.367,0.011 0.448,-0.08 0.448,-0.184C0.448,-0.275 0.383,-0.335 0.303,-0.351L0.303,-0.353C0.383,-0.382 0.423,-0.439 0.423,-0.506C0.423,-0.585 0.365,-0.661 0.237,-0.661C0.167,-0.661 0.101,-0.636 0.067,-0.611L0.09,-0.547C0.118,-0.567 0.168,-0.59 0.22,-0.59C0.301,-0.59 0.334,-0.544 0.334,-0.492C0.334,-0.415 0.253,-0.382 0.189,-0.382L0.14,-0.382L0.14,-0.316L0.189,-0.316C0.274,-0.316 0.356,-0.277 0.357,-0.186C0.358,-0.132 0.323,-0.06 0.21,-0.06C0.149,-0.06 0.091,-0.085 0.066,-0.101L0.042,-0.033Z" style="fill:rgb(35,31,32);fill-rule:nonzero;"/>
                </g>
                <g transform="matrix(24,0,0,24,453.99,268.587)">
                    <path d="M0.433,-0.65L0.122,-0.65L0.08,-0.338C0.104,-0.341 0.133,-0.345 0.17,-0.345C0.3,-0.345 0.356,-0.285 0.357,-0.201C0.357,-0.114 0.286,-0.06 0.203,-0.06C0.144,-0.06 0.091,-0.08 0.064,-0.096L0.042,-0.029C0.073,-0.009 0.133,0.011 0.204,0.011C0.345,0.011 0.446,-0.084 0.446,-0.211C0.446,-0.293 0.404,-0.349 0.353,-0.378C0.313,-0.402 0.263,-0.413 0.213,-0.413C0.189,-0.413 0.175,-0.411 0.16,-0.409L0.185,-0.576L0.433,-0.576L0.433,-0.65Z" style="fill-rule:nonzero;"/>
                </g>
                <g transform="matrix(24,0,0,24,287.574,268.587)">
                    <path d="M0.262,-0.661C0.13,-0.661 0.036,-0.541 0.036,-0.323C0.038,-0.108 0.124,0.011 0.251,0.011C0.395,0.011 0.477,-0.111 0.477,-0.332C0.477,-0.539 0.399,-0.661 0.262,-0.661ZM0.257,-0.593C0.348,-0.593 0.389,-0.488 0.389,-0.328C0.389,-0.162 0.346,-0.057 0.256,-0.057C0.176,-0.057 0.124,-0.153 0.124,-0.322C0.124,-0.499 0.18,-0.593 0.257,-0.593Z" style="fill-rule:nonzero;"/>
                </g>
                <g transform="matrix(24,0,0,24,115.086,268.587)">
                    <rect x="0.03" y="-0.284" width="0.44" height="0.06" style="fill-rule:nonzero;"/>
                </g>
                <g transform="matrix(24,0,0,24,127.086,268.587)">
                    <path d="M0.433,-0.65L0.122,-0.65L0.08,-0.338C0.104,-0.341 0.133,-0.345 0.17,-0.345C0.3,-0.345 0.356,-0.285 0.357,-0.201C0.357,-0.114 0.286,-0.06 0.203,-0.06C0.144,-0.06 0.091,-0.08 0.064,-0.096L0.042,-0.029C0.073,-0.009 0.133,0.011 0.204,0.011C0.345,0.011 0.446,-0.084 0.446,-0.211C0.446,-0.293 0.404,-0.349 0.353,-0.378C0.313,-0.402 0.263,-0.413 0.213,-0.413C0.189,-0.413 0.175,-0.411 0.16,-0.409L0.185,-0.576L0.433,-0.576L0.433,-0.65Z" style="fill-rule:nonzero;"/>
                </g>
                <g>
                    <g transform="matrix(28,0,0,28,255.982,292.432)">
                        <path d="M0.417,-0.484L0.37,-0.236C0.35,-0.129 0.273,-0.059 0.213,-0.059C0.156,-0.059 0.135,-0.093 0.135,-0.143C0.135,-0.164 0.138,-0.187 0.144,-0.214L0.195,-0.484L0.112,-0.484L0.06,-0.21C0.054,-0.178 0.051,-0.152 0.051,-0.129C0.051,-0.019 0.116,0.011 0.178,0.011C0.242,0.011 0.306,-0.028 0.349,-0.091L0.351,-0.091L0.338,-0L0.413,-0C0.418,-0.04 0.425,-0.087 0.435,-0.141L0.5,-0.484L0.417,-0.484Z" style="fill-rule:nonzero;"/>
                    </g>
                    <g transform="matrix(28,0,0,28,276.646,292.432)">
                        <path d="M0.195,-0.694C0.132,-0.61 0.065,-0.482 0.064,-0.285C0.064,-0.09 0.132,0.038 0.195,0.121L0.264,0.121C0.193,0.021 0.138,-0.107 0.138,-0.285C0.138,-0.466 0.191,-0.596 0.264,-0.694L0.195,-0.694Z" style="fill-rule:nonzero;"/>
                    </g>
                    <g transform="matrix(28,0,0,28,284.598,292.432)">
                        <path d="M0.403,-0.075C0.411,-0.013 0.446,0.011 0.489,0.011C0.503,0.011 0.509,0.01 0.519,0.007L0.526,-0.057C0.491,-0.059 0.48,-0.08 0.48,-0.133L0.48,-0.484L0.393,-0.484L0.393,-0.187C0.393,-0.171 0.39,-0.155 0.385,-0.142C0.369,-0.103 0.327,-0.061 0.269,-0.061C0.192,-0.061 0.16,-0.123 0.16,-0.198L0.16,-0.484L0.073,-0.484L0.073,0.02C0.073,0.097 0.077,0.168 0.087,0.198L0.166,0.198C0.156,0.158 0.155,0.069 0.155,0.016L0.155,-0.044C0.176,-0.007 0.217,0.009 0.261,0.009C0.333,0.009 0.38,-0.037 0.4,-0.075L0.403,-0.075Z" style="fill-rule:nonzero;"/>
                    </g>
                    <g transform="matrix(28,0,0,28,300.082,292.432)">
                        <path d="M0.073,-0L0.159,-0L0.159,-0.292C0.159,-0.307 0.161,-0.322 0.166,-0.335C0.18,-0.379 0.22,-0.423 0.275,-0.423C0.342,-0.423 0.376,-0.367 0.376,-0.29L0.376,-0L0.462,-0L0.462,-0.299C0.462,-0.315 0.465,-0.331 0.469,-0.343C0.484,-0.386 0.523,-0.423 0.573,-0.423C0.644,-0.423 0.678,-0.367 0.678,-0.274L0.678,-0L0.764,-0L0.764,-0.285C0.764,-0.453 0.669,-0.495 0.605,-0.495C0.559,-0.495 0.527,-0.483 0.498,-0.461C0.478,-0.446 0.459,-0.425 0.444,-0.398L0.442,-0.398C0.421,-0.455 0.371,-0.495 0.305,-0.495C0.225,-0.495 0.18,-0.452 0.153,-0.406L0.15,-0.406L0.146,-0.484L0.069,-0.484C0.072,-0.444 0.073,-0.403 0.073,-0.353L0.073,-0Z" style="fill-rule:nonzero;"/>
                    </g>
                    <g transform="matrix(28,0,0,28,323.434,292.432)">
                        <path d="M0.088,0.121C0.152,0.036 0.219,-0.091 0.219,-0.287C0.219,-0.484 0.152,-0.612 0.088,-0.694L0.02,-0.694C0.092,-0.595 0.146,-0.467 0.146,-0.288C0.146,-0.108 0.091,0.022 0.02,0.121L0.088,0.121Z" style="fill-rule:nonzero;"/>
                    </g>
                </g>
                <g transform="matrix(1,0,0,1,113.543,221.479)">
                    <path d="M0,-199.75L-5.682,-199.75L-5.682,0L0,0" style="fill:none;fill-rule:nonzero;stroke:black;stroke-width:0.5px;"/>
                </g>
                <g transform="matrix(0,-1,-1,0,296.555,242.229)">
                    <path d="M-2.83,2.83L2.83,2.83" style="fill:none;fill-rule:nonzero;stroke:black;stroke-width:0.5px;stroke-linejoin:round;"/>
                </g>
                <g transform="matrix(1,0,0,1,360.309,16.7295)">
                    <path d="M0,209.75L1.584,209.75L3.25,209.666L4.917,209.666L6.584,209.583L8.25,209.416L9.917,209.25L11.5,209.083L13.167,208.916L14.834,208.666L16.417,208.416L18.084,208.166L19.75,207.916L21.334,207.583L22.917,207.166L24.584,206.833L26.167,206.416L27.75,206L29.334,205.583L32.5,204.583L34.084,204L35.667,203.5L37.25,202.916L38.75,202.333L40.25,201.666L41.834,201L44.834,199.666L47.834,198.166L49.25,197.416L50.75,196.666L53.584,195L55,194.166L56.417,193.25L57.834,192.333L59.167,191.416L60.5,190.5L61.917,189.5L63.167,188.5L64.5,187.5L65.834,186.5L67.084,185.416L68.334,184.416L69.584,183.333L70.834,182.166L72.084,181.083L73.25,179.916L74.417,178.75L75.584,177.583L76.75,176.333L77.834,175.166L80,172.666L81.084,171.333L82.084,170.083L83.167,168.75L84.084,167.416L86.084,164.75L87,163.416L87.917,162L88.834,160.583L89.667,159.25L90.5,157.75L91.334,156.333L92.167,154.916L92.917,153.416L93.667,152L94.417,150.5L95.084,149L95.834,147.5L96.417,146L97.084,144.416L97.667,142.916L98.334,141.333L98.834,139.833L99.417,138.25L99.917,136.666L100.417,135.083L100.834,133.5L101.334,131.916L101.75,130.25L102.084,128.666L102.5,127.083L102.834,125.416L103.084,123.833L103.417,122.166L103.667,120.583L103.917,118.916L104.084,117.25L104.25,115.583L104.417,114L104.584,112.333L104.667,110.667L104.75,108.999L104.834,107.333L104.834,102.417L104.75,100.749L104.584,97.417L104.417,95.75L104.25,94.167L104.084,92.5L103.917,90.833L103.667,89.167L103.417,87.583L103.084,85.917L102.834,84.333L102.5,82.667L102.084,81.083L101.75,79.5L101.334,77.833L100.834,76.25L100.417,74.667L99.917,73.083L99.417,71.5L98.834,69.917L98.334,68.417L97.667,66.833L97.084,65.333L96.417,63.75L95.834,62.25L95.084,60.75L94.417,59.25L93.667,57.75L92.917,56.333L92.167,54.833L91.334,53.417L90.5,52L89.667,50.5L88.834,49.167L87,46.333L86.084,45L85.084,43.667L84.084,42.333L83.167,41L82.084,39.667L81.084,38.417L80,37.083L77.834,34.583L76.75,33.417L75.584,32.167L72.084,28.667L70.834,27.583L69.584,26.417L68.334,25.333L67.084,24.333L65.834,23.25L64.5,22.25L63.167,21.25L61.917,20.25L60.5,19.25L59.167,18.333L57.834,17.417L55,15.583L53.584,14.75L52.167,13.917L50.75,13.083L49.25,12.333L47.834,11.583L44.834,10.083L43.334,9.417L41.834,8.75L40.25,8.083L38.75,7.417L37.25,6.833L35.667,6.25L34.084,5.75L32.5,5.167L29.334,4.167L27.75,3.75L26.167,3.333L24.584,2.917L22.917,2.583L21.334,2.167L19.75,1.833L18.084,1.583L16.417,1.333L14.834,1.083L13.167,0.833L11.5,0.667L9.917,0.5L8.25,0.333L6.584,0.167L4.917,0.083L3.25,0.083L1.584,0L0,0L-0.083,10L3,10L4.417,10.083L5.917,10.167L7.417,10.25L8.917,10.417L10.417,10.583L13.417,10.917L14.917,11.167L16.334,11.417L17.834,11.667L19.334,12L20.75,12.333L22.25,12.667L23.667,13L25.084,13.417L26.584,13.833L28,14.25L29.417,14.667L30.834,15.167L32.25,15.667L33.667,16.167L35.084,16.75L36.417,17.25L37.834,17.833L39.167,18.5L40.584,19.083L43.25,20.417L44.584,21.167L45.917,21.833L47.167,22.583L48.5,23.333L49.75,24.083L51,24.917L53.5,26.583L54.75,27.417L56,28.25L57.167,29.167L58.334,30.083L59.584,31L60.667,32L61.834,32.917L63,33.917L64.084,34.917L65.167,35.917L66.25,37L67.334,38.083L68.334,39.083L69.417,40.167L70.417,41.333L71.417,42.417L72.417,43.583L73.334,44.75L74.25,45.917L75.167,47.083L76.084,48.25L77,49.5L77.834,50.667L79.5,53.167L80.334,54.417L81.084,55.75L81.917,57L82.667,58.333L83.334,59.583L84.084,60.917L84.75,62.25L85.417,63.583L86.084,65L86.667,66.333L87.25,67.667L87.834,69.083L88.417,70.5L88.917,71.833L89.917,74.667L90.417,76.083L90.834,77.583L91.25,79L91.667,80.417L92,81.917L92.417,83.333L92.667,84.833L93,86.25L93.334,87.75L93.584,89.25L93.75,90.667L94,92.167L94.334,95.167L94.5,96.667L94.584,98.167L94.75,101.167L94.834,102.667L94.834,107.083L94.75,108.583L94.584,111.583L94.5,113.083L94.334,114.583L94,117.583L93.75,119.083L93.584,120.5L93.334,122L93,123.5L92.667,124.916L92.417,126.416L92,127.833L91.667,129.333L91.25,130.75L90.834,132.166L90.417,133.666L89.417,136.5L88.917,137.916L88.417,139.25L87.834,140.666L87.25,142.083L86.667,143.416L86.084,144.75L85.417,146.166L84.75,147.5L84.084,148.833L83.334,150.166L82.667,151.416L81.917,152.75L81.084,154L80.334,155.333L79.5,156.583L77.834,159.083L77,160.25L76.084,161.5L75.167,162.666L74.25,163.833L73.334,165L72.417,166.166L71.417,167.333L70.417,168.416L69.417,169.583L65.167,173.833L64.084,174.833L63,175.833L61.834,176.833L60.667,177.75L59.584,178.75L58.334,179.666L56,181.5L53.5,183.166L52.25,184L49.75,185.666L48.5,186.416L47.167,187.166L45.917,187.916L44.584,188.583L43.25,189.333L41.917,190L40.584,190.666L39.167,191.25L37.834,191.916L36.417,192.5L35.084,193L33.667,193.583L32.25,194.083L30.834,194.583L29.417,195.083L28,195.5L26.584,195.916L25.084,196.333L23.667,196.75L22.25,197.083L20.75,197.416L19.334,197.75L17.834,198.083L16.334,198.333L14.917,198.583L13.417,198.833L11.917,199L10.417,199.166L7.417,199.5L4.417,199.666L3,199.75L-0.083,199.75L0,209.75Z" style="fill:none;fill-rule:nonzero;stroke:rgb(255,156,0);stroke-width:0.5px;"/>
                </g>
                <g transform="matrix(1,0,0,1,227.06,226.479)">
                    <path d="M0,-209.75L-1.584,-209.75L-3.25,-209.667L-4.918,-209.667L-6.584,-209.583L-8.25,-209.417L-9.918,-209.25L-11.5,-209.083L-13.168,-208.917L-14.834,-208.667L-16.418,-208.417L-19.75,-207.917L-21.334,-207.583L-22.918,-207.167L-24.584,-206.833L-26.168,-206.417L-27.75,-206L-29.334,-205.583L-30.918,-205.083L-32.5,-204.583L-34.084,-204L-35.668,-203.5L-37.25,-202.917L-38.75,-202.333L-40.25,-201.667L-41.834,-201L-43.334,-200.333L-44.834,-199.667L-47.834,-198.167L-49.25,-197.417L-50.75,-196.667L-52.168,-195.833L-55,-194.167L-56.418,-193.25L-57.834,-192.333L-59.168,-191.417L-60.5,-190.5L-61.918,-189.5L-63.168,-188.5L-64.5,-187.5L-65.834,-186.5L-67.084,-185.417L-68.334,-184.417L-69.584,-183.333L-70.834,-182.167L-72.084,-181.083L-73.25,-179.917L-74.418,-178.75L-75.584,-177.583L-76.75,-176.333L-77.834,-175.167L-78.918,-173.917L-80,-172.667L-81.084,-171.333L-82.084,-170.083L-83.168,-168.75L-84.084,-167.417L-85.084,-166.083L-86.084,-164.75L-87,-163.417L-87.918,-162L-88.834,-160.583L-89.668,-159.25L-90.5,-157.75L-91.334,-156.333L-92.168,-154.917L-92.918,-153.417L-93.668,-152L-94.418,-150.5L-95.084,-149L-95.834,-147.5L-96.418,-146L-97.084,-144.417L-97.668,-142.917L-98.334,-141.333L-98.834,-139.833L-99.418,-138.25L-99.918,-136.667L-100.418,-135.083L-100.834,-133.5L-101.334,-131.917L-101.75,-130.25L-102.084,-128.667L-102.5,-127.083L-102.834,-125.417L-103.084,-123.833L-103.418,-122.167L-103.668,-120.583L-103.918,-118.917L-104.25,-115.583L-104.418,-114L-104.584,-112.333L-104.668,-110.667L-104.75,-109L-104.834,-107.333L-104.834,-102.417L-104.75,-100.75L-104.668,-99.083L-104.584,-97.417L-104.418,-95.75L-104.25,-94.167L-103.918,-90.833L-103.668,-89.167L-103.418,-87.583L-103.084,-85.917L-102.834,-84.333L-102.5,-82.667L-102.084,-81.083L-101.75,-79.5L-101.334,-77.833L-100.834,-76.25L-100.418,-74.667L-99.918,-73.083L-99.418,-71.5L-98.834,-69.917L-98.334,-68.417L-97.668,-66.833L-97.084,-65.333L-96.418,-63.75L-95.834,-62.25L-95.084,-60.75L-94.418,-59.25L-93.668,-57.75L-92.918,-56.333L-92.168,-54.833L-91.334,-53.417L-90.5,-52L-89.668,-50.5L-88.834,-49.167L-87.918,-47.75L-87,-46.333L-86.084,-45L-85.084,-43.667L-84.084,-42.333L-83.168,-41L-82.084,-39.667L-81.084,-38.417L-80,-37.083L-78.918,-35.833L-77.834,-34.583L-76.75,-33.417L-75.584,-32.167L-74.418,-31L-73.25,-29.833L-72.084,-28.667L-70.834,-27.583L-69.584,-26.417L-68.334,-25.333L-67.084,-24.333L-65.834,-23.25L-64.5,-22.25L-63.168,-21.25L-61.918,-20.25L-60.5,-19.25L-59.168,-18.333L-57.834,-17.417L-56.418,-16.5L-55,-15.583L-52.168,-13.917L-50.751,-13.083L-49.251,-12.333L-47.834,-11.583L-44.834,-10.083L-43.334,-9.417L-41.834,-8.75L-40.251,-8.083L-38.751,-7.417L-37.251,-6.833L-35.668,-6.25L-34.084,-5.75L-32.5,-5.167L-30.918,-4.667L-29.334,-4.167L-27.75,-3.75L-26.168,-3.333L-24.584,-2.917L-22.918,-2.583L-21.334,-2.167L-19.75,-1.833L-16.418,-1.333L-14.834,-1.083L-13.168,-0.833L-11.5,-0.667L-9.918,-0.5L-8.25,-0.333L-6.584,-0.167L-4.918,-0.083L-3.25,-0.083L-1.584,0L0,0L0.082,-10L-3,-10L-4.418,-10.083L-5.918,-10.167L-7.418,-10.25L-8.918,-10.417L-10.418,-10.583L-13.418,-10.917L-14.918,-11.167L-16.334,-11.417L-17.834,-11.667L-19.334,-12L-20.75,-12.333L-22.25,-12.667L-23.668,-13L-25.084,-13.417L-26.584,-13.833L-28,-14.25L-29.418,-14.667L-32.25,-15.667L-33.668,-16.167L-35.084,-16.75L-36.418,-17.25L-37.834,-17.833L-39.168,-18.5L-40.584,-19.083L-41.918,-19.75L-43.25,-20.417L-44.584,-21.167L-45.918,-21.833L-47.168,-22.583L-48.5,-23.333L-49.75,-24.083L-51,-24.917L-53.5,-26.583L-54.75,-27.417L-56,-28.25L-57.168,-29.167L-58.334,-30.083L-59.584,-31L-60.668,-32L-61.834,-32.917L-63,-33.917L-65.168,-35.917L-66.25,-37L-67.334,-38.083L-69.418,-40.167L-70.418,-41.333L-71.418,-42.417L-72.418,-43.583L-74.25,-45.917L-75.168,-47.083L-76.084,-48.25L-77,-49.5L-77.834,-50.667L-78.668,-51.917L-79.5,-53.167L-80.334,-54.417L-81.084,-55.75L-81.918,-57L-82.668,-58.333L-83.334,-59.583L-84.084,-60.917L-84.75,-62.25L-85.418,-63.583L-86.084,-65L-86.668,-66.333L-87.25,-67.667L-87.834,-69.083L-88.418,-70.5L-88.918,-71.833L-89.918,-74.667L-90.418,-76.083L-90.834,-77.583L-91.25,-79L-91.668,-80.417L-92,-81.917L-92.418,-83.333L-92.668,-84.833L-93,-86.25L-93.334,-87.75L-93.584,-89.25L-93.75,-90.667L-94,-92.167L-94.168,-93.667L-94.5,-96.667L-94.668,-99.667L-94.75,-101.167L-94.834,-102.667L-94.834,-107.083L-94.75,-108.583L-94.668,-110.083L-94.5,-113.083L-94.168,-116.083L-94,-117.583L-93.75,-119.083L-93.584,-120.5L-93.334,-122L-93,-123.5L-92.668,-124.917L-92.418,-126.417L-92,-127.833L-91.668,-129.333L-91.25,-130.75L-90.834,-132.167L-90.418,-133.667L-89.918,-135.083L-88.918,-137.917L-88.418,-139.25L-87.834,-140.667L-87.25,-142.083L-86.668,-143.417L-86.084,-144.75L-85.418,-146.167L-84.75,-147.5L-84.084,-148.833L-83.334,-150.167L-82.668,-151.417L-81.918,-152.75L-81.084,-154L-80.334,-155.333L-79.5,-156.583L-78.668,-157.833L-77.834,-159.083L-77,-160.25L-76.084,-161.5L-75.168,-162.667L-74.25,-163.833L-72.418,-166.167L-71.418,-167.333L-70.418,-168.417L-69.418,-169.583L-67.334,-171.667L-66.25,-172.75L-65.168,-173.833L-63,-175.833L-61.834,-176.833L-60.668,-177.75L-59.584,-178.75L-58.334,-179.667L-57.168,-180.583L-56,-181.5L-54.75,-182.333L-53.5,-183.167L-51,-184.833L-49.75,-185.667L-48.5,-186.417L-47.168,-187.167L-45.918,-187.917L-44.584,-188.583L-43.25,-189.333L-41.918,-190L-40.584,-190.667L-39.168,-191.25L-37.834,-191.917L-36.418,-192.5L-35.084,-193L-33.668,-193.583L-32.25,-194.083L-29.418,-195.083L-28,-195.5L-26.584,-195.917L-25.084,-196.333L-23.668,-196.75L-22.25,-197.083L-20.75,-197.417L-19.334,-197.75L-17.834,-198.083L-16.334,-198.333L-14.918,-198.583L-13.418,-198.833L-10.418,-199.167L-8.918,-199.333L-7.418,-199.5L-5.918,-199.583L-4.418,-199.667L-3,-199.75L0.082,-199.75L0,-209.75Z" style="fill:none;fill-rule:nonzero;stroke:rgb(255,156,0);stroke-width:0.5px;"/>
                </g>
                <g transform="matrix(1,0,0,1,0,-261.542)">
                    <rect x="227.06" y="278.271" width="133.249" height="10" style="fill:none;stroke:rgb(255,156,0);stroke-width:0.5px;"/>
                </g>
                <g transform="matrix(1,0,0,1,0,137.958)">
                    <rect x="227.06" y="78.521" width="133.249" height="10" style="fill:none;stroke:rgb(255,156,0);stroke-width:0.5px;"/>
                </g>
                <g transform="matrix(1,0,0,1,107.861,121.646)">
                    <path d="M0,0L5.682,0" style="fill:none;fill-rule:nonzero;stroke:black;stroke-width:0.5px;"/>
                </g>
            </g>
        </g>
    </g>
</svg>
