<?xml version="1.0" encoding="UTF-8" standalone="no"?>
<!DOCTYPE svg PUBLIC "-//W3C//DTD SVG 1.1//EN" "http://www.w3.org/Graphics/SVG/1.1/DTD/svg11.dtd">
<svg width="100%" height="100%" viewBox="0 0 499 356" version="1.1" xmlns="http://www.w3.org/2000/svg" xmlns:xlink="http://www.w3.org/1999/xlink" xml:space="preserve" xmlns:serif="http://www.serif.com/" style="fill-rule:evenodd;clip-rule:evenodd;stroke-miterlimit:10;">
    <g transform="matrix(1.05179,0,0,1.06467,0,0)">
        <rect id="Artboard1" x="0" y="0" width="473.667" height="334" style="fill:none;"/>
        <g id="Artboard11" serif:id="Artboard1">
            <g id="Layer-1" serif:id="Layer 1" transform="matrix(0.950757,0,0,0.939258,11.8006,9.07232)">
                <g transform="matrix(1,0,0,1,110.546,249.341)">
                    <path d="M0,-235.242L-7.312,-235.242L-7.312,0L0,0" style="fill:none;fill-rule:nonzero;stroke:black;stroke-width:0.5px;"/>
                </g>
                <g transform="matrix(1,0,0,1,103.209,148.5)">
                    <path d="M0,0L7.337,0" style="fill:none;fill-rule:nonzero;stroke:black;stroke-width:0.5px;stroke-linejoin:round;"/>
                </g>
                <g transform="matrix(1,0,0,1,103.209,114.9)">
                    <path d="M0,0L7.337,0" style="fill:none;fill-rule:nonzero;stroke:black;stroke-width:0.5px;stroke-linejoin:round;"/>
                </g>
                <g transform="matrix(1,0,0,1,103.209,182.114)">
                    <path d="M0,0L7.337,0" style="fill:none;fill-rule:nonzero;stroke:black;stroke-width:0.5px;stroke-linejoin:round;"/>
                </g>
                <g transform="matrix(1,0,0,1,103.209,215.727)">
                    <path d="M0,0L7.337,0" style="fill:none;fill-rule:nonzero;stroke:black;stroke-width:0.5px;stroke-linejoin:round;"/>
                </g>
                <g transform="matrix(1,0,0,1,103.209,81.2993)">
                    <path d="M0,0L7.337,0" style="fill:none;fill-rule:nonzero;stroke:black;stroke-width:0.5px;stroke-linejoin:round;"/>
                </g>
                <g transform="matrix(1,0,0,1,103.209,47.6992)">
                    <path d="M0,0L7.337,0" style="fill:none;fill-rule:nonzero;stroke:black;stroke-width:0.5px;stroke-linejoin:round;"/>
                </g>
                <g transform="matrix(1,0,0,1,122.321,278.107)">
                    <path d="M0,-7.311L0,0.001L336.009,0.001L336.009,-7.312" style="fill:none;fill-rule:nonzero;stroke:black;stroke-width:0.5px;"/>
                </g>
                <g transform="matrix(0,-1,-1,0,260.393,274.465)">
                    <path d="M-3.669,3.669L3.669,3.669" style="fill:none;fill-rule:nonzero;stroke:black;stroke-width:0.5px;stroke-linejoin:round;"/>
                </g>
                <g transform="matrix(0,-1,-1,0,226.793,274.465)">
                    <path d="M-3.669,3.669L3.669,3.669" style="fill:none;fill-rule:nonzero;stroke:black;stroke-width:0.5px;stroke-linejoin:round;"/>
                </g>
                <g transform="matrix(0,-1,-1,0,193.193,274.465)">
                    <path d="M-3.669,3.669L3.669,3.669" style="fill:none;fill-rule:nonzero;stroke:black;stroke-width:0.5px;stroke-linejoin:round;"/>
                </g>
                <g transform="matrix(0,-1,-1,0,159.593,274.465)">
                    <path d="M-3.669,3.669L3.669,3.669" style="fill:none;fill-rule:nonzero;stroke:black;stroke-width:0.5px;stroke-linejoin:round;"/>
                </g>
                <g transform="matrix(0,-1,-1,0,429.309,274.465)">
                    <path d="M-3.669,3.669L3.669,3.669" style="fill:none;fill-rule:nonzero;stroke:black;stroke-width:0.5px;stroke-linejoin:round;"/>
                </g>
                <g transform="matrix(0,-1,-1,0,396.625,274.465)">
                    <path d="M-3.669,3.669L3.669,3.669" style="fill:none;fill-rule:nonzero;stroke:black;stroke-width:0.5px;stroke-linejoin:round;"/>
                </g>
                <g transform="matrix(0,-1,-1,0,363.938,274.465)">
                    <path d="M-3.669,3.669L3.669,3.669" style="fill:none;fill-rule:nonzero;stroke:black;stroke-width:0.5px;stroke-linejoin:round;"/>
                </g>
                <g transform="matrix(0,-1,-1,0,331.253,274.465)">
                    <path d="M-3.669,3.669L3.669,3.669" style="fill:none;fill-rule:nonzero;stroke:black;stroke-width:0.5px;stroke-linejoin:round;"/>
                </g>
                <g transform="matrix(0,-1,-1,0,298.569,274.465)">
                    <path d="M-3.669,3.669L3.669,3.669" style="fill:none;fill-rule:nonzero;stroke:black;stroke-width:0.5px;stroke-linejoin:round;"/>
                </g>
                <g transform="matrix(1,0,0,1,122.321,81.3)">
                    <path d="M0,67.2L67.201,67.2L67.201,33.64L100.761,33.64L100.761,0L33.56,0L33.56,33.64L0,33.64L0,67.2Z" style="fill:rgb(255,156,0);"/>
                </g>
                <g transform="matrix(1,0,0,1,256.728,165.647)">
                    <path d="M0,83.694L66.221,72.018L60.342,38.949L93.411,33.069L87.613,0L21.394,11.676L27.272,44.745L-5.797,50.624L0,83.694Z" style="fill:rgb(255,156,0);"/>
                </g>
                <g transform="matrix(1,0,0,1,122.321,249.341)">
                    <path d="M0,-67.2L67.201,-67.2L67.201,-33.64L100.761,-33.64L100.761,0L33.56,0L33.56,-33.64L0,-33.64L0,-67.2Z" style="fill:rgb(255,156,0);"/>
                </g>
                <g transform="matrix(1,0,0,1,256.728,14.099)">
                    <path d="M0,134.401L134.4,134.401L134.4,67.201L201.602,67.201L201.602,0L67.201,0L67.201,67.201L0,67.201L0,134.401Z" style="fill:rgb(255,156,0);"/>
                </g>
                <g transform="matrix(0,-1,-1,0,260.393,249.574)">
                    <path d="M-3.669,3.669L3.669,3.669" style="fill:none;fill-rule:nonzero;stroke:black;stroke-width:1px;stroke-linejoin:round;"/>
                </g>
                <g transform="matrix(1,0,0,1,253.056,249.574)">
                    <path d="M0,0L7.337,0" style="fill:none;fill-rule:nonzero;stroke:black;stroke-width:1px;stroke-linejoin:round;"/>
                </g>
                <g transform="matrix(0,-1,-1,0,125.993,182.139)">
                    <path d="M-3.669,3.669L3.669,3.669" style="fill:none;fill-rule:nonzero;stroke:black;stroke-width:1px;stroke-linejoin:round;"/>
                </g>
                <g transform="matrix(1,0,0,1,118.656,182.139)">
                    <path d="M0,0L7.337,0" style="fill:none;fill-rule:nonzero;stroke:black;stroke-width:1px;stroke-linejoin:round;"/>
                </g>
                <g transform="matrix(0,-1,-1,0,260.393,148.498)">
                    <path d="M-3.669,3.669L3.669,3.669" style="fill:none;fill-rule:nonzero;stroke:black;stroke-width:1px;stroke-linejoin:round;"/>
                </g>
                <g transform="matrix(1,0,0,1,253.057,148.498)">
                    <path d="M0,0L7.336,0" style="fill:none;fill-rule:nonzero;stroke:black;stroke-width:1px;stroke-linejoin:round;"/>
                </g>
                <g>
                    <g transform="matrix(28,0,0,28,1.6191,140.369)">
                        <path d="M0.051,-0.484L0.135,-0L0.217,-0L0.486,-0.484L0.395,-0.484L0.247,-0.202C0.219,-0.147 0.206,-0.115 0.196,-0.089L0.193,-0.089C0.191,-0.116 0.185,-0.153 0.178,-0.208L0.136,-0.484L0.051,-0.484Z" style="fill-rule:nonzero;"/>
                    </g>
                    <g transform="matrix(28,0,0,28,20.2951,140.369)">
                        <path d="M0.195,-0.694C0.132,-0.61 0.065,-0.482 0.064,-0.285C0.064,-0.09 0.132,0.038 0.195,0.121L0.264,0.121C0.193,0.021 0.138,-0.107 0.138,-0.285C0.138,-0.466 0.191,-0.596 0.264,-0.694L0.195,-0.694Z" style="fill-rule:nonzero;"/>
                    </g>
                    <g transform="matrix(28,0,0,28,28.2471,140.369)">
                        <path d="M0.403,-0.075C0.411,-0.013 0.446,0.011 0.489,0.011C0.503,0.011 0.509,0.01 0.519,0.007L0.526,-0.057C0.491,-0.059 0.48,-0.08 0.48,-0.133L0.48,-0.484L0.393,-0.484L0.393,-0.187C0.393,-0.171 0.39,-0.155 0.385,-0.142C0.369,-0.103 0.327,-0.061 0.269,-0.061C0.192,-0.061 0.16,-0.123 0.16,-0.198L0.16,-0.484L0.073,-0.484L0.073,0.02C0.073,0.097 0.077,0.168 0.087,0.198L0.166,0.198C0.156,0.158 0.155,0.069 0.155,0.016L0.155,-0.044C0.176,-0.007 0.217,0.009 0.261,0.009C0.333,0.009 0.38,-0.037 0.4,-0.075L0.403,-0.075Z" style="fill-rule:nonzero;"/>
                    </g>
                    <g transform="matrix(28,0,0,28,43.7311,140.369)">
                        <path d="M0.073,-0L0.159,-0L0.159,-0.292C0.159,-0.307 0.161,-0.322 0.166,-0.335C0.18,-0.379 0.22,-0.423 0.275,-0.423C0.342,-0.423 0.376,-0.367 0.376,-0.29L0.376,-0L0.462,-0L0.462,-0.299C0.462,-0.315 0.465,-0.331 0.469,-0.343C0.484,-0.386 0.523,-0.423 0.573,-0.423C0.644,-0.423 0.678,-0.367 0.678,-0.274L0.678,-0L0.764,-0L0.764,-0.285C0.764,-0.453 0.669,-0.495 0.605,-0.495C0.559,-0.495 0.527,-0.483 0.498,-0.461C0.478,-0.446 0.459,-0.425 0.444,-0.398L0.442,-0.398C0.421,-0.455 0.371,-0.495 0.305,-0.495C0.225,-0.495 0.18,-0.452 0.153,-0.406L0.15,-0.406L0.146,-0.484L0.069,-0.484C0.072,-0.444 0.073,-0.403 0.073,-0.353L0.073,-0Z" style="fill-rule:nonzero;"/>
                    </g>
                    <g transform="matrix(28,0,0,28,67.0831,140.369)">
                        <path d="M0.088,0.121C0.152,0.036 0.219,-0.091 0.219,-0.287C0.219,-0.484 0.152,-0.612 0.088,-0.694L0.02,-0.694C0.092,-0.595 0.146,-0.467 0.146,-0.288C0.146,-0.108 0.091,0.022 0.02,0.121L0.088,0.121Z" style="fill-rule:nonzero;"/>
                    </g>
                </g>
                <g transform="matrix(24,0,0,24,71.9214,256.285)">
                    <rect x="0.03" y="-0.284" width="0.44" height="0.06" style="fill:rgb(35,31,32);fill-rule:nonzero;"/>
                </g>
                <g transform="matrix(24,0,0,24,83.9214,256.285)">
                    <path d="M0.042,-0.033C0.074,-0.012 0.138,0.011 0.211,0.011C0.367,0.011 0.448,-0.08 0.448,-0.184C0.448,-0.275 0.383,-0.335 0.303,-0.351L0.303,-0.353C0.383,-0.382 0.423,-0.439 0.423,-0.506C0.423,-0.585 0.365,-0.661 0.237,-0.661C0.167,-0.661 0.101,-0.636 0.067,-0.611L0.09,-0.547C0.118,-0.567 0.168,-0.59 0.22,-0.59C0.301,-0.59 0.334,-0.544 0.334,-0.492C0.334,-0.415 0.253,-0.382 0.189,-0.382L0.14,-0.382L0.14,-0.316L0.189,-0.316C0.274,-0.316 0.356,-0.277 0.357,-0.186C0.358,-0.132 0.323,-0.06 0.21,-0.06C0.149,-0.06 0.091,-0.085 0.066,-0.101L0.042,-0.033Z" style="fill:rgb(35,31,32);fill-rule:nonzero;"/>
                </g>
                <g transform="matrix(24,0,0,24,83.9214,155.629)">
                    <path d="M0.262,-0.661C0.13,-0.661 0.036,-0.541 0.036,-0.323C0.038,-0.108 0.124,0.011 0.251,0.011C0.395,0.011 0.477,-0.111 0.477,-0.332C0.477,-0.539 0.399,-0.661 0.262,-0.661ZM0.257,-0.593C0.348,-0.593 0.389,-0.488 0.389,-0.328C0.389,-0.162 0.346,-0.057 0.256,-0.057C0.176,-0.057 0.124,-0.153 0.124,-0.322C0.124,-0.499 0.18,-0.593 0.257,-0.593Z" style="fill:rgb(35,31,32);fill-rule:nonzero;"/>
                </g>
                <g transform="matrix(24,0,0,24,71.9214,188.917)">
                    <rect x="0.03" y="-0.284" width="0.44" height="0.06" style="fill:rgb(35,31,32);fill-rule:nonzero;"/>
                </g>
                <g transform="matrix(24,0,0,24,83.9214,188.917)">
                    <path d="M0.236,-0L0.321,-0L0.321,-0.65L0.246,-0.65L0.104,-0.574L0.121,-0.507L0.234,-0.568L0.236,-0.568L0.236,-0Z" style="fill:rgb(35,31,32);fill-rule:nonzero;"/>
                </g>
                <g transform="matrix(24,0,0,24,83.9214,21.2554)">
                    <path d="M0.4,-0L0.4,-0.177L0.491,-0.177L0.491,-0.246L0.4,-0.246L0.4,-0.65L0.305,-0.65L0.015,-0.235L0.015,-0.177L0.317,-0.177L0.317,-0L0.4,-0ZM0.104,-0.246L0.104,-0.248L0.263,-0.469C0.281,-0.499 0.297,-0.527 0.317,-0.565L0.32,-0.565C0.318,-0.531 0.317,-0.497 0.317,-0.463L0.317,-0.246L0.104,-0.246Z" style="fill:rgb(35,31,32);fill-rule:nonzero;"/>
                </g>
                <g transform="matrix(24,0,0,24,446.015,303.34)">
                    <path d="M0.236,-0L0.321,-0L0.321,-0.65L0.246,-0.65L0.104,-0.574L0.121,-0.507L0.234,-0.568L0.236,-0.568L0.236,-0Z" style="fill-rule:nonzero;"/>
                </g>
                <g transform="matrix(24,0,0,24,458.327,303.34)">
                    <path d="M0.262,-0.661C0.13,-0.661 0.036,-0.541 0.036,-0.323C0.038,-0.108 0.124,0.011 0.251,0.011C0.395,0.011 0.477,-0.111 0.477,-0.332C0.477,-0.539 0.399,-0.661 0.262,-0.661ZM0.257,-0.593C0.348,-0.593 0.389,-0.488 0.389,-0.328C0.389,-0.162 0.346,-0.057 0.256,-0.057C0.176,-0.057 0.124,-0.153 0.124,-0.322C0.124,-0.499 0.18,-0.593 0.257,-0.593Z" style="fill-rule:nonzero;"/>
                </g>
                <g transform="matrix(24,0,0,24,250.559,303.34)">
                    <path d="M0.4,-0L0.4,-0.177L0.491,-0.177L0.491,-0.246L0.4,-0.246L0.4,-0.65L0.305,-0.65L0.015,-0.235L0.015,-0.177L0.317,-0.177L0.317,-0L0.4,-0ZM0.104,-0.246L0.104,-0.248L0.263,-0.469C0.281,-0.499 0.297,-0.527 0.317,-0.565L0.32,-0.565C0.318,-0.531 0.317,-0.497 0.317,-0.463L0.317,-0.246L0.104,-0.246Z" style="fill-rule:nonzero;"/>
                </g>
                <g transform="matrix(24,0,0,24,116.159,303.34)">
                    <path d="M0.262,-0.661C0.13,-0.661 0.036,-0.541 0.036,-0.323C0.038,-0.108 0.124,0.011 0.251,0.011C0.395,0.011 0.477,-0.111 0.477,-0.332C0.477,-0.539 0.399,-0.661 0.262,-0.661ZM0.257,-0.593C0.348,-0.593 0.389,-0.488 0.389,-0.328C0.389,-0.162 0.346,-0.057 0.256,-0.057C0.176,-0.057 0.124,-0.153 0.124,-0.322C0.124,-0.499 0.18,-0.593 0.257,-0.593Z" style="fill-rule:nonzero;"/>
                </g>
                <g>
                    <g transform="matrix(28,0,0,28,257.2,325.279)">
                        <path d="M0.417,-0.484L0.37,-0.236C0.35,-0.129 0.273,-0.059 0.213,-0.059C0.156,-0.059 0.135,-0.093 0.135,-0.143C0.135,-0.164 0.138,-0.187 0.144,-0.214L0.195,-0.484L0.112,-0.484L0.06,-0.21C0.054,-0.178 0.051,-0.152 0.051,-0.129C0.051,-0.019 0.116,0.011 0.178,0.011C0.242,0.011 0.306,-0.028 0.349,-0.091L0.351,-0.091L0.338,-0L0.413,-0C0.418,-0.04 0.425,-0.087 0.435,-0.141L0.5,-0.484L0.417,-0.484Z" style="fill-rule:nonzero;"/>
                    </g>
                    <g transform="matrix(28,0,0,28,277.864,325.279)">
                        <path d="M0.195,-0.694C0.132,-0.61 0.065,-0.482 0.064,-0.285C0.064,-0.09 0.132,0.038 0.195,0.121L0.264,0.121C0.193,0.021 0.138,-0.107 0.138,-0.285C0.138,-0.466 0.191,-0.596 0.264,-0.694L0.195,-0.694Z" style="fill-rule:nonzero;"/>
                    </g>
                    <g transform="matrix(28,0,0,28,285.816,325.279)">
                        <path d="M0.403,-0.075C0.411,-0.013 0.446,0.011 0.489,0.011C0.503,0.011 0.509,0.01 0.519,0.007L0.526,-0.057C0.491,-0.059 0.48,-0.08 0.48,-0.133L0.48,-0.484L0.393,-0.484L0.393,-0.187C0.393,-0.171 0.39,-0.155 0.385,-0.142C0.369,-0.103 0.327,-0.061 0.269,-0.061C0.192,-0.061 0.16,-0.123 0.16,-0.198L0.16,-0.484L0.073,-0.484L0.073,0.02C0.073,0.097 0.077,0.168 0.087,0.198L0.166,0.198C0.156,0.158 0.155,0.069 0.155,0.016L0.155,-0.044C0.176,-0.007 0.217,0.009 0.261,0.009C0.333,0.009 0.38,-0.037 0.4,-0.075L0.403,-0.075Z" style="fill-rule:nonzero;"/>
                    </g>
                    <g transform="matrix(28,0,0,28,301.3,325.279)">
                        <path d="M0.073,-0L0.159,-0L0.159,-0.292C0.159,-0.307 0.161,-0.322 0.166,-0.335C0.18,-0.379 0.22,-0.423 0.275,-0.423C0.342,-0.423 0.376,-0.367 0.376,-0.29L0.376,-0L0.462,-0L0.462,-0.299C0.462,-0.315 0.465,-0.331 0.469,-0.343C0.484,-0.386 0.523,-0.423 0.573,-0.423C0.644,-0.423 0.678,-0.367 0.678,-0.274L0.678,-0L0.764,-0L0.764,-0.285C0.764,-0.453 0.669,-0.495 0.605,-0.495C0.559,-0.495 0.527,-0.483 0.498,-0.461C0.478,-0.446 0.459,-0.425 0.444,-0.398L0.442,-0.398C0.421,-0.455 0.371,-0.495 0.305,-0.495C0.225,-0.495 0.18,-0.452 0.153,-0.406L0.15,-0.406L0.146,-0.484L0.069,-0.484C0.072,-0.444 0.073,-0.403 0.073,-0.353L0.073,-0Z" style="fill-rule:nonzero;"/>
                    </g>
                    <g transform="matrix(28,0,0,28,324.652,325.279)">
                        <path d="M0.088,0.121C0.152,0.036 0.219,-0.091 0.219,-0.287C0.219,-0.484 0.152,-0.612 0.088,-0.694L0.02,-0.694C0.092,-0.595 0.146,-0.467 0.146,-0.288C0.146,-0.108 0.091,0.022 0.02,0.121L0.088,0.121Z" style="fill-rule:nonzero;"/>
                    </g>
                </g>
                <g transform="matrix(32,0,0,32,129.752,107.537)">
                    <path d="M0.424,-0.212L0.496,-0L0.589,-0L0.359,-0.674L0.254,-0.674L0.025,-0L0.115,-0L0.185,-0.212L0.424,-0.212ZM0.203,-0.28L0.269,-0.475C0.282,-0.516 0.293,-0.557 0.303,-0.597L0.305,-0.597C0.315,-0.558 0.325,-0.518 0.34,-0.474L0.406,-0.28L0.203,-0.28Z" style="fill:rgb(35,31,32);fill-rule:nonzero;"/>
                </g>
                <g transform="matrix(32,0,0,32,286.232,56.6891)">
                    <path d="M0.076,-0.002C0.105,0.002 0.151,0.006 0.211,0.006C0.321,0.006 0.397,-0.014 0.444,-0.057C0.478,-0.09 0.501,-0.134 0.501,-0.192C0.501,-0.292 0.426,-0.345 0.362,-0.361L0.362,-0.363C0.433,-0.389 0.476,-0.446 0.476,-0.511C0.476,-0.564 0.455,-0.604 0.42,-0.63C0.378,-0.664 0.322,-0.679 0.235,-0.679C0.174,-0.679 0.114,-0.673 0.076,-0.665L0.076,-0.002ZM0.163,-0.606C0.177,-0.609 0.2,-0.612 0.24,-0.612C0.328,-0.612 0.388,-0.581 0.388,-0.502C0.388,-0.437 0.334,-0.389 0.242,-0.389L0.163,-0.389L0.163,-0.606ZM0.163,-0.323L0.235,-0.323C0.33,-0.323 0.409,-0.285 0.409,-0.193C0.409,-0.095 0.326,-0.062 0.236,-0.062C0.205,-0.062 0.18,-0.063 0.163,-0.066L0.163,-0.323Z" style="fill:rgb(35,31,32);fill-rule:nonzero;"/>
                </g>
                <g transform="matrix(32,0,0,32,127.48,244.113)">
                    <path d="M0.529,-0.091C0.494,-0.074 0.44,-0.063 0.387,-0.063C0.223,-0.063 0.128,-0.169 0.128,-0.334C0.128,-0.511 0.233,-0.612 0.391,-0.612C0.447,-0.612 0.494,-0.6 0.527,-0.584L0.548,-0.655C0.525,-0.667 0.472,-0.685 0.388,-0.685C0.179,-0.685 0.036,-0.542 0.036,-0.331C0.036,-0.11 0.179,0.01 0.369,0.01C0.451,0.01 0.515,-0.006 0.547,-0.022L0.529,-0.091Z" style="fill:rgb(35,31,32);fill-rule:nonzero;"/>
                </g>
                <g transform="matrix(32,0,0,32,251.064,205.297)">
                    <path d="M0.076,-0.002C0.12,0.003 0.172,0.006 0.234,0.006C0.365,0.006 0.469,-0.028 0.532,-0.091C0.595,-0.153 0.629,-0.243 0.629,-0.353C0.629,-0.462 0.594,-0.54 0.534,-0.595C0.475,-0.65 0.386,-0.679 0.261,-0.679C0.192,-0.679 0.129,-0.673 0.076,-0.665L0.076,-0.002ZM0.163,-0.601C0.186,-0.606 0.22,-0.61 0.265,-0.61C0.449,-0.61 0.539,-0.509 0.538,-0.35C0.538,-0.168 0.437,-0.064 0.251,-0.064C0.217,-0.064 0.185,-0.065 0.163,-0.069L0.163,-0.601Z" style="fill:rgb(35,31,32);fill-rule:nonzero;"/>
                </g>
            </g>
        </g>
    </g>
</svg>
