<?xml version="1.0" encoding="UTF-8" standalone="no"?>
<!DOCTYPE svg PUBLIC "-//W3C//DTD SVG 1.1//EN" "http://www.w3.org/Graphics/SVG/1.1/DTD/svg11.dtd">
<svg width="100%" height="100%" viewBox="0 0 495 345" version="1.1" xmlns="http://www.w3.org/2000/svg" xmlns:xlink="http://www.w3.org/1999/xlink" xml:space="preserve" xmlns:serif="http://www.serif.com/" style="fill-rule:evenodd;clip-rule:evenodd;stroke-miterlimit:10;">
    <g transform="matrix(1.04356,0,0,1.05675,0,0)">
        <rect id="Artboard1" x="0" y="0" width="473.667" height="326" style="fill:none;"/>
        <g id="Artboard11" serif:id="Artboard1">
            <g id="Layer-1" serif:id="Layer 1" transform="matrix(0.958258,0,0,0.946299,6.40642,7.02923)">
                <g>
                    <g transform="matrix(28,0,0,28,7.6377,141.182)">
                        <path d="M0.051,-0.484L0.135,-0L0.217,-0L0.486,-0.484L0.395,-0.484L0.247,-0.202C0.219,-0.147 0.206,-0.115 0.196,-0.089L0.193,-0.089C0.191,-0.116 0.185,-0.153 0.178,-0.208L0.136,-0.484L0.051,-0.484Z" style="fill-rule:nonzero;"/>
                    </g>
                    <g transform="matrix(20,0,0,20,20.3775,148.182)">
                        <path d="M0.421,-0C0.415,-0.033 0.413,-0.074 0.413,-0.116L0.413,-0.297C0.413,-0.394 0.377,-0.495 0.229,-0.495C0.168,-0.495 0.11,-0.478 0.07,-0.452L0.09,-0.394C0.124,-0.416 0.171,-0.43 0.216,-0.43C0.315,-0.43 0.326,-0.358 0.326,-0.318L0.326,-0.308C0.139,-0.309 0.035,-0.245 0.035,-0.128C0.035,-0.058 0.085,0.011 0.183,0.011C0.252,0.011 0.304,-0.023 0.331,-0.061L0.334,-0.061L0.341,-0L0.421,-0ZM0.328,-0.163C0.328,-0.154 0.326,-0.144 0.323,-0.135C0.309,-0.094 0.269,-0.054 0.206,-0.054C0.161,-0.054 0.123,-0.081 0.123,-0.138C0.123,-0.232 0.232,-0.249 0.328,-0.247L0.328,-0.163Z" style="fill-rule:nonzero;"/>
                    </g>
                    <g transform="matrix(20,0,0,20,30.0174,148.182)">
                        <rect x="0.073" y="-0.71" width="0.088" height="0.71" style="fill-rule:nonzero;"/>
                    </g>
                    <g transform="matrix(20,0,0,20,34.7373,148.182)">
                        <path d="M0.161,-0L0.161,-0.484L0.073,-0.484L0.073,-0L0.161,-0ZM0.117,-0.675C0.085,-0.675 0.062,-0.651 0.062,-0.62C0.062,-0.59 0.084,-0.566 0.115,-0.566C0.15,-0.566 0.172,-0.59 0.171,-0.62C0.171,-0.651 0.15,-0.675 0.117,-0.675Z" style="fill-rule:nonzero;"/>
                    </g>
                    <g transform="matrix(20,0,0,20,39.4171,148.182)">
                        <path d="M0.413,-0.484L0.409,-0.411L0.407,-0.411C0.386,-0.451 0.34,-0.495 0.256,-0.495C0.145,-0.495 0.038,-0.402 0.038,-0.238C0.038,-0.104 0.124,-0.002 0.244,-0.002C0.319,-0.002 0.371,-0.038 0.398,-0.083L0.4,-0.083L0.4,-0.029C0.4,0.093 0.334,0.14 0.244,0.14C0.184,0.14 0.134,0.122 0.102,0.102L0.08,0.169C0.119,0.195 0.183,0.209 0.241,0.209C0.302,0.209 0.37,0.195 0.417,0.151C0.464,0.109 0.486,0.041 0.486,-0.07L0.486,-0.351C0.486,-0.41 0.488,-0.449 0.49,-0.484L0.413,-0.484ZM0.399,-0.206C0.399,-0.191 0.397,-0.174 0.392,-0.159C0.373,-0.103 0.324,-0.069 0.27,-0.069C0.175,-0.069 0.127,-0.148 0.127,-0.243C0.127,-0.355 0.187,-0.426 0.271,-0.426C0.335,-0.426 0.378,-0.384 0.394,-0.333C0.398,-0.321 0.399,-0.308 0.399,-0.293L0.399,-0.206Z" style="fill-rule:nonzero;"/>
                    </g>
                    <g transform="matrix(20,0,0,20,50.597,148.182)">
                        <path d="M0.073,-0L0.161,-0L0.161,-0.291C0.161,-0.306 0.163,-0.321 0.167,-0.332C0.182,-0.381 0.227,-0.422 0.285,-0.422C0.368,-0.422 0.397,-0.357 0.397,-0.279L0.397,-0L0.485,-0L0.485,-0.289C0.485,-0.455 0.381,-0.495 0.314,-0.495C0.234,-0.495 0.178,-0.45 0.154,-0.404L0.152,-0.404L0.147,-0.484L0.069,-0.484C0.072,-0.444 0.073,-0.403 0.073,-0.353L0.073,-0Z" style="fill-rule:nonzero;"/>
                    </g>
                </g>
                <g>
                    <g transform="matrix(28,0,0,28,253.93,310.653)">
                        <path d="M0.417,-0.484L0.37,-0.236C0.35,-0.129 0.273,-0.059 0.213,-0.059C0.156,-0.059 0.135,-0.093 0.135,-0.143C0.135,-0.164 0.138,-0.187 0.144,-0.214L0.195,-0.484L0.112,-0.484L0.06,-0.21C0.054,-0.178 0.051,-0.152 0.051,-0.129C0.051,-0.019 0.116,0.011 0.178,0.011C0.242,0.011 0.306,-0.028 0.349,-0.091L0.351,-0.091L0.338,-0L0.413,-0C0.418,-0.04 0.425,-0.087 0.435,-0.141L0.5,-0.484L0.417,-0.484Z" style="fill-rule:nonzero;"/>
                    </g>
                    <g transform="matrix(20,0,0,20,268.658,317.653)">
                        <path d="M0.421,-0C0.415,-0.033 0.413,-0.074 0.413,-0.116L0.413,-0.297C0.413,-0.394 0.377,-0.495 0.229,-0.495C0.168,-0.495 0.11,-0.478 0.07,-0.452L0.09,-0.394C0.124,-0.416 0.171,-0.43 0.216,-0.43C0.315,-0.43 0.326,-0.358 0.326,-0.318L0.326,-0.308C0.139,-0.309 0.035,-0.245 0.035,-0.128C0.035,-0.058 0.085,0.011 0.183,0.011C0.252,0.011 0.304,-0.023 0.331,-0.061L0.334,-0.061L0.341,-0L0.421,-0ZM0.328,-0.163C0.328,-0.154 0.326,-0.144 0.323,-0.135C0.309,-0.094 0.269,-0.054 0.206,-0.054C0.161,-0.054 0.123,-0.081 0.123,-0.138C0.123,-0.232 0.232,-0.249 0.328,-0.247L0.328,-0.163Z" style="fill-rule:nonzero;"/>
                    </g>
                    <g transform="matrix(20,0,0,20,278.298,317.653)">
                        <rect x="0.073" y="-0.71" width="0.088" height="0.71" style="fill-rule:nonzero;"/>
                    </g>
                    <g transform="matrix(20,0,0,20,283.018,317.653)">
                        <path d="M0.161,-0L0.161,-0.484L0.073,-0.484L0.073,-0L0.161,-0ZM0.117,-0.675C0.085,-0.675 0.062,-0.651 0.062,-0.62C0.062,-0.59 0.084,-0.566 0.115,-0.566C0.15,-0.566 0.172,-0.59 0.171,-0.62C0.171,-0.651 0.15,-0.675 0.117,-0.675Z" style="fill-rule:nonzero;"/>
                    </g>
                    <g transform="matrix(20,0,0,20,287.698,317.653)">
                        <path d="M0.413,-0.484L0.409,-0.411L0.407,-0.411C0.386,-0.451 0.34,-0.495 0.256,-0.495C0.145,-0.495 0.038,-0.402 0.038,-0.238C0.038,-0.104 0.124,-0.002 0.244,-0.002C0.319,-0.002 0.371,-0.038 0.398,-0.083L0.4,-0.083L0.4,-0.029C0.4,0.093 0.334,0.14 0.244,0.14C0.184,0.14 0.134,0.122 0.102,0.102L0.08,0.169C0.119,0.195 0.183,0.209 0.241,0.209C0.302,0.209 0.37,0.195 0.417,0.151C0.464,0.109 0.486,0.041 0.486,-0.07L0.486,-0.351C0.486,-0.41 0.488,-0.449 0.49,-0.484L0.413,-0.484ZM0.399,-0.206C0.399,-0.191 0.397,-0.174 0.392,-0.159C0.373,-0.103 0.324,-0.069 0.27,-0.069C0.175,-0.069 0.127,-0.148 0.127,-0.243C0.127,-0.355 0.187,-0.426 0.271,-0.426C0.335,-0.426 0.378,-0.384 0.394,-0.333C0.398,-0.321 0.399,-0.308 0.399,-0.293L0.399,-0.206Z" style="fill-rule:nonzero;"/>
                    </g>
                    <g transform="matrix(20,0,0,20,298.878,317.653)">
                        <path d="M0.073,-0L0.161,-0L0.161,-0.291C0.161,-0.306 0.163,-0.321 0.167,-0.332C0.182,-0.381 0.227,-0.422 0.285,-0.422C0.368,-0.422 0.397,-0.357 0.397,-0.279L0.397,-0L0.485,-0L0.485,-0.289C0.485,-0.455 0.381,-0.495 0.314,-0.495C0.234,-0.495 0.178,-0.45 0.154,-0.404L0.152,-0.404L0.147,-0.484L0.069,-0.484C0.072,-0.444 0.073,-0.403 0.073,-0.353L0.073,-0Z" style="fill-rule:nonzero;"/>
                    </g>
                </g>
                <g transform="matrix(24,0,0,24,275.798,291.32)">
                    <path d="M0.236,-0L0.321,-0L0.321,-0.65L0.246,-0.65L0.104,-0.574L0.121,-0.507L0.234,-0.568L0.236,-0.568L0.236,-0Z" style="fill:rgb(35,31,32);fill-rule:nonzero;"/>
                </g>
                <g transform="matrix(24,0,0,24,103.622,291.32)">
                    <path d="M0.262,-0.661C0.13,-0.661 0.036,-0.541 0.036,-0.323C0.038,-0.108 0.124,0.011 0.251,0.011C0.395,0.011 0.477,-0.111 0.477,-0.332C0.477,-0.539 0.399,-0.661 0.262,-0.661ZM0.257,-0.593C0.348,-0.593 0.389,-0.488 0.389,-0.328C0.389,-0.162 0.346,-0.057 0.256,-0.057C0.176,-0.057 0.124,-0.153 0.124,-0.322C0.124,-0.499 0.18,-0.593 0.257,-0.593Z" style="fill:rgb(35,31,32);fill-rule:nonzero;"/>
                </g>
                <g transform="matrix(24,0,0,24,76.1419,85.4963)">
                    <path d="M0.46,-0L0.46,-0.073L0.168,-0.073L0.168,-0.075L0.22,-0.123C0.357,-0.255 0.444,-0.352 0.444,-0.472C0.444,-0.565 0.385,-0.661 0.245,-0.661C0.17,-0.661 0.106,-0.633 0.061,-0.595L0.089,-0.533C0.119,-0.558 0.168,-0.588 0.227,-0.588C0.324,-0.588 0.356,-0.527 0.356,-0.461C0.355,-0.363 0.28,-0.279 0.114,-0.121L0.045,-0.054L0.045,-0L0.46,-0Z" style="fill:rgb(35,31,32);fill-rule:nonzero;"/>
                </g>
                <g transform="matrix(24,0,0,24,76.1419,144.488)">
                    <path d="M0.236,-0L0.321,-0L0.321,-0.65L0.246,-0.65L0.104,-0.574L0.121,-0.507L0.234,-0.568L0.236,-0.568L0.236,-0Z" style="fill:rgb(35,31,32);fill-rule:nonzero;"/>
                </g>
                <g transform="matrix(24,0,0,24,76.1419,203.312)">
                    <path d="M0.262,-0.661C0.13,-0.661 0.036,-0.541 0.036,-0.323C0.038,-0.108 0.124,0.011 0.251,0.011C0.395,0.011 0.477,-0.111 0.477,-0.332C0.477,-0.539 0.399,-0.661 0.262,-0.661ZM0.257,-0.593C0.348,-0.593 0.389,-0.488 0.389,-0.328C0.389,-0.162 0.346,-0.057 0.256,-0.057C0.176,-0.057 0.124,-0.153 0.124,-0.322C0.124,-0.499 0.18,-0.593 0.257,-0.593Z" style="fill:rgb(35,31,32);fill-rule:nonzero;"/>
                </g>
                <g transform="matrix(24,0,0,24,447.926,291.32)">
                    <path d="M0.46,-0L0.46,-0.073L0.168,-0.073L0.168,-0.075L0.22,-0.123C0.357,-0.255 0.444,-0.352 0.444,-0.472C0.444,-0.565 0.385,-0.661 0.245,-0.661C0.17,-0.661 0.106,-0.633 0.061,-0.595L0.089,-0.533C0.119,-0.558 0.168,-0.588 0.227,-0.588C0.324,-0.588 0.356,-0.527 0.356,-0.461C0.355,-0.363 0.28,-0.279 0.114,-0.121L0.045,-0.054L0.045,-0L0.46,-0Z" style="fill:rgb(35,31,32);fill-rule:nonzero;"/>
                </g>
                <g transform="matrix(1,0,0,1,127.123,245.472)">
                    <path d="M0,-47.48L3.651,-47.48L3.651,-50.827L-2.74,-50.827L-5.326,-49.914L-8.369,-48.393L-10.195,-46.11L-10.957,-43.828L-11.414,-42.153L-11.414,-34.241L-17.195,-34.241L-17.195,-31.197L-11.414,-31.197L-11.414,3.347L-7.457,3.347L-7.457,-31.197L2.587,-31.197L2.587,-34.241L-7.457,-34.241L-7.457,-40.936L-7,-43.675L-5.174,-45.957L-2.435,-47.175L0,-47.48Z" style="fill:rgb(255,0,0);"/>
                </g>
                <g transform="matrix(1,0,0,1,148.428,213.513)">
                    <path d="M0,32.72L-2.739,32.415L-5.631,31.656L-7.762,29.675L-8.826,27.089L-8.826,6.392L-8.218,3.958L-6.24,1.676L-3.348,0.611L-1.521,0.154L0,0.154L0,-3.346L-3.348,-3.195L-6.087,-2.585L-8.979,-1.369L-10.805,0.611L-12.326,3.35L-12.479,6.392L-12.479,26.479L-12.326,29.068L-11.108,31.806L-9.131,33.632L-6.543,35.154L-3.501,35.763L0,36.066L0,32.72Z" style="fill:rgb(255,0,0);"/>
                </g>
                <g transform="matrix(1,0,0,1,150.862,210.167)">
                    <path d="M0,39.412L3.652,39.109L6.545,38.5L9.436,36.978L11.262,35.152L12.326,32.414L12.783,29.825L12.783,9.739L12.326,6.696L11.11,3.957L8.979,1.977L6.24,0.762L3.35,0.152L0,0L0,3.5L2.739,3.652L5.479,4.565L7.762,6.24L8.828,8.979L8.828,29.825L8.371,32.262L6.545,34.391L3.806,35.609L2.283,35.762L0,36.066L0,39.412Z" style="fill:rgb(255,0,0);"/>
                </g>
                <g transform="matrix(1,0,0,1,186.471,213.513)">
                    <path d="M0,32.72L-2.586,32.415L-5.631,31.656L-7.913,29.675L-8.826,27.089L-8.826,6.392L-8.218,3.958L-6.392,1.676L-3.499,0.611L-1.37,0.154L0,0.154L0,-3.346L-3.499,-3.195L-6.238,-2.585L-9.131,-1.369L-10.957,0.611L-12.174,3.35L-12.63,6.392L-12.63,26.479L-12.479,29.068L-11.26,31.806L-9.282,33.632L-6.392,35.154L-3.499,35.763L0,36.066L0,32.72Z" style="fill:rgb(255,0,0);"/>
                </g>
                <g transform="matrix(1,0,0,1,188.753,210.167)">
                    <path d="M0,39.412L3.806,39.109L6.544,38.5L9.436,36.978L11.261,35.152L12.631,32.414L12.782,29.825L12.782,9.739L12.326,6.696L11.11,3.957L9.284,1.977L6.239,0.762L3.652,0.152L0,0L0,3.5L3.044,3.652L5.632,4.565L7.761,6.24L8.827,8.979L8.979,29.825L8.37,32.262L6.696,34.391L3.806,35.609L2.282,35.762L0,36.066L0,39.412Z" style="fill:rgb(255,0,0);"/>
                </g>
                <g transform="matrix(1,0,0,1,127.123,160.795)">
                    <path d="M0,-47.479L3.651,-47.479L3.651,-50.827L-2.74,-50.827L-5.326,-49.914L-8.369,-48.392L-10.195,-46.11L-10.957,-43.827L-11.414,-42.152L-11.414,-34.24L-17.195,-34.24L-17.195,-31.196L-11.414,-31.196L-11.414,3.348L-7.457,3.348L-7.457,-31.196L2.587,-31.196L2.587,-34.24L-7.457,-34.24L-7.457,-40.935L-7,-43.674L-5.174,-45.956L-2.435,-47.174L0,-47.479Z" style="fill:rgb(255,0,0);"/>
                </g>
                <g transform="matrix(1,0,0,1,148.428,128.837)">
                    <path d="M0,32.721L-2.739,32.414L-5.631,31.655L-7.762,29.675L-8.826,27.09L-8.826,6.392L-8.218,3.958L-6.24,1.676L-3.348,0.611L-1.521,0.155L0,0.155L0,-3.346L-3.348,-3.195L-6.087,-2.585L-8.979,-1.368L-10.805,0.611L-12.326,3.35L-12.479,6.392L-12.479,26.48L-12.326,29.069L-11.108,31.808L-9.131,33.634L-6.543,35.154L-3.501,35.763L0,36.067L0,32.721Z" style="fill:rgb(255,0,0);"/>
                </g>
                <g transform="matrix(1,0,0,1,150.862,125.49)">
                    <path d="M0,39.413L3.652,39.11L6.545,38.5L9.436,36.98L11.262,35.154L12.326,32.415L12.783,29.826L12.783,9.739L12.326,6.697L11.11,3.957L8.979,1.978L6.24,0.762L3.35,0.152L0,0L0,3.501L2.739,3.653L5.479,4.566L7.762,6.24L8.828,8.979L8.828,29.826L8.371,32.262L6.545,34.391L3.806,35.611L2.283,35.761L0,36.067L0,39.413Z" style="fill:rgb(255,0,0);"/>
                </g>
                <g transform="matrix(1,0,0,1,186.471,128.837)">
                    <path d="M0,32.721L-2.586,32.414L-5.631,31.655L-7.913,29.675L-8.826,27.09L-8.826,6.392L-8.218,3.958L-6.392,1.676L-3.499,0.611L-1.37,0.155L0,0.155L0,-3.346L-3.499,-3.195L-6.238,-2.585L-9.131,-1.368L-10.957,0.611L-12.174,3.35L-12.63,6.392L-12.63,26.48L-12.479,29.069L-11.26,31.808L-9.282,33.634L-6.392,35.154L-3.499,35.763L0,36.067L0,32.721Z" style="fill:rgb(255,0,0);"/>
                </g>
                <g transform="matrix(1,0,0,1,188.753,125.49)">
                    <path d="M0,39.413L3.806,39.11L6.544,38.5L9.436,36.98L11.261,35.154L12.631,32.415L12.782,29.826L12.782,9.739L12.326,6.697L11.11,3.957L9.284,1.978L6.239,0.762L3.652,0.152L0,0L0,3.501L3.044,3.653L5.632,4.566L7.761,6.24L8.827,8.979L8.979,29.826L8.37,32.262L6.696,34.391L3.806,35.611L2.282,35.761L0,36.067L0,39.413Z" style="fill:rgb(255,0,0);"/>
                </g>
                <g transform="matrix(1,0,0,1,127.123,76.1037)">
                    <path d="M0,-47.633L3.651,-47.633L3.651,-50.828L-2.74,-50.828L-5.326,-50.067L-8.369,-48.546L-10.195,-46.263L-10.957,-43.981L-11.414,-42.306L-11.414,-34.394L-17.195,-34.394L-17.195,-31.35L-11.414,-31.35L-11.414,3.195L-7.457,3.195L-7.457,-31.35L2.587,-31.35L2.587,-34.394L-7.457,-34.394L-7.457,-41.089L-7,-43.828L-5.174,-46.111L-2.435,-47.328L0,-47.633Z" style="fill:rgb(255,0,0);"/>
                </g>
                <g transform="matrix(1,0,0,1,148.428,43.9934)">
                    <path d="M0,32.717L-2.739,32.412L-5.631,31.653L-7.762,29.673L-8.826,27.087L-8.826,6.39L-8.218,3.956L-6.24,1.674L-3.348,0.608L-1.521,0.152L0,0.152L0,-3.348L-3.348,-3.197L-6.087,-2.588L-8.979,-1.37L-10.805,0.608L-12.326,3.347L-12.479,6.39L-12.479,26.477L-12.326,29.065L-11.108,31.804L-9.131,33.63L-6.543,35.152L-3.501,35.761L0,36.065L0,32.717Z" style="fill:rgb(255,0,0);"/>
                </g>
                <g transform="matrix(1,0,0,1,150.862,40.6451)">
                    <path d="M0,39.413L3.652,39.11L6.545,38.5L9.436,36.978L11.262,35.152L12.326,32.413L12.783,29.826L12.783,9.739L12.326,6.696L11.11,3.956L8.979,1.978L6.24,0.761L3.35,0.152L0,0L0,3.5L2.739,3.652L5.479,4.565L7.762,6.239L8.828,8.978L8.828,29.826L8.371,32.262L6.545,34.391L3.806,35.609L2.283,35.761L0,36.065L0,39.413Z" style="fill:rgb(255,0,0);"/>
                </g>
                <g transform="matrix(1,0,0,1,186.471,43.9934)">
                    <path d="M0,32.717L-2.586,32.412L-5.631,31.653L-7.913,29.673L-8.826,27.087L-8.826,6.39L-8.218,3.956L-6.392,1.674L-3.499,0.608L-1.37,0.152L0,0.152L0,-3.348L-3.499,-3.197L-6.238,-2.588L-9.131,-1.37L-10.957,0.608L-12.174,3.347L-12.63,6.39L-12.63,26.477L-12.479,29.065L-11.26,31.804L-9.282,33.63L-6.392,35.152L-3.499,35.761L0,36.065L0,32.717Z" style="fill:rgb(255,0,0);"/>
                </g>
                <g transform="matrix(1,0,0,1,188.753,40.6451)">
                    <path d="M0,39.413L3.806,39.11L6.544,38.5L9.436,36.978L11.261,35.152L12.631,32.413L12.782,29.826L12.782,9.739L12.326,6.696L11.11,3.956L9.284,1.978L6.239,0.761L3.652,0.152L0,0L0,3.5L3.044,3.652L5.632,4.565L7.761,6.239L8.827,8.978L8.979,29.826L8.37,32.262L6.696,34.391L3.806,35.609L2.282,35.761L0,36.065L0,39.413Z" style="fill:rgb(255,0,0);"/>
                </g>
                <g transform="matrix(1,0,0,1,379.812,245.472)">
                    <path d="M0,-47.48L3.502,-47.48L3.502,-50.827L-2.891,-50.827L-5.629,-49.914L-8.369,-48.393L-10.195,-46.11L-11.107,-43.828L-11.564,-42.153L-11.564,-34.241L-17.348,-34.241L-17.348,-31.197L-11.564,-31.197L-11.564,3.347L-7.76,3.347L-7.76,-31.197L2.283,-31.197L2.283,-34.241L-7.76,-34.241L-7.76,-40.936L-7.15,-43.675L-5.324,-45.957L-2.586,-47.175L0,-47.48Z" style="fill:rgb(255,0,0);"/>
                </g>
                <g transform="matrix(1,0,0,1,400.967,213.513)">
                    <path d="M0,32.72L-2.588,32.415L-5.633,31.656L-7.609,29.675L-8.674,27.089L-8.674,6.392L-8.219,3.958L-6.24,1.676L-3.35,0.611L-1.369,0.154L0,0.154L0,-3.346L-3.35,-3.195L-6.24,-2.585L-8.979,-1.369L-10.805,0.611L-12.176,3.35L-12.631,6.392L-12.631,26.479L-12.176,29.068L-10.957,31.806L-9.285,33.632L-6.393,35.154L-3.502,35.763L0,36.066L0,32.72Z" style="fill:rgb(255,0,0);"/>
                </g>
                <g transform="matrix(1,0,0,1,403.553,210.167)">
                    <path d="M0,39.412L3.5,39.109L6.391,38.5L9.129,36.978L10.955,35.152L12.326,32.414L12.631,29.825L12.631,9.739L12.326,6.696L10.805,3.957L8.979,1.977L5.934,0.762L3.348,0.152L0,0L0,3.5L2.738,3.652L5.326,4.565L7.457,6.24L8.674,8.979L8.674,29.825L8.217,32.262L6.391,34.391L3.652,35.609L1.979,35.762L0,36.066L0,39.412Z" style="fill:rgb(255,0,0);"/>
                </g>
                <g transform="matrix(1,0,0,1,438.857,213.513)">
                    <path d="M0,32.72L-2.588,32.415L-5.631,31.656L-7.609,29.675L-8.674,27.089L-8.674,6.392L-8.066,3.958L-6.24,1.676L-3.195,0.611L-1.369,0.154L0,0.154L0,-3.346L-3.195,-3.195L-5.934,-2.585L-8.826,-1.369L-10.805,0.611L-12.174,3.35L-12.479,6.392L-12.479,26.479L-12.174,29.068L-10.957,31.806L-9.131,33.632L-6.24,35.154L-3.5,35.763L0,36.066L0,32.72Z" style="fill:rgb(255,0,0);"/>
                </g>
                <g transform="matrix(1,0,0,1,441.443,210.167)">
                    <path d="M0,39.412L3.5,39.109L6.391,38.5L9.283,36.978L11.262,35.152L12.48,32.414L12.631,29.825L12.631,9.739L12.326,6.696L10.957,3.957L9.131,1.977L6.24,0.762L3.5,0.152L0,0L0,3.5L2.893,3.652L5.326,4.565L7.762,6.24L8.674,8.979L8.674,29.825L8.371,32.262L6.391,34.391L3.805,35.609L2.283,35.762L0,36.066L0,39.412Z" style="fill:rgb(255,0,0);"/>
                </g>
                <g transform="matrix(1,0,0,1,379.812,160.795)">
                    <path d="M0,-47.479L3.502,-47.479L3.502,-50.827L-2.891,-50.827L-5.629,-49.914L-8.369,-48.392L-10.195,-46.11L-11.107,-43.827L-11.564,-42.152L-11.564,-34.24L-17.348,-34.24L-17.348,-31.196L-11.564,-31.196L-11.564,3.348L-7.76,3.348L-7.76,-31.196L2.283,-31.196L2.283,-34.24L-7.76,-34.24L-7.76,-40.935L-7.15,-43.674L-5.324,-45.956L-2.586,-47.174L0,-47.479Z" style="fill:rgb(255,0,0);"/>
                </g>
                <g transform="matrix(1,0,0,1,400.967,128.837)">
                    <path d="M0,32.721L-2.588,32.414L-5.633,31.655L-7.609,29.675L-8.674,27.09L-8.674,6.392L-8.219,3.958L-6.24,1.676L-3.35,0.611L-1.369,0.155L0,0.155L0,-3.346L-3.35,-3.195L-6.24,-2.585L-8.979,-1.368L-10.805,0.611L-12.176,3.35L-12.631,6.392L-12.631,26.48L-12.176,29.069L-10.957,31.808L-9.285,33.634L-6.393,35.154L-3.502,35.763L0,36.067L0,32.721Z" style="fill:rgb(255,0,0);"/>
                </g>
                <g transform="matrix(1,0,0,1,403.553,125.49)">
                    <path d="M0,39.413L3.5,39.11L6.391,38.5L9.129,36.98L10.955,35.154L12.326,32.415L12.631,29.826L12.631,9.739L12.326,6.697L10.805,3.957L8.979,1.978L5.934,0.762L3.348,0.152L0,0L0,3.501L2.738,3.653L5.326,4.566L7.457,6.24L8.674,8.979L8.674,29.826L8.217,32.262L6.391,34.391L3.652,35.611L1.979,35.761L0,36.067L0,39.413Z" style="fill:rgb(255,0,0);"/>
                </g>
                <g transform="matrix(1,0,0,1,438.857,128.837)">
                    <path d="M0,32.721L-2.588,32.414L-5.631,31.655L-7.609,29.675L-8.674,27.09L-8.674,6.392L-8.066,3.958L-6.24,1.676L-3.195,0.611L-1.369,0.155L0,0.155L0,-3.346L-3.195,-3.195L-5.934,-2.585L-8.826,-1.368L-10.805,0.611L-12.174,3.35L-12.479,6.392L-12.479,26.48L-12.174,29.069L-10.957,31.808L-9.131,33.634L-6.24,35.154L-3.5,35.763L0,36.067L0,32.721Z" style="fill:rgb(255,0,0);"/>
                </g>
                <g transform="matrix(1,0,0,1,441.443,125.49)">
                    <path d="M0,39.413L3.5,39.11L6.391,38.5L9.283,36.98L11.262,35.154L12.48,32.415L12.631,29.826L12.631,9.739L12.326,6.697L10.957,3.957L9.131,1.978L6.24,0.762L3.5,0.152L0,0L0,3.501L2.893,3.653L5.326,4.566L7.762,6.24L8.674,8.979L8.674,29.826L8.371,32.262L6.391,34.391L3.805,35.611L2.283,35.761L0,36.067L0,39.413Z" style="fill:rgb(255,0,0);"/>
                </g>
                <g transform="matrix(1,0,0,1,379.812,76.1037)">
                    <path d="M0,-47.633L3.502,-47.633L3.502,-50.828L-2.891,-50.828L-5.629,-50.067L-8.369,-48.546L-10.195,-46.263L-11.107,-43.981L-11.564,-42.306L-11.564,-34.394L-17.348,-34.394L-17.348,-31.35L-11.564,-31.35L-11.564,3.195L-7.76,3.195L-7.76,-31.35L2.283,-31.35L2.283,-34.394L-7.76,-34.394L-7.76,-41.089L-7.15,-43.828L-5.324,-46.111L-2.586,-47.328L0,-47.633Z" style="fill:rgb(255,0,0);"/>
                </g>
                <g transform="matrix(1,0,0,1,400.967,43.9934)">
                    <path d="M0,32.717L-2.588,32.412L-5.633,31.653L-7.609,29.673L-8.674,27.087L-8.674,6.39L-8.219,3.956L-6.24,1.674L-3.35,0.608L-1.369,0.152L0,0.152L0,-3.348L-3.35,-3.197L-6.24,-2.588L-8.979,-1.37L-10.805,0.608L-12.176,3.347L-12.631,6.39L-12.631,26.477L-12.176,29.065L-10.957,31.804L-9.285,33.63L-6.393,35.152L-3.502,35.761L0,36.065L0,32.717Z" style="fill:rgb(255,0,0);"/>
                </g>
                <g transform="matrix(1,0,0,1,403.553,40.6451)">
                    <path d="M0,39.413L3.5,39.11L6.391,38.5L9.129,36.978L10.955,35.152L12.326,32.413L12.631,29.826L12.631,9.739L12.326,6.696L10.805,3.956L8.979,1.978L5.934,0.761L3.348,0.152L0,0L0,3.5L2.738,3.652L5.326,4.565L7.457,6.239L8.674,8.978L8.674,29.826L8.217,32.262L6.391,34.391L3.652,35.609L1.979,35.761L0,36.065L0,39.413Z" style="fill:rgb(255,0,0);"/>
                </g>
                <g transform="matrix(1,0,0,1,438.857,43.9934)">
                    <path d="M0,32.717L-2.588,32.412L-5.631,31.653L-7.609,29.673L-8.674,27.087L-8.674,6.39L-8.066,3.956L-6.24,1.674L-3.195,0.608L-1.369,0.152L0,0.152L0,-3.348L-3.195,-3.197L-5.934,-2.588L-8.826,-1.37L-10.805,0.608L-12.174,3.347L-12.479,6.39L-12.479,26.477L-12.174,29.065L-10.957,31.804L-9.131,33.63L-6.24,35.152L-3.5,35.761L0,36.065L0,32.717Z" style="fill:rgb(255,0,0);"/>
                </g>
                <g transform="matrix(1,0,0,1,441.443,40.6451)">
                    <path d="M0,39.413L3.5,39.11L6.391,38.5L9.283,36.978L11.262,35.152L12.48,32.413L12.631,29.826L12.631,9.739L12.326,6.696L10.957,3.956L9.131,1.978L6.24,0.761L3.5,0.152L0,0L0,3.5L2.893,3.652L5.326,4.565L7.762,6.239L8.674,8.978L8.674,29.826L8.371,32.262L6.391,34.391L3.805,35.609L2.283,35.761L0,36.065L0,39.413Z" style="fill:rgb(255,0,0);"/>
                </g>
                <g transform="matrix(1,0,0,1,253.416,245.472)">
                    <path d="M0,-47.48L3.5,-47.48L3.5,-50.827L-2.891,-50.827L-5.479,-49.914L-8.369,-48.393L-10.195,-46.11L-11.109,-43.828L-11.414,-42.153L-11.414,-34.241L-17.35,-34.241L-17.35,-31.197L-11.414,-31.197L-11.414,3.347L-7.457,3.347L-7.457,-31.197L2.281,-31.197L2.281,-34.241L-7.457,-34.241L-7.457,-40.936L-7.152,-43.675L-5.174,-45.957L-2.436,-47.175L0,-47.48Z" style="fill:rgb(255,0,0);"/>
                </g>
                <g transform="matrix(1,0,0,1,274.721,213.513)">
                    <path d="M0,32.72L-2.74,32.415L-5.631,31.656L-7.762,29.675L-8.826,27.089L-8.826,6.392L-8.369,3.958L-6.24,1.676L-3.348,0.611L-1.521,0.154L0,0.154L0,-3.346L-3.348,-3.195L-6.088,-2.585L-8.979,-1.369L-10.957,0.611L-12.326,3.35L-12.783,6.392L-12.783,26.479L-12.326,29.068L-11.109,31.806L-9.283,33.632L-6.543,35.154L-3.652,35.763L0,36.066L0,32.72Z" style="fill:rgb(255,0,0);"/>
                </g>
                <g transform="matrix(1,0,0,1,277.154,210.167)">
                    <path d="M0,39.412L3.5,39.109L6.391,38.5L9.436,36.978L11.109,35.152L12.326,32.414L12.783,29.825L12.783,9.739L12.326,6.696L11.109,3.957L8.979,1.977L6.24,0.762L3.35,0.152L0,0L0,3.5L2.738,3.652L5.479,4.565L7.762,6.24L8.828,8.979L8.828,29.825L8.371,32.262L6.391,34.391L3.805,35.609L2.131,35.762L0,36.066L0,39.412Z" style="fill:rgb(255,0,0);"/>
                </g>
                <g transform="matrix(1,0,0,1,312.764,213.513)">
                    <path d="M0,32.72L-2.74,32.415L-5.781,31.656L-7.912,29.675L-8.979,27.089L-8.979,6.392L-8.369,3.958L-6.393,1.676L-3.5,0.611L-1.369,0.154L0,0.154L0,-3.346L-3.5,-3.195L-6.238,-2.585L-9.131,-1.369L-10.957,0.611L-12.326,3.35L-12.629,6.392L-12.629,26.479L-12.479,29.068L-11.26,31.806L-9.434,33.632L-6.393,35.154L-3.805,35.763L0,36.066L0,32.72Z" style="fill:rgb(255,0,0);"/>
                </g>
                <g transform="matrix(1,0,0,1,315.045,210.167)">
                    <path d="M0,39.412L3.807,39.109L6.545,38.5L9.436,36.978L11.262,35.152L12.48,32.414L12.783,29.825L12.783,9.739L12.326,6.696L11.111,3.957L9.131,1.977L6.24,0.762L3.502,0.152L0,0L0,3.5L2.893,3.652L5.633,4.565L7.762,6.24L8.828,8.979L8.98,29.825L8.371,32.262L6.545,34.391L3.807,35.609L2.283,35.762L0,36.066L0,39.412Z" style="fill:rgb(255,0,0);"/>
                </g>
                <g transform="matrix(1,0,0,1,253.416,160.795)">
                    <path d="M0,-47.479L3.5,-47.479L3.5,-50.827L-2.891,-50.827L-5.479,-49.914L-8.369,-48.392L-10.195,-46.11L-11.109,-43.827L-11.414,-42.152L-11.414,-34.24L-17.35,-34.24L-17.35,-31.196L-11.414,-31.196L-11.414,3.348L-7.457,3.348L-7.457,-31.196L2.281,-31.196L2.281,-34.24L-7.457,-34.24L-7.457,-40.935L-7.152,-43.674L-5.174,-45.956L-2.436,-47.174L0,-47.479Z" style="fill:rgb(255,0,0);"/>
                </g>
                <g transform="matrix(1,0,0,1,274.721,128.837)">
                    <path d="M0,32.721L-2.74,32.414L-5.631,31.655L-7.762,29.675L-8.826,27.09L-8.826,6.392L-8.369,3.958L-6.24,1.676L-3.348,0.611L-1.521,0.155L0,0.155L0,-3.346L-3.348,-3.195L-6.088,-2.585L-8.979,-1.368L-10.957,0.611L-12.326,3.35L-12.783,6.392L-12.783,26.48L-12.326,29.069L-11.109,31.808L-9.283,33.634L-6.543,35.154L-3.652,35.763L0,36.067L0,32.721Z" style="fill:rgb(255,0,0);"/>
                </g>
                <g transform="matrix(1,0,0,1,277.154,125.49)">
                    <path d="M0,39.413L3.5,39.11L6.391,38.5L9.436,36.98L11.109,35.154L12.326,32.415L12.783,29.826L12.783,9.739L12.326,6.697L11.109,3.957L8.979,1.978L6.24,0.762L3.35,0.152L0,0L0,3.501L2.738,3.653L5.479,4.566L7.762,6.24L8.828,8.979L8.828,29.826L8.371,32.262L6.391,34.391L3.805,35.611L2.131,35.761L0,36.067L0,39.413Z" style="fill:rgb(255,0,0);"/>
                </g>
                <g transform="matrix(1,0,0,1,312.764,128.837)">
                    <path d="M0,32.721L-2.74,32.414L-5.781,31.655L-7.912,29.675L-8.979,27.09L-8.979,6.392L-8.369,3.958L-6.393,1.676L-3.5,0.611L-1.369,0.155L0,0.155L0,-3.346L-3.5,-3.195L-6.238,-2.585L-9.131,-1.368L-10.957,0.611L-12.326,3.35L-12.629,6.392L-12.629,26.48L-12.479,29.069L-11.26,31.808L-9.434,33.634L-6.393,35.154L-3.805,35.763L0,36.067L0,32.721Z" style="fill:rgb(255,0,0);"/>
                </g>
                <g transform="matrix(1,0,0,1,315.045,125.49)">
                    <path d="M0,39.413L3.807,39.11L6.545,38.5L9.436,36.98L11.262,35.154L12.48,32.415L12.783,29.826L12.783,9.739L12.326,6.697L11.111,3.957L9.131,1.978L6.24,0.762L3.502,0.152L0,0L0,3.501L2.893,3.653L5.633,4.566L7.762,6.24L8.828,8.979L8.98,29.826L8.371,32.262L6.545,34.391L3.807,35.611L2.283,35.761L0,36.067L0,39.413Z" style="fill:rgb(255,0,0);"/>
                </g>
                <g transform="matrix(1,0,0,1,253.416,76.1037)">
                    <path d="M0,-47.633L3.5,-47.633L3.5,-50.828L-2.891,-50.828L-5.479,-50.067L-8.369,-48.546L-10.195,-46.263L-11.109,-43.981L-11.414,-42.306L-11.414,-34.394L-17.35,-34.394L-17.35,-31.35L-11.414,-31.35L-11.414,3.195L-7.457,3.195L-7.457,-31.35L2.281,-31.35L2.281,-34.394L-7.457,-34.394L-7.457,-41.089L-7.152,-43.828L-5.174,-46.111L-2.436,-47.328L0,-47.633Z" style="fill:rgb(255,0,0);"/>
                </g>
                <g transform="matrix(1,0,0,1,274.721,43.9934)">
                    <path d="M0,32.717L-2.74,32.412L-5.631,31.653L-7.762,29.673L-8.826,27.087L-8.826,6.39L-8.369,3.956L-6.24,1.674L-3.348,0.608L-1.521,0.152L0,0.152L0,-3.348L-3.348,-3.197L-6.088,-2.588L-8.979,-1.37L-10.957,0.608L-12.326,3.347L-12.783,6.39L-12.783,26.477L-12.326,29.065L-11.109,31.804L-9.283,33.63L-6.543,35.152L-3.652,35.761L0,36.065L0,32.717Z" style="fill:rgb(255,0,0);"/>
                </g>
                <g transform="matrix(1,0,0,1,277.154,40.6451)">
                    <path d="M0,39.413L3.5,39.11L6.391,38.5L9.436,36.978L11.109,35.152L12.326,32.413L12.783,29.826L12.783,9.739L12.326,6.696L11.109,3.956L8.979,1.978L6.24,0.761L3.35,0.152L0,0L0,3.5L2.738,3.652L5.479,4.565L7.762,6.239L8.828,8.978L8.828,29.826L8.371,32.262L6.391,34.391L3.805,35.609L2.131,35.761L0,36.065L0,39.413Z" style="fill:rgb(255,0,0);"/>
                </g>
                <g transform="matrix(1,0,0,1,312.764,43.9934)">
                    <path d="M0,32.717L-2.74,32.412L-5.781,31.653L-7.912,29.673L-8.979,27.087L-8.979,6.39L-8.369,3.956L-6.393,1.674L-3.5,0.608L-1.369,0.152L0,0.152L0,-3.348L-3.5,-3.197L-6.238,-2.588L-9.131,-1.37L-10.957,0.608L-12.326,3.347L-12.629,6.39L-12.629,26.477L-12.479,29.065L-11.26,31.804L-9.434,33.63L-6.393,35.152L-3.805,35.761L0,36.065L0,32.717Z" style="fill:rgb(255,0,0);"/>
                </g>
                <g transform="matrix(1,0,0,1,315.045,40.6451)">
                    <path d="M0,39.413L3.807,39.11L6.545,38.5L9.436,36.978L11.262,35.152L12.48,32.413L12.783,29.826L12.783,9.739L12.326,6.696L11.111,3.956L9.131,1.978L6.24,0.761L3.502,0.152L0,0L0,3.5L2.893,3.652L5.633,4.565L7.762,6.239L8.828,8.978L8.98,29.826L8.371,32.262L6.545,34.391L3.807,35.609L2.283,35.761L0,36.065L0,39.413Z" style="fill:rgb(255,0,0);"/>
                </g>
                <g transform="matrix(-1,0,0,1,470.881,137.53)">
                    <path d="M-0.5,0L0,0" style="fill:none;fill-rule:nonzero;stroke:rgb(200,200,200);stroke-width:0.5px;"/>
                </g>
                <g transform="matrix(-1,0,0,1,94.8809,137.53)">
                    <path d="M-374,0L0,0" style="fill:none;fill-rule:nonzero;stroke:rgb(200,200,200);stroke-width:0.5px;stroke-dasharray:1,2;"/>
                </g>
                <g transform="matrix(-1,0,0,1,93.3813,137.53)">
                    <path d="M-0.5,0L0,0" style="fill:none;fill-rule:nonzero;stroke:rgb(200,200,200);stroke-width:0.5px;"/>
                </g>
                <g transform="matrix(-1,0,0,1,470.881,196.252)">
                    <path d="M-0.5,0L0,0" style="fill:none;fill-rule:nonzero;stroke:rgb(200,200,200);stroke-width:0.5px;"/>
                </g>
                <g transform="matrix(-1,0,0,1,94.8809,196.252)">
                    <path d="M-374,0L0,0" style="fill:none;fill-rule:nonzero;stroke:rgb(200,200,200);stroke-width:0.5px;stroke-dasharray:1,2;"/>
                </g>
                <g transform="matrix(-1,0,0,1,93.3813,196.252)">
                    <path d="M-0.5,0L0,0" style="fill:none;fill-rule:nonzero;stroke:rgb(200,200,200);stroke-width:0.5px;"/>
                </g>
                <g transform="matrix(-1,0,0,1,470.881,78.6401)">
                    <path d="M-0.5,0L0,0" style="fill:none;fill-rule:nonzero;stroke:rgb(200,200,200);stroke-width:0.5px;"/>
                </g>
                <g transform="matrix(-1,0,0,1,94.8809,78.6401)">
                    <path d="M-374,0L0,0" style="fill:none;fill-rule:nonzero;stroke:rgb(200,200,200);stroke-width:0.5px;stroke-dasharray:1,2;"/>
                </g>
                <g transform="matrix(-1,0,0,1,93.3813,78.6401)">
                    <path d="M-0.5,0L0,0" style="fill:none;fill-rule:nonzero;stroke:rgb(200,200,200);stroke-width:0.5px;"/>
                </g>
                <g transform="matrix(0,-1,-1,0,113.44,196.252)">
                    <path d="M-3.652,3.652L3.652,3.652" style="fill:none;fill-rule:nonzero;stroke:black;stroke-width:1px;"/>
                </g>
                <g transform="matrix(-1,0,0,1,106.135,196.252)">
                    <path d="M-7.305,0L0,0" style="fill:none;fill-rule:nonzero;stroke:black;stroke-width:1px;"/>
                </g>
                <g transform="matrix(0,-1,-1,0,113.44,137.53)">
                    <path d="M-3.652,3.652L3.652,3.652" style="fill:none;fill-rule:nonzero;stroke:black;stroke-width:1px;"/>
                </g>
                <g transform="matrix(-1,0,0,1,106.135,137.53)">
                    <path d="M-7.305,0L0,0" style="fill:none;fill-rule:nonzero;stroke:black;stroke-width:1px;"/>
                </g>
                <g transform="matrix(0,-1,-1,0,457.656,196.252)">
                    <path d="M-3.652,3.652L3.652,3.652" style="fill:none;fill-rule:nonzero;stroke:black;stroke-width:1px;"/>
                </g>
                <g transform="matrix(-1,0,0,1,450.351,196.252)">
                    <path d="M-7.305,0L0,0" style="fill:none;fill-rule:nonzero;stroke:black;stroke-width:1px;"/>
                </g>
                <g transform="matrix(-1,0,0,1,450.351,137.53)">
                    <path d="M-7.305,0L0,0" style="fill:none;fill-rule:nonzero;stroke:black;stroke-width:1px;"/>
                </g>
                <g transform="matrix(0,-1,-1,0,457.656,137.53)">
                    <path d="M-3.652,3.652L3.652,3.652" style="fill:none;fill-rule:nonzero;stroke:black;stroke-width:1px;"/>
                </g>
                <g transform="matrix(0,-1,-1,0,457.656,78.64)">
                    <path d="M-3.653,3.653L3.653,3.653" style="fill:none;fill-rule:nonzero;stroke:black;stroke-width:1px;"/>
                </g>
                <g transform="matrix(-1,0,0,1,450.351,78.6401)">
                    <path d="M-7.305,0L0,0" style="fill:none;fill-rule:nonzero;stroke:black;stroke-width:1px;"/>
                </g>
                <g transform="matrix(0,-1,-1,0,285.605,196.252)">
                    <path d="M-3.652,3.652L3.652,3.652" style="fill:none;fill-rule:nonzero;stroke:black;stroke-width:1px;"/>
                </g>
                <g transform="matrix(-1,0,0,1,278.3,196.252)">
                    <path d="M-7.305,0L0,0" style="fill:none;fill-rule:nonzero;stroke:black;stroke-width:1px;"/>
                </g>
                <g transform="matrix(0,-1,-1,0,282.203,265.405)">
                    <path d="M-0.25,0.25L0.25,0.25" style="fill:none;fill-rule:nonzero;stroke:rgb(200,200,200);stroke-width:0.5px;"/>
                </g>
                <g transform="matrix(0,-1,-1,0,408.386,136.73)">
                    <path d="M-126.433,126.433L126.433,126.433" style="fill:none;fill-rule:nonzero;stroke:rgb(200,200,200);stroke-width:0.5px;stroke-dasharray:1,1.99;"/>
                </g>
                <g transform="matrix(0,-1,-1,0,282.203,9.0513)">
                    <path d="M-0.25,0.25L0.25,0.25" style="fill:none;fill-rule:nonzero;stroke:rgb(200,200,200);stroke-width:0.5px;"/>
                </g>
                <g transform="matrix(0,-1,-1,0,454.324,265.405)">
                    <path d="M-0.25,0.25L0.25,0.25" style="fill:none;fill-rule:nonzero;stroke:rgb(200,200,200);stroke-width:0.5px;"/>
                </g>
                <g transform="matrix(0,-1,-1,0,580.507,136.73)">
                    <path d="M-126.433,126.433L126.433,126.433" style="fill:none;fill-rule:nonzero;stroke:rgb(200,200,200);stroke-width:0.5px;stroke-dasharray:1,1.99;"/>
                </g>
                <g transform="matrix(0,-1,-1,0,454.324,9.0513)">
                    <path d="M-0.25,0.25L0.25,0.25" style="fill:none;fill-rule:nonzero;stroke:rgb(200,200,200);stroke-width:0.5px;"/>
                </g>
                <g transform="matrix(0,-1,-1,0,110.038,265.405)">
                    <path d="M-0.25,0.25L0.25,0.25" style="fill:none;fill-rule:nonzero;stroke:rgb(200,200,200);stroke-width:0.5px;"/>
                </g>
                <g transform="matrix(0,-1,-1,0,236.221,136.73)">
                    <path d="M-126.433,126.433L126.433,126.433" style="fill:none;fill-rule:nonzero;stroke:rgb(200,200,200);stroke-width:0.5px;stroke-dasharray:1,1.99;"/>
                </g>
                <g transform="matrix(0,-1,-1,0,110.038,9.0513)">
                    <path d="M-0.25,0.25L0.25,0.25" style="fill:none;fill-rule:nonzero;stroke:rgb(200,200,200);stroke-width:0.5px;"/>
                </g>
                <g transform="matrix(0,-1,-1,0,285.605,137.53)">
                    <path d="M-3.652,3.652L3.652,3.652" style="fill:none;fill-rule:nonzero;stroke:black;stroke-width:1px;"/>
                </g>
                <g transform="matrix(-1,0,0,1,278.3,137.53)">
                    <path d="M-7.305,0L0,0" style="fill:none;fill-rule:nonzero;stroke:black;stroke-width:1px;"/>
                </g>
                <g transform="matrix(0,-1,-1,0,285.606,78.64)">
                    <path d="M-3.653,3.653L3.653,3.653" style="fill:none;fill-rule:nonzero;stroke:black;stroke-width:1px;"/>
                </g>
                <g transform="matrix(-1,0,0,1,278.3,78.6401)">
                    <path d="M-7.305,0L0,0" style="fill:none;fill-rule:nonzero;stroke:black;stroke-width:1px;"/>
                </g>
                <g transform="matrix(0,-1,-1,0,113.44,78.64)">
                    <path d="M-3.653,3.653L3.653,3.653" style="fill:none;fill-rule:nonzero;stroke:black;stroke-width:1px;"/>
                </g>
                <g transform="matrix(-1,0,0,1,106.206,78.6401)">
                    <path d="M-7.305,0L0,0" style="fill:none;fill-rule:nonzero;stroke:black;stroke-width:1px;"/>
                </g>
            </g>
        </g>
    </g>
</svg>
