<?xml version="1.0" encoding="UTF-8" standalone="no"?>
<!DOCTYPE svg PUBLIC "-//W3C//DTD SVG 1.1//EN" "http://www.w3.org/Graphics/SVG/1.1/DTD/svg11.dtd">
<svg width="100%" height="100%" viewBox="0 0 613 630" version="1.1" xmlns="http://www.w3.org/2000/svg" xmlns:xlink="http://www.w3.org/1999/xlink" xml:space="preserve" xmlns:serif="http://www.serif.com/" style="fill-rule:evenodd;clip-rule:evenodd;stroke-linejoin:round;stroke-miterlimit:2;">
    <g transform="matrix(1.05159,0,0,1.05006,0,0)">
        <rect id="Artboard1" x="0" y="0" width="582.167" height="599.393" style="fill:none;"/>
        <g id="Artboard11" serif:id="Artboard1">
            <g id="Layer-1" serif:id="Layer 1" transform="matrix(0.950943,0,0,0.952324,14.2798,14.2882)">
                <g transform="matrix(0.571538,0.820576,0.820576,-0.571538,15.0372,-1.59058)">
                    <path d="M-1.383,-4.769L7.656,-4.769L9.133,-2.648L0.427,-2.171L-1.383,-4.769Z" style="fill-rule:nonzero;"/>
                </g>
                <g transform="matrix(1,0,0,1,76.5835,3.2503)">
                    <path d="M0,32.25L0,-2.5L-12.416,0.75L-12.416,3.333L-2.666,0.833L-2.666,32.25L-12.416,32.25L-12.416,34.75L10.084,34.75L10.084,32.25L0,32.25Z"/>
                </g>
                <g transform="matrix(1,0,0,1,129.25,11.1678)">
                    <path d="M0,16.166L0,24.333L18,24.333L18,26.833L-3,26.833L-3,15.499L-2.417,13.333L-0.917,11.749L1.25,10.666L3.5,9.833L5.667,9.249L7.583,8.833L9.417,8.333L11.5,7.666L13.5,6.666L14.917,5.333L14.917,-2.917L14.75,-5.001L13.583,-6.584L11.417,-7.584L9.583,-8.001L7.167,-8.084L4.833,-7.917L3,-7.501L1.167,-6.834L-0.167,-5.251L-0.583,-3.167L-0.583,0.749L-3.417,0.749L-3.417,-2.917L-3.25,-5.001L-2.5,-7.084L-1.083,-8.667L0.667,-9.584L3,-10.334L5.083,-10.584L7.583,-10.667L10,-10.584L12,-10.251L14.25,-9.501L15.917,-8.417L17.25,-6.751L17.917,-4.584L17.917,4.249L17.583,6.249L16.417,7.916L14.75,9.083L13.167,9.916L11,10.666L8.333,11.333L6.417,11.833L4.167,12.499L2.083,13.416L0.5,14.666L0,16.166Z"/>
                </g>
                <g transform="matrix(1,0,0,1,208.083,31.5008)">
                    <path d="M0,-23.834L0,-19.417L-0.167,-17.417L-1,-15.417L-2.333,-14.084L-4.083,-13.334L-2.25,-12.251L-0.75,-10.834L0.167,-9.251L0.333,-7.167L0.333,0.083L0,2.166L-1,4.083L-2.75,5.499L-4.667,6.333L-7.167,6.916L-9.083,7.083L-11.5,7.083L-13.5,6.916L-16,6.333L-17.917,5.499L-19.667,4.166L-20.667,2.166L-21,0.249L-21,-2.251L-18.083,-2.251L-18.083,-0.001L-17.667,1.833L-16.25,3.333L-14.167,4.166L-11.75,4.583L-9.5,4.583L-7.5,4.333L-5.417,3.666L-3.75,2.583L-2.5,0.916L-2.5,-7.167L-2.917,-9.001L-4.083,-10.584L-5.667,-11.501L-7.917,-11.917L-15.75,-11.917L-15.75,-14.417L-8.417,-14.417L-6.583,-14.751L-4.75,-15.584L-3.417,-17.167L-2.833,-19.001L-2.833,-22.917L-3.083,-25.001L-4.167,-26.667L-5.833,-27.667L-7.75,-28.251L-9.583,-28.334L-11.667,-28.334L-13.917,-28.001L-16,-27.167L-17.333,-25.751L-17.833,-23.834L-17.833,-21.667L-20.75,-21.667L-20.75,-23.834L-20.5,-25.917L-19.5,-27.834L-17.833,-29.251L-16,-30.167L-13.583,-30.751L-11.583,-30.917L-9.083,-30.917L-7.083,-30.751L-4.667,-30.167L-2.833,-29.417L-1.25,-28.001L-0.25,-25.917L0,-23.834Z"/>
                </g>
                <g transform="matrix(-1,0,0,1,536.584,-560.392)">
                    <rect x="266.917" y="561.476" width="2.75" height="36.833"/>
                </g>
                <g transform="matrix(1,0,0,1,256.583,26.0008)">
                    <path d="M0,-24.917L2.833,-24.917L-5.333,-2.667L8.417,-2.667L8.417,0L-8.417,0L-8.417,-2.667L0,-24.917Z"/>
                </g>
                <g transform="matrix(1,0,0,1,310.667,21.5003)">
                    <path d="M0,-3.25L0,-20.417L18.666,-20.417L18.666,-17.917L2.75,-17.917L2.75,-5.667L10.833,-5.667L12.916,-5.583L15,-5L16.75,-4.167L18.166,-2.917L19.333,-1L19.583,0.833L19.583,10.25L19.333,12.25L18.416,14.167L16.916,15.5L14.583,16.5L12.333,17L9.416,17.167L7.416,17.083L5,16.667L3,16.083L1.166,14.917L-0.167,13.167L-0.75,11.333L-0.75,7.667L2.083,7.667L2.083,10.583L2.75,12.5L4.416,13.75L6.5,14.417L8.75,14.667L11,14.583L13.083,14.167L14.916,13.417L16.416,12.083L16.833,10.25L16.833,0.833L16.083,-1L14.416,-2.25L12.583,-2.917L10.666,-3.25L0,-3.25Z"/>
                </g>
                <g transform="matrix(1,0,0,1,391.917,16.9168)">
                    <path d="M0,5.417L0,14.667L-0.25,16.667L-1.25,18.667L-2.75,20L-4.5,20.834L-6.667,21.5L-9.5,21.75L-11.75,21.75L-13.584,21.5L-16.084,21L-17.917,20.167L-19.584,18.75L-20.667,17.25L-21.167,15.334L-21.167,-9.166L-21,-11.083L-20.25,-12.833L-19,-14.166L-17.084,-15.333L-15.167,-16L-12.75,-16.333L-8.917,-16.333L-6.5,-16L-4.584,-15.333L-2.667,-14.25L-1.667,-13.25L-0.834,-11.916L-0.5,-10.333L-0.5,-7.333L-3.25,-7.333L-3.25,-10.083L-4.167,-11.833L-6,-12.916L-8.084,-13.583L-10,-13.75L-12,-13.75L-13.917,-13.333L-16,-12.583L-17.5,-11.416L-18.417,-9.583L-18.417,14.667L-17.834,16.667L-16.25,18L-14.084,18.75L-11.917,19.167L-9.75,19.25L-7.75,18.917L-5.667,18.25L-3.917,17.084L-2.75,15.5L-2.75,6.167L-3.417,4.25L-5,2.834L-7.084,2.084L-9.167,1.75L-11.084,1.667L-13.167,1.917L-15.167,2.417L-16.584,3.334L-16.584,0.5L-14.75,-0.166L-12.667,-0.583L-10.334,-0.75L-8.167,-0.666L-5.834,-0.333L-3.667,0.417L-1.75,1.667L-0.5,3.5L0,5.417Z"/>
                </g>
                <g transform="matrix(1,0,0,1,430.833,38.0838)">
                    <path d="M0,-37L0,-34.417L20,-34.417L5.417,0L8.584,0L23.25,-34.417L23.25,-37L0,-37Z"/>
                </g>
                <g transform="matrix(1,0,0,1,509.25,21.0008)">
                    <path d="M0,-2.834L2.083,-3.417L3.5,-4.667L4.333,-6.334L4.75,-8.167L4.75,-13.417L4.5,-15.251L3.75,-17.084L2.333,-18.584L0.5,-19.667L-1.75,-20.167L-3.417,-20.334L-4.667,-20.417L-4.667,-17.917L-2.5,-17.584L-0.417,-16.917L1.083,-15.501L1.833,-13.584L1.833,-8.917L1.417,-7.001L0.167,-5.334L-1.583,-4.334L-3.417,-4.001L-8.333,-4.001L-10.25,-4.667L-11.833,-5.834L-13,-7.667L-13,-13.001L-12.583,-15.001L-11.333,-16.417L-9.667,-17.334L-7.667,-17.834L-6.5,-17.917L-6.5,-20.417L-8.917,-20.251L-10.833,-19.917L-12.667,-19.167L-14.25,-18.001L-15.333,-16.417L-15.833,-14.584L-15.833,-8.917L-15.583,-7.001L-14.917,-5.001L-13.5,-3.584L-11.25,-2.834L-13.583,-1.751L-15.167,-0.417L-15.917,1.249L-16.167,3.249L-16.167,10.583L-15.917,12.416L-15.083,14.166L-13.75,15.583L-11.75,16.666L-9.5,17.249L-8.083,17.416L-6.5,17.583L-6.5,15.083L-8.5,14.749L-10.333,14.249L-12.083,13.083L-13.333,11.416L-13.333,3.249L-12.917,1.416L-11.833,-0.084L-10.167,-1.001L-8,-1.501L-4.667,-1.501L-2.75,-1.417L-0.667,-0.834L1.083,0.333L2.083,2.166L2.083,10.833L1.25,12.666L-0.167,13.916L-2.167,14.666L-3.667,14.916L-4.667,15.083L-4.667,17.583L-2.417,17.333L-0.5,16.916L1.5,16.249L3.25,14.999L4.417,13.333L5,11.499L5,3.249L4.75,1.249L3.917,-0.417L2.417,-1.751L0,-2.834Z"/>
                </g>
                <g transform="matrix(1,0,0,1,554.333,22.3338)">
                    <path d="M0,-5.417L0,-14.667L0.25,-16.667L1.25,-18.667L2.667,-20.084L4.417,-20.834L6.584,-21.417L9.417,-21.75L11.584,-21.75L13.5,-21.5L15.917,-21L17.834,-20.167L19.5,-18.834L20.584,-17.25L21,-15.334L21.084,9.166L20.834,11L20.167,12.75L18.917,14.25L17,15.333L15.084,16L12.667,16.333L8.834,16.333L6.417,16L4.417,15.333L2.584,14.25L1.25,12.916L0.5,11.083L0.417,7.333L3.084,7.333L3.084,10L4.167,11.75L5.917,12.916L8,13.5L9.917,13.75L11.917,13.75L13.834,13.333L15.917,12.583L17.417,11.333L18.334,9.5L18.334,-14.667L17.75,-16.584L16.167,-18L14,-18.75L11.834,-19.167L9.667,-19.25L7.667,-19L5.584,-18.25L3.75,-17.167L2.667,-15.5L2.667,-6.25L3.334,-4.167L4.917,-2.834L7,-2.084L9.084,-1.75L11,-1.75L13.084,-1.917L14.834,-2.334L16.417,-3.25L16.417,-0.584L14.667,0.166L12.667,0.583L10.25,0.75L8.084,0.666L5.75,0.333L3.5,-0.417L1.667,-1.667L0.417,-3.5L0,-5.417Z"/>
                </g>
                <g transform="matrix(1,0,0,1,13.3335,64.3328)">
                    <path d="M0,33.001L-2,32.834L-4,32.334L-5.583,31.417L-7,29.001L-7,4.501L-6.5,2.751L-5.166,1.334L-3.333,0.501L-1.5,0.251L0,0.167L0,-2.416L-2.416,-2.249L-4.416,-1.833L-6.666,-0.833L-8.166,0.417L-9.25,1.917L-9.75,4.084L-9.75,28.917L-9.416,30.417L-8.333,32.417L-6.833,33.751L-4.666,34.751L-2.583,35.251L0,35.417L0,33.001Z"/>
                </g>
                <g transform="matrix(1,0,0,1,15.0835,61.9173)">
                    <path d="M0,37.833L2.583,37.667L4.583,37.167L6.333,36.417L8.083,35.167L9.25,33.333L9.667,31.333L9.667,6.916L9.417,4.833L8.25,2.833L6.667,1.583L4.417,0.583L2.417,0.166L0,0L0,2.583L2,2.75L4.084,3.25L5.667,4.166L7,6.666L7,31L6.5,32.833L5,34.25L3.25,35L1.167,35.417L0,35.417L0,37.833Z"/>
                </g>
                <g transform="matrix(-1,0,0,1,150.751,-431.892)">
                    <rect x="67.334" y="514.476" width="16.083" height="2.333"/>
                </g>
                <g transform="matrix(-1,0,0,1,273.167,-427.226)">
                    <rect x="125.167" y="512.143" width="22.833" height="2.333"/>
                </g>
                <g transform="matrix(-1,0,0,1,273.167,-445.81)">
                    <rect x="125.167" y="521.393" width="22.833" height="2.417"/>
                </g>
                <g transform="matrix(1,0,0,1,0,-416.558)">
                    <rect x="204.75" y="488.892" width="2.75" height="38.167"/>
                </g>
                <g transform="matrix(1,0,0,1,188,93.5833)">
                    <path d="M0,-15.583L0,0.251L0.333,2.084L1.333,3.751L2.916,5.084L5,5.917L7.083,6.167L9.25,6.001L11.166,5.584L13.083,5.001L14.916,4.084L14.916,1.417L13.083,2.417L11.083,3.084L9,3.501L7.083,3.501L5.166,3.001L3.417,1.917L2.75,0.501L2.75,-15.083L3.166,-16.833L4.666,-18.25L6.583,-19L8.583,-19.083L10.5,-18.916L12.333,-18.333L14,-17.5L14.916,-16.916L14.916,-19.5L13.333,-20.5L11.5,-21.166L9.666,-21.583L7.5,-21.75L5.25,-21.583L3.416,-21L1.583,-19.75L0.5,-18L0,-15.583Z"/>
                </g>
                <g transform="matrix(1,0,0,1,272.75,99.1668)">
                    <path d="M0,-26.75L-6.083,-4.167L-12.083,-26.75L-15.083,-26.75L-21.167,-3.667L-27.417,-26.75L-30.333,-26.75L-22.917,0L-19.917,0L-13.667,-22.083L-7.583,0L-4.5,0L2.667,-26.75L0,-26.75Z"/>
                </g>
                <g transform="matrix(1,0,0,1,329.667,85.5838)">
                    <path d="M0,0.5L0,-7.083L-0.167,-9L-1.167,-10.833L-2.917,-12.25L-5.084,-13.083L-7.084,-13.583L-9.584,-13.667L-12,-13.583L-14,-13.167L-16.167,-12.417L-17.667,-11.167L-18.75,-9.167L-19.084,-7.25L-19.084,7.333L-18.834,9.583L-17.834,11.5L-16.334,12.75L-14.167,13.583L-12.084,14L-9.584,14.167L-7.584,14.167L-5.25,13.833L-3.417,13.083L-1.75,12L-0.5,10.333L0,8.333L0,5.417L-2.917,5.417L-2.917,8.25L-3.667,10.167L-5.334,11.083L-7.167,11.583L-9.167,11.75L-11.167,11.75L-13.084,11.25L-14.75,10.417L-16,9.167L-16.417,7.833L-16.417,-6.667L-15.917,-8.5L-14.584,-9.917L-12.834,-10.667L-10.584,-11.083L-8.417,-11.083L-6.584,-10.917L-4.75,-10.333L-3.25,-8.75L-2.667,-6.5L-2.667,-1.75L-14.667,-1.75L-14.667,0.5L0,0.5Z"/>
                </g>
                <g transform="matrix(1,0,0,1,387.583,99.1668)">
                    <path d="M0,-27.083L-1.916,-26.916L-3.833,-26.666L-5.916,-26L-7.833,-25.083L-9.833,-23.583L-9.833,-26.833L-12.583,-26.833L-12.583,0L-9.833,0L-9.833,-20.666L-8.083,-22.083L-6.416,-23L-4.666,-23.75L-2.916,-24.25L-1.666,-24.5L0,-24.666L0,-27.083Z"/>
                </g>
                <g transform="matrix(1,0,0,1,441.667,72.1668)">
                    <path d="M0,20.75L0,2.75L7.333,2.75L7.333,0.333L0,0.333L0,-6.25L-2.667,-6.25L-2.667,0.333L-6.75,0.333L-6.75,2.75L-2.667,2.75L-2.667,20.75L-2.417,22.583L-1.417,24.5L0.166,25.75L1.916,26.5L4.083,27L8.416,27L8.416,24.667L6.083,24.5L4.166,24.25L2.25,23.75L0.666,22.583L0,20.75Z"/>
                </g>
                <g transform="matrix(1,0,0,1,493,110.417)">
                    <path d="M0,-38.167L2.917,-38.167L10.75,-15.167L18.5,-38.167L21.333,-38.167L8.25,0L5.667,0L9.333,-11.083L0,-38.167Z"/>
                </g>
                <g transform="matrix(1,0,0,1,562,72.4173)">
                    <path d="M0,27.333L2.583,27.167L4.5,26.917L6.333,26.25L8.167,25.333L9.667,24.25L9.667,27L12.417,27L12.417,0L9.667,0L9.667,21.667L7.833,22.833L6,23.75L4.167,24.333L2.167,24.667L0,24.667L-1.833,24.167L-3.417,22.833L-4,21L-4,0L-6.75,0L-6.75,20.583L-6.5,22.75L-5.583,24.75L-4.167,26.166L-2.083,27L0,27.333Z"/>
                </g>
                <g transform="matrix(-1,0,0,1,28.416,-305.392)">
                    <rect x="12.833" y="438.976" width="2.75" height="26.833"/>
                </g>
                <g transform="matrix(-1,0,0,1,28.416,-348.225)">
                    <rect x="12.833" y="470.559" width="2.75" height="6.5"/>
                </g>
                <g transform="matrix(1,0,0,1,74.5,135.417)">
                    <path d="M0,23.083L-1.833,22.917L-3.917,22.25L-5.5,21.083L-6.167,19.083L-6.167,4.583L-5.833,2.833L-4.417,1.25L-2.333,0.417L-1,0.25L0,0.167L0,-2.417L-2.333,-2.167L-4.333,-1.75L-6.333,-0.833L-7.667,0.5L-8.667,2.417L-8.917,4.583L-8.917,18.667L-8.667,20.583L-7.833,22.417L-6.5,23.833L-4.5,24.833L-2.5,25.333L0,25.5L0,23.083Z"/>
                </g>
                <g transform="matrix(1,0,0,1,76.25,133)">
                    <path d="M0,27.917L2.5,27.75L4.5,27.25L6.5,26.25L7.833,24.834L8.667,23L8.917,21.084L8.917,7L8.667,4.834L7.667,2.917L6.333,1.584L4.333,0.667L2.417,0.25L0,0L0,2.584L1.917,2.75L3.833,3.334L5.333,4.417L6.167,6.334L6.167,21.084L5.833,22.834L4.583,24.417L2.583,25.167L1.5,25.417L0,25.5L0,27.917Z"/>
                </g>
                <g transform="matrix(-1,0,0,1,256.25,-294.226)">
                    <rect x="126.75" y="427.726" width="2.75" height="38.167"/>
                </g>
                <g transform="matrix(1,0,0,1,146.333,154.25)">
                    <path d="M0,-15.666L0,0.75L-0.333,2.584L-1.333,4.25L-2.917,5.584L-5.083,6.417L-7.167,6.667L-9.251,6.5L-11.167,6.167L-13.083,5.5L-15,4.584L-15,2L-13.083,2.917L-11.083,3.584L-9,4L-7.167,4L-5.167,3.5L-3.501,2.417L-2.751,0.75L-2.751,-14.583L-3.251,-16.333L-4.667,-17.75L-6.583,-18.5L-8.583,-18.583L-10.5,-18.416L-12.333,-17.833L-15,-16.416L-15,-19L-13.333,-20L-11.501,-20.666L-9.667,-21L-7.5,-21.25L-5.333,-21L-3.5,-20.5L-1.667,-19.25L-0.5,-17.5L0,-15.666Z"/>
                </g>
                <g transform="matrix(1,0,0,1,195.083,169.833)">
                    <path d="M0,-44.666L8.083,-44.666L8.083,-47.083L-2.75,-47.083L-2.75,2.417L8.083,2.417L8.083,-0.083L0,-0.083L0,-44.666Z"/>
                </g>
                <g transform="matrix(1,0,0,1,261.583,125.166)">
                    <path d="M0,44.668L-8.083,44.668L-8.083,47.084L2.833,47.084L2.833,-2.416L-8.083,-2.416L-8.083,0.084L0,0.084L0,44.668Z"/>
                </g>
                <g transform="matrix(-1,0,0,1,324.917,168.917)">
                    <path d="M9.584,-46.083L12.5,-46.083L0,0L-2.916,0L9.584,-46.083Z"/>
                </g>
                <g transform="matrix(1,0,0,1,391,153.416)">
                    <path d="M0,-13.832L0,6.834L-2.75,6.834L-2.75,-13.832L-3.25,-15.832L-4.833,-17.249L-6.833,-17.916L-8.917,-18.082L-11.25,-18.082L-13.167,-17.666L-15,-16.749L-16.167,-14.999L-16.167,-12.166L-18.917,-12.166L-18.917,-14.332L-18.583,-16.166L-17.5,-17.916L-16,-19.166L-13.833,-20.082L-11.833,-20.499L-9.417,-20.666L-7.083,-20.499L-5.083,-20.166L-3,-19.332L-1.417,-18.166L-0.333,-16.249L0,-13.832Z"/>
                </g>
                <g transform="matrix(1,0,0,1,380,158.668)">
                    <path d="M0,-11.168L6.417,-11.168L6.417,-13.334L-1.583,-13.334L-3.5,-13.084L-5.417,-12.418L-7,-11.168L-8.083,-9.334L-8.333,-7.251L-8.333,-3.168L-7.917,-1.084L-6.5,0.332L-4.583,1.332L-2.5,1.999L-0.583,2.166L1.25,1.916L3.333,1.416L5.083,0.749L6.417,0.082L6.417,-2.418L4.833,-1.501L2.75,-0.751L0.583,-0.334L-1.417,-0.334L-3.25,-0.918L-4.75,-2.168L-5.75,-3.834L-5.75,-7.251L-5.25,-9.084L-3.75,-10.418L-1.917,-11.001L0,-11.168Z"/>
                </g>
                <g transform="matrix(1,0,0,1,441.75,146.334)">
                    <path d="M0,1.416L-4,0.25L-5.75,-0.5L-7.25,-1.75L-8.25,-3.667L-8.667,-5.584L-8.5,-7.834L-7.75,-9.917L-6.5,-11.5L-4.75,-12.417L-2.667,-12.917L-0.583,-13.167L1.667,-13.167L3.75,-12.917L5.833,-12.417L7.667,-11.5L9.333,-10L9.833,-7.834L9.833,-5.167L7.333,-5.167L7.333,-7.834L6.167,-9.5L4.417,-10.5L2.167,-10.917L-0.25,-11L-2.083,-10.834L-3.833,-10.25L-5.25,-9L-5.75,-7.084L-5.75,-5.084L-4.917,-3.417L-2.917,-2.417L-0.75,-1.584L1.5,-0.917L3.5,-0.334L5.333,0.25L7.333,1.083L9.167,2.25L9.833,3.166L10.333,4.583L10.333,9.75L9.917,11.083L8.583,12.5L7,13.5L4.833,14.166L2.833,14.5L0.583,14.583L-1.5,14.5L-3.333,14.166L-5.5,13.5L-7.083,12.5L-8.417,10.916L-8.917,9L-8.917,6.5L-6.167,6.5L-6.083,8.666L-5.5,10.5L-3.75,11.75L-1.75,12.25L0.5,12.416L2.75,12.25L4.5,11.916L6.167,11.083L7.083,10.333L7.667,8.916L7.667,5.583L7.167,4.416L5.25,3.25L3.167,2.5L0,1.416Z"/>
                </g>
                <g transform="matrix(-1,0,0,1,1024.25,-316.726)">
                    <rect x="510.75" y="438.976" width="2.75" height="38.167"/>
                </g>
                <g transform="matrix(1,0,0,1,493.833,139.584)">
                    <path d="M0,14.833L0,0.666L0.167,-1.25L0.917,-3.334L2.084,-4.834L3.917,-5.917L5.834,-6.334L7.834,-6.5L9.75,-6.334L11.834,-5.834L13.834,-5L15.084,-4.334L15.084,-1.917L13.334,-2.75L11.334,-3.417L9.334,-3.834L7.334,-3.834L5.25,-3.334L3.75,-2.167L2.834,-0.25L2.75,14.166L3.25,16.166L4.667,17.75L6.584,18.5L8.75,18.75L10.75,18.5L12.667,17.916L13.75,17.5L15.084,16.833L15.084,19.25L13.084,20.166L11.167,20.833L9.417,21.25L7.417,21.333L5.584,21.25L3.334,20.583L1.584,19.25L0.584,17.583L0,14.833Z"/>
                </g>
                <g transform="matrix(1,0,0,1,569.667,158)">
                    <path d="M0,-33.416L2.5,-33.416L2.5,-35.833L-1.917,-35.833L-3.834,-35.25L-5.834,-34.166L-7.167,-32.583L-7.834,-31L-8.084,-29.666L-8.084,-24.25L-12.167,-24.25L-12.167,-22L-8.084,-22L-8.084,2.417L-5.334,2.417L-5.334,-22L1.75,-22L1.75,-24.25L-5.334,-24.25L-5.334,-28.916L-4.917,-30.833L-3.667,-32.333L-1.75,-33.25L0,-33.416Z"/>
                </g>
                <g transform="matrix(1,0,0,1,24,200.584)">
                    <path d="M0,26.5L0,-5.75L-2.75,-5.75L-2.75,25.916L-3.333,27.75L-4.833,29.083L-6.833,29.75L-8.833,30L-17.667,30L-17.667,32.25L-7.667,32.25L-5.667,32.083L-3.583,31.416L-1.75,30.25L-0.5,28.416L0,26.5Z"/>
                </g>
                <g transform="matrix(1,0,0,1,4.4165,200.667)">
                    <path d="M0,15L0,0.75L0.167,-1.167L0.833,-3.25L2,-4.75L4,-5.833L5.833,-6.25L7.75,-6.417L9.75,-6.25L11.833,-5.75L13.833,-4.917L15.083,-4.25L15.083,-1.833L13.25,-2.667L11.417,-3.333L9.333,-3.667L7.333,-3.75L5.25,-3.25L3.75,-2.083L2.833,-0.167L2.75,14.25L3.167,16.333L4.667,17.833L6.583,18.667L8.667,18.833L10.667,18.583L12.75,18L13.75,17.583L15.083,16.917L15.083,19.333L13.083,20.25L11.167,20.917L9.417,21.333L7.5,21.417L5.501,21.333L3.333,20.667L1.583,19.333L0.583,17.75L0,15Z"/>
                </g>
                <g transform="matrix(1,0,0,1,77.1665,210.667)">
                    <path d="M0,-16.25L-2.25,-16.167L-4.249,-15.75L-6.083,-15.083L-8.833,-13.583L-8.833,-27.167L-11.583,-27.167L-11.583,10.917L-8.833,10.917L-8.833,-10.417L-7.083,-11.667L-5.333,-12.5L-3.333,-13.25L-1.083,-13.667L1.167,-13.583L3.083,-13L4.667,-11.583L5.251,-9.75L5.251,10.917L8.001,10.917L8.001,-9.417L7.833,-11.5L7.001,-13.5L5.501,-15.083L3.751,-15.833L1.417,-16.25L0,-16.25Z"/>
                </g>
                <g transform="matrix(1,0,0,1,141.917,201)">
                    <path d="M0,25.667L0,-6.25L-2.75,-6.25L-2.75,25.667L-3.417,27.417L-5.083,28.584L-6.917,29.167L-9,29.5L-10.667,29.584L-10.667,31.917L-8,31.917L-6,31.75L-4.001,31.167L-2.25,30.25L-0.917,28.834L-0.167,27L0,25.667Z"/>
                </g>
                <g transform="matrix(-1,0,0,1,281.084,-225.893)">
                    <rect x="139.167" y="409.393" width="2.75" height="6.5"/>
                </g>
                <g transform="matrix(1,0,0,1,194.916,198.667)">
                    <path d="M0,7.75L11.084,-3.25L11.084,-3.917L8.584,-3.917L-2.333,6.833L-4.166,6.833L-4.166,-15.167L-6.833,-15.167L-6.833,22.917L-4.166,22.917L-4.166,9.167L-2.333,9.167L9.584,22.917L12.501,22.917L12.501,22.333L0.001,7.75L0,7.75Z"/>
                </g>
                <g transform="matrix(-1,0,0,1,517.833,-194.309)">
                    <rect x="257.583" y="377.809" width="2.667" height="38.084"/>
                </g>
                <g transform="matrix(-1,0,0,1,643.667,-203.559)">
                    <rect x="320.5" y="398.726" width="2.667" height="5.5"/>
                </g>
                <g transform="matrix(1,0,0,1,323.167,226.917)">
                    <path d="M0,-10.333L-2.75,-10.333L-2.75,-5.583L-2.917,-4.833L-3.417,-4L-5,-2.833L-6.084,-2.167L-4.917,0L-3.334,-0.917L-1.667,-2.083L-0.5,-3.667L0,-5.333L0,-10.333Z"/>
                </g>
                <g transform="matrix(-1,0,0,1,379.917,195.667)">
                    <path d="M-2.75,-10.833L0,-10.833L-0.333,0L-2.416,0L-2.75,-10.833Z"/>
                </g>
                <g transform="matrix(1,0,0,1,448.25,219.084)">
                    <path d="M0,-22.084L-14.417,-22.084L-14.417,-24.584L3.25,-24.584L3.25,-22.084L-12.083,0L3.917,0L3.917,2.5L-15.417,2.5L-15.417,0L0,-22.084Z"/>
                </g>
                <g transform="matrix(1,0,0,1,514.583,194.584)">
                    <path d="M0,27L-9.416,13.25L-0.166,0L-3,0L-10.833,11.166L-18.666,0L-21.666,0L-12.416,13.416L-21.833,27L-18.916,27L-11,15.5L-3,27L0,27Z"/>
                </g>
                <g transform="matrix(1,0,0,1,555.333,201)">
                    <path d="M0,14.334L0,0.25L0.167,-1.75L0.917,-3.5L2.084,-4.833L3.917,-5.833L5.667,-6.416L7.834,-6.666L10.334,-6.75L12.667,-6.5L14.584,-6L16.584,-5.083L18.167,-3.5L18.834,-2L19.084,-0.916L19.084,1.75L16.417,1.75L16.417,1.084L16.084,-1L15.167,-2.75L13.584,-3.666L11.5,-4.083L9.5,-4.166L7.5,-4L5.5,-3.416L3.667,-2.333L2.667,-0.666L2.667,14.334L3.084,16.084L4.584,17.667L6.334,18.334L8.334,18.667L10.334,18.75L12.25,18.5L14,17.917L15.584,16.834L16.167,15.5L16.167,12.334L19.084,12.334L19.084,14.667L18.834,16.667L17.917,18.334L16.584,19.584L14.417,20.5L12.25,21L9.5,21.084L6.917,21L4.834,20.584L2.75,19.667L1.25,18.417L0.25,16.5L0,14.334Z"/>
                </g>
                <g transform="matrix(1,0,0,1,3.6665,282.75)">
                    <path d="M0,-26.833L2.917,-26.833L10.667,-4L18.417,-26.833L21.083,-26.833L12.167,0L9.167,0L0.001,-26.833L0,-26.833Z"/>
                </g>
                <g transform="matrix(-1,0,0,1,133.75,-72.309)">
                    <rect x="65.5" y="316.809" width="2.75" height="38.084"/>
                </g>
                <g transform="matrix(1,0,0,1,85.25,261.667)">
                    <path d="M0,15.167L0,0.25L-0.25,-1.667L-1.083,-3.667L-2.667,-5.083L-4.333,-5.75L-6.417,-6.25L-8.75,-6.25L-10.75,-5.917L-12.833,-5.333L-14,-4.833L-15.167,-4.167L-15.167,-1.833L-13.333,-2.75L-11.5,-3.333L-9.583,-3.75L-7.667,-3.75L-5.917,-3.417L-4,-2.5L-3.083,-1.417L-2.75,-0.25L-2.75,14.5L-3.167,16.333L-4.583,17.833L-6.417,18.667L-8.417,18.75L-10.25,18.667L-12.333,18.167L-14.25,17.333L-15.167,16.833L-15.167,19.333L-13.333,20.25L-11.417,20.833L-9.667,21.25L-7.583,21.417L-5.333,21.167L-3.167,20.5L-1.5,19.083L-0.5,17.5L0,15.167Z"/>
                </g>
                <g transform="matrix(1,0,0,1,138.416,282.75)">
                    <path d="M0,-27.166L-1.583,-27.083L-3.5,-26.75L-5.333,-26.166L-7.25,-25.25L-8.666,-24.166L-8.666,-26.833L-11.416,-26.833L-11.416,0L-8.666,0L-8.666,-21.583L-6.833,-22.75L-5,-23.583L-3.166,-24.25L-1.166,-24.583L1,-24.5L2.834,-24.083L4.417,-22.75L5.001,-20.833L5.001,0L7.75,0L7.75,-20.5L7.5,-22.583L6.584,-24.583L5.084,-26.083L3.084,-26.916L1,-27.166L0,-27.166Z"/>
                </g>
                <g transform="matrix(1,0,0,1,208.833,282.75)">
                    <path d="M0,-27.166L-2.667,-27.083L-4.75,-26.666L-6.75,-25.916L-8.667,-24.833L-10.333,-23.583L-11.333,-25.25L-12.833,-26.333L-14.833,-27L-16.75,-27.166L-18.75,-27.083L-20.667,-26.833L-22.5,-26.25L-24.333,-25.416L-26.167,-24.166L-26.167,-26.833L-28.917,-26.833L-28.917,0L-26.167,0L-26.167,-21.583L-24.333,-22.75L-22.5,-23.583L-20.667,-24.25L-18.667,-24.583L-16.5,-24.5L-14.75,-24.083L-13.167,-22.75L-12.5,-20.833L-12.5,0L-9.833,0L-9.833,-21.416L-8.667,-22.25L-6.833,-23.25L-4.917,-24L-3.083,-24.416L-1.25,-24.583L0.667,-24.416L2.583,-23.583L3.75,-22.25L4.083,-20.833L4.083,0L6.75,0L6.75,-20.5L6.583,-22.583L5.667,-24.583L4.167,-26.083L2.083,-26.916L0,-27.166Z"/>
                </g>
                <g transform="matrix(1,0,0,1,262,288.167)">
                    <path d="M0,-10.333L-2.75,-10.333L-2.75,-5.75L-2.833,-5L-3.417,-4L-5,-2.833L-6.167,-2.083L-5,0L-3.333,-0.917L-1.667,-2.083L-0.5,-3.583L-0.167,-4.583L0,-5.333L0,-10.333Z"/>
                </g>
                <g transform="matrix(-1,0,0,1,640.25,-38.225)">
                    <rect x="318.75" y="316.059" width="2.75" height="5.5"/>
                </g>
                <g transform="matrix(1,0,0,1,386.083,291.25)">
                    <path d="M0,-46.083L2.917,-46.083L-9.583,0L-12.5,0L0,-46.083Z"/>
                </g>
                <g transform="matrix(1,0,0,1,434,264.918)">
                    <path d="M0,6.332L0,4.332L0.5,2.416L1.417,0.832L2.167,0.166L3.25,-0.084L4.083,-0.001L5.25,0.249L7,1.082L8.917,2.166L10.5,3.082L12.25,3.916L13.417,4.082L14.167,3.666L14.667,2.749L14.833,1.916L15,-0.001L17,-0.001L16.917,2.166L16.583,4.082L16.167,4.999L15.417,5.832L14.75,6.166L13.833,6.416L12.917,6.416L11.667,5.999L9.75,5.166L8.083,4.249L6.5,3.332L4.667,2.499L3.5,2.332L2.833,2.749L2.333,3.582L2.083,4.582L2.083,6.332L0,6.332Z"/>
                </g>
                <g transform="matrix(-1,0,0,1,1007.33,-39.059)">
                    <rect x="502.167" y="316.476" width="3" height="5.5"/>
                </g>
                <g transform="matrix(1,0,0,1,504.75,245.834)">
                    <path d="M0,28.5L-2.167,28.5L-2.583,18.833L-2.583,0L0.417,0L0.417,18.833L0,28.5Z"/>
                </g>
                <g transform="matrix(1,0,0,1,563,289)">
                    <path d="M0,-39.667L-3.083,-39.501L-5.917,-39.167L-8.25,-38.667L-10.167,-38.084L-12.334,-36.917L-13.918,-35.584L-15,-33.584L-15.501,-31.334L-15.501,-8.834L-15.25,-6.834L-14.417,-4.751L-13.251,-3.417L-11.5,-2.167L-9,-1.084L-6.917,-0.584L-4.417,-0.251L-1.5,0L12.583,0L12.583,-2.417L0.167,-2.417L-2.25,-2.501L-4.251,-2.667L-6.834,-3.167L-8.833,-3.834L-10.833,-5L-12.001,-6.417L-12.584,-8.416L-12.584,-30.75L-12.251,-32.833L-10.917,-34.584L-8.583,-35.834L-6.083,-36.5L-3.918,-36.917L-1.25,-37.167L1.917,-37.251L5,-37.167L7.666,-36.917L9.75,-36.5L11.583,-36.084L13.583,-35.25L15.25,-33.917L16.25,-32.166L16.25,-14.334L15.833,-12.417L14.917,-10.917L13.25,-10L11.417,-10.417L10.083,-11.916L9.5,-13.833L11.166,-30.583L8.582,-30.583L6.833,-14.334L6.833,-12.417L7.583,-10.417L9,-9L11.166,-8.167L13.416,-8.001L15.417,-8.416L17.249,-9.584L18.333,-11.167L19,-12.916L19.166,-14L19.166,-30.75L18.916,-32.917L18,-35.001L16.75,-36.417L14.749,-37.666L13,-38.417L10.917,-38.916L8.417,-39.334L5.416,-39.583L1.917,-39.667L0,-39.667Z" style="fill-rule:nonzero;"/>
                </g>
                <g transform="matrix(1,0,0,1,569.667,278.75)">
                    <path d="M0,-18.666L-0.417,-16.583L-2.167,-17.5L-4.167,-18.166L-6.167,-18.25L-8.167,-17.75L-9.75,-16.583L-10.667,-14.666L-12,-3.25L-11.584,-1.916L-10,-0.75L-8.167,-0.25L-6.25,-0.333L-4.334,-0.916L-2.667,-1.583L-1.667,-2.166L-1.084,-0.166L-2.584,0.917L-4.25,1.667L-6.584,2.167L-8.834,2.25L-10.834,2L-12.75,1.25L-14,-0.166L-14.584,-2.083L-14.584,-4L-13.25,-15.5L-12.834,-17.416L-11.584,-19.166L-9.917,-20.166L-8.084,-20.75L-6.167,-20.916L-4.167,-20.666L-2.167,-20.083L-1.334,-19.583L0,-18.666Z"/>
                </g>
                <g transform="matrix(0.250828,-0.968032,-0.968032,-0.250828,17.3719,319.856)">
                    <path d="M-2.806,-1.376L-0.482,-1.376L-1.757,3.545L-4.102,3.626L-2.806,-1.376Z"/>
                </g>
                <g transform="matrix(1,0,0,1,9.3335,323)">
                    <path d="M0,6.333L1.75,-0.083L2.417,-2.333L4.084,-8.417L1.5,-8.417L-0.166,-2.333L-5.75,-2.333L-5.75,-0.083L-0.75,-0.083L-2.5,6.333L-7.833,6.333L-7.833,8.667L-3.166,8.667L-4.833,14.75L-2.25,14.75L-0.666,8.667L0,6.333Z"/>
                </g>
                <g transform="matrix(0.274776,-0.961508,-0.961508,-0.274776,15.1043,328.698)">
                    <path d="M-2.723,-1.277L-0.296,-1.277L-1.716,3.691L-4.12,3.611L-2.723,-1.277Z"/>
                </g>
                <g transform="matrix(1,0,0,1,26.9165,329.416)">
                    <path d="M0,-6.499L0,-8.749L-4,-8.749L-2.333,-14.833L-4.917,-14.833L-6.5,-8.749L-7.25,-6.499L-9,-0.083L-9.583,2.251L-11.25,8.334L-8.667,8.334L-7,2.251L-2.083,2.251L-2.083,-0.083L-6.417,-0.083L-4.667,-6.499L0,-6.499Z"/>
                </g>
                <g transform="matrix(1,0,0,1,82.0835,309.167)">
                    <path d="M0,8.666L0,10.833L2.417,10.833L2.417,8.166L2.083,6.583L1.083,5L-0.5,3.833L-2.417,3.166L-4.25,2.916L-4.25,-2.167L-5.833,-2.167L-5.833,4.833L-3.917,5L-2.083,5.583L-1.167,6.083L-0.25,7.25L0,8.666Z"/>
                </g>
                <g transform="matrix(1,0,0,1,68.5,341.583)">
                    <path d="M0,-7.666L-0.083,-10.166L-2.75,-10.166L-2.75,-7.5L-2.25,-5.583L-0.917,-3.916L0.917,-3L2.75,-2.5L4.417,-2.25L4.417,2.5L6,2.5L6,-4.25L3.75,-4.5L1.75,-5.166L0.333,-6.333L0,-7.666Z"/>
                </g>
                <g transform="matrix(1,0,0,1,75.3335,327.166)">
                    <path d="M0,-3.249L-2.25,-3.999L-4.417,-4.833L-6.167,-5.999L-6.667,-7.749L-6.667,-9.583L-6,-11.499L-4.333,-12.666L-2.25,-13.083L-0.833,-13.166L-0.833,-20.166L-2.416,-20.166L-2.416,-15.166L-4.333,-14.916L-6.25,-14.166L-7.833,-12.999L-8.916,-11.249L-9.25,-9.333L-9.166,-7.333L-8.583,-5.249L-7.416,-3.749L-5.916,-2.666L-4.083,-1.749L-2,-1.083L-0.166,-0.583L1.584,-0.083L3.5,0.584L5.334,1.334L6.417,2.167L6.917,3.084L6.917,7.251L6.25,8.417L4.667,9.417L2.834,9.917L0.917,10.167L0.917,16.917L2.5,16.917L2.5,12.084L4.667,11.751L6.417,11.167L8.167,10.167L9,9.251L9.667,7.584L9.667,2.584L9.334,1.501L8.167,0.001L6.25,-1.083L4.084,-1.916L2.167,-2.499L0,-3.249Z"/>
                </g>
                <g transform="matrix(1,0,0,1,126.834,308.75)">
                    <path d="M0,11.833L-1.833,11.583L-2.917,10.833L-3.5,9.667L-3.5,2.25L-3.333,1.417L-2.667,0.667L-1.5,0.167L0,0.083L0,-2L-2.083,-1.75L-3.917,-1.083L-5.25,0.083L-5.917,1.917L-5.917,9.833L-5.417,11.583L-3.751,13.083L-1.667,13.667L-0.001,13.833L-0.001,11.833L0,11.833Z"/>
                </g>
                <g transform="matrix(1,0,0,1,129,306.75)">
                    <path d="M0,15.833L2.083,15.667L4,14.917L5.333,13.583L5.917,12L5.917,4.083L5.25,2.083L3.917,0.917L2,0.25L0,0L0,2.083L1.917,2.333L3.083,3.167L3.5,4.167L3.5,11.667L3.25,12.5L2.5,13.167L0.75,13.833L0,13.833L0,15.833Z"/>
                </g>
                <g transform="matrix(-1,0,0,1,126.666,344.083)">
                    <path d="M-19.667,-37.083L-16.917,-37.083L0,0L-2.75,0L-19.667,-37.083Z"/>
                </g>
                <g transform="matrix(1,0,0,1,144.167,330.75)">
                    <path d="M0,11.833L-1.833,11.583L-3.083,10.75L-3.5,9.667L-3.5,2.25L-3.333,1.417L-2.667,0.667L-0.667,0.083L0,0.083L0,-2L-2,-1.75L-3.917,-1.083L-5.25,0.167L-5.917,1.917L-5.917,9.833L-5.333,11.667L-3.75,13.083L-1.667,13.75L0,13.833L0,11.833Z"/>
                </g>
                <g transform="matrix(1,0,0,1,146.333,328.75)">
                    <path d="M0,15.833L2.083,15.667L4,14.917L5.5,13.417L5.917,12L5.917,4.083L5.25,2.167L3.917,0.917L2,0.25L0,0L0,2.083L0.917,2.167L1.917,2.417L3.083,3.167L3.417,4.25L3.417,11.5L2.5,13.25L0.667,13.833L0,13.833L0,15.833Z"/>
                </g>
                <g transform="matrix(1,0,0,1,208.416,307.25)">
                    <path d="M0,20.833L-9.416,0L-11.916,0L-21.333,20.833L-18.583,20.833L-10.666,3.083L-2.749,20.833L0.001,20.833L0,20.833Z"/>
                </g>
                <g transform="matrix(1,0,0,1,265.75,308.833)">
                    <path d="M0,5.084L-0.25,3.167L-1,1.334L-2.417,-0.166L-4.333,-1.166L-6.583,-1.75L-8.917,-2L-9.5,-2.083L-9.5,0.5L-7.333,0.75L-5.25,1.584L-3.75,2.917L-3,4.834L-3,7.167L-0.083,7.167L0,5.084Z"/>
                </g>
                <g transform="matrix(1,0,0,1,253.416,328.167)">
                    <path d="M0,-4.834L-1.916,-5.167L-3.666,-6L-5.083,-7.584L-5.583,-9.417L-5.583,-13.834L-5.166,-15.917L-4,-17.417L-2.166,-18.25L-0.25,-18.75L0.917,-18.834L0.917,-21.417L-0.916,-21.25L-3,-20.917L-5,-20.25L-6.666,-19.084L-7.833,-17.584L-8.416,-15.75L-8.583,-13.75L-8.5,-11.5L-8.5,-9.084L-8.166,-7.25L-7.25,-5.5L-5.833,-4.334L-4,-3.75L-5.916,-2.917L-7.583,-1.584L-8.5,-0L-8.833,2L-8.833,9.666L-8.583,11.5L-7.583,13.333L-6,14.75L-4.166,15.666L-2.416,16.166L-0.25,16.5L2.25,16.583L2.25,14.083L-0.083,14.083L-2.083,13.5L-3.916,12.666L-5.416,11.25L-5.916,9.5L-5.916,2.333L-5.583,0.5L-4.416,-1L-2.833,-1.917L-0.583,-2.334L19.834,-2.334L19.834,-4.834L0,-4.834Z"/>
                </g>
                <g transform="matrix(1,0,0,1,265.583,336.75)">
                    <path d="M0,-1.25L-0.083,1.333L-0.583,2.583L-2.083,3.917L-3.999,4.917L-5.999,5.417L-8.166,5.5L-8.166,8L-5.833,7.833L-3.749,7.5L-1.999,6.917L-0.083,6L1.584,4.667L2.584,2.917L2.917,1.083L2.917,-9.25L0,-9.25L0,-1.25Z"/>
                </g>
                <g transform="matrix(1,0,0,1,328.667,318.75)">
                    <path d="M0,-7.583L-1,-9.333L-7.834,-5.083L-7.584,-13.083L-9.5,-13.083L-9.25,-5.083L-16.167,-9.333L-17.084,-7.583L-10,-3.833L-17.084,-0L-16.167,1.667L-9.25,-2.583L-9.5,5.5L-7.584,5.5L-7.834,-2.583L-1,1.667L0,-0L-7.167,-3.833L0,-7.583Z"/>
                </g>
                <g transform="matrix(1,0,0,1,378.917,349.584)">
                    <path d="M0,-37.251L0.583,-39.084L2.166,-40.417L4.166,-41.167L6.083,-41.417L7.666,-41.501L7.666,-43.75L5.166,-43.668L3.083,-43.334L1.25,-42.834L-0.667,-41.917L-2,-40.584L-2.417,-39.834L-2.917,-37.834L-2.917,0.583L-2.667,2.083L-1.75,3.666L-0.25,4.916L1.75,5.833L3.75,6.249L6,6.499L7.666,6.499L7.666,4.249L5.583,4.166L3.75,3.749L1.833,2.999L0.333,1.583L0,0.416L0,-37.251Z"/>
                </g>
                <g transform="matrix(1,0,0,1,444.833,350)">
                    <path d="M0,-38.083L-0.5,-39.5L-2.166,-40.833L-4.166,-41.583L-6.083,-41.833L-7.583,-41.917L-7.583,-44.166L-5.166,-44.083L-3,-43.75L-1.166,-43.25L0.667,-42.333L2.084,-41L2.5,-40.25L2.917,-38.25L2.917,0.167L2.667,1.667L1.75,3.25L0.25,4.5L-1.75,5.417L-3.666,5.833L-6,6.083L-7.583,6.083L-7.583,3.833L-5.5,3.75L-3.666,3.333L-1.833,2.583L-0.333,1.167L0,-0L0,-38.083Z"/>
                </g>
                <g transform="matrix(-1,0,0,1,1007.33,101.524)">
                    <rect x="493.25" y="247.726" width="20.833" height="2.417"/>
                </g>
                <g transform="matrix(1,0,0,1,576.083,327.167)">
                    <path d="M0,-2.584L-9.916,-2.584L-9.916,-12.584L-12.5,-12.584L-12.5,-2.584L-22.5,-2.584L-22.5,0.083L-12.5,0.083L-12.5,10L-9.916,10L-9.916,0.083L0,0.083L0,-2.584Z"/>
                </g>
                <g transform="matrix(1,0,0,1,18.25,376.584)">
                    <path d="M0,28.749L2.083,28.249L4,27.333L5.75,25.999L6.75,24.499L7.417,21.999L7.417,-1.667L7.25,-3.501L6.417,-5.334L5.25,-6.751L3.417,-7.917L1.333,-8.584L-0.583,-9.001L-2.667,-9.167L-3.167,-9.167L-3.167,-6.667L-1,-6.417L1.25,-5.751L2.833,-4.751L4.083,-3.417L4.667,-1.667L4.667,21.416L4.083,23.166L2.833,24.583L1.25,25.499L-1,26.166L-3.167,26.416L-3.167,28.916L5.583,37.916L7.417,36.416L0,28.749Z"/>
                </g>
                <g transform="matrix(1,0,0,1,13.3335,369.917)">
                    <path d="M0,33.083L-2.167,32.833L-4.417,32.166L-6.083,31.25L-7.25,29.833L-7.833,28.083L-7.833,5L-7.25,3.25L-6.083,1.916L-4.417,0.916L-2.167,0.25L0,0L0,-2.5L-1.916,-2.334L-3.833,-2.167L-5.917,-1.5L-7.833,-0.5L-9.416,1L-10.25,2.75L-10.583,5L-10.583,28.083L-10.417,30L-9.583,31.833L-8.333,33.166L-6.583,34.416L-4.5,35.083L-2.583,35.416L-0.5,35.583L0,35.583L0,33.083Z"/>
                </g>
                <g transform="matrix(1,0,0,1,93,404.75)">
                    <path d="M0,-37L-7.917,-4.25L-16.083,-37L-18.917,-37L-26.833,-4.25L-35.083,-37L-37.833,-37L-28.25,0L-25.417,0L-17.583,-31.917L-9.333,0L-6.5,0L2.583,-37L0,-37Z"/>
                </g>
                <g transform="matrix(1,0,0,1,129,370.166)">
                    <path d="M0,32.251L0,16.334L16,16.334L16,14.084L0,14.084L0,0.167L17.083,0.167L17.083,-2.416L-2.75,-2.416L-2.75,34.667L17.833,34.667L17.833,32.251L0,32.251Z"/>
                </g>
                <g transform="matrix(-1,0,0,1,374.833,173.273)">
                    <rect x="186.083" y="194.56" width="2.667" height="37"/>
                </g>
                <g transform="matrix(1,0,0,1,201.666,383.249)">
                    <path d="M0,6.168L1.917,5.501L4.084,4.501L5.834,2.918L6.667,1.251L7,0.001L7,-8.416L6.667,-9.749L5.917,-11.416L4.25,-13.166L2.25,-14.332L0.167,-14.999L-2.25,-15.416L-10.916,-15.416L-10.916,-12.832L-2.666,-12.832L-0.583,-12.499L1.334,-11.749L2.917,-10.666L3.834,-9.332L4.167,-8.082L4.167,-0.332L3.417,1.334L1.917,2.501L0.167,3.418L-2.333,3.918L-10.916,3.918L-10.916,6.418L-2.833,6.418L4.75,21.584L7.75,21.584L0,6.168Z"/>
                </g>
                <g transform="matrix(1,0,0,1,270.917,404.75)">
                    <path d="M0,-37L-24,-37L-24,-34.5L-13.333,-34.5L-13.333,0L-10.667,0L-10.667,-34.5L0,-34.5L0,-37Z"/>
                </g>
                <g transform="matrix(1,0,0,1,307.25,404.75)">
                    <path d="M0,-36.75L11.417,-14.5L11.417,0L14.333,0L14.333,-14.833L25.75,-36.75L23.083,-36.75L12.833,-17.75L2.833,-36.75L0,-36.75Z"/>
                </g>
                <g transform="matrix(1,0,0,1,390,405.333)">
                    <path d="M0,-37.583L0,-7.583L-0.583,-5.75L-1.75,-4.416L-3.417,-3.5L-5.667,-2.833L-7.833,-2.583L-10.333,-2.583L-12.333,-2.916L-14.417,-3.75L-16.25,-4.916L-17.167,-6.333L-17.417,-7.333L-17.417,-37.583L-20.167,-37.583L-20.167,-7.583L-20,-5.666L-19.167,-3.833L-17.917,-2.416L-16.167,-1.25L-14.083,-0.583L-12.167,-0.166L-10.083,0L-8.25,0L-6.167,-0.083L-4.333,-0.333L-2.25,-0.916L-0.333,-1.833L1.333,-3.25L2.25,-4.833L2.75,-7L2.75,-37.583L0,-37.583Z"/>
                </g>
                <g transform="matrix(-1,0,0,1,885,173.273)">
                    <rect x="441.167" y="194.56" width="2.666" height="37"/>
                </g>
                <g transform="matrix(1,0,0,1,501.333,369.499)">
                    <path d="M0,32.668L-1.916,32.334L-3.833,31.501L-5.416,30.168L-6.083,29.084L-6.333,28.084L-6.333,4.584L-5.583,2.751L-4.25,1.418L-2.416,0.584L0,-0.082L1.5,-0.166L1.5,-2.666L-0.5,-2.666L-2.416,-2.332L-4.5,-1.749L-6.333,-0.749L-7.916,0.834L-8.75,2.584L-9.083,4.251L-9.083,28.418L-8.833,29.751L-8.166,31.501L-6.916,32.918L-5.083,34.084L-3.083,34.834L-1.083,35.168L0.917,35.334L1.5,35.334L1.5,32.834L0,32.668Z"/>
                </g>
                <g transform="matrix(1,0,0,1,515,398.833)">
                    <path d="M0,-26L-0.667,-27.833L-1.833,-29.416L-3.583,-30.583L-5.583,-31.416L-7.583,-31.833L-9.667,-32L-10.5,-32L-10.5,-29.5L-8.25,-29.25L-6,-28.583L-4.417,-27.666L-3.167,-26.25L-2.667,-24.75L-2.667,-1.25L-3.417,0.584L-4.75,1.917L-6.583,2.75L-9,3.334L-10.5,3.5L-10.5,6L-8.5,5.917L-6.667,5.667L-4.583,5.084L-2.667,4.084L-1.083,2.584L-0.167,0.75L0.083,-0.916L0.083,-25.083L0,-26Z"/>
                </g>
                <g transform="matrix(-1,0,0,1,1109.75,173.273)">
                    <rect x="553.5" y="194.56" width="2.75" height="37"/>
                </g>
                <g transform="matrix(1,0,0,1,576.167,374.249)">
                    <path d="M0,9.668L0,0.584L-0.334,-0.749L-1.084,-2.416L-2.667,-4.166L-4.75,-5.332L-6.834,-5.999L-9.25,-6.416L-18,-6.416L-18,-3.832L-9.584,-3.832L-7.5,-3.499L-5.667,-2.749L-4,-1.666L-3.167,-0.332L-2.917,0.918L-2.917,9.334L-3.584,11.001L-5,12.168L-6.834,13.084L-9.334,13.584L-18,13.584L-18,16.084L-9.334,16.084L-7.667,15.918L-5.584,15.418L-3.417,14.501L-1.5,13.001L-0.584,11.501L0,9.668Z"/>
                </g>
                <g transform="matrix(1,0,0,1,15.3335,458.833)">
                    <path d="M0,-11.083L0,-24.083L0.5,-25.916L2,-27.333L3.917,-28.083L7.75,-28.25L7.75,-30.75L4.833,-30.75L2.667,-30.5L0.75,-29.833L-0.75,-28.833L-2.167,-27.166L-2.833,-25L-2.917,-21L-2.917,-11.666L-3.25,-9.833L-4.333,-8.25L-6,-7.25L-7.833,-6.833L-10,-6.833L-10,-4.166L-7.833,-4.166L-6,-3.75L-4.333,-2.666L-3.25,-1.25L-2.917,0.584L-2.917,13.084L-2.667,14.917L-1.667,16.917L0,18.417L1.667,19.167L3.667,19.667L7.75,19.667L7.75,17.167L4.833,17.167L2.75,16.75L1.083,15.584L0.083,13.917L0,11.584L0,0.084L-0.25,-1.833L-1.25,-3.416L-2.833,-4.666L-4.833,-5.5L-2.833,-6.333L-1.25,-7.5L-0.25,-9.083L0,-11.083Z"/>
                </g>
                <g transform="matrix(1,0,0,1,74.25,458.833)">
                    <path d="M0,-11.083L0,-24.083L-0.5,-25.916L-2,-27.333L-3.917,-28.083L-7.75,-28.25L-7.75,-30.75L-4.833,-30.75L-2.667,-30.5L-0.75,-29.833L0.75,-28.833L2.167,-27.166L2.833,-25L2.917,-22.5L2.917,-11.333L3.417,-9.5L4.583,-8.083L6.333,-7.083L8.25,-6.833L10,-6.833L10,-4.166L7.833,-4.166L6,-3.75L4.333,-2.666L3.25,-1.25L2.917,0.584L2.917,13.084L2.667,14.917L1.667,16.917L0,18.417L-1.667,19.167L-3.667,19.667L-7.75,19.667L-7.75,17.167L-4.833,17.167L-2.75,16.75L-1.083,15.584L-0.083,13.917L0,11.584L0,0.084L0.25,-1.833L1.25,-3.416L2.833,-4.666L4.833,-5.5L2.833,-6.333L1.25,-7.5L0.25,-9.083L0,-11.083Z"/>
                </g>
                <g transform="matrix(-1,0,0,1,273.166,307.44)">
                    <rect x="135.25" y="121.31" width="2.666" height="49.333"/>
                </g>
                <g transform="matrix(1,0,0,1,184.833,429.167)">
                    <path d="M0,36.666L2.667,36.666L12.833,3.75L13,3.75L18.75,23.333L8.833,23.333L8.083,25.5L19.5,25.5L23.083,36.666L25.917,36.666L14.417,0L11.5,0L0,36.666Z"/>
                </g>
                <g transform="matrix(1,0,0,1,258,447.5)">
                    <path d="M0,0.083L-1.917,-0.5L-3.75,-1.25L-5.417,-1.917L-7.417,-3.083L-8.834,-4.917L-9.584,-6.833L-10,-9.25L-10,-11.25L-9.584,-13.667L-8.834,-15.5L-7.167,-17.25L-5,-18.25L-3.167,-18.75L-1.083,-18.917L1,-18.917L3.167,-18.833L5.167,-18.667L7.083,-18.167L9.167,-17.167L10.75,-15.583L11.583,-13.917L12,-11.833L12,-8.167L9.25,-8.167L9.25,-11.083L9.167,-12.583L8.417,-14.083L7.5,-14.917L5.667,-15.833L3.583,-16.333L1,-16.417L-0.917,-16.417L-3.167,-16.083L-5.167,-15.167L-6.667,-13.667L-7.25,-11.583L-7.25,-9.75L-7.167,-7.917L-6.167,-6.167L-4.25,-4.917L-2.417,-4L0,-3L2,-2.25L4.417,-1.25L6.583,-0.333L8.333,0.5L10.25,1.75L11.417,3.25L12,4.583L12.167,5.583L12.167,12.583L12,13.5L11.25,15.167L9.833,16.667L7.75,17.833L5.917,18.5L3.667,18.833L1.083,19L-1.417,18.917L-3.75,18.583L-5.75,17.917L-7.834,16.75L-9.25,15.167L-10.167,13.25L-10.334,12.083L-10.334,7.75L-7.584,7.75L-7.584,11.75L-7.25,13L-6.084,14.667L-4.167,15.833L-2,16.333L0.167,16.5L2.5,16.5L4.5,16.25L6.5,15.583L8.25,14.417L9.167,13.083L9.417,12L9.5,6.167L8.917,4.75L7.5,3.5L5.833,2.417L3.583,1.5L1.583,0.667L0,0.083Z"/>
                </g>
                <g transform="matrix(1,0,0,1,0,295.607)">
                    <rect x="308.75" y="133.56" width="2.917" height="36.666"/>
                </g>
                <g transform="matrix(1,0,0,1,331.5,459.333)">
                    <path d="M0,-23.666L0,-0.083L-0.333,1.417L-1.167,3.167L-2.917,4.834L-5,5.834L-7.167,6.334L-9,6.5L-18,6.5L-18,4.25L-9.667,4.25L-7.583,4L-5.5,3.084L-4.083,1.834L-3.167,0.417L-2.917,-0.75L-2.917,-23.333L-3.417,-24.916L-4.833,-26.416L-6.667,-27.333L-8.5,-27.833L-18,-27.916L-18,-30.166L-9.667,-30.166L-7.75,-30.083L-5.583,-29.666L-3.417,-28.75L-1.5,-27.333L-0.5,-25.75L0,-23.666Z"/>
                </g>
                <g transform="matrix(1,0,0,1,373.417,447.333)">
                    <path d="M0,0.334L17.5,0.334L17.5,-1.916L0,-1.916L0,-15.833L18.5,-15.833L18.5,-18.333L-2.667,-18.333L-2.667,18.667L0,18.667L0,0.334Z"/>
                </g>
                <g transform="matrix(1,0,0,1,450.833,455.416)">
                    <path d="M0,-15.749L2.584,-15.749L2.584,-19.999L2.334,-21.749L1.334,-23.666L-0.25,-25.166L-2.166,-26.083L-4.75,-26.666L-6.833,-26.833L-9.333,-26.833L-11.416,-26.666L-13.25,-26.333L-15.416,-25.499L-17,-24.583L-18.416,-22.999L-19.083,-21.499L-19.333,-20.083L-19.333,4.584L-18.666,6.584L-17.5,8.167L-15.916,9.334L-13.666,10.334L-11.666,10.751L-9.416,11.084L-6.583,11.084L-4.333,10.834L-2.333,10.417L-0.25,9.501L1.5,7.917L2.334,6.251L2.584,4.167L2.584,-6.749L-8.333,-6.749L-8.333,-4.333L0.25,-4.333L0.25,3.751L-0.333,5.751L-2,7.167L-3.666,8.001L-6,8.417L-8,8.584L-10,8.501L-12.25,8.084L-14.083,7.417L-15.5,6.084L-16.25,4.167L-16.333,3.334L-16.333,-19.583L-15.916,-21.166L-14.5,-22.749L-12.416,-23.749L-9.916,-24.249L-7.583,-24.333L-5.5,-24.083L-3.416,-23.666L-1.5,-22.833L-0.25,-21.499L0,-20.166L0,-15.749Z"/>
                </g>
                <g transform="matrix(1,0,0,1,512.167,466)">
                    <path d="M0,-37L0,-21L-17,-21L-17,-37L-19.75,-37L-19.75,0L-17,0L-17,-18.5L0,-18.5L0,0L2.75,0L2.75,-37L0,-37Z"/>
                </g>
                <g transform="matrix(1,0,0,1,574.75,466.75)">
                    <path d="M0,-37.75L-2.667,-37.75L-2.667,-7L-3.167,-5.333L-4.583,-3.917L-6.5,-3L-8.583,-2.667L-10.5,-2.583L-12.75,-2.917L-14.833,-3.667L-16.333,-5.083L-16.917,-7L-16.917,-10.583L-19.833,-10.583L-19.833,-7.583L-19.667,-5.667L-18.833,-3.667L-17.417,-2.083L-15.917,-1.083L-13.75,-0.333L-11,0L-8.833,0L-6.917,-0.25L-4.583,-0.75L-2.833,-1.583L-1.25,-3L-0.25,-4.75L0,-6.333L0,-37.75Z"/>
                </g>
                <g transform="matrix(1,0,0,1,9.8335,508.75)">
                    <path d="M0,0L0,-0.5L14.5,-18.5L11.167,-18.5L-2.75,-1L-4.416,-1L-4.416,-18.5L-7.166,-18.5L-7.166,18.5L-4.416,18.5L-4.416,1.167L-2.75,1.167L12.75,18.5L15.833,18.5L0,0Z"/>
                </g>
                <g transform="matrix(1,0,0,1,68.25,492.5)">
                    <path d="M0,32.5L0,-2.25L-2.667,-2.25L-2.667,34.75L16.917,34.75L16.917,32.5L0,32.5Z"/>
                </g>
                <g transform="matrix(-1,0,0,1,273.166,408.273)">
                    <rect x="135.25" y="92.81" width="2.666" height="5.5"/>
                </g>
                <g transform="matrix(-1,0,0,1,273.166,451.024)">
                    <rect x="135.25" y="71.393" width="2.666" height="5.583"/>
                </g>
                <g transform="matrix(-1,0,0,1,192.916,501.583)">
                    <path d="M-2.667,-10.833L0,-10.833L-0.334,0L-2.417,0L-2.667,-10.833Z"/>
                </g>
                <g transform="matrix(-1,0,0,1,199.916,501.583)">
                    <path d="M-2.667,-10.833L0,-10.833L-0.25,0L-2.334,0L-2.667,-10.833Z"/>
                </g>
                <g transform="matrix(1,0,0,1,265.166,524.75)">
                    <path d="M0,-31.917L-16.167,-31.917L-16.167,-34.417L3.833,-34.417L3.833,-31.917L-13.333,0.083L4.75,0.083L4.75,2.5L-17.167,2.5L-17.167,0.083L0,-31.917Z"/>
                </g>
                <g transform="matrix(1,0,0,1,332.5,527.083)">
                    <path d="M0,-36.75L-3,-36.75L-12.417,-21L-21.75,-36.75L-24.833,-36.75L-13.917,-18.333L-24.833,0L-21.75,0L-12.417,-15.75L-3,0L0,0L-10.833,-18.333L0,-36.75Z"/>
                </g>
                <g transform="matrix(1,0,0,1,389.667,516.584)">
                    <path d="M0,-15.751L2.583,-15.751L2.583,-19.917L2.333,-21.751L1.333,-23.667L-0.334,-25.167L-2.167,-26.084L-4.75,-26.584L-6.834,-26.834L-9.334,-26.834L-11.417,-26.584L-13.25,-26.334L-15.5,-25.501L-17.084,-24.501L-18.417,-23.001L-19.167,-21.501L-19.334,-20.084L-19.334,4.583L-19.167,5.583L-18.75,6.583L-17.5,8.166L-15.917,9.333L-13.667,10.333L-11.667,10.749L-9.417,11.083L-6.584,11.083L-4.334,10.833L-2.334,10.416L-0.25,9.499L1.5,7.916L2.333,6.333L2.583,4.249L2.583,-0.751L0.25,-0.751L0.25,4.083L-0.334,5.749L-2,7.249L-3.75,7.999L-6,8.416L-8,8.583L-10,8.499L-12.25,8.166L-14.084,7.416L-15.5,6.083L-16.25,4.249L-16.417,3.333L-16.417,-19.584L-15.917,-21.167L-14.584,-22.751L-12.917,-23.584L-10.667,-24.167L-8.334,-24.251L-6.167,-24.167L-3.834,-23.834L-1.834,-23.001L-0.5,-21.751L0,-20.167L0,-15.751Z"/>
                </g>
                <g transform="matrix(1,0,0,1,429.667,527.083)">
                    <path d="M0,-37L2.833,-37L13,-4.25L23,-37L25.583,-37L14.416,0L11.5,0L0,-37Z"/>
                </g>
                <g transform="matrix(1,0,0,1,0,418.023)">
                    <rect x="492.333" y="72.31" width="2.917" height="36.75"/>
                </g>
                <g transform="matrix(1,0,0,1,515,497.583)">
                    <path d="M0,22.25L0,17.334L-0.167,15.75L-0.75,13.917L-2,12.25L-3.667,11.167L-6.583,10.167L-4.333,9.25L-2.75,7.75L-1.75,6L-1.333,3.667L-1.333,0.25L-1.75,-2.083L-2.583,-3.916L-4.25,-5.583L-6.333,-6.666L-8.25,-7.083L-10.083,-7.25L-17.917,-7.25L-17.917,-4.916L-10.333,-4.916L-8.333,-4.583L-6.583,-3.75L-5,-2.416L-4.083,-0.25L-4.083,3.667L-4.583,5.75L-5.833,7.5L-7.5,8.584L-9.75,9.167L-17.917,9.167L-17.917,11.5L-10.083,11.5L-8.25,11.75L-6.167,12.334L-4.583,13.334L-3.333,14.834L-2.75,17.084L-2.75,21.167L-3.083,23.25L-4.333,25.25L-6.083,26.334L-7.917,26.917L-10.333,27.167L-17.917,27.167L-17.917,29.5L-10.333,29.5L-8.417,29.417L-6.167,29.084L-4.417,28.5L-2.75,27.584L-1.333,26L-0.417,23.917L0,22.25Z"/>
                </g>
                <g transform="matrix(1,0,0,1,573.417,490.25)">
                    <path d="M0,37L2.75,37L2.75,0L0,0L0,31.583L-17.167,0L-19.917,0L-19.917,37L-17.167,37L-17.167,5.583L0,37Z"/>
                </g>
                <g transform="matrix(1,0,0,1,25.6671,588.418)">
                    <path d="M0,-37L-11.5,-8.667L-23,-37L-25.667,-37L-25.667,0L-23,0L-23,-30.5L-12.667,-5.667L-10.334,-5.667L0,-30.5L0,0L2.749,0L2.749,-37L0,-37Z" style="fill-rule:nonzero;"/>
                </g>
                <g transform="matrix(1,0,0,1,85.5835,581.167)">
                    <path d="M0,-21.334L-20.416,-12L-20.416,-9.334L0,0L0,-2.75L-17.333,-10.667L0,-18.667L0,-21.334Z"/>
                </g>
                <g transform="matrix(1,0,0,1,126.417,559.833)">
                    <path d="M0,21.334L20.333,12L20.333,9.334L0,0L0,2.667L17.25,10.667L0,18.584L0,21.334Z"/>
                </g>
                <g transform="matrix(-1,0,0,1,394.582,573.524)">
                    <rect x="195.916" y="10.226" width="2.75" height="5.417"/>
                </g>
                <g transform="matrix(1,0,0,1,208.667,573.749)">
                    <path d="M0,-15.332L0,-8.749L-0.333,-7.332L-1.417,-5.582L-3,-4.166L-4.75,-2.999L-6.5,-1.999L-8.167,-1.082L-9.667,0.418L-10,1.334L-10,6.834L-12.75,6.834L-12.75,0.584L-12.25,-0.666L-11.167,-2.082L-9.583,-3.332L-7.75,-4.332L-5.833,-5.332L-4.251,-6.416L-3.083,-7.749L-2.667,-8.832L-2.667,-15.416L-3.333,-16.999L-4.751,-18.166L-6.751,-19.082L-8.751,-19.499L-11.001,-19.582L-13.167,-19.499L-15.167,-19.082L-17.167,-18.249L-18.501,-16.999L-19.083,-15.416L-19.083,-10.666L-21.833,-10.666L-21.833,-15.332L-21.667,-16.832L-20.751,-18.832L-19.251,-20.249L-17.501,-21.166L-15.167,-21.832L-13.251,-22.082L-10.917,-22.166L-8.584,-22.082L-6.667,-21.832L-4.334,-21.166L-2.584,-20.249L-1.084,-18.666L-0.584,-17.916L-0.167,-16.749L-0.001,-15.332L0,-15.332Z"/>
                </g>
                <g transform="matrix(1,0,0,1,265.783,599.393)">
                    <path d="M0,-38.06L0,-16.381L-1.834,-15.172L-3.746,-14.289L-5.58,-13.707L-7.56,-13.338L-9.695,-13.372L-11.495,-13.887L-13.115,-15.172L-13.732,-17.05L-13.732,-38.06L-16.449,-38.06L-16.449,0L-13.732,0L-13.732,-11.83L-11.752,-10.989L-9.661,-10.732L-7.123,-10.835L-5.212,-11.169L-3.377,-11.795L-1.499,-12.712L0,-13.741L0,-11.058L2.718,-11.058L2.718,-38.06L0,-38.06Z" style="fill-rule:nonzero;"/>
                </g>
            </g>
        </g>
    </g>
</svg>
