<?xml version="1.0" encoding="UTF-8" standalone="no"?>
<!DOCTYPE svg PUBLIC "-//W3C//DTD SVG 1.1//EN" "http://www.w3.org/Graphics/SVG/1.1/DTD/svg11.dtd">
<svg width="100%" height="100%" viewBox="0 0 489 336" version="1.1" xmlns="http://www.w3.org/2000/svg" xmlns:xlink="http://www.w3.org/1999/xlink" xml:space="preserve" xmlns:serif="http://www.serif.com/" style="fill-rule:evenodd;clip-rule:evenodd;stroke-miterlimit:10;">
    <g transform="matrix(1.03216,0,0,1.05235,0,0)">
        <rect id="Artboard1" x="0" y="0" width="473.667" height="319" style="fill:none;"/>
        <g id="Artboard11" serif:id="Artboard1">
            <g id="Layer-1" serif:id="Layer 1" transform="matrix(0.968842,0,0,0.950253,7.72645,5.71118)">
                <g transform="matrix(1,0,0,1,128.957,261.574)">
                    <path d="M0,-5.659L0,0L330.164,0L330.164,-5.659" style="fill:none;fill-rule:nonzero;stroke:rgb(35,31,32);stroke-width:0.5px;"/>
                </g>
                <g>
                    <g transform="matrix(28,0,0,28,5.6191,136.806)">
                        <path d="M0.051,-0.484L0.135,-0L0.217,-0L0.486,-0.484L0.395,-0.484L0.247,-0.202C0.219,-0.147 0.206,-0.115 0.196,-0.089L0.193,-0.089C0.191,-0.116 0.185,-0.153 0.178,-0.208L0.136,-0.484L0.051,-0.484Z" style="fill-rule:nonzero;"/>
                    </g>
                    <g transform="matrix(28,0,0,28,24.2951,136.806)">
                        <path d="M0.195,-0.694C0.132,-0.61 0.065,-0.482 0.064,-0.285C0.064,-0.09 0.132,0.038 0.195,0.121L0.264,0.121C0.193,0.021 0.138,-0.107 0.138,-0.285C0.138,-0.466 0.191,-0.596 0.264,-0.694L0.195,-0.694Z" style="fill-rule:nonzero;"/>
                    </g>
                    <g transform="matrix(28,0,0,28,32.2471,136.806)">
                        <path d="M0.403,-0.075C0.411,-0.013 0.446,0.011 0.489,0.011C0.503,0.011 0.509,0.01 0.519,0.007L0.526,-0.057C0.491,-0.059 0.48,-0.08 0.48,-0.133L0.48,-0.484L0.393,-0.484L0.393,-0.187C0.393,-0.171 0.39,-0.155 0.385,-0.142C0.369,-0.103 0.327,-0.061 0.269,-0.061C0.192,-0.061 0.16,-0.123 0.16,-0.198L0.16,-0.484L0.073,-0.484L0.073,0.02C0.073,0.097 0.077,0.168 0.087,0.198L0.166,0.198C0.156,0.158 0.155,0.069 0.155,0.016L0.155,-0.044C0.176,-0.007 0.217,0.009 0.261,0.009C0.333,0.009 0.38,-0.037 0.4,-0.075L0.403,-0.075Z" style="fill-rule:nonzero;"/>
                    </g>
                    <g transform="matrix(28,0,0,28,47.7311,136.806)">
                        <path d="M0.073,-0L0.159,-0L0.159,-0.292C0.159,-0.307 0.161,-0.322 0.166,-0.335C0.18,-0.379 0.22,-0.423 0.275,-0.423C0.342,-0.423 0.376,-0.367 0.376,-0.29L0.376,-0L0.462,-0L0.462,-0.299C0.462,-0.315 0.465,-0.331 0.469,-0.343C0.484,-0.386 0.523,-0.423 0.573,-0.423C0.644,-0.423 0.678,-0.367 0.678,-0.274L0.678,-0L0.764,-0L0.764,-0.285C0.764,-0.453 0.669,-0.495 0.605,-0.495C0.559,-0.495 0.527,-0.483 0.498,-0.461C0.478,-0.446 0.459,-0.425 0.444,-0.398L0.442,-0.398C0.421,-0.455 0.371,-0.495 0.305,-0.495C0.225,-0.495 0.18,-0.452 0.153,-0.406L0.15,-0.406L0.146,-0.484L0.069,-0.484C0.072,-0.444 0.073,-0.403 0.073,-0.353L0.073,-0Z" style="fill-rule:nonzero;"/>
                    </g>
                    <g transform="matrix(28,0,0,28,71.0831,136.806)">
                        <path d="M0.088,0.121C0.152,0.036 0.219,-0.091 0.219,-0.287C0.219,-0.484 0.152,-0.612 0.088,-0.694L0.02,-0.694C0.092,-0.595 0.146,-0.467 0.146,-0.288C0.146,-0.108 0.091,0.022 0.02,0.121L0.088,0.121Z" style="fill-rule:nonzero;"/>
                    </g>
                </g>
                <g transform="matrix(24,0,0,24,74.7207,245.688)">
                    <rect x="0.03" y="-0.284" width="0.44" height="0.06" style="fill:rgb(35,31,32);fill-rule:nonzero;"/>
                </g>
                <g transform="matrix(24,0,0,24,86.7207,245.688)">
                    <path d="M0.46,-0L0.46,-0.073L0.168,-0.073L0.168,-0.075L0.22,-0.123C0.357,-0.255 0.444,-0.352 0.444,-0.472C0.444,-0.565 0.385,-0.661 0.245,-0.661C0.17,-0.661 0.106,-0.633 0.061,-0.595L0.089,-0.533C0.119,-0.558 0.168,-0.588 0.227,-0.588C0.324,-0.588 0.356,-0.527 0.356,-0.461C0.355,-0.363 0.28,-0.279 0.114,-0.121L0.045,-0.054L0.045,-0L0.46,-0Z" style="fill:rgb(35,31,32);fill-rule:nonzero;"/>
                </g>
                <g transform="matrix(24,0,0,24,86.7207,136.799)">
                    <path d="M0.262,-0.661C0.13,-0.661 0.036,-0.541 0.036,-0.323C0.038,-0.108 0.124,0.011 0.251,0.011C0.395,0.011 0.477,-0.111 0.477,-0.332C0.477,-0.539 0.399,-0.661 0.262,-0.661ZM0.257,-0.593C0.348,-0.593 0.389,-0.488 0.389,-0.328C0.389,-0.162 0.346,-0.057 0.256,-0.057C0.176,-0.057 0.124,-0.153 0.124,-0.322C0.124,-0.499 0.18,-0.593 0.257,-0.593Z" style="fill:rgb(35,31,32);fill-rule:nonzero;"/>
                </g>
                <g transform="matrix(24,0,0,24,86.7207,25.1755)">
                    <path d="M0.46,-0L0.46,-0.073L0.168,-0.073L0.168,-0.075L0.22,-0.123C0.357,-0.255 0.444,-0.352 0.444,-0.472C0.444,-0.565 0.385,-0.661 0.245,-0.661C0.17,-0.661 0.106,-0.633 0.061,-0.595L0.089,-0.533C0.119,-0.558 0.168,-0.588 0.227,-0.588C0.324,-0.588 0.356,-0.527 0.356,-0.461C0.355,-0.363 0.28,-0.279 0.114,-0.121L0.045,-0.054L0.045,-0L0.46,-0Z" style="fill:rgb(35,31,32);fill-rule:nonzero;"/>
                </g>
                <g transform="matrix(24,0,0,24,452.966,285.098)">
                    <path d="M0.042,-0.033C0.074,-0.012 0.138,0.011 0.211,0.011C0.367,0.011 0.448,-0.08 0.448,-0.184C0.448,-0.275 0.383,-0.335 0.303,-0.351L0.303,-0.353C0.383,-0.382 0.423,-0.439 0.423,-0.506C0.423,-0.585 0.365,-0.661 0.237,-0.661C0.167,-0.661 0.101,-0.636 0.067,-0.611L0.09,-0.547C0.118,-0.567 0.168,-0.59 0.22,-0.59C0.301,-0.59 0.334,-0.544 0.334,-0.492C0.334,-0.415 0.253,-0.382 0.189,-0.382L0.14,-0.382L0.14,-0.316L0.189,-0.316C0.274,-0.316 0.356,-0.277 0.357,-0.186C0.358,-0.132 0.323,-0.06 0.21,-0.06C0.149,-0.06 0.091,-0.085 0.066,-0.101L0.042,-0.033Z" style="fill-rule:nonzero;"/>
                </g>
                <g transform="matrix(24,0,0,24,287.894,285.098)">
                    <path d="M0.262,-0.661C0.13,-0.661 0.036,-0.541 0.036,-0.323C0.038,-0.108 0.124,0.011 0.251,0.011C0.395,0.011 0.477,-0.111 0.477,-0.332C0.477,-0.539 0.399,-0.661 0.262,-0.661ZM0.257,-0.593C0.348,-0.593 0.389,-0.488 0.389,-0.328C0.389,-0.162 0.346,-0.057 0.256,-0.057C0.176,-0.057 0.124,-0.153 0.124,-0.322C0.124,-0.499 0.18,-0.593 0.257,-0.593Z" style="fill-rule:nonzero;"/>
                </g>
                <g transform="matrix(24,0,0,24,116.822,285.098)">
                    <rect x="0.03" y="-0.284" width="0.44" height="0.06" style="fill-rule:nonzero;"/>
                </g>
                <g transform="matrix(24,0,0,24,128.822,285.098)">
                    <path d="M0.042,-0.033C0.074,-0.012 0.138,0.011 0.211,0.011C0.367,0.011 0.448,-0.08 0.448,-0.184C0.448,-0.275 0.383,-0.335 0.303,-0.351L0.303,-0.353C0.383,-0.382 0.423,-0.439 0.423,-0.506C0.423,-0.585 0.365,-0.661 0.237,-0.661C0.167,-0.661 0.101,-0.636 0.067,-0.611L0.09,-0.547C0.118,-0.567 0.168,-0.59 0.22,-0.59C0.301,-0.59 0.334,-0.544 0.334,-0.492C0.334,-0.415 0.253,-0.382 0.189,-0.382L0.14,-0.382L0.14,-0.316L0.189,-0.316C0.274,-0.316 0.356,-0.277 0.357,-0.186C0.358,-0.132 0.323,-0.06 0.21,-0.06C0.149,-0.06 0.091,-0.085 0.066,-0.101L0.042,-0.033Z" style="fill-rule:nonzero;"/>
                </g>
                <g>
                    <g transform="matrix(28,0,0,28,256.338,308.947)">
                        <path d="M0.417,-0.484L0.37,-0.236C0.35,-0.129 0.273,-0.059 0.213,-0.059C0.156,-0.059 0.135,-0.093 0.135,-0.143C0.135,-0.164 0.138,-0.187 0.144,-0.214L0.195,-0.484L0.112,-0.484L0.06,-0.21C0.054,-0.178 0.051,-0.152 0.051,-0.129C0.051,-0.019 0.116,0.011 0.178,0.011C0.242,0.011 0.306,-0.028 0.349,-0.091L0.351,-0.091L0.338,-0L0.413,-0C0.418,-0.04 0.425,-0.087 0.435,-0.141L0.5,-0.484L0.417,-0.484Z" style="fill-rule:nonzero;"/>
                    </g>
                    <g transform="matrix(28,0,0,28,277.002,308.947)">
                        <path d="M0.195,-0.694C0.132,-0.61 0.065,-0.482 0.064,-0.285C0.064,-0.09 0.132,0.038 0.195,0.121L0.264,0.121C0.193,0.021 0.138,-0.107 0.138,-0.285C0.138,-0.466 0.191,-0.596 0.264,-0.694L0.195,-0.694Z" style="fill-rule:nonzero;"/>
                    </g>
                    <g transform="matrix(28,0,0,28,284.954,308.947)">
                        <path d="M0.403,-0.075C0.411,-0.013 0.446,0.011 0.489,0.011C0.503,0.011 0.509,0.01 0.519,0.007L0.526,-0.057C0.491,-0.059 0.48,-0.08 0.48,-0.133L0.48,-0.484L0.393,-0.484L0.393,-0.187C0.393,-0.171 0.39,-0.155 0.385,-0.142C0.369,-0.103 0.327,-0.061 0.269,-0.061C0.192,-0.061 0.16,-0.123 0.16,-0.198L0.16,-0.484L0.073,-0.484L0.073,0.02C0.073,0.097 0.077,0.168 0.087,0.198L0.166,0.198C0.156,0.158 0.155,0.069 0.155,0.016L0.155,-0.044C0.176,-0.007 0.217,0.009 0.261,0.009C0.333,0.009 0.38,-0.037 0.4,-0.075L0.403,-0.075Z" style="fill-rule:nonzero;"/>
                    </g>
                    <g transform="matrix(28,0,0,28,300.438,308.947)">
                        <path d="M0.073,-0L0.159,-0L0.159,-0.292C0.159,-0.307 0.161,-0.322 0.166,-0.335C0.18,-0.379 0.22,-0.423 0.275,-0.423C0.342,-0.423 0.376,-0.367 0.376,-0.29L0.376,-0L0.462,-0L0.462,-0.299C0.462,-0.315 0.465,-0.331 0.469,-0.343C0.484,-0.386 0.523,-0.423 0.573,-0.423C0.644,-0.423 0.678,-0.367 0.678,-0.274L0.678,-0L0.764,-0L0.764,-0.285C0.764,-0.453 0.669,-0.495 0.605,-0.495C0.559,-0.495 0.527,-0.483 0.498,-0.461C0.478,-0.446 0.459,-0.425 0.444,-0.398L0.442,-0.398C0.421,-0.455 0.371,-0.495 0.305,-0.495C0.225,-0.495 0.18,-0.452 0.153,-0.406L0.15,-0.406L0.146,-0.484L0.069,-0.484C0.072,-0.444 0.073,-0.403 0.073,-0.353L0.073,-0Z" style="fill-rule:nonzero;"/>
                    </g>
                    <g transform="matrix(28,0,0,28,323.79,308.947)">
                        <path d="M0.088,0.121C0.152,0.036 0.219,-0.091 0.219,-0.287C0.219,-0.484 0.152,-0.612 0.088,-0.694L0.02,-0.694C0.092,-0.595 0.146,-0.467 0.146,-0.288C0.146,-0.108 0.091,0.022 0.02,0.121L0.088,0.121Z" style="fill-rule:nonzero;"/>
                    </g>
                </g>
                <g transform="matrix(1,0,0,1,114.074,238.552)">
                    <path d="M0,-220.167L-5.682,-220.167L-5.682,0L0,0" style="fill:none;fill-rule:nonzero;stroke:black;stroke-width:0.5px;"/>
                </g>
                <g transform="matrix(0,-1,-1,0,296.959,258.745)">
                    <path d="M-2.921,2.921L2.921,2.921" style="fill:none;fill-rule:nonzero;stroke:black;stroke-width:0.5px;stroke-linejoin:round;"/>
                </g>
                <g transform="matrix(1,0,0,1,108.373,128.469)">
                    <path d="M0,0L5.701,0" style="fill:none;fill-rule:nonzero;stroke:black;stroke-width:0.5px;stroke-linejoin:round;"/>
                </g>
                <g transform="matrix(-0.859329,0.511423,0.511423,0.859329,161.495,233.822)">
                    <path d="M9.716,-52.839L13.789,-52.839L14.534,2.673L10.461,2.673L9.716,-52.839Z" style="fill:rgb(255,156,0);"/>
                </g>
                <g transform="matrix(1,0,0,1,159.039,200.052)">
                    <path d="M0,11.667L2.084,9.417L4,6.417L5.084,3.084L5,0.334L4.5,-1.5L-1.832,-12.5L-3.25,-14L-5.5,-15.583L-8.916,-16.583L-12.416,-16.583L-15.666,-15.916L-19.082,-14.666L-30.332,-8.083L-28.5,-4.75L-17.666,-11L-14.75,-12.25L-11.75,-12.666L-8.75,-12.333L-6.666,-11.25L-5.332,-10L0.5,0.167L0.75,2.834L-0.166,5.5L-1.832,8L-4.75,10.5L-15.916,17L-14,20.334L-3.416,14.167L17.668,28.25L21.668,25.917L0,11.667Z" style="fill:rgb(255,156,0);"/>
                </g>
                <g transform="matrix(1,0,0,1,197.789,204.47)">
                    <path d="M0,-23.918L15.5,2.916L11.918,4.916L-3.582,-21.834L-5.666,-24.084L-8.832,-24.751L-11.916,-24.084L-14.832,-22.834L-17.75,-21.001L-19.916,-19.084L-21.582,-16.501L-21.75,-13.418L-19.832,-9.668L-23.332,-7.668L-24.916,-10.418L-25.832,-13.084L-25.75,-16.168L-24.666,-18.834L-22.666,-21.668L-20.332,-23.668L-17.416,-25.668L-14.166,-27.334L-11.332,-28.334L-8,-28.834L-5.166,-28.501L-2.25,-26.751L0,-23.918Z" style="fill:rgb(255,156,0);"/>
                </g>
                <g transform="matrix(1,0,0,1,189.457,211.219)">
                    <path d="M0,-12.25L8.332,-17.083L6.832,-19.833L-3.668,-13.833L-6,-12.083L-7.918,-9.75L-9.084,-6.833L-9.084,-3.583L-7.918,-0.833L-4.834,4.5L-2.668,6.75L0.166,7.583L3.416,7.583L6.666,6.917L9.25,5.583L11.5,4L13.75,1.667L15.582,-0.5L16.832,-2.417L14.916,-5.667L13.5,-3.25L11.416,-0.667L8.832,1.5L6.332,2.917L3.416,3.583L0.582,3.167L-1.918,1.667L-4.5,-2.833L-5.168,-5.5L-4.334,-8.333L-2.418,-10.5L0,-12.25Z" style="fill:rgb(255,156,0);"/>
                </g>
                <g transform="matrix(-0.873236,0.487297,0.487297,0.873236,231.307,195.384)">
                    <path d="M6.401,-38.498L10.505,-38.498L9.941,1.706L5.87,1.593L6.401,-38.498Z" style="fill:rgb(255,156,0);"/>
                </g>
                <g transform="matrix(-0.859329,0.511423,0.511423,0.859329,202.48,159.695)">
                    <path d="M-1.39,-10.201L2.683,-10.201L2.878,-0.425L-1.267,-0.382L-1.39,-10.201Z" style="fill:rgb(255,156,0);"/>
                </g>
                <g transform="matrix(1,0,0,1,238.537,153.552)">
                    <path d="M0,28.5L-13.414,5.084L-3.998,-0.25L-5.83,-3.416L-15.248,2L-20.164,-6.5L-23.664,-4.5L-18.748,4L-24.08,7.084L-22.33,10.25L-16.998,7.167L-3.498,30.584L-1.749,32.834L1,34.5L4,35L6.834,34.584L9.918,33.584L15.584,30.417L13.834,27.334L10.75,29L8.084,30.084L5.25,30.75L2.334,30.5L0,28.5Z" style="fill:rgb(255,156,0);"/>
                </g>
                <g transform="matrix(1,0,0,1,256.121,172.22)">
                    <path d="M0,-36.418L-2.834,-34.584L-5.084,-32.501L-7,-30.334L-9.416,-26.251L-19.664,-43.917L-23.164,-41.917L5.334,7.499L8.916,5.499L-7.084,-22.251L-5.75,-25.168L-4.084,-27.501L-2.084,-29.918L0.584,-32.168L3.5,-33.751L6.584,-34.418L9.584,-33.834L11.75,-31.834L27.166,-5.084L30.75,-7.084L15.5,-33.501L13.75,-36.001L11.166,-38.085L8.084,-38.917L5.166,-38.585L1.834,-37.417L0,-36.418Z" style="fill:rgb(255,156,0);"/>
                </g>
                <g transform="matrix(-0.866758,0.498728,0.498728,0.866758,301.492,175.16)">
                    <rect x="-30.03" y="-8.024" width="31.226" height="3.546" style="fill:rgb(255,156,0);"/>
                </g>
                <g transform="matrix(1,0,0,1,332.121,125.468)">
                    <path d="M0,-32.583L3.333,-34.5L0.25,-40L-1.417,-42.083L-4.167,-43.916L-7.5,-44.583L-10.583,-44.25L-14.333,-43.166L-17.25,-41.833L-20.417,-40L-23,-38.166L-25.167,-36.333L-27.417,-33.666L-28.75,-31.166L-29.333,-28.25L-29.083,-25.666L-28.417,-23.666L-9.917,8.25L-7.5,10.5L-4.75,11.667L-1.833,12L1.75,11.584L4.667,10.667L7.917,9.25L11.5,7.167L14.25,5.167L16.5,3.167L18.583,0.417L19.75,-2.916L19.583,-5.75L18.333,-8.666L10.167,-22.833L-4.083,-14.583L-2.333,-11.583L8.917,-18L15,-7.416L15.667,-4.416L14.583,-1.25L12.917,1L10.333,3.334L7.833,5L5.167,6.417L1.917,7.584L-0.833,8L-3.75,7.417L-6.167,5.584L-7,4.5L-24.167,-25.333L-24.75,-27.666L-24.167,-30.75L-22.083,-33.75L-19.25,-36.166L-16.25,-38L-13.5,-39.333L-10.417,-40.416L-7.333,-40.666L-4.75,-39.833L-3.333,-38.416L0,-32.583Z" style="fill:rgb(255,156,0);"/>
                </g>
                <g transform="matrix(0.867124,-0.498093,-0.498093,-0.867124,376.986,109.445)">
                    <path d="M-13.998,-2.557L-9.481,-2.557L-9.658,52.515L-14.102,52.473L-13.998,-2.557Z" style="fill:rgb(255,156,0);"/>
                </g>
                <g transform="matrix(1,0,0,1,373.121,111.052)">
                    <path d="M0,-48.75L17.667,-18.167L18.333,-16L18.583,-13L17.583,-9.583L15.583,-6.667L13.167,-4.417L10.917,-2.833L-0.75,4L-2.5,1L8.333,-5.25L10.833,-7.083L12.917,-9.75L13.833,-12.583L13.917,-15.083L13.417,-16.75L-3.5,-46.083L-5.417,-47.833L-8.333,-48.667L-11.417,-48.5L-14.167,-47.667L-26.583,-40.75L-28.25,-43.667L-17.5,-49.917L-14.75,-51.25L-11.75,-52.25L-8.333,-52.75L-4.75,-52.25L-2.25,-51L0,-48.75Z" style="fill:rgb(255,156,0);"/>
                </g>
                <g transform="matrix(1,0,0,1,405.788,62.3023)">
                    <path d="M0,1.833L-3.084,2.416L-5.917,3L-8.667,3.333L-12.084,3.166L-15.334,1.916L-17.75,0.083L-20,-2.834L-21.5,-5.417L-22.834,-8.834L-23.167,-11.917L-22.334,-15.334L-20.334,-18.25L-18.25,-20.167L-15.75,-21.917L-13,-23.667L-10.167,-25.167L-7.417,-26.334L-4.667,-27.167L-1.084,-27.5L2.166,-26.667L4.5,-25.084L6.5,-22.75L9.333,-17.834L5.833,-15.834L3.583,-19.584L2.25,-21.5L0.25,-22.917L-1.5,-23.334L-4.667,-23.084L-7.584,-22.167L-11.25,-20.417L-13.667,-18.917L-16.25,-16.75L-18.25,-14.084L-19,-11.084L-18.25,-7.834L-16.834,-5.417L-15.334,-3.167L-12.75,-1.667L-9.334,-1.417L-6.334,-1.667L-2.334,-2.167L0.75,-2.667L4.666,-3.25L8.083,-3.667L11.083,-3.917L14.5,-3.667L17.166,-2.667L18.833,-1.334L19.833,-0.167L25.083,8.916L25.5,10.166L25.833,13L25.083,16L23.416,19L21.416,21.25L18.75,23.416L15.583,25.583L12.083,27.333L8.916,28.583L5.833,29.25L2.333,29.333L-0.834,28.416L-3.334,26.5L-4.417,25.166L-7.667,19.5L-4.167,17.5L-1.084,22.583L0.166,24.083L3,25.333L6.25,25.333L9.5,24.416L12.333,23.083L15.416,21.25L17.833,19.416L20,17L21.416,14.25L21.583,11.75L21.083,10.166L16.833,2.666L15,1.25L12.25,0.583L9.25,0.583L5.666,0.916L2.416,1.416L0,1.833Z" style="fill:rgb(255,156,0);"/>
                </g>
                <g transform="matrix(-0.864522,0.502595,0.502595,0.864522,457.508,63.0809)">
                    <path d="M9.923,-52.842L14.068,-52.842L14.244,2.675L10.099,2.674L9.923,-52.842Z" style="fill:rgb(255,156,0);"/>
                </g>
                <g transform="matrix(-0.859329,0.511423,0.511423,0.859329,473.161,53.9062)">
                    <path d="M9.716,-52.839L13.789,-52.839L14.534,2.672L10.46,2.672L9.716,-52.839Z" style="fill:rgb(255,156,0);"/>
                </g>
            </g>
        </g>
    </g>
</svg>
