<?xml version="1.0" encoding="UTF-8" standalone="no"?>
<!DOCTYPE svg PUBLIC "-//W3C//DTD SVG 1.1//EN" "http://www.w3.org/Graphics/SVG/1.1/DTD/svg11.dtd">
<svg width="100%" height="100%" viewBox="0 0 476 351" version="1.1" xmlns="http://www.w3.org/2000/svg" xmlns:xlink="http://www.w3.org/1999/xlink" xml:space="preserve" xmlns:serif="http://www.serif.com/" style="fill-rule:evenodd;clip-rule:evenodd;stroke-linejoin:round;stroke-miterlimit:10;">
    <g transform="matrix(1.00452,0,0,1.09108,0,0)">
        <rect id="Artboard1" x="0" y="0" width="473.76" height="321.333" style="fill:none;"/>
        <g id="Artboard11" serif:id="Artboard1">
            <g id="Layer-1" serif:id="Layer 1" transform="matrix(0.995503,0,0,0.916523,0.732293,11.04)">
                <g transform="matrix(1,0,0,1,198.009,28.2031)">
                    <path d="M0,220.917L0,-17.083L-85.417,5L-85.417,22.584L-18.583,5.417L-18.583,220.917L-85.417,220.917L-85.417,238L68.667,238L68.667,220.917L0,220.917Z" style="fill:rgb(255,0,0);"/>
                </g>
                <g transform="matrix(1,0,0,1,377.01,27.2871)">
                    <path d="M0,226.25L-13.834,225.25L-27.25,221.833L-38.584,215.583L-48.167,198.75L-48.167,31.25L-44.75,18.917L-35.167,9.333L-23,4L-10.584,1.75L0,1.083L0,-16.5L-16.667,-15.417L-30.75,-12.417L-45.75,-5.917L-56.334,3L-63.167,13.583L-66.834,28.25L-66.834,198.333L-64.75,209L-57.334,222.083L-47.084,231.333L-32,238.25L-17.5,241.583L0,242.75L0,226.25Z" style="fill:rgb(255,0,0);"/>
                </g>
                <g transform="matrix(1,0,0,1,388.76,10.7871)">
                    <path d="M0,259.25L17.583,258.083L32,254.75L43.583,249.666L55.166,241L63.666,228.166L66.75,214.833L66.75,47.75L64.416,32.917L56.416,19.5L45.666,10.583L30.666,4.083L16.666,1.083L0,0L0,17.583L13.916,18.583L28.25,22.417L39.166,28.583L48.166,45.5L48.166,212.333L45,224.833L34.5,235L22.083,240L8.25,242.416L0,242.75L0,259.25Z" style="fill:rgb(255,0,0);"/>
                </g>
                <g transform="matrix(24,0,0,24,435.698,306.161)">
                    <path d="M0.236,-0L0.321,-0L0.321,-0.65L0.246,-0.65L0.104,-0.574L0.121,-0.507L0.234,-0.568L0.236,-0.568L0.236,-0Z" style="fill-rule:nonzero;"/>
                </g>
                <g transform="matrix(24,0,0,24,448.01,306.161)">
                    <path d="M0.255,0.011C0.379,0.011 0.476,-0.065 0.476,-0.178C0.476,-0.257 0.426,-0.314 0.345,-0.346L0.345,-0.349C0.425,-0.387 0.452,-0.446 0.452,-0.501C0.452,-0.582 0.389,-0.661 0.263,-0.661C0.149,-0.661 0.062,-0.591 0.062,-0.488C0.062,-0.432 0.093,-0.376 0.165,-0.342L0.166,-0.339C0.086,-0.305 0.037,-0.247 0.037,-0.165C0.037,-0.07 0.119,0.011 0.255,0.011ZM0.257,-0.053C0.174,-0.053 0.124,-0.111 0.127,-0.177C0.127,-0.239 0.168,-0.289 0.244,-0.311C0.332,-0.286 0.387,-0.248 0.387,-0.169C0.387,-0.102 0.336,-0.053 0.257,-0.053ZM0.258,-0.598C0.337,-0.598 0.368,-0.544 0.368,-0.492C0.368,-0.433 0.325,-0.393 0.269,-0.374C0.194,-0.394 0.145,-0.429 0.145,-0.494C0.145,-0.55 0.185,-0.598 0.258,-0.598Z" style="fill-rule:nonzero;"/>
                </g>
                <g transform="matrix(24,0,0,24,100.28,306.161)">
                    <path d="M0.236,-0L0.321,-0L0.321,-0.65L0.246,-0.65L0.104,-0.574L0.121,-0.507L0.234,-0.568L0.236,-0.568L0.236,-0Z" style="fill-rule:nonzero;"/>
                </g>
                <g transform="matrix(24,0,0,24,112.592,306.161)">
                    <path d="M0.4,-0L0.4,-0.177L0.491,-0.177L0.491,-0.246L0.4,-0.246L0.4,-0.65L0.305,-0.65L0.015,-0.235L0.015,-0.177L0.317,-0.177L0.317,-0L0.4,-0ZM0.104,-0.246L0.104,-0.248L0.263,-0.469C0.281,-0.499 0.297,-0.527 0.317,-0.565L0.32,-0.565C0.318,-0.531 0.317,-0.497 0.317,-0.463L0.317,-0.246L0.104,-0.246Z" style="fill-rule:nonzero;"/>
                </g>
                <g>
                    <g transform="matrix(28,0,0,28,242.391,317.76)">
                        <path d="M0.417,-0.484L0.37,-0.236C0.35,-0.129 0.273,-0.059 0.213,-0.059C0.156,-0.059 0.135,-0.093 0.135,-0.143C0.135,-0.164 0.138,-0.187 0.144,-0.214L0.195,-0.484L0.112,-0.484L0.06,-0.21C0.054,-0.178 0.051,-0.152 0.051,-0.129C0.051,-0.019 0.116,0.011 0.178,0.011C0.242,0.011 0.306,-0.028 0.349,-0.091L0.351,-0.091L0.338,-0L0.413,-0C0.418,-0.04 0.425,-0.087 0.435,-0.141L0.5,-0.484L0.417,-0.484Z" style="fill-rule:nonzero;"/>
                    </g>
                    <g transform="matrix(28,0,0,28,263.055,317.76)">
                        <path d="M0.195,-0.694C0.132,-0.61 0.065,-0.482 0.064,-0.285C0.064,-0.09 0.132,0.038 0.195,0.121L0.264,0.121C0.193,0.021 0.138,-0.107 0.138,-0.285C0.138,-0.466 0.191,-0.596 0.264,-0.694L0.195,-0.694Z" style="fill-rule:nonzero;"/>
                    </g>
                    <g transform="matrix(28,0,0,28,271.007,317.76)">
                        <path d="M0.403,-0.075C0.411,-0.013 0.446,0.011 0.489,0.011C0.503,0.011 0.509,0.01 0.519,0.007L0.526,-0.057C0.491,-0.059 0.48,-0.08 0.48,-0.133L0.48,-0.484L0.393,-0.484L0.393,-0.187C0.393,-0.171 0.39,-0.155 0.385,-0.142C0.369,-0.103 0.327,-0.061 0.269,-0.061C0.192,-0.061 0.16,-0.123 0.16,-0.198L0.16,-0.484L0.073,-0.484L0.073,0.02C0.073,0.097 0.077,0.168 0.087,0.198L0.166,0.198C0.156,0.158 0.155,0.069 0.155,0.016L0.155,-0.044C0.176,-0.007 0.217,0.009 0.261,0.009C0.333,0.009 0.38,-0.037 0.4,-0.075L0.403,-0.075Z" style="fill-rule:nonzero;"/>
                    </g>
                    <g transform="matrix(28,0,0,28,286.491,317.76)">
                        <path d="M0.073,-0L0.159,-0L0.159,-0.292C0.159,-0.307 0.161,-0.322 0.166,-0.335C0.18,-0.379 0.22,-0.423 0.275,-0.423C0.342,-0.423 0.376,-0.367 0.376,-0.29L0.376,-0L0.462,-0L0.462,-0.299C0.462,-0.315 0.465,-0.331 0.469,-0.343C0.484,-0.386 0.523,-0.423 0.573,-0.423C0.644,-0.423 0.678,-0.367 0.678,-0.274L0.678,-0L0.764,-0L0.764,-0.285C0.764,-0.453 0.669,-0.495 0.605,-0.495C0.559,-0.495 0.527,-0.483 0.498,-0.461C0.478,-0.446 0.459,-0.425 0.444,-0.398L0.442,-0.398C0.421,-0.455 0.371,-0.495 0.305,-0.495C0.225,-0.495 0.18,-0.452 0.153,-0.406L0.15,-0.406L0.146,-0.484L0.069,-0.484C0.072,-0.444 0.073,-0.403 0.073,-0.353L0.073,-0Z" style="fill-rule:nonzero;"/>
                    </g>
                    <g transform="matrix(28,0,0,28,309.843,317.76)">
                        <path d="M0.088,0.121C0.152,0.036 0.219,-0.091 0.219,-0.287C0.219,-0.484 0.152,-0.612 0.088,-0.694L0.02,-0.694C0.092,-0.595 0.146,-0.467 0.146,-0.288C0.146,-0.108 0.091,0.022 0.02,0.121L0.088,0.121Z" style="fill-rule:nonzero;"/>
                    </g>
                </g>
                <g transform="matrix(24,0,0,24,81.4639,18.7764)">
                    <path d="M0.433,-0.65L0.122,-0.65L0.08,-0.338C0.104,-0.341 0.133,-0.345 0.17,-0.345C0.3,-0.345 0.356,-0.285 0.357,-0.201C0.357,-0.114 0.286,-0.06 0.203,-0.06C0.144,-0.06 0.091,-0.08 0.064,-0.096L0.042,-0.029C0.073,-0.009 0.133,0.011 0.204,0.011C0.345,0.011 0.446,-0.084 0.446,-0.211C0.446,-0.293 0.404,-0.349 0.353,-0.378C0.313,-0.402 0.263,-0.413 0.213,-0.413C0.189,-0.413 0.175,-0.411 0.16,-0.409L0.185,-0.576L0.433,-0.576L0.433,-0.65Z" style="fill-rule:nonzero;"/>
                </g>
                <g transform="matrix(24,0,0,24,81.4639,270.257)">
                    <path d="M0.46,-0L0.46,-0.073L0.168,-0.073L0.168,-0.075L0.22,-0.123C0.357,-0.255 0.444,-0.352 0.444,-0.472C0.444,-0.565 0.385,-0.661 0.245,-0.661C0.17,-0.661 0.106,-0.633 0.061,-0.595L0.089,-0.533C0.119,-0.558 0.168,-0.588 0.227,-0.588C0.324,-0.588 0.356,-0.527 0.356,-0.461C0.355,-0.363 0.28,-0.279 0.114,-0.121L0.045,-0.054L0.045,-0L0.46,-0Z" style="fill-rule:nonzero;"/>
                </g>
                <g>
                    <g transform="matrix(28,0,0,28,13.2778,145.62)">
                        <path d="M0.051,-0.484L0.135,-0L0.217,-0L0.486,-0.484L0.395,-0.484L0.247,-0.202C0.219,-0.147 0.206,-0.115 0.196,-0.089L0.193,-0.089C0.191,-0.116 0.185,-0.153 0.178,-0.208L0.136,-0.484L0.051,-0.484Z" style="fill-rule:nonzero;"/>
                    </g>
                    <g transform="matrix(28,0,0,28,31.9538,145.62)">
                        <path d="M0.195,-0.694C0.132,-0.61 0.065,-0.482 0.064,-0.285C0.064,-0.09 0.132,0.038 0.195,0.121L0.264,0.121C0.193,0.021 0.138,-0.107 0.138,-0.285C0.138,-0.466 0.191,-0.596 0.264,-0.694L0.195,-0.694Z" style="fill-rule:nonzero;"/>
                    </g>
                    <g transform="matrix(28,0,0,28,39.9058,145.62)">
                        <path d="M0.403,-0.075C0.411,-0.013 0.446,0.011 0.489,0.011C0.503,0.011 0.509,0.01 0.519,0.007L0.526,-0.057C0.491,-0.059 0.48,-0.08 0.48,-0.133L0.48,-0.484L0.393,-0.484L0.393,-0.187C0.393,-0.171 0.39,-0.155 0.385,-0.142C0.369,-0.103 0.327,-0.061 0.269,-0.061C0.192,-0.061 0.16,-0.123 0.16,-0.198L0.16,-0.484L0.073,-0.484L0.073,0.02C0.073,0.097 0.077,0.168 0.087,0.198L0.166,0.198C0.156,0.158 0.155,0.069 0.155,0.016L0.155,-0.044C0.176,-0.007 0.217,0.009 0.261,0.009C0.333,0.009 0.38,-0.037 0.4,-0.075L0.403,-0.075Z" style="fill-rule:nonzero;"/>
                    </g>
                    <g transform="matrix(28,0,0,28,55.3898,145.62)">
                        <path d="M0.073,-0L0.159,-0L0.159,-0.292C0.159,-0.307 0.161,-0.322 0.166,-0.335C0.18,-0.379 0.22,-0.423 0.275,-0.423C0.342,-0.423 0.376,-0.367 0.376,-0.29L0.376,-0L0.462,-0L0.462,-0.299C0.462,-0.315 0.465,-0.331 0.469,-0.343C0.484,-0.386 0.523,-0.423 0.573,-0.423C0.644,-0.423 0.678,-0.367 0.678,-0.274L0.678,-0L0.764,-0L0.764,-0.285C0.764,-0.453 0.669,-0.495 0.605,-0.495C0.559,-0.495 0.527,-0.483 0.498,-0.461C0.478,-0.446 0.459,-0.425 0.444,-0.398L0.442,-0.398C0.421,-0.455 0.371,-0.495 0.305,-0.495C0.225,-0.495 0.18,-0.452 0.153,-0.406L0.15,-0.406L0.146,-0.484L0.069,-0.484C0.072,-0.444 0.073,-0.403 0.073,-0.353L0.073,-0Z" style="fill-rule:nonzero;"/>
                    </g>
                    <g transform="matrix(28,0,0,28,78.7418,145.62)">
                        <path d="M0.088,0.121C0.152,0.036 0.219,-0.091 0.219,-0.287C0.219,-0.484 0.152,-0.612 0.088,-0.694L0.02,-0.694C0.092,-0.595 0.146,-0.467 0.146,-0.288C0.146,-0.108 0.091,0.022 0.02,0.121L0.088,0.121Z" style="fill-rule:nonzero;"/>
                    </g>
                </g>
                <g transform="matrix(0,-1,-1,0,367.005,279.718)">
                    <path d="M-2.83,2.83L2.83,2.83" style="fill:none;fill-rule:nonzero;stroke:black;stroke-width:0.5px;"/>
                </g>
                <g transform="matrix(0,-1,-1,0,283.172,279.718)">
                    <path d="M-2.83,2.83L2.83,2.83" style="fill:none;fill-rule:nonzero;stroke:black;stroke-width:0.5px;"/>
                </g>
                <g transform="matrix(0,-1,-1,0,199.256,279.718)">
                    <path d="M-2.83,2.83L2.83,2.83" style="fill:none;fill-rule:nonzero;stroke:black;stroke-width:0.5px;"/>
                </g>
                <g transform="matrix(1,0,0,1,112.592,282.548)">
                    <path d="M0,-5.659L0,0L335.417,0L335.417,-5.659" style="fill:none;fill-rule:nonzero;stroke:black;stroke-width:0.5px;"/>
                </g>
                <g transform="matrix(1,0,0,1,101.385,95.7036)">
                    <path d="M0,0L5.229,0" style="fill:none;fill-rule:nonzero;stroke:black;stroke-width:0.5px;"/>
                </g>
                <g transform="matrix(1,0,0,1,101.385,179.537)">
                    <path d="M0,0L5.229,0" style="fill:none;fill-rule:nonzero;stroke:black;stroke-width:0.5px;"/>
                </g>
                <g transform="matrix(1,0,0,1,106.831,263.37)">
                    <path d="M0,-251.583L-5.661,-251.583L-5.661,0L0,0" style="fill:none;fill-rule:nonzero;stroke:black;stroke-width:0.5px;"/>
                </g>
            </g>
        </g>
    </g>
</svg>
